<svg version="1.1" xmlns="http://www.w3.org/2000/svg" viewBox="0 0 968.4999999999999 459.70370144314256" width="968.4999999999999" height="459.70370144314256">
  <!-- svg-source:excalidraw -->
  
  <defs>
    <style class="style-fonts">
      @font-face {
        font-family: "Virgil";
        src: url("https://excalidraw.com/Virgil.woff2");
      }
      @font-face {
        font-family: "Cascadia";
        src: url("https://excalidraw.com/Cascadia.woff2");
      }
      @font-face {
        font-family: "Assistant";
        src: url("https://excalidraw.com/Assistant-Regular.woff2");
      }
    </style>
    
  </defs>
  <rect x="0" y="0" width="968.4999999999999" height="459.70370144314256" fill="#2a2631"></rect><g transform="translate(707.0138888888888 10) rotate(0 46.69091033935547 12)"><text x="0" y="19.3125" font-family="Cascadia, Segoe UI Emoji" font-size="20px" fill="#a5d8ff" text-anchor="start" style="white-space: pre;" direction="ltr" dominant-baseline="alphabetic">BSP-tree</text></g><g stroke-linecap="round" transform="translate(692.0138888888888 111) rotate(0 66 34)"><path d="M17 0 C47.26 -0.12, 72.77 -1.59, 115 0 M17 0 C40.89 -2.73, 65.8 -2.13, 115 0 M115 0 C123.72 -0.18, 129.63 6.17, 132 17 M115 0 C121.81 3.86, 127.6 9.27, 132 17 M132 17 C135.1 29.35, 128.67 47.71, 132 51 M132 17 C133.07 30.66, 133.27 39.56, 132 51 M132 51 C133.05 64.31, 124.3 69.03, 115 68 M132 51 C129.31 64.46, 125.13 71.43, 115 68 M115 68 C84.53 71.33, 53.43 71.09, 17 68 M115 68 C88.74 66.05, 66.22 67.27, 17 68 M17 68 C9.37 69.02, 3.3 65.76, 0 51 M17 68 C7.43 64.49, -0.63 61.29, 0 51 M0 51 C-3.22 40.82, 0.12 35.94, 0 17 M0 51 C1.79 41.88, 0.68 29.25, 0 17 M0 17 C-1.6 6.65, 2.6 -0.86, 17 0 M0 17 C-3.59 7.85, 1.5 1.02, 17 0" stroke="#b2f2bb" stroke-width="2" fill="none"></path></g><g transform="translate(697.1502528720431 125.79999999999995) rotate(0 60.8636360168457 19.200000000000045)"><text x="60.8636360168457" y="15.45" font-family="Cascadia, Segoe UI Emoji" font-size="16px" fill="#b2f2bb" text-anchor="middle" style="white-space: pre;" direction="ltr" dominant-baseline="alphabetic">ROOT_NODE </text><text x="60.8636360168457" y="34.65" font-family="Cascadia, Segoe UI Emoji" font-size="16px" fill="#b2f2bb" text-anchor="middle" style="white-space: pre;" direction="ltr" dominant-baseline="alphabetic">(rectangle 1)</text></g><g stroke-linecap="round"><g transform="translate(749.686750578889 99) rotate(0 -0.940893774012352 -26.499999999999943)"><path d="M-0.06 -0.15 C-0.51 -9.21, -2.87 -45.16, -3.08 -53.9 M-1.55 -1.27 C-1.61 -10.24, -0.95 -43.92, -1 -52.84" stroke="#a5d8ff" stroke-width="2" fill="none"></path></g><g transform="translate(749.686750578889 99) rotate(0 -0.940893774012352 -26.499999999999943)"><path d="M7.36 -29.27 C4.81 -37.53, 1.33 -40.9, -1 -52.84 M7.36 -29.27 C4.89 -37.22, 1.35 -44.65, -1 -52.84" stroke="#a5d8ff" stroke-width="2" fill="none"></path></g><g transform="translate(749.686750578889 99) rotate(0 -0.940893774012352 -26.499999999999943)"><path d="M-9.74 -29.42 C-7.76 -37.63, -6.69 -40.96, -1 -52.84 M-9.74 -29.42 C-6.52 -37.45, -4.37 -44.83, -1 -52.84" stroke="#a5d8ff" stroke-width="2" fill="none"></path></g></g><mask></mask><g stroke-linecap="round" transform="translate(573.5138888888888 237.5) rotate(0 75.72222222222229 34)"><path d="M17 0 C52.65 -4.71, 86.94 0.13, 134.44 0 M17 0 C43.68 0.07, 70.43 -0.39, 134.44 0 M134.44 0 C144.06 1.52, 149.07 7.35, 151.44 17 M134.44 0 C145.82 0.73, 154.94 6.81, 151.44 17 M151.44 17 C148.16 23.03, 153.8 35.19, 151.44 51 M151.44 17 C152.03 24.73, 151.03 35.41, 151.44 51 M151.44 51 C148.63 59.6, 147.35 71.86, 134.44 68 M151.44 51 C148.99 63.53, 149.41 72.2, 134.44 68 M134.44 68 C92.38 70.78, 50.34 65.38, 17 68 M134.44 68 C96.27 68.77, 60.82 67.53, 17 68 M17 68 C7.88 64.89, -3.3 61.82, 0 51 M17 68 C4.46 64.98, -3.71 58.32, 0 51 M0 51 C-3.07 35.71, 1.39 22.94, 0 17 M0 51 C-1.68 42.49, 0.72 34.38, 0 17 M0 17 C-0.91 3.79, 3.57 2.43, 17 0 M0 17 C2.01 4.83, 1.37 0.68, 17 0" stroke="#a5d8ff" stroke-width="2" fill="none"></path></g><g transform="translate(583.6906551784939 242.70000000000005) rotate(0 65.54545593261719 28.799999999999955)"><text x="65.54545593261719" y="15.45" font-family="Cascadia, Segoe UI Emoji" font-size="16px" fill="#a5d8ff" text-anchor="middle" style="white-space: pre;" direction="ltr" dominant-baseline="alphabetic">EXTERNAL_NODE </text><text x="65.54545593261719" y="34.65" font-family="Cascadia, Segoe UI Emoji" font-size="16px" fill="#a5d8ff" text-anchor="middle" style="white-space: pre;" direction="ltr" dominant-baseline="alphabetic">(window 1 &amp; </text><text x="65.54545593261719" y="53.849999999999994" font-family="Cascadia, Segoe UI Emoji" font-size="16px" fill="#a5d8ff" text-anchor="middle" style="white-space: pre;" direction="ltr" dominant-baseline="alphabetic">rectangle 2)</text></g><g stroke-linecap="round"><g transform="translate(683.1770880466204 180.7061508942893) rotate(0 -10.939664227459104 21.146924552855353)"><path d="M-0.46 -0.94 C-7.09 13.25, -11.4 23.73, -23.75 42.59 M-0.59 0.13 C-6.43 10.82, -11.57 20.76, -20.89 41.68" stroke="#a5d8ff" stroke-width="1" fill="none"></path></g><g transform="translate(683.1770880466204 180.7061508942893) rotate(0 -10.939664227459104 21.146924552855353)"><path d="M-19.46 17.01 C-20.48 25.93, -19.09 31.12, -22.76 41.98 M-19.6 18.08 C-20.59 24.4, -21.01 29.95, -19.9 41.08" stroke="#a5d8ff" stroke-width="1" fill="none"></path></g><g transform="translate(683.1770880466204 180.7061508942893) rotate(0 -10.939664227459104 21.146924552855353)"><path d="M-4.65 23.77 C-9.92 30.75, -12.76 34.01, -22.76 41.98 M-4.78 24.84 C-9.23 29.56, -13.15 33.51, -19.9 41.08" stroke="#a5d8ff" stroke-width="1" fill="none"></path></g></g><mask></mask><g stroke-linecap="round"><g transform="translate(833.6935664277927 184.22530790890232) rotate(0 10.866245430672734 20.88734604554884)"><path d="M-1.05 1.21 C7.07 11.84, 10.63 24.6, 20.46 40.47 M-0.98 0.84 C5.22 13.1, 13.59 24.06, 22.21 42.65" stroke="#a5d8ff" stroke-width="1" fill="none"></path></g><g transform="translate(833.6935664277927 184.22530790890232) rotate(0 10.866245430672734 20.88734604554884)"><path d="M3.91 27.85 C10.79 30.99, 13.05 36.29, 20.93 41.35 M3.97 27.47 C9 32.13, 16.05 35.47, 22.68 43.53" stroke="#a5d8ff" stroke-width="1" fill="none"></path></g><g transform="translate(833.6935664277927 184.22530790890232) rotate(0 10.866245430672734 20.88734604554884)"><path d="M18.24 20.5 C20.95 25.71, 19.06 33.14, 20.93 41.35 M18.31 20.13 C19.06 26.97, 21.87 32.49, 22.68 43.53" stroke="#a5d8ff" stroke-width="1" fill="none"></path></g></g><mask></mask><g stroke-linecap="round" transform="translate(807.0555555555553 238.7037014431421) rotate(0 75.72222222222229 34)"><path d="M17 0 C48.46 -2.16, 72.68 -0.84, 134.44 0 M17 0 C43.56 0.35, 70.53 1.78, 134.44 0 M134.44 0 C141.95 3.13, 155.4 3.23, 151.44 17 M134.44 0 C147.97 4.04, 150.05 2.32, 151.44 17 M151.44 17 C148.25 31.24, 155.66 44.9, 151.44 51 M151.44 17 C150.61 26.3, 150.46 35.5, 151.44 51 M151.44 51 C150.4 65.32, 145.61 71.4, 134.44 68 M151.44 51 C150.75 60.64, 149.95 63.89, 134.44 68 M134.44 68 C85.95 61.84, 43.47 65.4, 17 68 M134.44 68 C95.57 70.31, 54.16 67.07, 17 68 M17 68 C5.12 67.1, -2.09 59.5, 0 51 M17 68 C9.66 63.74, -2.02 61.91, 0 51 M0 51 C2.17 43.19, 2.83 29.25, 0 17 M0 51 C-1.26 41.37, -1.29 33.55, 0 17 M0 17 C-3.62 6.56, 3.7 2.84, 17 0 M0 17 C3.15 7.65, 5.22 3.34, 17 0" stroke="#a5d8ff" stroke-width="2" fill="none"></path></g><g transform="translate(817.2323218451605 243.90370144314215) rotate(0 65.54545593261719 28.799999999999955)"><text x="65.54545593261719" y="15.45" font-family="Cascadia, Segoe UI Emoji" font-size="16px" fill="#a5d8ff" text-anchor="middle" style="white-space: pre;" direction="ltr" dominant-baseline="alphabetic">EXTERNAL_NODE </text><text x="65.54545593261719" y="34.65" font-family="Cascadia, Segoe UI Emoji" font-size="16px" fill="#a5d8ff" text-anchor="middle" style="white-space: pre;" direction="ltr" dominant-baseline="alphabetic">(window 2 &amp; </text><text x="65.54545593261719" y="53.849999999999994" font-family="Cascadia, Segoe UI Emoji" font-size="16px" fill="#a5d8ff" text-anchor="middle" style="white-space: pre;" direction="ltr" dominant-baseline="alphabetic">rectangle 3)</text></g><g transform="translate(213.5 14.503701443142518) rotate(0 35.01818084716797 12)"><text x="0" y="19.3125" font-family="Cascadia, Segoe UI Emoji" font-size="20px" fill="#a5d8ff" text-anchor="start" style="white-space: pre;" direction="ltr" dominant-baseline="alphabetic">Screen</text></g><g stroke-linecap="round" transform="translate(10 99.00370144314252) rotate(0 233.88888888888886 114)"><path d="M0 0 C182.21 2.66, 365.95 2.03, 467.78 0 M0 0 C168.01 -1.07, 335.19 -0.4, 467.78 0 M467.78 0 C470.03 59.76, 468.97 118.8, 467.78 228 M467.78 0 C469.67 53.2, 469.88 105.45, 467.78 228 M467.78 228 C285.88 230.16, 103.13 229.98, 0 228 M467.78 228 C284.75 226.12, 101.93 226.47, 0 228 M0 228 C1.78 153.68, 0.84 78.37, 0 0 M0 228 C-0.46 148.33, 0.12 69.09, 0 0" stroke="#a5d8ff" stroke-width="1" fill="none"></path></g><g stroke-linecap="round" transform="translate(15.5 106.00370144314252) rotate(0 228.4444444444444 107.00000000000011)"><path d="M-1.07 0.52 L458.47 1.83 L457.98 214.19 L-0.3 213.79" stroke="none" stroke-width="0" fill="#b2f2bb"></path><path d="M0 0 C115.48 2.8, 230.32 1.58, 456.89 0 M0 0 C100.74 0.66, 201.82 1.05, 456.89 0 M456.89 0 C456.38 57.35, 456.33 111.73, 456.89 214 M456.89 0 C457.93 72.73, 457.62 145.87, 456.89 214 M456.89 214 C290.17 212.52, 123.12 213.08, 0 214 M456.89 214 C312.39 214.84, 167.82 214.1, 0 214 M0 214 C-1.71 164.9, -0.78 116.1, 0 0 M0 214 C-0.2 158.67, 0.76 105.38, 0 0" stroke="#1e1e1e" stroke-width="2" fill="none"></path></g><g stroke-linecap="round" transform="translate(24 114.50370144314252) rotate(0 107.61111111111109 97.83333333333337)"><path d="M0 0 C46.94 0.72, 90.2 0.25, 215.22 0 M0 0 C53.82 0.11, 109.13 1.67, 215.22 0 M215.22 0 C214.36 74.38, 214.51 149.2, 215.22 195.67 M215.22 0 C214.83 75.52, 215.89 151.6, 215.22 195.67 M215.22 195.67 C142.88 195.09, 70.84 195.57, 0 195.67 M215.22 195.67 C143.23 196.53, 72.95 196.38, 0 195.67 M0 195.67 C1.5 129.21, -0.82 63.04, 0 0 M0 195.67 C2.3 155.5, 1.36 115.12, 0 0" stroke="#1e1e1e" stroke-width="2" fill="none"></path></g><g transform="translate(80.11111111111109 193.13703477647596) rotate(0 51.5 19.200000000000045)"><text x="51.5" y="15.45" font-family="Cascadia, Segoe UI Emoji" font-size="16px" fill="#1e1e1e" text-anchor="middle" style="white-space: pre;" direction="ltr" dominant-baseline="alphabetic">window 1</text><text x="51.5" y="34.65" font-family="Cascadia, Segoe UI Emoji" font-size="16px" fill="#1e1e1e" text-anchor="middle" style="white-space: pre;" direction="ltr" dominant-baseline="alphabetic">rectangle 2</text></g><g transform="translate(13 35.50370144314252) rotate(0 51.5 9.600000000000023)"><text x="0" y="15.45" font-family="Cascadia, Segoe UI Emoji" font-size="16px" fill="#b2f2bb" text-anchor="start" style="white-space: pre;" direction="ltr" dominant-baseline="alphabetic">rectangle 1</text></g><g transform="translate(13.111111111111086 334.5037014431425) rotate(0 257.5 57.60000000000002)"><text x="0" y="15.45" font-family="Cascadia, Segoe UI Emoji" font-size="16px" fill="#ffffff" text-anchor="start" style="white-space: pre;" direction="ltr" dominant-baseline="alphabetic">- The screen is initially divided into two rectangles: </text><text x="0" y="34.65" font-family="Cascadia, Segoe UI Emoji" font-size="16px" fill="#ffffff" text-anchor="start" style="white-space: pre;" direction="ltr" dominant-baseline="alphabetic">  `rectangle 1` which encloses the entire screen.</text><text x="0" y="53.849999999999994" font-family="Cascadia, Segoe UI Emoji" font-size="16px" fill="#ffffff" text-anchor="start" style="white-space: pre;" direction="ltr" dominant-baseline="alphabetic">- Window 1 occupies rectangle 2 within rectangle 1.</text><text x="0" y="73.05" font-family="Cascadia, Segoe UI Emoji" font-size="16px" fill="#ffffff" text-anchor="start" style="white-space: pre;" direction="ltr" dominant-baseline="alphabetic">- Window 2 occupies rectangle 3 within rectangle 1.</text><text x="0" y="92.25" font-family="Cascadia, Segoe UI Emoji" font-size="16px" fill="#ffffff" text-anchor="start" style="white-space: pre;" direction="ltr" dominant-baseline="alphabetic">- Both rectangle 2 and 3 are subdivisions of </text><text x="0" y="111.45" font-family="Cascadia, Segoe UI Emoji" font-size="16px" fill="#ffffff" text-anchor="start" style="white-space: pre;" direction="ltr" dominant-baseline="alphabetic">  rectangle 1 and are contained in it.</text></g><g stroke-linecap="round" transform="translate(248.10416666666686 115.20370144314279) rotate(0 107.61111111111109 97.83333333333337)"><path d="M0 0 C54.94 0.37, 110.7 0.45, 215.22 0 M0 0 C45.44 -2, 88.69 -1.62, 215.22 0 M215.22 0 C217.08 50.01, 214.65 98.18, 215.22 195.67 M215.22 0 C216.4 55.9, 216.44 113.97, 215.22 195.67 M215.22 195.67 C168.02 193.73, 120.87 193.33, 0 195.67 M215.22 195.67 C160.25 194.56, 104.68 195.21, 0 195.67 M0 195.67 C-1.1 130.25, -0.62 69.52, 0 0 M0 195.67 C0.98 134.72, 0.47 73, 0 0" stroke="#1e1e1e" stroke-width="2" fill="none"></path></g><g transform="translate(304.21527777777794 193.83703477647623) rotate(0 51.5 19.200000000000045)"><text x="51.5" y="15.45" font-family="Cascadia, Segoe UI Emoji" font-size="16px" fill="#1e1e1e" text-anchor="middle" style="white-space: pre;" direction="ltr" dominant-baseline="alphabetic">window 2</text><text x="51.5" y="34.65" font-family="Cascadia, Segoe UI Emoji" font-size="16px" fill="#1e1e1e" text-anchor="middle" style="white-space: pre;" direction="ltr" dominant-baseline="alphabetic">rectangle 3</text></g><g stroke-linecap="round"><g transform="translate(241.66666666666652 82.70370144314245) rotate(0 0 -18.33333333333337)"><path d="M0 0 C0 -9.89, 0 -19.78, 0 -36.67 M0 0 C0 -11.27, 0 -22.54, 0 -36.67" stroke="#a5d8ff" stroke-width="2" fill="none"></path></g><g transform="translate(241.66666666666652 82.70370144314245) rotate(0 0 -18.33333333333337)"><path d="M6.27 -19.44 C4.58 -24.09, 2.89 -28.73, 0 -36.67 M6.27 -19.44 C4.34 -24.73, 2.42 -30.03, 0 -36.67" stroke="#a5d8ff" stroke-width="2" fill="none"></path></g><g transform="translate(241.66666666666652 82.70370144314245) rotate(0 0 -18.33333333333337)"><path d="M-6.27 -19.44 C-4.58 -24.09, -2.89 -28.73, 0 -36.67 M-6.27 -19.44 C-4.34 -24.73, -2.42 -30.03, 0 -36.67" stroke="#a5d8ff" stroke-width="2" fill="none"></path></g></g><mask></mask><g stroke-linecap="round"><g transform="translate(166.11111111111086 106.59259033203148) rotate(0 -21.666666666666742 -19.444444444444343)"><path d="M0 0 C-10.55 -9.47, -21.1 -18.93, -43.33 -38.89 M0 0 C-12.97 -11.64, -25.93 -23.27, -43.33 -38.89" stroke="#b2f2bb" stroke-width="1" fill="none"></path></g><g transform="translate(166.11111111111086 106.59259033203148) rotate(0 -21.666666666666742 -19.444444444444343)"><path d="M-20.14 -29.56 C-25.78 -31.83, -31.43 -34.1, -43.33 -38.89 M-20.14 -29.56 C-27.08 -32.35, -34.02 -35.14, -43.33 -38.89" stroke="#b2f2bb" stroke-width="1" fill="none"></path></g><g transform="translate(166.11111111111086 106.59259033203148) rotate(0 -21.666666666666742 -19.444444444444343)"><path d="M-31.56 -16.83 C-34.43 -22.2, -37.29 -27.57, -43.33 -38.89 M-31.56 -16.83 C-35.08 -23.43, -38.61 -30.03, -43.33 -38.89" stroke="#b2f2bb" stroke-width="1" fill="none"></path></g></g><mask></mask></svg>