<svg version="1.1" xmlns="http://www.w3.org/2000/svg" viewBox="0 0 1100.993055555556 479.422222222222" width="1100.993055555556" height="479.422222222222">
  <!-- svg-source:excalidraw -->
  
  <defs>
    <style class="style-fonts">
      @font-face {
        font-family: "Virgil";
        src: url("https://excalidraw.com/Virgil.woff2");
      }
      @font-face {
        font-family: "Cascadia";
        src: url("https://excalidraw.com/Cascadia.woff2");
      }
      @font-face {
        font-family: "Assistant";
        src: url("https://excalidraw.com/Assistant-Regular.woff2");
      }
    </style>
    
  </defs>
  <rect x="0" y="0" width="1100.993055555556" height="479.422222222222" fill="#2a2631"></rect><g transform="translate(201.5 10) rotate(0 35.01818084716797 12)"><text x="0" y="19.3125" font-family="Cascadia, Segoe UI Emoji" font-size="20px" fill="#a5d8ff" text-anchor="start" style="white-space: pre;" direction="ltr" dominant-baseline="alphabetic">Screen</text></g><g transform="translate(713.5 31.22222222222217) rotate(0 46.69091033935547 12)"><text x="0" y="19.3125" font-family="Cascadia, Segoe UI Emoji" font-size="20px" fill="#a5d8ff" text-anchor="start" style="white-space: pre;" direction="ltr" dominant-baseline="alphabetic">BSP-tree</text></g><g stroke-linecap="round" transform="translate(698.5 132.22222222222217) rotate(0 66 34)"><path d="M17 0 C56.02 -0.01, 92.45 2.61, 115 0 M17 0 C43.49 -0.18, 70.85 1.64, 115 0 M115 0 C124.64 -1.96, 128.89 8.2, 132 17 M115 0 C122.1 -4.05, 136.36 7.06, 132 17 M132 17 C131.28 22.81, 135.09 29.4, 132 51 M132 17 C133.11 29.3, 131.41 42.22, 132 51 M132 51 C129.61 62.18, 127.74 64.58, 115 68 M132 51 C127.82 57.77, 127.67 69.44, 115 68 M115 68 C93.51 71.49, 62.08 69.89, 17 68 M115 68 C84.22 66.09, 51.57 66.88, 17 68 M17 68 C4.07 69.42, 3.49 59.42, 0 51 M17 68 C8.8 67.03, -3.29 66.34, 0 51 M0 51 C3.77 41.34, 0.34 21.19, 0 17 M0 51 C-2.29 41.9, -1.33 35.69, 0 17 M0 17 C0.27 5.86, 5.79 -0.19, 17 0 M0 17 C-3.01 3.67, 3.73 -0.71, 17 0" stroke="#b2f2bb" stroke-width="2" fill="none"></path></g><g transform="translate(703.6363639831543 147.02222222222213) rotate(0 60.8636360168457 19.200000000000045)"><text x="60.8636360168457" y="15.45" font-family="Cascadia, Segoe UI Emoji" font-size="16px" fill="#b2f2bb" text-anchor="middle" style="white-space: pre;" direction="ltr" dominant-baseline="alphabetic">ROOT_NODE </text><text x="60.8636360168457" y="34.65" font-family="Cascadia, Segoe UI Emoji" font-size="16px" fill="#b2f2bb" text-anchor="middle" style="white-space: pre;" direction="ltr" dominant-baseline="alphabetic">(rectangle 1)</text></g><g stroke-linecap="round"><g transform="translate(756.1728616900002 120.22222222222217) rotate(0 -0.940893774012352 -26.499999999999886)"><path d="M-0.14 2.26 C-0.13 -7.02, 0.52 -44.26, -0.19 -53.6 M-3.66 1.01 C-3.84 -8.01, -2.29 -41.61, -1.51 -50.29" stroke="#a5d8ff" stroke-width="2" fill="none"></path></g><g transform="translate(756.1728616900002 120.22222222222217) rotate(0 -0.940893774012352 -26.499999999999886)"><path d="M7.13 -25.09 C2.88 -35.07, 0.72 -41.06, -2.23 -51.07 M4.75 -25.67 C2.21 -35.73, 1.58 -43.07, -2.15 -50.62" stroke="#a5d8ff" stroke-width="2" fill="none"></path></g><g transform="translate(756.1728616900002 120.22222222222217) rotate(0 -0.940893774012352 -26.499999999999886)"><path d="M-9.93 -26.18 C-9.22 -35.83, -6.44 -41.51, -2.23 -51.07 M-12.32 -26.76 C-8.8 -36.35, -3.37 -43.3, -2.15 -50.62" stroke="#a5d8ff" stroke-width="2" fill="none"></path></g></g><mask></mask><g stroke-linecap="round" transform="translate(580 258.7222222222222) rotate(0 75.72222222222229 34)"><path d="M17 0 C60.5 -1.2, 103.29 1.87, 134.44 0 M17 0 C61.09 1.33, 106.81 0.12, 134.44 0 M134.44 0 C144.03 1.97, 151.62 4.86, 151.44 17 M134.44 0 C147.09 -1.46, 153.68 3.49, 151.44 17 M151.44 17 C149.88 24.98, 152.35 32.08, 151.44 51 M151.44 17 C152.08 28.09, 151.2 37.2, 151.44 51 M151.44 51 C150.71 63.29, 145.39 68.68, 134.44 68 M151.44 51 C153.33 64.5, 146.17 67.45, 134.44 68 M134.44 68 C99.9 65.25, 65.79 68.45, 17 68 M134.44 68 C94.42 68.1, 52 68.62, 17 68 M17 68 C4.61 66.68, 0.17 63.51, 0 51 M17 68 C4.36 69.98, -0.42 62.62, 0 51 M0 51 C-0.08 41.11, 0.08 29.38, 0 17 M0 51 C0.71 42.88, 0.97 36.46, 0 17 M0 17 C-1.69 4.09, 4.16 1.18, 17 0 M0 17 C1.02 6.97, 6.99 0.87, 17 0" stroke="#a5d8ff" stroke-width="2" fill="none"></path></g><g transform="translate(590.1767662896051 263.9222222222222) rotate(0 65.54545593261719 28.799999999999955)"><text x="65.54545593261719" y="15.45" font-family="Cascadia, Segoe UI Emoji" font-size="16px" fill="#a5d8ff" text-anchor="middle" style="white-space: pre;" direction="ltr" dominant-baseline="alphabetic">EXTERNAL_NODE </text><text x="65.54545593261719" y="34.65" font-family="Cascadia, Segoe UI Emoji" font-size="16px" fill="#a5d8ff" text-anchor="middle" style="white-space: pre;" direction="ltr" dominant-baseline="alphabetic">(window 1 &amp; </text><text x="65.54545593261719" y="53.849999999999994" font-family="Cascadia, Segoe UI Emoji" font-size="16px" fill="#a5d8ff" text-anchor="middle" style="white-space: pre;" direction="ltr" dominant-baseline="alphabetic">rectangle 2)</text></g><g stroke-linecap="round"><g transform="translate(689.6047144573089 201.1438972985345) rotate(0 -11.339508894636083 21.539162461843716)"><path d="M-0.43 -1.8 C-6.89 12.01, -13.75 24.77, -21.58 42.23 M-0.92 -0.88 C-5.08 11.26, -12.37 21.44, -22.62 42.96" stroke="#a5d8ff" stroke-width="1" fill="none"></path></g><g transform="translate(689.6047144573089 201.1438972985345) rotate(0 -11.339508894636083 21.539162461843716)"><path d="M-20.16 16.98 C-20.94 25.1, -21.96 32.28, -21.52 42.11 M-20.65 17.91 C-19.7 25.18, -22.01 30.61, -22.57 42.83" stroke="#a5d8ff" stroke-width="1" fill="none"></path></g><g transform="translate(689.6047144573089 201.1438972985345) rotate(0 -11.339508894636083 21.539162461843716)"><path d="M-5.3 24.5 C-10.52 30.49, -15.93 35.45, -21.52 42.11 M-5.79 25.42 C-8.51 30.9, -14.56 34.44, -22.57 42.83" stroke="#a5d8ff" stroke-width="1" fill="none"></path></g></g><mask></mask><g stroke-linecap="round"><g transform="translate(840.1796775389039 205.4475301311245) rotate(0 10.866245430672734 20.88734604554884)"><path d="M-0.55 -0.83 C7.02 14.47, 16.68 29.47, 20.75 40.22 M0.95 0.3 C6.87 15.03, 15.46 30.42, 21.18 42.6" stroke="#a5d8ff" stroke-width="1" fill="none"></path></g><g transform="translate(840.1796775389039 205.4475301311245) rotate(0 10.866245430672734 20.88734604554884)"><path d="M3.63 25.48 C9.55 31.56, 17.5 37.36, 20.2 41.05 M5.13 26.61 C9.57 32.04, 16.44 38.18, 20.63 43.43" stroke="#a5d8ff" stroke-width="1" fill="none"></path></g><g transform="translate(840.1796775389039 205.4475301311245) rotate(0 10.866245430672734 20.88734604554884)"><path d="M18.08 18.37 C18.78 26.88, 21.52 35.25, 20.2 41.05 M19.58 19.5 C18.7 27.39, 20.32 36.1, 20.63 43.43" stroke="#a5d8ff" stroke-width="1" fill="none"></path></g></g><mask></mask><g stroke-linecap="round" transform="translate(10 111.72222222222217) rotate(0 233.8888888888888 114)"><path d="M0 0 C110.38 1.7, 218.82 0.72, 467.78 0 M0 0 C186.57 0.56, 373.06 0.42, 467.78 0 M467.78 0 C465.51 48.43, 467.62 96.1, 467.78 228 M467.78 0 C467.67 70.96, 466.92 140.23, 467.78 228 M467.78 228 C344.94 228.33, 222.34 227.74, 0 228 M467.78 228 C338.1 227.08, 208.92 227.06, 0 228 M0 228 C0.23 143.39, -2.17 54.69, 0 0 M0 228 C1.1 164.59, 0.54 100.9, 0 0" stroke="#a5d8ff" stroke-width="1" fill="none"></path></g><g stroke-linecap="round" transform="translate(15.5 118.72222222222217) rotate(0 228.44444444444434 107.00000000000011)"><path d="M0 0 L456.89 0 L456.89 214 L0 214" stroke="none" stroke-width="0" fill="#b2f2bb"></path><path d="M0 0 C104.48 0, 208.97 0, 456.89 0 M0 0 C118.74 0, 237.47 0, 456.89 0 M456.89 0 C456.89 55.31, 456.89 110.63, 456.89 214 M456.89 0 C456.89 43.33, 456.89 86.65, 456.89 214 M456.89 214 C328.69 214, 200.49 214, 0 214 M456.89 214 C336.89 214, 216.88 214, 0 214 M0 214 C0 133.21, 0 52.42, 0 0 M0 214 C0 163.91, 0 113.82, 0 0" stroke="#1e1e1e" stroke-width="1" fill="none"></path></g><g stroke-linecap="round" transform="translate(24 127.22222222222217) rotate(0 107.61111111111109 97.83333333333337)"><path d="M0 0 C80 2.12, 159.52 1.32, 215.22 0 M0 0 C61.07 -1.09, 121.14 -2.35, 215.22 0 M215.22 0 C212.91 73.37, 212.37 147.84, 215.22 195.67 M215.22 0 C213.34 49.31, 215.13 97.94, 215.22 195.67 M215.22 195.67 C159.21 195.77, 103.59 197.17, 0 195.67 M215.22 195.67 C147.73 194.79, 80.72 194.77, 0 195.67 M0 195.67 C-2.38 157.14, -1.84 116.61, 0 0 M0 195.67 C-1.71 148.35, -1.88 100.7, 0 0" stroke="#1e1e1e" stroke-width="2" fill="none"></path></g><g transform="translate(80.11111111111109 205.8555555555556) rotate(0 51.5 19.200000000000045)"><text x="51.5" y="15.45" font-family="Cascadia, Segoe UI Emoji" font-size="16px" fill="#1e1e1e" text-anchor="middle" style="white-space: pre;" direction="ltr" dominant-baseline="alphabetic">window 1</text><text x="51.5" y="34.65" font-family="Cascadia, Segoe UI Emoji" font-size="16px" fill="#1e1e1e" text-anchor="middle" style="white-space: pre;" direction="ltr" dominant-baseline="alphabetic">rectangle 2</text></g><g transform="translate(14.428571428571445 45.36507936507928) rotate(0 51.5 9.600000000000023)"><text x="0" y="15.45" font-family="Cascadia, Segoe UI Emoji" font-size="16px" fill="#b2f2bb" text-anchor="start" style="white-space: pre;" direction="ltr" dominant-baseline="alphabetic">rectangle 1</text></g><g transform="translate(12 345.2222222222222) rotate(0 238.77272033691406 57.60000000000002)"><text x="0" y="15.45" font-family="Cascadia, Segoe UI Emoji" font-size="16px" fill="#ffffff" text-anchor="start" style="white-space: pre;" direction="ltr" dominant-baseline="alphabetic">- The screen is divided into two main rectangles: </text><text x="0" y="34.65" font-family="Cascadia, Segoe UI Emoji" font-size="16px" fill="#ffffff" text-anchor="start" style="white-space: pre;" direction="ltr" dominant-baseline="alphabetic">  rectangle 1 and rectangle 3.</text><text x="0" y="53.849999999999994" font-family="Cascadia, Segoe UI Emoji" font-size="16px" fill="#ffffff" text-anchor="start" style="white-space: pre;" direction="ltr" dominant-baseline="alphabetic">- Window 1 occupies rectangle 2 within rectangle 1.</text><text x="0" y="73.05" font-family="Cascadia, Segoe UI Emoji" font-size="16px" fill="#ffffff" text-anchor="start" style="white-space: pre;" direction="ltr" dominant-baseline="alphabetic">- Window 2 occupies rectangle 4 within rectangle 3.</text><text x="0" y="92.25" font-family="Cascadia, Segoe UI Emoji" font-size="16px" fill="#ffffff" text-anchor="start" style="white-space: pre;" direction="ltr" dominant-baseline="alphabetic">- Window 3 occupies rectangle 5 within rectangle 3.</text><text x="0" y="111.45" font-family="Cascadia, Segoe UI Emoji" font-size="16px" fill="#ffffff" text-anchor="start" style="white-space: pre;" direction="ltr" dominant-baseline="alphabetic">- All windows and rectangles occupy rectangle 1</text></g><g stroke-linecap="round" transform="translate(813.5416666666665 259.9259236653643) rotate(0 75.72222222222229 34)"><path d="M17 0 C40.2 -0.59, 68.5 -0.72, 134.44 0 M17 0 C44.65 -3.25, 77.88 -0.88, 134.44 0 M134.44 0 C143.22 -1.34, 151.67 5.18, 151.44 17 M134.44 0 C143.24 3.81, 147.25 8.69, 151.44 17 M151.44 17 C151.01 24.27, 151.99 29.16, 151.44 51 M151.44 17 C149.86 25.09, 152.27 37.76, 151.44 51 M151.44 51 C149.5 63.57, 148.5 71.14, 134.44 68 M151.44 51 C153.92 58.13, 146.42 68.71, 134.44 68 M134.44 68 C105.43 64.89, 80.04 66.55, 17 68 M134.44 68 C96.41 65.87, 54.22 68.03, 17 68 M17 68 C9.62 65.3, 2.46 65.65, 0 51 M17 68 C10.15 67.86, -3.09 58.97, 0 51 M0 51 C-2.23 36.39, 0.77 25.02, 0 17 M0 51 C-1.33 39.77, -0.86 29.96, 0 17 M0 17 C2.01 5.39, 3.89 -3.29, 17 0 M0 17 C1.5 6.55, 5.71 3.96, 17 0" stroke="#ffec99" stroke-width="2" fill="none"></path></g><g transform="translate(823.7184329562717 274.72592366536423) rotate(0 65.54545593261719 19.200000000000045)"><text x="65.54545593261719" y="15.45" font-family="Cascadia, Segoe UI Emoji" font-size="16px" fill="#ffec99" text-anchor="middle" style="white-space: pre;" direction="ltr" dominant-baseline="alphabetic">INTERNAL_NODE </text><text x="65.54545593261719" y="34.65" font-family="Cascadia, Segoe UI Emoji" font-size="16px" fill="#ffec99" text-anchor="middle" style="white-space: pre;" direction="ltr" dominant-baseline="alphabetic">(rectangle 3)</text></g><g stroke-linecap="round" transform="translate(248.10416666666686 127.92222222222244) rotate(0 107.61111111111109 97.83333333333337)"><path d="M-0.86 0.76 L214.03 0.84 L215.24 195.98 L1.52 196.16" stroke="none" stroke-width="0" fill="#ffec99"></path><path d="M0 0 C47.6 -0.26, 92.82 -2.84, 215.22 0 M0 0 C59.97 1.14, 120.35 2.05, 215.22 0 M215.22 0 C214.53 79.15, 214.77 156.69, 215.22 195.67 M215.22 0 C213.74 50.19, 213.73 100.95, 215.22 195.67 M215.22 195.67 C172.01 196.52, 124.44 197.27, 0 195.67 M215.22 195.67 C161.26 194.47, 105.49 193.78, 0 195.67 M0 195.67 C-0.03 136.88, 0.04 82.43, 0 0 M0 195.67 C-0.97 151.69, -0.63 108.05, 0 0" stroke="#1e1e1e" stroke-width="2" fill="none"></path></g><g stroke-linecap="round" transform="translate(257.38194444444457 134.97777777777787) rotate(0 98.33333333333337 43.33333333333337)"><path d="M0 0 C46 2.07, 92.39 1.5, 196.67 0 M0 0 C73.84 -0.78, 148.79 -2.09, 196.67 0 M196.67 0 C195.27 19.16, 194.4 41.75, 196.67 86.67 M196.67 0 C196.61 33.44, 196.94 66.96, 196.67 86.67 M196.67 86.67 C150.67 85.62, 105.89 87.74, 0 86.67 M196.67 86.67 C130.92 85.02, 63.56 85.43, 0 86.67 M0 86.67 C1.04 63.49, -1.13 44.24, 0 0 M0 86.67 C-0.21 66.58, -0.12 44.56, 0 0" stroke="#343a40" stroke-width="2" fill="none"></path></g><g transform="translate(304.21527777777794 159.1111111111113) rotate(0 51.5 19.200000000000045)"><text x="51.5" y="15.45" font-family="Cascadia, Segoe UI Emoji" font-size="16px" fill="#343a40" text-anchor="middle" style="white-space: pre;" direction="ltr" dominant-baseline="alphabetic">window 2</text><text x="51.5" y="34.65" font-family="Cascadia, Segoe UI Emoji" font-size="16px" fill="#343a40" text-anchor="middle" style="white-space: pre;" direction="ltr" dominant-baseline="alphabetic">rectangle 4</text></g><g stroke-linecap="round" transform="translate(257.0486111111111 229.20000000000005) rotate(0 98.33333333333337 43.33333333333337)"><path d="M0 0 C77.04 -2.85, 152.52 -2.61, 196.67 0 M0 0 C73.98 0.53, 148.81 0.52, 196.67 0 M196.67 0 C197.58 23.59, 195 42.2, 196.67 86.67 M196.67 0 C195.57 26.81, 196.4 51.54, 196.67 86.67 M196.67 86.67 C151.25 88.23, 102.44 88.3, 0 86.67 M196.67 86.67 C132.33 88.27, 68.46 88.62, 0 86.67 M0 86.67 C-0.82 68.37, 0.39 48.7, 0 0 M0 86.67 C0.43 53.14, -1.15 20.79, 0 0" stroke="#1e1e1e" stroke-width="2" fill="none"></path></g><g transform="translate(303.88194444444446 253.33333333333348) rotate(0 51.5 19.200000000000045)"><text x="51.5" y="15.45" font-family="Cascadia, Segoe UI Emoji" font-size="16px" fill="#1e1e1e" text-anchor="middle" style="white-space: pre;" direction="ltr" dominant-baseline="alphabetic">window 3</text><text x="51.5" y="34.65" font-family="Cascadia, Segoe UI Emoji" font-size="16px" fill="#1e1e1e" text-anchor="middle" style="white-space: pre;" direction="ltr" dominant-baseline="alphabetic">rectangle 5</text></g><g stroke-linecap="round"><g transform="translate(236.38194444444457 83.20000000000005) rotate(0 0 -18.888888888888914)"><path d="M0 0 C0 -10.48, 0 -20.95, 0 -37.78 M0 0 C0 -14.3, 0 -28.59, 0 -37.78" stroke="#a5d8ff" stroke-width="2" fill="none"></path></g><g transform="translate(236.38194444444457 83.20000000000005) rotate(0 0 -18.888888888888914)"><path d="M6.46 -20.03 C4.67 -24.95, 2.88 -29.87, 0 -37.78 M6.46 -20.03 C4.02 -26.74, 1.57 -33.46, 0 -37.78" stroke="#a5d8ff" stroke-width="2" fill="none"></path></g><g transform="translate(236.38194444444457 83.20000000000005) rotate(0 0 -18.888888888888914)"><path d="M-6.46 -20.03 C-4.67 -24.95, -2.88 -29.87, 0 -37.78 M-6.46 -20.03 C-4.02 -26.74, -1.57 -33.46, 0 -37.78" stroke="#a5d8ff" stroke-width="2" fill="none"></path></g></g><mask></mask><g stroke-linecap="round"><g transform="translate(169.03971097472856 118.86666666666656) rotate(0 -21.88026639656141 -23.754003104677167)"><path d="M0 0 C-17.33 -18.81, -34.66 -37.63, -43.76 -47.51 M0 0 C-15.23 -16.53, -30.45 -33.06, -43.76 -47.51" stroke="#b2f2bb" stroke-width="1" fill="none"></path></g><g transform="translate(169.03971097472856 118.86666666666656) rotate(0 -21.88026639656141 -23.754003104677167)"><path d="M-21.56 -36.02 C-30.35 -40.57, -39.14 -45.12, -43.76 -47.51 M-21.56 -36.02 C-29.28 -40.02, -37.01 -44.01, -43.76 -47.51" stroke="#b2f2bb" stroke-width="1" fill="none"></path></g><g transform="translate(169.03971097472856 118.86666666666656) rotate(0 -21.88026639656141 -23.754003104677167)"><path d="M-34.13 -24.44 C-37.95 -33.57, -41.76 -42.71, -43.76 -47.51 M-34.13 -24.44 C-37.48 -32.46, -40.83 -40.49, -43.76 -47.51" stroke="#b2f2bb" stroke-width="1" fill="none"></path></g></g><mask></mask><g transform="translate(412.6597222222225 30.26666666666688) rotate(0 51.5 9.600000000000023)"><text x="0" y="15.45" font-family="Cascadia, Segoe UI Emoji" font-size="16px" fill="#ffec99" text-anchor="start" style="white-space: pre;" direction="ltr" dominant-baseline="alphabetic">rectangle 3</text></g><g stroke-linecap="round"><g transform="translate(382.61693408057545 126.53333333333353) rotate(0 23.15715320370191 -31.881751856221854)"><path d="M0 0 C11.52 -15.86, 23.04 -31.72, 46.31 -63.76 M0 0 C16.83 -23.17, 33.66 -46.34, 46.31 -63.76" stroke="#ffec99" stroke-width="1" fill="none"></path></g><g transform="translate(382.61693408057545 126.53333333333353) rotate(0 23.15715320370191 -31.881751856221854)"><path d="M39.43 -39.73 C41.14 -45.71, 42.85 -51.68, 46.31 -63.76 M39.43 -39.73 C41.93 -48.46, 44.43 -57.2, 46.31 -63.76" stroke="#ffec99" stroke-width="1" fill="none"></path></g><g transform="translate(382.61693408057545 126.53333333333353) rotate(0 23.15715320370191 -31.881751856221854)"><path d="M25.59 -49.78 C30.74 -53.26, 35.9 -56.74, 46.31 -63.76 M25.59 -49.78 C33.12 -54.86, 40.65 -59.94, 46.31 -63.76" stroke="#ffec99" stroke-width="1" fill="none"></path></g></g><mask></mask><g stroke-linecap="round" transform="translate(696.2152777777778 401.422222222222) rotate(0 75.72222222222229 34)"><path d="M17 0 C49.56 -0.77, 75.77 -2.19, 134.44 0 M17 0 C61.56 2.67, 101.05 1.4, 134.44 0 M134.44 0 C146 -0.49, 149.23 8.98, 151.44 17 M134.44 0 C141.58 3.03, 147.49 4.66, 151.44 17 M151.44 17 C152.09 27.68, 151.24 44.56, 151.44 51 M151.44 17 C151.41 24.91, 149.85 32.2, 151.44 51 M151.44 51 C154.16 65.48, 147.93 64.35, 134.44 68 M151.44 51 C152.08 63.04, 142.54 65.92, 134.44 68 M134.44 68 C98.03 64.5, 63.96 69.58, 17 68 M134.44 68 C106.33 69.25, 83.05 66.16, 17 68 M17 68 C8.13 71.31, 3.9 62.21, 0 51 M17 68 C2.58 64.64, 3.96 58.75, 0 51 M0 51 C0.71 43.97, 0.66 36.51, 0 17 M0 51 C-0.4 40.66, 1.45 30.79, 0 17 M0 17 C-1.78 2.37, 6.97 0.76, 17 0 M0 17 C0.04 9.63, 5.09 -2.83, 17 0" stroke="#a5d8ff" stroke-width="2" fill="none"></path></g><g transform="translate(706.3920440673829 406.62222222222204) rotate(0 65.54545593261713 28.799999999999955)"><text x="65.54545593261719" y="15.45" font-family="Cascadia, Segoe UI Emoji" font-size="16px" fill="#a5d8ff" text-anchor="middle" style="white-space: pre;" direction="ltr" dominant-baseline="alphabetic">EXTERNAL_NODE </text><text x="65.54545593261719" y="34.65" font-family="Cascadia, Segoe UI Emoji" font-size="16px" fill="#a5d8ff" text-anchor="middle" style="white-space: pre;" direction="ltr" dominant-baseline="alphabetic">(window 2 &amp; </text><text x="65.54545593261719" y="53.849999999999994" font-family="Cascadia, Segoe UI Emoji" font-size="16px" fill="#a5d8ff" text-anchor="middle" style="white-space: pre;" direction="ltr" dominant-baseline="alphabetic">rectangle 4)</text></g><g stroke-linecap="round" transform="translate(939.5486111111115 400.53333333333353) rotate(0 75.72222222222229 34)"><path d="M17 0 C45.69 -2.11, 80.82 -2.69, 134.44 0 M17 0 C40.62 -1.38, 66.91 -0.96, 134.44 0 M134.44 0 C143.57 3.32, 147.79 8.3, 151.44 17 M134.44 0 C141.82 -1.01, 155.34 5.34, 151.44 17 M151.44 17 C151.41 28.6, 148.14 33.75, 151.44 51 M151.44 17 C150.67 24.45, 153 32.23, 151.44 51 M151.44 51 C153.6 58.68, 146.33 68.61, 134.44 68 M151.44 51 C148.21 60.25, 146.06 65.65, 134.44 68 M134.44 68 C110.18 70.56, 80.17 69.79, 17 68 M134.44 68 C103.65 68.7, 70.14 71.7, 17 68 M17 68 C9.57 67.88, -2.68 59.41, 0 51 M17 68 C9.63 64.42, -3.91 59.16, 0 51 M0 51 C0.16 42.18, -0.23 30.5, 0 17 M0 51 C1.29 42.13, -0.6 31.9, 0 17 M0 17 C1.31 6.43, 5.7 3.44, 17 0 M0 17 C-0.57 2.84, 9.11 1.39, 17 0" stroke="#a5d8ff" stroke-width="2" fill="none"></path></g><g transform="translate(949.7253774007168 405.7333333333336) rotate(0 65.54545593261719 28.799999999999955)"><text x="65.54545593261719" y="15.45" font-family="Cascadia, Segoe UI Emoji" font-size="16px" fill="#a5d8ff" text-anchor="middle" style="white-space: pre;" direction="ltr" dominant-baseline="alphabetic">EXTERNAL_NODE </text><text x="65.54545593261719" y="34.65" font-family="Cascadia, Segoe UI Emoji" font-size="16px" fill="#a5d8ff" text-anchor="middle" style="white-space: pre;" direction="ltr" dominant-baseline="alphabetic">(window 3 &amp; </text><text x="65.54545593261719" y="53.849999999999994" font-family="Cascadia, Segoe UI Emoji" font-size="16px" fill="#a5d8ff" text-anchor="middle" style="white-space: pre;" direction="ltr" dominant-baseline="alphabetic">rectangle 5)</text></g><g stroke-linecap="round"><g transform="translate(812.1968221399629 339.4053358764927) rotate(0 -15.787510093963647 22.6442991874452)"><path d="M1.27 -1.84 C-10.12 13.32, -15.89 21.82, -32.25 45.4 M-0.91 0.66 C-10.2 13.07, -17.58 26.25, -31.58 45.46" stroke="#a5d8ff" stroke-width="1" fill="none"></path></g><g transform="translate(812.1968221399629 339.4053358764927) rotate(0 -15.787510093963647 22.6442991874452)"><path d="M-23.86 19.47 C-28.67 29.38, -27.96 32.43, -32.25 45.57 M-26.04 21.97 C-27.98 28.09, -28.13 35.19, -31.58 45.64" stroke="#a5d8ff" stroke-width="1" fill="none"></path></g><g transform="translate(812.1968221399629 339.4053358764927) rotate(0 -15.787510093963647 22.6442991874452)"><path d="M-9.85 29.27 C-18.22 36.54, -21.12 37.07, -32.25 45.57 M-12.02 31.76 C-17.94 35.19, -22.12 39.47, -31.58 45.64" stroke="#a5d8ff" stroke-width="1" fill="none"></path></g></g><mask></mask><g stroke-linecap="round"><g transform="translate(959.9198647146313 341.70606574861677) rotate(0 18.684301952035412 23.716156473605224)"><path d="M-1.76 1.9 C9.21 9.61, 16.24 21.55, 37.12 46.33 M-0.86 -0.22 C14.72 17.85, 28.18 36.25, 36.77 47.39" stroke="#a5d8ff" stroke-width="1" fill="none"></path></g><g transform="translate(959.9198647146313 341.70606574861677) rotate(0 18.684301952035412 23.716156473605224)"><path d="M13.98 35.78 C21.1 35.8, 24.5 40.19, 36.53 46.29 M14.88 33.66 C24.51 38.85, 31.72 44.27, 36.17 47.36" stroke="#a5d8ff" stroke-width="1" fill="none"></path></g><g transform="translate(959.9198647146313 341.70606574861677) rotate(0 18.684301952035412 23.716156473605224)"><path d="M27.58 25.42 C31.75 27.62, 32.13 34.32, 36.53 46.29 M28.48 23.3 C32.82 32.54, 34.81 41.93, 36.17 47.36" stroke="#a5d8ff" stroke-width="1" fill="none"></path></g></g><mask></mask></svg>