<svg version="1.1" xmlns="http://www.w3.org/2000/svg" viewBox="0 0 1133.5 707.0000000000005" width="1133.5" height="707.0000000000005">
  <!-- svg-source:excalidraw -->
  
  <defs>
    <style class="style-fonts">
      @font-face {
        font-family: "Virgil";
        src: url("https://excalidraw.com/Virgil.woff2");
      }
      @font-face {
        font-family: "Cascadia";
        src: url("https://excalidraw.com/Cascadia.woff2");
      }
      @font-face {
        font-family: "Assistant";
        src: url("https://excalidraw.com/Assistant-Regular.woff2");
      }
    </style>
    
  </defs>
  <rect x="0" y="0" width="1133.5" height="707.0000000000005" fill="#2a2631"></rect><g transform="translate(836.5008694934139 385.6481492784296) rotate(0 46.69091033935547 12)"><text x="0" y="19.3125" font-family="Cascadia, Segoe UI Emoji" font-size="20px" fill="#a5d8ff" text-anchor="start" style="white-space: pre;" direction="ltr" dominant-baseline="alphabetic">BSP-tree</text></g><g stroke-linecap="round" transform="translate(824.5008694934139 483.6481492784296) rotate(0 66 34)"><path d="M17 0 C57.76 -0.87, 95.34 1.26, 115 0 M17 0 C36.92 -2.72, 55.89 -3.55, 115 0 M115 0 C128.53 -0.41, 135.47 5.65, 132 17 M115 0 C124.73 2.85, 130.39 5.54, 132 17 M132 17 C132.39 23.67, 134.64 37.51, 132 51 M132 17 C130.82 30.9, 131.2 42.07, 132 51 M132 51 C133.75 65.2, 126.64 69.73, 115 68 M132 51 C136 60, 130.78 65.68, 115 68 M115 68 C88.78 69.89, 53.99 68.12, 17 68 M115 68 C76.54 67.95, 41.46 66.88, 17 68 M17 68 C3.73 68, -0.37 65.54, 0 51 M17 68 C6.36 68.08, -2.24 64.31, 0 51 M0 51 C2.56 35.62, -0.15 28.02, 0 17 M0 51 C0.11 39.06, -0.37 26.09, 0 17 M0 17 C-1.57 5.31, 4.91 -3.78, 17 0 M0 17 C2.2 8.16, 8.97 -4.1, 17 0" stroke="#a5d8ff" stroke-width="2" fill="none"></path></g><g transform="translate(843.6826894091854 488.84814927842945) rotate(0 46.818180084228516 28.799999999999955)"><text x="46.818180084228516" y="15.45" font-family="Cascadia, Segoe UI Emoji" font-size="16px" fill="#a5d8ff" text-anchor="middle" style="white-space: pre;" direction="ltr" dominant-baseline="alphabetic">ROOT_NODE </text><text x="46.818180084228516" y="34.65" font-family="Cascadia, Segoe UI Emoji" font-size="16px" fill="#a5d8ff" text-anchor="middle" style="white-space: pre;" direction="ltr" dominant-baseline="alphabetic">Node A</text><text x="46.818180084228516" y="53.849999999999994" font-family="Cascadia, Segoe UI Emoji" font-size="16px" fill="#a5d8ff" text-anchor="middle" style="white-space: pre;" direction="ltr" dominant-baseline="alphabetic">Window 1 </text></g><g stroke-linecap="round"><g transform="translate(882.1737311834145 471.6481492784301) rotate(0 -0.940893774012352 -26.5)"><path d="M0.24 -1.2 C0.19 -9.92, -0.38 -43.15, -0.71 -51.87 M-1.09 0.79 C-1.17 -8.28, -0.82 -44.52, -1.04 -53.4" stroke="#a5d8ff" stroke-width="2" fill="none"></path></g><g transform="translate(882.1737311834145 471.6481492784301) rotate(0 -0.940893774012352 -26.5)"><path d="M7.63 -29.95 C3.24 -34.23, 4.8 -42.16, -1.04 -53.4 M7.63 -29.95 C6 -36.14, 4.1 -42.05, -1.04 -53.4" stroke="#a5d8ff" stroke-width="2" fill="none"></path></g><g transform="translate(882.1737311834145 471.6481492784301) rotate(0 -0.940893774012352 -26.5)"><path d="M-9.47 -29.87 C-9.31 -34.2, -3.18 -42.16, -1.04 -53.4 M-9.47 -29.87 C-6.71 -35.93, -4.23 -41.86, -1.04 -53.4" stroke="#a5d8ff" stroke-width="2" fill="none"></path></g></g><mask></mask><g stroke-linecap="round" transform="translate(706.0008694934139 610.1481492784296) rotate(0 75.72222222222229 34)"><path d="M17 0 C58.34 -1.74, 90.4 -3.07, 134.44 0 M17 0 C43.93 0.23, 66.69 1.48, 134.44 0 M134.44 0 C144.37 -0.11, 151.2 6.98, 151.44 17 M134.44 0 C143.01 0.2, 147.62 8.45, 151.44 17 M151.44 17 C147.95 26.16, 154.84 37.55, 151.44 51 M151.44 17 C151.89 28.46, 153.48 37.16, 151.44 51 M151.44 51 C155.31 60.31, 145.79 65.8, 134.44 68 M151.44 51 C149.47 66.02, 148.91 65.52, 134.44 68 M134.44 68 C95.91 67.59, 58.66 72.71, 17 68 M134.44 68 C104.26 69.6, 74.74 68.04, 17 68 M17 68 C3.72 69.72, 3.65 64.6, 0 51 M17 68 C7.35 71.39, -2.39 62.6, 0 51 M0 51 C-0.79 39.04, -0.45 24.8, 0 17 M0 51 C-0.11 40.84, 1.22 35.55, 0 17 M0 17 C2.87 2.1, 7.42 2.33, 17 0 M0 17 C3.73 9.9, 4.52 1.06, 17 0" stroke="#a5d8ff" stroke-width="2" fill="none"></path></g><g transform="translate(716.177635783019 615.3481492784294) rotate(0 65.54545593261719 28.799999999999955)"><text x="65.54545593261719" y="15.45" font-family="Cascadia, Segoe UI Emoji" font-size="16px" fill="#a5d8ff" text-anchor="middle" style="white-space: pre;" direction="ltr" dominant-baseline="alphabetic">EXTERNAL_NODE </text><text x="65.54545593261719" y="34.65" font-family="Cascadia, Segoe UI Emoji" font-size="16px" fill="#a5d8ff" text-anchor="middle" style="white-space: pre;" direction="ltr" dominant-baseline="alphabetic">Node B</text><text x="65.54545593261719" y="53.849999999999994" font-family="Cascadia, Segoe UI Emoji" font-size="16px" fill="#a5d8ff" text-anchor="middle" style="white-space: pre;" direction="ltr" dominant-baseline="alphabetic">Null</text></g><g stroke-linecap="round" transform="translate(939.5425361600804 611.3518507215713) rotate(0 75.72222222222229 34)"><path d="M17 0 C58.67 -3.43, 102.86 -3.44, 134.44 0 M17 0 C50.72 -0.68, 85.18 0.44, 134.44 0 M134.44 0 C146.3 2.61, 148.91 1.73, 151.44 17 M134.44 0 C144.07 3.4, 150.6 6.19, 151.44 17 M151.44 17 C153.67 32.16, 149.9 44.23, 151.44 51 M151.44 17 C150.59 27.08, 152.81 32.89, 151.44 51 M151.44 51 C152.41 65.7, 147.84 67.53, 134.44 68 M151.44 51 C149.58 62.74, 149.81 65.95, 134.44 68 M134.44 68 C108.1 68.38, 75.42 65.84, 17 68 M134.44 68 C94.89 70.8, 52.83 69.45, 17 68 M17 68 C9.28 69.99, 3.21 61.88, 0 51 M17 68 C7.18 67.87, 0.4 59.72, 0 51 M0 51 C-3.72 44.04, 2.23 36.13, 0 17 M0 51 C1.33 45.67, -0.8 37.13, 0 17 M0 17 C1.47 4.9, 7.47 0.68, 17 0 M0 17 C4.26 6.01, 2.6 2.61, 17 0" stroke="#ff8787" stroke-width="2" fill="none"></path></g><g transform="translate(949.7193024496854 616.5518507215711) rotate(0 65.54545593261719 28.799999999999955)"><text x="65.54545593261719" y="15.45" font-family="Cascadia, Segoe UI Emoji" font-size="16px" fill="#ff8787" text-anchor="middle" style="white-space: pre;" direction="ltr" dominant-baseline="alphabetic">EXTERNAL_NODE </text><text x="65.54545593261719" y="34.65" font-family="Cascadia, Segoe UI Emoji" font-size="16px" fill="#ff8787" text-anchor="middle" style="white-space: pre;" direction="ltr" dominant-baseline="alphabetic">Node C</text><text x="65.54545593261719" y="53.849999999999994" font-family="Cascadia, Segoe UI Emoji" font-size="16px" fill="#ff8787" text-anchor="middle" style="white-space: pre;" direction="ltr" dominant-baseline="alphabetic">Window 2</text></g><g transform="translate(201.90467241075294 384.6481492784296) rotate(0 46.69091033935547 12)"><text x="0" y="19.3125" font-family="Cascadia, Segoe UI Emoji" font-size="20px" fill="#a5d8ff" text-anchor="start" style="white-space: pre;" direction="ltr" dominant-baseline="alphabetic">BSP-tree</text></g><g stroke-linecap="round" transform="translate(186.90467241075294 485.6481492784296) rotate(0 66 34)"><path d="M17 0 C43.64 0.44, 72.69 0.49, 115 0 M17 0 C47.59 -1.14, 81.66 -0.99, 115 0 M115 0 C125.45 -0.11, 128.92 2.51, 132 17 M115 0 C127.6 0.44, 128.59 3.52, 132 17 M132 17 C133.18 31.12, 134.17 38.44, 132 51 M132 17 C132.19 22.84, 133.38 33.08, 132 51 M132 51 C135.24 63.29, 122.68 68.29, 115 68 M132 51 C128.49 66.16, 127.21 67.08, 115 68 M115 68 C86.73 71.63, 56.95 64.75, 17 68 M115 68 C88.2 68.28, 59.7 68.65, 17 68 M17 68 C5.63 69, -0.15 66.05, 0 51 M17 68 C2.95 65.64, -1.73 63.66, 0 51 M0 51 C-2.95 46.13, -0.7 34.27, 0 17 M0 51 C1.92 44.97, 1.71 36.89, 0 17 M0 17 C-2.52 9.56, 3.23 -1.59, 17 0 M0 17 C1.84 3.96, 9.5 1.04, 17 0" stroke="#a5d8ff" stroke-width="2" fill="none"></path></g><g transform="translate(206.08649232652442 500.4481492784298) rotate(0 46.818180084228516 19.200000000000045)"><text x="46.818180084228516" y="15.45" font-family="Cascadia, Segoe UI Emoji" font-size="16px" fill="#a5d8ff" text-anchor="middle" style="white-space: pre;" direction="ltr" dominant-baseline="alphabetic">ROOT_NODE </text><text x="46.818180084228516" y="34.65" font-family="Cascadia, Segoe UI Emoji" font-size="16px" fill="#a5d8ff" text-anchor="middle" style="white-space: pre;" direction="ltr" dominant-baseline="alphabetic">Node A </text></g><g stroke-linecap="round"><g transform="translate(244.57753410075338 473.6481492784296) rotate(0 -0.940893774012352 -26.5)"><path d="M0.12 0.34 C-0.37 -8.56, -2.3 -44.27, -2.79 -53.33 M-1.28 -0.53 C-1.4 -9.26, -0.7 -43.18, -0.56 -51.96" stroke="#a5d8ff" stroke-width="2" fill="none"></path></g><g transform="translate(244.57753410075338 473.6481492784296) rotate(0 -0.940893774012352 -26.5)"><path d="M7.57 -28.32 C5.61 -37.12, 1.99 -44.47, -0.56 -51.96 M7.57 -28.32 C5.55 -33.52, 3.25 -39.38, -0.56 -51.96" stroke="#a5d8ff" stroke-width="2" fill="none"></path></g><g transform="translate(244.57753410075338 473.6481492784296) rotate(0 -0.940893774012352 -26.5)"><path d="M-9.53 -28.63 C-6.22 -37.35, -4.56 -44.61, -0.56 -51.96 M-9.53 -28.63 C-7.85 -33.63, -6.47 -39.43, -0.56 -51.96" stroke="#a5d8ff" stroke-width="2" fill="none"></path></g></g><mask></mask><g stroke-linecap="round" transform="translate(59.40467241075294 612.1481492784296) rotate(0 75.72222222222229 34)"><path d="M17 0 C52.27 -1.37, 86.37 2.47, 134.44 0 M17 0 C41.72 -1.51, 70.08 0.26, 134.44 0 M134.44 0 C142.81 -1.87, 152.05 4.34, 151.44 17 M134.44 0 C148.44 1.61, 155.37 8.42, 151.44 17 M151.44 17 C149.04 26.49, 148.38 39.08, 151.44 51 M151.44 17 C150.17 30.68, 150.47 45.73, 151.44 51 M151.44 51 C152.21 61.54, 145.15 66.59, 134.44 68 M151.44 51 C151.87 61.88, 149.75 65.34, 134.44 68 M134.44 68 C109.97 68.34, 84.06 67.59, 17 68 M134.44 68 C97.28 70.45, 59.07 67.56, 17 68 M17 68 C4.16 69.15, -3.16 63.33, 0 51 M17 68 C6.2 64.8, 3.05 61.72, 0 51 M0 51 C-1.81 44.74, 4.12 35.57, 0 17 M0 51 C-0.79 37.28, 1.23 24.41, 0 17 M0 17 C3.33 6.57, 4.82 -2.9, 17 0 M0 17 C0.2 9.47, 6.11 -1.94, 17 0" stroke="#a5d8ff" stroke-width="2" fill="none"></path></g><g transform="translate(69.58143870035815 617.3481492784294) rotate(0 65.54545593261719 28.799999999999955)"><text x="65.54545593261719" y="15.45" font-family="Cascadia, Segoe UI Emoji" font-size="16px" fill="#a5d8ff" text-anchor="middle" style="white-space: pre;" direction="ltr" dominant-baseline="alphabetic">EXTERNAL_NODE </text><text x="65.54545593261719" y="34.65" font-family="Cascadia, Segoe UI Emoji" font-size="16px" fill="#a5d8ff" text-anchor="middle" style="white-space: pre;" direction="ltr" dominant-baseline="alphabetic">Node B</text><text x="65.54545593261719" y="53.849999999999994" font-family="Cascadia, Segoe UI Emoji" font-size="16px" fill="#a5d8ff" text-anchor="middle" style="white-space: pre;" direction="ltr" dominant-baseline="alphabetic">Window 1</text></g><g stroke-linecap="round"><g transform="translate(179.0697675012289 557.7351181044219) rotate(0 -9.260979959366495 19.956515587003878)"><path d="M-1.53 -0.44 C-4.49 7.32, -10.11 18.24, -18.33 38.43 M0.58 0.35 C-3.78 10.65, -9.32 19.24, -17.72 39.47" stroke="#a5d8ff" stroke-width="1" fill="none"></path></g><g transform="translate(179.0697675012289 557.7351181044219) rotate(0 -9.260979959366495 19.956515587003878)"><path d="M-17.75 17.08 C-16.8 20.84, -18.65 27.78, -17.53 37.99 M-15.65 17.87 C-15.72 23.67, -16.95 27.71, -16.91 39.03" stroke="#a5d8ff" stroke-width="1" fill="none"></path></g><g transform="translate(179.0697675012289 557.7351181044219) rotate(0 -9.260979959366495 19.956515587003878)"><path d="M-3.99 23.17 C-6.03 25.61, -10.93 31.2, -17.53 37.99 M-1.89 23.96 C-5.45 28.18, -10.17 30.67, -16.91 39.03" stroke="#a5d8ff" stroke-width="1" fill="none"></path></g></g><mask></mask><g stroke-linecap="round"><g transform="translate(328.5843499496573 558.873457187332) rotate(0 10.866245430672734 20.88734604554884)"><path d="M-0.06 -1.54 C5 13.85, 13.66 25.06, 20.8 42.08 M0.85 0.6 C6.04 10.15, 12.65 21.78, 21.55 41.17" stroke="#a5d8ff" stroke-width="1" fill="none"></path></g><g transform="translate(328.5843499496573 558.873457187332) rotate(0 10.866245430672734 20.88734604554884)"><path d="M4.69 23.14 C8.37 30.5, 15.47 33.69, 20.62 41.47 M5.59 25.28 C9.32 28.1, 14.61 32.98, 21.37 40.56" stroke="#a5d8ff" stroke-width="1" fill="none"></path></g><g transform="translate(328.5843499496573 558.873457187332) rotate(0 10.866245430672734 20.88734604554884)"><path d="M19.21 16.19 C18.24 25.72, 20.73 31.12, 20.62 41.47 M20.12 18.33 C20.02 23.05, 21.43 29.79, 21.37 40.56" stroke="#a5d8ff" stroke-width="1" fill="none"></path></g></g><mask></mask><g stroke-linecap="round" transform="translate(301.94633907741945 613.3518507215713) rotate(0 75.72222222222229 34)"><path d="M17 0 C46.5 2.91, 82.69 -1.16, 134.44 0 M17 0 C47.91 1.48, 78.2 1.98, 134.44 0 M134.44 0 C145.78 -3.69, 154.66 3.89, 151.44 17 M134.44 0 C144.95 -2.8, 153.37 10.18, 151.44 17 M151.44 17 C151.9 26.9, 154.94 43.68, 151.44 51 M151.44 17 C151.52 26.32, 153.06 34.89, 151.44 51 M151.44 51 C148.01 61.82, 141.81 68.68, 134.44 68 M151.44 51 C154.52 62.23, 147.99 68.73, 134.44 68 M134.44 68 C103.04 65.55, 62.14 66.41, 17 68 M134.44 68 C96.05 67.2, 58.52 68.32, 17 68 M17 68 C3.97 65.25, -3.92 60.06, 0 51 M17 68 C8.54 72.2, 2.4 66.02, 0 51 M0 51 C-2.25 44.54, -2.15 38.22, 0 17 M0 51 C0.23 41.68, 0.34 28.21, 0 17 M0 17 C-3.22 6.98, 3.13 1.85, 17 0 M0 17 C2.06 2.97, 6.23 -4, 17 0" stroke="#ff8787" stroke-width="2" fill="none"></path></g><g transform="translate(312.12310536702466 618.5518507215711) rotate(0 65.54545593261719 28.799999999999955)"><text x="65.54545593261719" y="15.45" font-family="Cascadia, Segoe UI Emoji" font-size="16px" fill="#ff8787" text-anchor="middle" style="white-space: pre;" direction="ltr" dominant-baseline="alphabetic">EXTERNAL_NODE </text><text x="65.54545593261719" y="34.65" font-family="Cascadia, Segoe UI Emoji" font-size="16px" fill="#ff8787" text-anchor="middle" style="white-space: pre;" direction="ltr" dominant-baseline="alphabetic">Node C</text><text x="65.54545593261719" y="53.849999999999994" font-family="Cascadia, Segoe UI Emoji" font-size="16px" fill="#ff8787" text-anchor="middle" style="white-space: pre;" direction="ltr" dominant-baseline="alphabetic">Window 2</text></g><g stroke-linecap="round"><g transform="translate(476.1407835218638 563.5) rotate(0 -11.5 22)"><path d="M-0.93 0.3 C-8.15 15.39, -14.32 30.35, -21.8 44 M-0.18 -0.61 C-4 10.02, -8.39 18.41, -23.91 44.07" stroke="#a5d8ff" stroke-width="2" fill="none"></path></g><g transform="translate(476.1407835218638 563.5) rotate(0 -11.5 22)"><path d="M-20.24 19.98 C-21.46 28.79, -21.6 37.32, -22.72 44.08 M-19.49 19.07 C-19.65 25.7, -20.22 30.03, -24.83 44.14" stroke="#a5d8ff" stroke-width="2" fill="none"></path></g><g transform="translate(476.1407835218638 563.5) rotate(0 -11.5 22)"><path d="M-5.64 28.65 C-11.64 34.51, -16.57 40.21, -22.72 44.08 M-4.89 27.74 C-8.15 32.51, -11.75 35.03, -24.83 44.14" stroke="#a5d8ff" stroke-width="2" fill="none"></path></g></g><mask></mask><g transform="translate(438.686239454481 511.90000000000055) rotate(0 37.45454406738281 19.200000000000045)"><text x="37.45454406738281" y="15.45" font-family="Cascadia, Segoe UI Emoji" font-size="16px" fill="#a5d8ff" text-anchor="middle" style="white-space: pre;" direction="ltr" dominant-baseline="alphabetic">Node to </text><text x="37.45454406738281" y="34.65" font-family="Cascadia, Segoe UI Emoji" font-size="16px" fill="#a5d8ff" text-anchor="middle" style="white-space: pre;" direction="ltr" dominant-baseline="alphabetic">delete</text></g><g transform="translate(54.03636193275452 422.3000000000002) rotate(0 60.8636360168457 9.599999999999909)"><text x="60.8636360168457" y="15.45" font-family="Cascadia, Segoe UI Emoji" font-size="16px" fill="#a5d8ff" text-anchor="middle" style="white-space: pre;" direction="ltr" dominant-baseline="alphabetic">Initial state</text></g><g transform="translate(634.5 389.39999999999964) rotate(0 51.5 9.599999999999909)"><text x="51.5" y="15.45" font-family="Cascadia, Segoe UI Emoji" font-size="16px" fill="#a5d8ff" text-anchor="middle" style="white-space: pre;" direction="ltr" dominant-baseline="alphabetic">final state</text></g><g stroke-linecap="round" transform="translate(10 10) rotate(0 262 343.5000000000002)"><path d="M1.18 -1.05 C127.3 -4.04, 253.3 -3.31, 523.58 0.79 M0.76 -0.05 C141.67 -2.14, 284.85 -1.31, 524.07 -0.39 M525.46 1.5 C526.16 224.15, 524.63 451.39, 524.46 686.63 M524.06 0.65 C522.84 227.43, 523.64 455.18, 523.7 687 M524.31 685.54 C339.04 686.15, 153.51 684.86, -0.9 686.68 M523.85 687.52 C330.39 685.43, 137.8 685.79, 0.68 687.11 M1.41 688.07 C4.6 445.23, 5.47 203.94, 1.54 -0.42 M0.67 686.91 C-4.22 508.15, -5.03 330.79, 0.51 -0.69" stroke="#ffffff" stroke-width="1" fill="none"></path></g><g stroke-linecap="round" transform="translate(609.4999999999999 10) rotate(0 257 341.4999999999998)"><path d="M-0.97 1.11 C164.79 1.77, 331.21 2.23, 513.58 -1.22 M-0.05 0.35 C166.14 -2.02, 332.15 -0.61, 514.13 0.25 M512.41 1.3 C512.63 180.83, 512.76 365.21, 515.42 683.29 M513.93 -0.5 C510.33 244.87, 510.01 489.26, 514.5 682.64 M515.4 682.12 C310.66 685.19, 108.45 683.23, -0.31 683.53 M514.34 682.31 C391.13 680.13, 268.78 680.09, 0.48 683.51 M0.96 683.12 C-3.04 484.22, -4.05 284.66, -0.04 -0.77 M-0.08 682.4 C-0.61 441.35, -0.58 201.1, -0.17 0.22" stroke="#ffffff" stroke-width="1" fill="none"></path></g><g stroke-linecap="round"><g transform="translate(542 345.9628181403755) rotate(0 28.5 7.168724271708015)"><path d="M-0.46 3.21 C18.77 -0.1, 33.12 3.31, 58.57 12.1 M0.39 1.12 C22.61 6.74, 45.44 8.72, 57.94 12.49" stroke="#ffffff" stroke-width="1" fill="none"></path></g><g transform="translate(542 345.9628181403755) rotate(0 28.5 7.168724271708015)"><path d="M32.93 17.34 C41.63 13.07, 47.8 11.94, 58.73 11.37 M33.35 16.3 C43.12 15.31, 53.12 12.32, 58.41 11.57" stroke="#ffffff" stroke-width="1" fill="none"></path></g><g transform="translate(542 345.9628181403755) rotate(0 28.5 7.168724271708015)"><path d="M36.64 0.65 C44.24 0.93, 49.4 4.34, 58.73 11.37 M37.06 -0.39 C45.34 5.02, 53.92 8.41, 58.41 11.57" stroke="#ffffff" stroke-width="1" fill="none"></path></g></g><mask></mask><g transform="translate(631.5205931663514 418.5999999999999) rotate(0 118.23319355646782 39.25)"><text x="0" y="12.633593750000003" font-family="Cascadia, Segoe UI Emoji" font-size="13.083333333333337px" fill="#ffffff" text-anchor="start" style="white-space: pre;" direction="ltr" dominant-baseline="alphabetic">- The parent ⇄ child links </text><text x="0" y="28.333593750000006" font-family="Cascadia, Segoe UI Emoji" font-size="13.083333333333337px" fill="#ffffff" text-anchor="start" style="white-space: pre;" direction="ltr" dominant-baseline="alphabetic">  are removed</text><text x="0" y="44.03359375000001" font-family="Cascadia, Segoe UI Emoji" font-size="13.083333333333337px" fill="#ffffff" text-anchor="start" style="white-space: pre;" direction="ltr" dominant-baseline="alphabetic">- We can safely call </text><text x="0" y="59.73359375000002" font-family="Cascadia, Segoe UI Emoji" font-size="13.083333333333337px" fill="#ffffff" text-anchor="start" style="white-space: pre;" direction="ltr" dominant-baseline="alphabetic">  free(node B) and </text><text x="0" y="75.43359375000003" font-family="Cascadia, Segoe UI Emoji" font-size="13.083333333333337px" fill="#ffffff" text-anchor="start" style="white-space: pre;" direction="ltr" dominant-baseline="alphabetic">  free(node C)</text></g><g transform="translate(253.13889599765048 20.749999999999545) rotate(0 35.01818084716797 12)"><text x="0" y="19.3125" font-family="Cascadia, Segoe UI Emoji" font-size="20px" fill="#a5d8ff" text-anchor="start" style="white-space: pre;" direction="ltr" dominant-baseline="alphabetic">Screen</text></g><g stroke-linecap="round" transform="translate(49.63889599765048 105.24999999999955) rotate(0 233.88888888888886 114)"><path d="M0 0 C125.28 -1.29, 249.46 -1.75, 467.78 0 M0 0 C161.14 -0.37, 322.79 -1.22, 467.78 0 M467.78 0 C468.17 46.7, 467.23 93.22, 467.78 228 M467.78 0 C466.92 68.82, 468.19 137.33, 467.78 228 M467.78 228 C294.85 229.54, 121.59 229.18, 0 228 M467.78 228 C302.16 229.3, 136.11 228.94, 0 228 M0 228 C-2.93 136.58, -2.79 48.22, 0 0 M0 228 C-1 166.03, -1.52 103.48, 0 0" stroke="#a5d8ff" stroke-width="1" fill="none"></path></g><g stroke-linecap="round" transform="translate(55.13889599765048 112.24999999999955) rotate(0 228.4444444444444 107.00000000000023)"><path d="M0.95 -1.93 L457.21 0.25 L458.03 213.24 L-0.33 212.8" stroke="none" stroke-width="0" fill="#b2f2bb"></path><path d="M0 0 C161.47 -0.24, 322.36 0.63, 456.89 0 M0 0 C153.56 -2.39, 307.01 -1.66, 456.89 0 M456.89 0 C454.49 80.53, 456.18 162.98, 456.89 214 M456.89 0 C455.85 70.47, 455.91 141.62, 456.89 214 M456.89 214 C300.22 215.83, 144.75 216.33, 0 214 M456.89 214 C293.08 213.88, 129.05 214.62, 0 214 M0 214 C0.23 129.79, 0.91 45.9, 0 0 M0 214 C-0.39 164.94, -0.01 114.5, 0 0" stroke="#1e1e1e" stroke-width="2" fill="none"></path></g><g stroke-linecap="round" transform="translate(63.63889599765048 120.74999999999955) rotate(0 107.61111111111109 97.83333333333348)"><path d="M0 0 C61.16 1.71, 121.37 0.06, 215.22 0 M0 0 C82.92 2.33, 168.19 1.51, 215.22 0 M215.22 0 C213.42 53.86, 214 106.31, 215.22 195.67 M215.22 0 C217.16 56.97, 216.89 114.46, 215.22 195.67 M215.22 195.67 C136.28 197.73, 56.46 197.7, 0 195.67 M215.22 195.67 C149.39 195.13, 82.72 193.74, 0 195.67 M0 195.67 C0.74 154.15, -0.1 110.55, 0 0 M0 195.67 C1.17 122.74, 1.96 48.83, 0 0" stroke="#1e1e1e" stroke-width="2" fill="none"></path></g><g transform="translate(143.15909715087582 199.38333333333276) rotate(0 28.090909957885742 19.200000000000045)"><text x="28.090909957885742" y="15.45" font-family="Cascadia, Segoe UI Emoji" font-size="16px" fill="#1e1e1e" text-anchor="middle" style="white-space: pre;" direction="ltr" dominant-baseline="alphabetic">Node B</text><text x="28.090909957885742" y="34.65" font-family="Cascadia, Segoe UI Emoji" font-size="16px" fill="#1e1e1e" text-anchor="middle" style="white-space: pre;" direction="ltr" dominant-baseline="alphabetic"></text></g><g stroke-linecap="round" transform="translate(287.74306266431745 121.45000000000027) rotate(0 107.61111111111109 97.83333333333348)"><path d="M-0.33 -1.2 L216.08 -1.26 L215.65 197.49 L0.89 194.4" stroke="none" stroke-width="0" fill="#fa5252"></path><path d="M0 0 C70.89 0.75, 136.93 -0.27, 215.22 0 M0 0 C76.16 -0.08, 152.22 0.77, 215.22 0 M215.22 0 C215.69 58.61, 214.81 116.07, 215.22 195.67 M215.22 0 C216.76 53.17, 216.36 107.6, 215.22 195.67 M215.22 195.67 C132.7 198.47, 48.63 198.87, 0 195.67 M215.22 195.67 C131.18 193.75, 48.72 194.09, 0 195.67 M0 195.67 C2.78 126.67, 2.89 60.09, 0 0 M0 195.67 C-0.76 136.98, -0.36 77.67, 0 0" stroke="#1e1e1e" stroke-width="2" fill="none"></path></g><g transform="translate(367.2632638175428 209.68333333333385) rotate(0 28.090909957885742 9.599999999999909)"><text x="28.090909957885742" y="15.45" font-family="Cascadia, Segoe UI Emoji" font-size="16px" fill="#1e1e1e" text-anchor="middle" style="white-space: pre;" direction="ltr" dominant-baseline="alphabetic">Node C</text></g><g stroke-linecap="round"><g transform="translate(281.305562664317 89.04409059247837) rotate(0 0 -18.38037862957208)"><path d="M0 0 C0 -9.74, 0 -19.48, 0 -36.76 M0 0 C0 -7.56, 0 -15.12, 0 -36.76" stroke="#a5d8ff" stroke-width="2" fill="none"></path></g><g transform="translate(281.305562664317 89.04409059247837) rotate(0 0 -18.38037862957208)"><path d="M6.29 -19.49 C4.62 -24.06, 2.96 -28.64, 0 -36.76 M6.29 -19.49 C4.99 -23.04, 3.7 -26.59, 0 -36.76" stroke="#a5d8ff" stroke-width="2" fill="none"></path></g><g transform="translate(281.305562664317 89.04409059247837) rotate(0 0 -18.38037862957208)"><path d="M-6.29 -19.49 C-4.62 -24.06, -2.96 -28.64, 0 -36.76 M-6.29 -19.49 C-4.99 -23.04, -3.7 -26.59, 0 -36.76" stroke="#a5d8ff" stroke-width="2" fill="none"></path></g></g><mask></mask><g transform="translate(16.58332622457192 42.34735562763444) rotate(0 28.090909957885742 9.599999999999909)"><text x="0" y="15.45" font-family="Cascadia, Segoe UI Emoji" font-size="16px" fill="#b2f2bb" text-anchor="start" style="white-space: pre;" direction="ltr" dominant-baseline="alphabetic">Node A</text></g><g stroke-linecap="round"><g transform="translate(171.19446577072904 115.84894292922172) rotate(0 -45.28935643867567 -30.332956341506815)"><path d="M0 0 C-34.52 -23.12, -69.04 -46.24, -90.58 -60.67 M0 0 C-30.02 -20.11, -60.04 -40.21, -90.58 -60.67" stroke="#b2f2bb" stroke-width="1" fill="none"></path></g><g transform="translate(171.19446577072904 115.84894292922172) rotate(0 -45.28935643867567 -30.332956341506815)"><path d="M-66.3 -54.7 C-75.55 -56.97, -84.81 -59.25, -90.58 -60.67 M-66.3 -54.7 C-74.35 -56.68, -82.39 -58.65, -90.58 -60.67" stroke="#b2f2bb" stroke-width="1" fill="none"></path></g><g transform="translate(171.19446577072904 115.84894292922172) rotate(0 -45.28935643867567 -30.332956341506815)"><path d="M-75.82 -40.49 C-81.44 -48.18, -87.07 -55.87, -90.58 -60.67 M-75.82 -40.49 C-80.71 -47.18, -85.6 -53.86, -90.58 -60.67" stroke="#b2f2bb" stroke-width="1" fill="none"></path></g></g><mask></mask><g stroke-linecap="round"><g transform="translate(31 363) rotate(0 242.5 -1.5)"><path d="M0 -1.64 C143 -0.25, 284.71 -1.15, 485.8 -2.8 M0.68 -0.55 C192.8 1.26, 383.91 -0.02, 484.37 -2.76" stroke="#ffffff" stroke-width="1" fill="none"></path></g></g><mask></mask><g stroke-linecap="round"><g transform="translate(618.0981840617502 369.25104322091465) rotate(0 242.5 -1.5)"><path d="M0.14 1.14 C168.64 0.72, 339.41 -1.63, 486.43 -2.83 M0.57 0.65 C153.75 -3.24, 305.62 -4.4, 484.54 -3.76" stroke="#ffffff" stroke-width="1" fill="none"></path></g></g><mask></mask><g stroke-linecap="round" transform="translate(624.1111111111111 115.48333333333312) rotate(0 233.88888888888886 114)"><path d="M0 0 C126.91 -2.36, 255.37 -0.98, 467.78 0 M0 0 C103.74 -0.29, 207.92 -0.89, 467.78 0 M467.78 0 C467.85 46.28, 468.06 96.56, 467.78 228 M467.78 0 C469.85 88.3, 469.79 175.14, 467.78 228 M467.78 228 C359.56 226.59, 253.08 227.7, 0 228 M467.78 228 C317.08 229.78, 166.3 230.07, 0 228 M0 228 C-0.74 154.05, -2.28 82.51, 0 0 M0 228 C-0.81 168.73, -0.49 111.19, 0 0" stroke="#a5d8ff" stroke-width="1" fill="none"></path></g><g stroke-linecap="round" transform="translate(629.6111111111111 122.48333333333312) rotate(0 228.4444444444444 107.00000000000023)"><path d="M0.77 1.66 L457.54 1.54 L458.66 215.96 L0.24 213.35" stroke="none" stroke-width="0" fill="#b2f2bb"></path><path d="M0 0 C178.3 2.1, 354.15 1.28, 456.89 0 M0 0 C146.51 -1.26, 293.41 -1.08, 456.89 0 M456.89 0 C459.56 80.8, 459.64 160.49, 456.89 214 M456.89 0 C457.3 60.21, 456.6 120.88, 456.89 214 M456.89 214 C339.78 213.45, 222.28 212.49, 0 214 M456.89 214 C283.15 214.8, 109.77 214.61, 0 214 M0 214 C-1.58 167.66, -0.82 120.18, 0 0 M0 214 C0.84 136.67, 0.3 58.78, 0 0" stroke="#1e1e1e" stroke-width="2" fill="none"></path></g><g transform="translate(736.328283521864 219.8833333333332) rotate(0 121.72727203369146 9.599999999999909)"><text x="121.7272720336914" y="15.45" font-family="Cascadia, Segoe UI Emoji" font-size="16px" fill="#1e1e1e" text-anchor="middle" style="white-space: pre;" direction="ltr" dominant-baseline="alphabetic">Node A containing window 1</text></g><g stroke-linecap="round"><g transform="translate(855.7777777777776 99.27742392581195) rotate(0 0 -18.38037862957208)"><path d="M0 0 C0 -7.85, 0 -15.7, 0 -36.76 M0 0 C0 -13.98, 0 -27.96, 0 -36.76" stroke="#a5d8ff" stroke-width="2" fill="none"></path></g><g transform="translate(855.7777777777776 99.27742392581195) rotate(0 0 -18.38037862957208)"><path d="M6.29 -19.49 C4.94 -23.18, 3.6 -26.87, 0 -36.76 M6.29 -19.49 C3.9 -26.06, 1.51 -32.62, 0 -36.76" stroke="#a5d8ff" stroke-width="2" fill="none"></path></g><g transform="translate(855.7777777777776 99.27742392581195) rotate(0 0 -18.38037862957208)"><path d="M-6.29 -19.49 C-4.94 -23.18, -3.6 -26.87, 0 -36.76 M-6.29 -19.49 C-3.9 -26.06, -1.51 -32.62, 0 -36.76" stroke="#a5d8ff" stroke-width="2" fill="none"></path></g></g><mask></mask><g transform="translate(810.981819152832 23.999999999999545) rotate(0 35.01818084716797 12)"><text x="0" y="19.3125" font-family="Cascadia, Segoe UI Emoji" font-size="20px" fill="#a5d8ff" text-anchor="start" style="white-space: pre;" direction="ltr" dominant-baseline="alphabetic">Screen</text></g><g stroke-linecap="round"><g transform="translate(322 601) rotate(0 -7.5 -18.5)"><path d="M1.94 0.35 C-4.61 -11.46, -9.47 -19.42, -16.53 -35.75 M-0.09 0.11 C-4.44 -11.18, -7.52 -21.56, -15.34 -37.64" stroke="#a5d8ff" stroke-width="1" fill="none"></path></g><g transform="translate(322 601) rotate(0 -7.5 -18.5)"><path d="M0.54 -23.01 C-5.91 -28.9, -10.49 -30.95, -16.87 -36.39 M-1.49 -23.24 C-5.61 -28.2, -8.4 -32.25, -15.69 -38.27" stroke="#a5d8ff" stroke-width="1" fill="none"></path></g><g transform="translate(322 601) rotate(0 -7.5 -18.5)"><path d="M-11.9 -17.39 C-15.07 -24.84, -16.41 -28.35, -16.87 -36.39 M-13.93 -17.62 C-14.57 -24.11, -13.89 -29.73, -15.69 -38.27" stroke="#a5d8ff" stroke-width="1" fill="none"></path></g></g><mask></mask><g stroke-linecap="round"><g transform="translate(186 599) rotate(0 9 -17)"><path d="M1.19 -0.72 C4.11 -6.34, 8.08 -15.44, 19.35 -32.26 M-0.1 -0.2 C6.08 -12.52, 13.99 -25.76, 18.09 -34.47" stroke="#a5d8ff" stroke-width="1" fill="none"></path></g><g transform="translate(186 599) rotate(0 9 -17)"><path d="M16.85 -16.08 C16.44 -18.7, 17.13 -24.59, 19.39 -32.8 M15.6 -15.57 C15.78 -22.1, 17.62 -29.58, 18.18 -34.93" stroke="#a5d8ff" stroke-width="1" fill="none"></path></g><g transform="translate(186 599) rotate(0 9 -17)"><path d="M5.14 -22.08 C7.15 -23.38, 10.3 -28.01, 19.39 -32.8 M3.89 -21.58 C8.58 -25.84, 14.95 -31, 18.18 -34.93" stroke="#a5d8ff" stroke-width="1" fill="none"></path></g></g><mask></mask></svg>