<svg version="1.1" xmlns="http://www.w3.org/2000/svg" viewBox="0 0 1088.2187500000005 481.7111111111112" width="1088.2187500000005" height="481.7111111111112">
  <!-- svg-source:excalidraw -->
  
  <defs>
    <style class="style-fonts">
      @font-face {
        font-family: "Virgil";
        src: url("https://excalidraw.com/Virgil.woff2");
      }
      @font-face {
        font-family: "Cascadia";
        src: url("https://excalidraw.com/Cascadia.woff2");
      }
      @font-face {
        font-family: "Assistant";
        src: url("https://excalidraw.com/Assistant-Regular.woff2");
      }
    </style>
    
  </defs>
  <rect x="0" y="0" width="1088.2187500000005" height="481.7111111111112" fill="#2a2631"></rect><g transform="translate(201.5 10) rotate(0 35.01818084716797 12)"><text x="0" y="19.3125" font-family="Cascadia, Segoe UI Emoji" font-size="20px" fill="#a5d8ff" text-anchor="start" style="white-space: pre;" direction="ltr" dominant-baseline="alphabetic">Screen</text></g><g transform="translate(713.5 31.22222222222217) rotate(0 46.69091033935547 12)"><text x="0" y="19.3125" font-family="Cascadia, Segoe UI Emoji" font-size="20px" fill="#a5d8ff" text-anchor="start" style="white-space: pre;" direction="ltr" dominant-baseline="alphabetic">BSP-tree</text></g><g stroke-linecap="round" transform="translate(698.5 132.22222222222217) rotate(0 66 34)"><path d="M17 0 C47.09 -5.32, 76.67 -4.53, 115 0 M17 0 C36.74 1.3, 58.24 1.22, 115 0 M115 0 C126.83 2.7, 131.47 7.25, 132 17 M115 0 C122.95 3.42, 131.81 8.9, 132 17 M132 17 C133.12 25.27, 134.78 33.37, 132 51 M132 17 C130.21 27.37, 131.42 35.37, 132 51 M132 51 C134.29 63.69, 125.89 68.33, 115 68 M132 51 C130.73 66.88, 124.43 70.16, 115 68 M115 68 C78.29 71.36, 39.55 67.23, 17 68 M115 68 C79.69 67.77, 46.17 69.56, 17 68 M17 68 C5.1 66.24, 3.47 59.96, 0 51 M17 68 C2.98 65.94, -1.8 65.17, 0 51 M0 51 C-3.14 41.17, -2.65 28.05, 0 17 M0 51 C-0.1 37, -0.83 27.9, 0 17 M0 17 C3.65 2.31, 5.94 -0.93, 17 0 M0 17 C3.99 5.68, 4.34 -2.41, 17 0" stroke="#b2f2bb" stroke-width="2" fill="none"></path></g><g transform="translate(717.6818199157715 147.02222222222235) rotate(0 46.818180084228516 19.199999999999818)"><text x="46.818180084228516" y="15.45" font-family="Cascadia, Segoe UI Emoji" font-size="16px" fill="#b2f2bb" text-anchor="middle" style="white-space: pre;" direction="ltr" dominant-baseline="alphabetic">ROOT_NODE </text><text x="46.818180084228516" y="34.65" font-family="Cascadia, Segoe UI Emoji" font-size="16px" fill="#b2f2bb" text-anchor="middle" style="white-space: pre;" direction="ltr" dominant-baseline="alphabetic">Node PA </text></g><g stroke-linecap="round"><g transform="translate(756.1728616900002 120.22222222222217) rotate(0 -0.940893774012352 -26.5)"><path d="M-1.93 -2.7 C-1.56 -11.91, -0.24 -47.04, -0.29 -55.54 M2.22 2.01 C2.58 -6.93, -0.59 -44.47, -1.66 -53.29" stroke="#a5d8ff" stroke-width="2" fill="none"></path></g><g transform="translate(756.1728616900002 120.22222222222217) rotate(0 -0.940893774012352 -26.5)"><path d="M7.2 -29.59 C5.05 -35.8, 4.11 -39.03, -2.22 -53.04 M8.39 -29.99 C5.15 -38.28, 0.56 -46.86, -0.7 -53.08" stroke="#a5d8ff" stroke-width="2" fill="none"></path></g><g transform="translate(756.1728616900002 120.22222222222217) rotate(0 -0.940893774012352 -26.5)"><path d="M-9.82 -27.94 C-8.37 -34.37, -5.71 -37.96, -2.22 -53.04 M-8.63 -28.34 C-5.61 -37.3, -3.95 -46.49, -0.7 -53.08" stroke="#a5d8ff" stroke-width="2" fill="none"></path></g></g><mask></mask><g stroke-linecap="round" transform="translate(580 258.7222222222222) rotate(0 75.72222222222229 34)"><path d="M17 0 C42.32 -0.89, 70.8 0.65, 134.44 0 M17 0 C48.82 -0.4, 80.16 -0.05, 134.44 0 M134.44 0 C145.69 1.41, 150.1 6.5, 151.44 17 M134.44 0 C147.97 0.48, 151.65 7.11, 151.44 17 M151.44 17 C150.84 25.81, 153.26 37.7, 151.44 51 M151.44 17 C151.53 30.05, 151.36 43.93, 151.44 51 M151.44 51 C150.62 63.27, 147.54 66.87, 134.44 68 M151.44 51 C152.3 63.09, 147.29 68.35, 134.44 68 M134.44 68 C104.79 68.07, 71.38 68.84, 17 68 M134.44 68 C97.7 66.89, 58.65 67.03, 17 68 M17 68 C4.88 69.23, 1.19 62.46, 0 51 M17 68 C3.46 66.22, 1.38 60.84, 0 51 M0 51 C0.11 39.7, -1.92 27.5, 0 17 M0 51 C-0.24 38.09, 0.56 25.64, 0 17 M0 17 C-0.58 4.62, 6.11 1.97, 17 0 M0 17 C1.56 6.91, 6.85 0.93, 17 0" stroke="#a5d8ff" stroke-width="2" fill="none"></path></g><g transform="translate(590.1767662896051 263.922222222222) rotate(0 65.54545593261719 28.800000000000182)"><text x="65.54545593261719" y="15.45" font-family="Cascadia, Segoe UI Emoji" font-size="16px" fill="#a5d8ff" text-anchor="middle" style="white-space: pre;" direction="ltr" dominant-baseline="alphabetic">EXTERNAL_NODE </text><text x="65.54545593261719" y="34.65" font-family="Cascadia, Segoe UI Emoji" font-size="16px" fill="#a5d8ff" text-anchor="middle" style="white-space: pre;" direction="ltr" dominant-baseline="alphabetic">Node EA</text><text x="65.54545593261719" y="53.849999999999994" font-family="Cascadia, Segoe UI Emoji" font-size="16px" fill="#a5d8ff" text-anchor="middle" style="white-space: pre;" direction="ltr" dominant-baseline="alphabetic">window 1</text></g><g stroke-linecap="round"><g transform="translate(689.6047144573088 201.14389729853474) rotate(0 -11.339508894636083 21.539162461843716)"><path d="M-0.56 0.25 C-5.3 12.33, -12.42 23.57, -21.19 42.99 M0.95 0.21 C-8.6 16.67, -16.95 31.46, -22.58 42.87" stroke="#a5d8ff" stroke-width="1" fill="none"></path></g><g transform="translate(689.6047144573088 201.14389729853474) rotate(0 -11.339508894636083 21.539162461843716)"><path d="M-20.02 18.98 C-19.07 25.46, -20.53 31.23, -21.09 42.79 M-18.51 18.94 C-20.69 28.31, -21.79 36.08, -22.47 42.66" stroke="#a5d8ff" stroke-width="1" fill="none"></path></g><g transform="translate(689.6047144573088 201.14389729853474) rotate(0 -11.339508894636083 21.539162461843716)"><path d="M-5.23 26.63 C-8.53 31, -14.27 34.55, -21.09 42.79 M-3.72 26.58 C-11.32 33.18, -17.91 38.13, -22.47 42.66" stroke="#a5d8ff" stroke-width="1" fill="none"></path></g></g><mask></mask><g stroke-linecap="round"><g transform="translate(840.1796775389039 205.4475301311245) rotate(0 10.866245430672734 20.88734604554884)"><path d="M1.35 -0.26 C8.62 13.78, 17.27 30.45, 23.14 40.43 M0.09 0.63 C7.96 13.69, 15.35 28.28, 20.8 42.77" stroke="#a5d8ff" stroke-width="1" fill="none"></path></g><g transform="translate(840.1796775389039 205.4475301311245) rotate(0 10.866245430672734 20.88734604554884)"><path d="M6.25 25.15 C11.46 30.27, 17.97 38.01, 22.21 41.43 M4.99 26.04 C10.64 30.77, 16.03 37.03, 19.88 43.77" stroke="#a5d8ff" stroke-width="1" fill="none"></path></g><g transform="translate(840.1796775389039 205.4475301311245) rotate(0 10.866245430672734 20.88734604554884)"><path d="M21.13 18.99 C20.88 26.38, 21.95 36.37, 22.21 41.43 M19.87 19.88 C20.49 26.75, 20.81 35.11, 19.88 43.77" stroke="#a5d8ff" stroke-width="1" fill="none"></path></g></g><mask></mask><g stroke-linecap="round" transform="translate(10 111.72222222222217) rotate(0 233.88888888888886 114)"><path d="M0 0 C146.5 -0.39, 292.96 0.24, 467.78 0 M0 0 C173.67 -0.79, 346.52 -0.6, 467.78 0 M467.78 0 C466.37 69.97, 468.43 142.56, 467.78 228 M467.78 0 C468.8 87.04, 468.65 174.79, 467.78 228 M467.78 228 C346.32 230.21, 226.18 230.46, 0 228 M467.78 228 C320.85 229.33, 172.83 228.74, 0 228 M0 228 C-1.14 164.05, -1.41 96.15, 0 0 M0 228 C1.27 169.87, -0.06 110.97, 0 0" stroke="#a5d8ff" stroke-width="1" fill="none"></path></g><g stroke-linecap="round" transform="translate(15.5 118.72222222222217) rotate(0 228.4444444444444 107)"><path d="M0 0 L456.89 0 L456.89 214 L0 214" stroke="none" stroke-width="0" fill="#b2f2bb"></path><path d="M0 0 C131.02 0, 262.05 0, 456.89 0 M0 0 C156.07 0, 312.13 0, 456.89 0 M456.89 0 C456.89 66.41, 456.89 132.82, 456.89 214 M456.89 0 C456.89 71.48, 456.89 142.96, 456.89 214 M456.89 214 C279.61 214, 102.33 214, 0 214 M456.89 214 C297.05 214, 137.22 214, 0 214 M0 214 C0 152.82, 0 91.64, 0 0 M0 214 C0 136.62, 0 59.24, 0 0" stroke="#1e1e1e" stroke-width="1" fill="none"></path></g><g stroke-linecap="round" transform="translate(24 127.22222222222217) rotate(0 107.61111111111109 97.83333333333348)"><path d="M0 0 C49.97 -1.1, 98.21 1.74, 215.22 0 M0 0 C69.17 -1.65, 138.18 -1.36, 215.22 0 M215.22 0 C218.81 41.68, 217.86 80.85, 215.22 195.67 M215.22 0 C214.27 60.81, 215.56 120.11, 215.22 195.67 M215.22 195.67 C142.9 196.25, 70.92 198.54, 0 195.67 M215.22 195.67 C137.8 194.54, 60.49 193.98, 0 195.67 M0 195.67 C0.27 119.22, 2.39 45.53, 0 0 M0 195.67 C2.47 135.12, 2.25 76.49, 0 0" stroke="#1e1e1e" stroke-width="2" fill="none"></path></g><g transform="translate(94.15656704372827 205.85555555555538) rotate(0 37.45454406738281 19.199999999999818)"><text x="37.45454406738281" y="15.45" font-family="Cascadia, Segoe UI Emoji" font-size="16px" fill="#1e1e1e" text-anchor="middle" style="white-space: pre;" direction="ltr" dominant-baseline="alphabetic">window 1</text><text x="37.45454406738281" y="34.65" font-family="Cascadia, Segoe UI Emoji" font-size="16px" fill="#1e1e1e" text-anchor="middle" style="white-space: pre;" direction="ltr" dominant-baseline="alphabetic">Node EA</text></g><g transform="translate(14.428571428571331 45.365079365079055) rotate(0 32.772727966308594 9.599999999999909)"><text x="0" y="15.45" font-family="Cascadia, Segoe UI Emoji" font-size="16px" fill="#b2f2bb" text-anchor="start" style="white-space: pre;" direction="ltr" dominant-baseline="alphabetic">Node PA</text></g><g stroke-linecap="round" transform="translate(813.5416666666665 259.92592366536473) rotate(0 75.72222222222234 34)"><path d="M17 0 C51.14 0.09, 88.76 -4.04, 134.44 0 M17 0 C65.11 -1.23, 110.71 -1.75, 134.44 0 M134.44 0 C144.67 3.96, 149.79 7.54, 151.44 17 M134.44 0 C149.83 -2.6, 153.16 7.17, 151.44 17 M151.44 17 C153.54 33.18, 153.91 39.81, 151.44 51 M151.44 17 C151.07 23.96, 153.09 31.49, 151.44 51 M151.44 51 C149.11 60.54, 144.21 70.46, 134.44 68 M151.44 51 C154.18 62.61, 141.37 64.43, 134.44 68 M134.44 68 C94.63 70.46, 50.56 69.21, 17 68 M134.44 68 C111.12 68.04, 84.28 69.25, 17 68 M17 68 C9.13 68.01, -1.15 60.24, 0 51 M17 68 C6.68 72.53, 3.12 64.82, 0 51 M0 51 C-3.77 37.25, 1.93 25.24, 0 17 M0 51 C-1.65 43.1, 0.52 31.55, 0 17 M0 17 C0.77 9.51, 6.24 3.86, 17 0 M0 17 C0.17 5.69, 8 -2.05, 17 0" stroke="#ffec99" stroke-width="2" fill="none"></path></g><g transform="translate(823.7184329562716 274.7259236653649) rotate(0 65.54545593261719 19.199999999999818)"><text x="65.54545593261719" y="15.45" font-family="Cascadia, Segoe UI Emoji" font-size="16px" fill="#ffec99" text-anchor="middle" style="white-space: pre;" direction="ltr" dominant-baseline="alphabetic">INTERNAL_NODE </text><text x="65.54545593261719" y="34.65" font-family="Cascadia, Segoe UI Emoji" font-size="16px" fill="#ffec99" text-anchor="middle" style="white-space: pre;" direction="ltr" dominant-baseline="alphabetic">Node A</text></g><g stroke-linecap="round" transform="translate(248.10416666666674 127.92222222222244) rotate(0 107.61111111111109 97.83333333333326)"><path d="M-0.58 -1.05 L215.66 1.97 L216.58 196.75 L1.03 196.48" stroke="none" stroke-width="0" fill="#ffec99"></path><path d="M0 0 C68.54 1.18, 135.01 2.75, 215.22 0 M0 0 C71.65 0.71, 143.41 0.25, 215.22 0 M215.22 0 C214.77 77.24, 214.42 151.09, 215.22 195.67 M215.22 0 C216.54 67.76, 216.93 137.1, 215.22 195.67 M215.22 195.67 C152.65 196.28, 91.37 196.61, 0 195.67 M215.22 195.67 C136.56 195.1, 60.11 195.21, 0 195.67 M0 195.67 C-0.88 129.82, -2.91 63.08, 0 0 M0 195.67 C-1.71 122.46, -0.92 49.73, 0 0" stroke="#1e1e1e" stroke-width="2" fill="none"></path></g><g stroke-linecap="round" transform="translate(257.38194444444457 134.97777777777765) rotate(0 98.33333333333337 43.333333333333485)"><path d="M0 0 C42.37 1.78, 82.16 0.42, 196.67 0 M0 0 C60.23 -1.48, 122.17 -2.51, 196.67 0 M196.67 0 C197.25 28.48, 197.95 60.33, 196.67 86.67 M196.67 0 C196.09 31.33, 196.08 61.82, 196.67 86.67 M196.67 86.67 C119.72 84.74, 45.8 86.71, 0 86.67 M196.67 86.67 C137.07 84.49, 76.64 85.75, 0 86.67 M0 86.67 C-1.86 56.68, 1.32 29.64, 0 0 M0 86.67 C0.81 67.94, -0.35 48.68, 0 0" stroke="#343a40" stroke-width="2" fill="none"></path></g><g transform="translate(318.26073371039513 159.11111111111086) rotate(0 37.45454406738281 19.199999999999818)"><text x="37.45454406738281" y="15.45" font-family="Cascadia, Segoe UI Emoji" font-size="16px" fill="#343a40" text-anchor="middle" style="white-space: pre;" direction="ltr" dominant-baseline="alphabetic">window 2</text><text x="37.45454406738281" y="34.65" font-family="Cascadia, Segoe UI Emoji" font-size="16px" fill="#343a40" text-anchor="middle" style="white-space: pre;" direction="ltr" dominant-baseline="alphabetic">Node B</text></g><g stroke-linecap="round" transform="translate(257.0486111111111 229.20000000000027) rotate(0 98.33333333333337 43.333333333333485)"><path d="M1.03 0.81 L196.2 -1.75 L195.77 87.77 L-0.93 86.44" stroke="none" stroke-width="0" fill="#fa5252"></path><path d="M0 0 C70.4 -0.34, 142.45 -0.61, 196.67 0 M0 0 C68.6 1.44, 137.12 1.26, 196.67 0 M196.67 0 C198.28 21.73, 195.71 45.26, 196.67 86.67 M196.67 0 C197.41 27.16, 195.96 55.05, 196.67 86.67 M196.67 86.67 C145.48 85.92, 92.49 89.03, 0 86.67 M196.67 86.67 C150.87 88.03, 104.37 87.01, 0 86.67 M0 86.67 C-2.31 63.24, -1.1 41.27, 0 0 M0 86.67 C0.47 61.62, 0.93 35.14, 0 0" stroke="#1e1e1e" stroke-width="2" fill="none"></path></g><g transform="translate(317.92740037706164 253.33333333333348) rotate(0 37.45454406738281 19.199999999999818)"><text x="37.45454406738281" y="15.45" font-family="Cascadia, Segoe UI Emoji" font-size="16px" fill="#1e1e1e" text-anchor="middle" style="white-space: pre;" direction="ltr" dominant-baseline="alphabetic">window 3</text><text x="37.45454406738281" y="34.65" font-family="Cascadia, Segoe UI Emoji" font-size="16px" fill="#1e1e1e" text-anchor="middle" style="white-space: pre;" direction="ltr" dominant-baseline="alphabetic">Node C</text></g><g stroke-linecap="round"><g transform="translate(236.38194444444457 83.20000000000027) rotate(0 0 -18.888888888888914)"><path d="M0 0 C0 -10.29, 0 -20.58, 0 -37.78 M0 0 C0 -12.57, 0 -25.14, 0 -37.78" stroke="#a5d8ff" stroke-width="2" fill="none"></path></g><g transform="translate(236.38194444444457 83.20000000000027) rotate(0 0 -18.888888888888914)"><path d="M6.46 -20.03 C4.7 -24.86, 2.94 -29.7, 0 -37.78 M6.46 -20.03 C4.31 -25.93, 2.16 -31.84, 0 -37.78" stroke="#a5d8ff" stroke-width="2" fill="none"></path></g><g transform="translate(236.38194444444457 83.20000000000027) rotate(0 0 -18.888888888888914)"><path d="M-6.46 -20.03 C-4.7 -24.86, -2.94 -29.7, 0 -37.78 M-6.46 -20.03 C-4.31 -25.93, -2.16 -31.84, 0 -37.78" stroke="#a5d8ff" stroke-width="2" fill="none"></path></g></g><mask></mask><g stroke-linecap="round"><g transform="translate(154.36747832770993 118.86666666666633) rotate(0 -33.27142210674356 -28.391943797507565)"><path d="M0 0 C-17.21 -14.68, -34.41 -29.36, -66.54 -56.78 M0 0 C-20.96 -17.89, -41.92 -35.78, -66.54 -56.78" stroke="#b2f2bb" stroke-width="1" fill="none"></path></g><g transform="translate(154.36747832770993 118.86666666666633) rotate(0 -33.27142210674356 -28.391943797507565)"><path d="M-43.12 -48.04 C-49.18 -50.3, -55.23 -52.56, -66.54 -56.78 M-43.12 -48.04 C-50.5 -50.79, -57.88 -53.55, -66.54 -56.78" stroke="#b2f2bb" stroke-width="1" fill="none"></path></g><g transform="translate(154.36747832770993 118.86666666666633) rotate(0 -33.27142210674356 -28.391943797507565)"><path d="M-54.22 -35.03 C-57.41 -40.65, -60.59 -46.28, -66.54 -56.78 M-54.22 -35.03 C-58.1 -41.88, -61.98 -48.74, -66.54 -56.78" stroke="#b2f2bb" stroke-width="1" fill="none"></path></g></g><mask></mask><g transform="translate(412.6597222222224 30.26666666666688) rotate(0 28.090909957885742 9.599999999999909)"><text x="0" y="15.45" font-family="Cascadia, Segoe UI Emoji" font-size="16px" fill="#ffec99" text-anchor="start" style="white-space: pre;" direction="ltr" dominant-baseline="alphabetic">Node A</text></g><g stroke-linecap="round"><g transform="translate(375.7628361392 126.5333333333333) rotate(0 19.919377662769875 -31.881751856221626)"><path d="M0 0 C13.44 -21.5, 26.87 -43.01, 39.84 -63.76 M0 0 C14.31 -22.9, 28.62 -45.81, 39.84 -63.76" stroke="#ffec99" stroke-width="1" fill="none"></path></g><g transform="translate(375.7628361392 126.5333333333333) rotate(0 19.919377662769875 -31.881751856221626)"><path d="M34.64 -39.31 C36.39 -47.56, 38.15 -55.8, 39.84 -63.76 M34.64 -39.31 C36.51 -48.09, 38.38 -56.88, 39.84 -63.76" stroke="#ffec99" stroke-width="1" fill="none"></path></g><g transform="translate(375.7628361392 126.5333333333333) rotate(0 19.919377662769875 -31.881751856221626)"><path d="M20.14 -48.37 C26.78 -53.56, 33.43 -58.75, 39.84 -63.76 M20.14 -48.37 C27.22 -53.9, 34.29 -59.43, 39.84 -63.76" stroke="#ffec99" stroke-width="1" fill="none"></path></g></g><mask></mask><g stroke-linecap="round"><g transform="translate(812.1968221399629 339.4053358764927) rotate(0 -15.787510093963647 22.644299187445085)"><path d="M-0.88 1.73 C-10.16 11.78, -18.93 25.17, -30.34 46.48 M0.6 -0.65 C-9.73 14.23, -19.37 27.64, -31.49 44.43" stroke="#a5d8ff" stroke-width="1" fill="none"></path></g><g transform="translate(812.1968221399629 339.4053358764927) rotate(0 -15.787510093963647 22.644299187445085)"><path d="M-25.57 22.11 C-27.78 26.1, -29.44 33.39, -30.26 45.62 M-24.09 19.72 C-26.63 28.3, -28.69 35.21, -31.41 43.57" stroke="#a5d8ff" stroke-width="1" fill="none"></path></g><g transform="translate(812.1968221399629 339.4053358764927) rotate(0 -15.787510093963647 22.644299187445085)"><path d="M-11.7 32.1 C-17.91 33.21, -23.55 37.63, -30.26 45.62 M-10.22 29.72 C-16.91 35.13, -23.21 38.98, -31.41 43.57" stroke="#a5d8ff" stroke-width="1" fill="none"></path></g></g><mask></mask><g stroke-linecap="round"><g transform="translate(959.9198647146314 341.70606574861677) rotate(0 18.684301952035412 23.716156473605224)"><path d="M-1.19 -1.17 C9.58 12.46, 22.39 27.99, 37.49 45.51 M0.37 0.61 C8.99 10.96, 16.99 20.49, 37.09 48.16" stroke="#a5d8ff" stroke-width="1" fill="none"></path></g><g transform="translate(959.9198647146314 341.70606574861677) rotate(0 18.684301952035412 23.716156473605224)"><path d="M15.06 33.18 C21.25 37.34, 29.34 43.26, 37.21 46.24 M16.62 34.96 C21.36 37.72, 25.69 39.77, 36.81 48.89" stroke="#a5d8ff" stroke-width="1" fill="none"></path></g><g transform="translate(959.9198647146314 341.70606574861677) rotate(0 18.684301952035412 23.716156473605224)"><path d="M28.82 23.02 C31.03 30.2, 35.18 39.02, 37.21 46.24 M30.38 24.8 C32.12 29.73, 33.38 34.04, 36.81 48.89" stroke="#a5d8ff" stroke-width="1" fill="none"></path></g></g><mask></mask><g stroke-linecap="round" transform="translate(926.7743055555558 403.7111111111112) rotate(0 75.72222222222229 34)"><path d="M17 0 C52.94 -2.21, 92.69 -0.6, 134.44 0 M17 0 C45.44 -1.9, 71.94 -0.51, 134.44 0 M134.44 0 C142.17 -2.56, 150.63 3.05, 151.44 17 M134.44 0 C145.98 -1.37, 151.54 2.74, 151.44 17 M151.44 17 C154.45 27.47, 150.69 43.41, 151.44 51 M151.44 17 C152.88 28.89, 152.11 35.33, 151.44 51 M151.44 51 C155.01 63.43, 147.83 68.5, 134.44 68 M151.44 51 C153.45 61.53, 147.15 70.93, 134.44 68 M134.44 68 C109.11 69.9, 80.94 64.19, 17 68 M134.44 68 C92.75 67.72, 48.77 68.21, 17 68 M17 68 C2.29 65.11, -3.04 59.39, 0 51 M17 68 C1.37 64.07, -2.47 63.71, 0 51 M0 51 C2.66 42.32, 2.72 33.51, 0 17 M0 51 C-0.08 38.72, 0.47 26.28, 0 17 M0 17 C2.68 7.88, 5.42 0.71, 17 0 M0 17 C4.58 9.82, 8.31 -4.58, 17 0" stroke="#ff8787" stroke-width="2" fill="none"></path></g><g transform="translate(936.951071845161 408.91111111111104) rotate(0 65.54545593261719 28.800000000000182)"><text x="65.54545593261719" y="15.45" font-family="Cascadia, Segoe UI Emoji" font-size="16px" fill="#ff8787" text-anchor="middle" style="white-space: pre;" direction="ltr" dominant-baseline="alphabetic">EXTERNAL_NODE </text><text x="65.54545593261719" y="34.65" font-family="Cascadia, Segoe UI Emoji" font-size="16px" fill="#ff8787" text-anchor="middle" style="white-space: pre;" direction="ltr" dominant-baseline="alphabetic">Node C</text><text x="65.54545593261719" y="53.849999999999994" font-family="Cascadia, Segoe UI Emoji" font-size="16px" fill="#ff8787" text-anchor="middle" style="white-space: pre;" direction="ltr" dominant-baseline="alphabetic">Window 3</text></g><g stroke-linecap="round" transform="translate(705.7743055555558 401.7111111111112) rotate(0 75.72222222222229 34)"><path d="M17 0 C50.65 -2.58, 80.33 -3.91, 134.44 0 M17 0 C42.47 -0.89, 72.79 1.56, 134.44 0 M134.44 0 C149.25 3.78, 148.97 6.05, 151.44 17 M134.44 0 C142.66 -2.92, 152.96 1.91, 151.44 17 M151.44 17 C152.17 26.28, 154.09 35.75, 151.44 51 M151.44 17 C150.93 22.89, 150.32 30.47, 151.44 51 M151.44 51 C151.19 58.65, 145.56 65.35, 134.44 68 M151.44 51 C147.18 58.8, 146.73 69.12, 134.44 68 M134.44 68 C98.03 69.16, 60.42 70.59, 17 68 M134.44 68 C89.88 66.49, 46.53 65.64, 17 68 M17 68 C4.04 67.08, -0.05 63.84, 0 51 M17 68 C7.9 66.23, -0.29 65.98, 0 51 M0 51 C3.37 39.12, -3.83 28.61, 0 17 M0 51 C2.28 38.54, 1.16 24.67, 0 17 M0 17 C-3.23 8.59, 4.01 -3.47, 17 0 M0 17 C-3.39 6.69, 9.13 4.26, 17 0" stroke="#a5d8ff" stroke-width="2" fill="none"></path></g><g transform="translate(715.9510718451609 406.91111111111104) rotate(0 65.54545593261719 28.800000000000182)"><text x="65.54545593261719" y="15.45" font-family="Cascadia, Segoe UI Emoji" font-size="16px" fill="#a5d8ff" text-anchor="middle" style="white-space: pre;" direction="ltr" dominant-baseline="alphabetic">EXTERNAL_NODE </text><text x="65.54545593261719" y="34.65" font-family="Cascadia, Segoe UI Emoji" font-size="16px" fill="#a5d8ff" text-anchor="middle" style="white-space: pre;" direction="ltr" dominant-baseline="alphabetic">Node B</text><text x="65.54545593261719" y="53.849999999999994" font-family="Cascadia, Segoe UI Emoji" font-size="16px" fill="#a5d8ff" text-anchor="middle" style="white-space: pre;" direction="ltr" dominant-baseline="alphabetic">window 2</text></g><g stroke-linecap="round"><g transform="translate(827.790134712847 244.35624541902098) rotate(0 -7.5 -18.5)"><path d="M0.18 -0.64 C-4.68 -10.2, -8.45 -20.79, -15.91 -37.69 M0.16 0.18 C-4.39 -12.89, -9.99 -25.1, -15.68 -37.52" stroke="#a5d8ff" stroke-width="1" fill="none"></path></g><g transform="translate(827.790134712847 244.35624541902098) rotate(0 -7.5 -18.5)"><path d="M-1.52 -23.91 C-6.02 -27.54, -9.53 -32.2, -16.6 -38.2 M-1.54 -23.1 C-5.74 -28.26, -10.98 -32.55, -16.36 -38.03" stroke="#a5d8ff" stroke-width="1" fill="none"></path></g><g transform="translate(827.790134712847 244.35624541902098) rotate(0 -7.5 -18.5)"><path d="M-13.94 -18.25 C-15.23 -23.27, -15.5 -29.41, -16.6 -38.2 M-13.97 -17.44 C-13.84 -24.65, -14.77 -30.91, -16.36 -38.03" stroke="#a5d8ff" stroke-width="1" fill="none"></path></g></g><mask></mask><g stroke-linecap="round"><g transform="translate(693.8737361973879 246.0451641962968) rotate(0 9 -17)"><path d="M1.54 1.86 C5.45 -6.61, 8.48 -12.69, 18.04 -33.35 M0.14 0.01 C4.43 -9.77, 10.28 -17.85, 17.84 -34.6" stroke="#a5d8ff" stroke-width="1" fill="none"></path></g><g transform="translate(693.8737361973879 246.0451641962968) rotate(0 9 -17)"><path d="M17.31 -13.68 C17.87 -18.92, 17.49 -21.84, 17.87 -33.97 M15.96 -15.46 C15.96 -21.13, 17.5 -25.28, 17.68 -35.17" stroke="#a5d8ff" stroke-width="1" fill="none"></path></g><g transform="translate(693.8737361973879 246.0451641962968) rotate(0 9 -17)"><path d="M5.48 -19.45 C8.63 -23.43, 10.8 -25.11, 17.87 -33.97 M4.13 -21.23 C7.28 -25.44, 11.97 -28.05, 17.68 -35.17" stroke="#a5d8ff" stroke-width="1" fill="none"></path></g></g><mask></mask><g stroke-linecap="round"><g transform="translate(811.8737361973879 384.0451641962968) rotate(0 9 -17)"><path d="M-1.17 -1.01 C3.22 -10.26, 9.81 -18.75, 17.57 -32.88 M0.03 0.93 C6.23 -11.71, 10.69 -21.65, 17.4 -33.66" stroke="#a5d8ff" stroke-width="1" fill="none"></path></g><g transform="translate(811.8737361973879 384.0451641962968) rotate(0 9 -17)"><path d="M13.57 -15.59 C13.81 -20.5, 16.03 -24.82, 16.98 -32.58 M14.73 -13.72 C15.96 -21.32, 15.48 -26.42, 16.81 -33.34" stroke="#a5d8ff" stroke-width="1" fill="none"></path></g><g transform="translate(811.8737361973879 384.0451641962968) rotate(0 9 -17)"><path d="M1.96 -21.78 C5.53 -25.06, 11.02 -27.63, 16.98 -32.58 M3.12 -19.91 C8.16 -25.56, 11.47 -28.65, 16.81 -33.34" stroke="#a5d8ff" stroke-width="1" fill="none"></path></g></g><mask></mask><g stroke-linecap="round"><g transform="translate(952.3626412002164 382.46606980824026) rotate(0 -7.5 -18.5)"><path d="M-0.79 -0.03 C-6.17 -15.34, -11.3 -27.02, -13.27 -38.37 M-0.28 -0.85 C-5.23 -12.8, -10.31 -27.61, -15.6 -37.16" stroke="#a5d8ff" stroke-width="1" fill="none"></path></g><g transform="translate(952.3626412002164 382.46606980824026) rotate(0 -7.5 -18.5)"><path d="M-2.11 -23.24 C-7.11 -29.7, -11.97 -32.54, -13.87 -38.53 M-1.6 -24.06 C-6.45 -27.69, -11.26 -34.17, -16.19 -37.32" stroke="#a5d8ff" stroke-width="1" fill="none"></path></g><g transform="translate(952.3626412002164 382.46606980824026) rotate(0 -7.5 -18.5)"><path d="M-14.42 -17.33 C-14.73 -26.03, -14.86 -31.14, -13.87 -38.53 M-13.91 -18.15 C-14.27 -23.98, -14.64 -32.6, -16.19 -37.32" stroke="#a5d8ff" stroke-width="1" fill="none"></path></g></g><mask></mask></svg>