<svg version="1.1" xmlns="http://www.w3.org/2000/svg" viewBox="0 0 1234.25 854.4999999999982" width="1234.25" height="854.4999999999982">
  <!-- svg-source:excalidraw -->
  
  <defs>
    <style class="style-fonts">
      @font-face {
        font-family: "Virgil";
        src: url("https://excalidraw.com/Virgil.woff2");
      }
      @font-face {
        font-family: "Cascadia";
        src: url("https://excalidraw.com/Cascadia.woff2");
      }
      @font-face {
        font-family: "Assistant";
        src: url("https://excalidraw.com/Assistant-Regular.woff2");
      }
    </style>
    
  </defs>
  <rect x="0" y="0" width="1234.25" height="854.4999999999982" fill="#2a2631"></rect><g stroke-linecap="round" transform="translate(10 14.499999999998181) rotate(0 277.5 415)"><path d="M0.87 -0.54 C202.96 4.38, 407.53 4.29, 553.83 1.39 M-0.27 0.05 C147.24 -2.23, 293.33 -2.26, 554.26 -0.79 M556.15 0.38 C550.14 185.65, 549.75 374.13, 556.19 830.14 M554.72 0.46 C551.64 255.93, 551.69 511.9, 554.56 829.75 M554.55 829.42 C401.36 827.28, 245.01 827.56, -0.78 829.47 M555.23 830.41 C368.42 829.83, 180.1 829.99, -0.45 830.01 M1.31 831.55 C-5.67 536.93, -6.8 246.53, -0.23 -0.04 M-0.2 829.47 C-3.89 611.2, -2.59 392.04, -0.52 -0.18" stroke="#ffffff" stroke-width="1" fill="none"></path></g><g stroke-linecap="round"><g transform="translate(40 377.4999999999982) rotate(0 242.5 -1.5)"><path d="M1.27 0.15 C105.37 -2.09, 209.06 -2.33, 485.97 -1.83 M-0.46 -0.27 C166.97 -4.67, 333.64 -6.18, 484.69 -2.21" stroke="#ffffff" stroke-width="1" fill="none"></path></g></g><mask></mask><g transform="translate(244.36111111111114 31.138888888887777) rotate(0 35.01818084716797 12)"><text x="0" y="19.3125" font-family="Cascadia, Segoe UI Emoji" font-size="20px" fill="#a5d8ff" text-anchor="start" style="white-space: pre;" direction="ltr" dominant-baseline="alphabetic">Screen</text></g><g stroke-linecap="round" transform="translate(52.86111111111114 124.8611111111104) rotate(0 233.88888888888883 114)"><path d="M0 0 C105.53 -0.1, 210.99 -0.65, 467.78 0 M0 0 C144.31 1.13, 289.45 1.45, 467.78 0 M467.78 0 C467.82 72.32, 469.84 143.78, 467.78 228 M467.78 0 C466.58 76.63, 466.67 154.05, 467.78 228 M467.78 228 C289.75 227.78, 111.6 227.98, 0 228 M467.78 228 C298.33 227.27, 128.97 227.49, 0 228 M0 228 C-0.87 140.89, 0.94 55.83, 0 0 M0 228 C-0.82 159.8, -1.02 92.16, 0 0" stroke="#a5d8ff" stroke-width="1" fill="none"></path></g><g stroke-linecap="round" transform="translate(58.36111111111114 131.8611111111104) rotate(0 228.44444444444437 107)"><path d="M0 0 L456.89 0 L456.89 214 L0 214" stroke="none" stroke-width="0" fill="#b2f2bb"></path><path d="M0 0 C141.74 0, 283.48 0, 456.89 0 M0 0 C113.16 0, 226.32 0, 456.89 0 M456.89 0 C456.89 49.22, 456.89 98.43, 456.89 214 M456.89 0 C456.89 45.8, 456.89 91.6, 456.89 214 M456.89 214 C312.03 214, 167.17 214, 0 214 M456.89 214 C327.08 214, 197.26 214, 0 214 M0 214 C0 136.6, 0 59.21, 0 0 M0 214 C0 157.1, 0 100.2, 0 0" stroke="#1e1e1e" stroke-width="1" fill="none"></path></g><g stroke-linecap="round" transform="translate(66.86111111111114 140.3611111111104) rotate(0 107.61111111111109 97.83333333333348)"><path d="M0 0 C67.48 -0.61, 133.74 0.01, 215.22 0 M0 0 C65.74 -0.86, 130.53 -2, 215.22 0 M215.22 0 C216.97 52.88, 214.48 108.33, 215.22 195.67 M215.22 0 C216.3 46.3, 215.66 94.68, 215.22 195.67 M215.22 195.67 C165.6 195.08, 113.54 193.87, 0 195.67 M215.22 195.67 C170.1 195.09, 124.12 194.66, 0 195.67 M0 195.67 C-1.43 142.57, -2.09 87.71, 0 0 M0 195.67 C0.58 137.18, 1.32 81.2, 0 0" stroke="#1e1e1e" stroke-width="2" fill="none"></path></g><g transform="translate(137.01767815483942 218.99444444444362) rotate(0 37.45454406738281 19.199999999999818)"><text x="37.45454406738281" y="15.45" font-family="Cascadia, Segoe UI Emoji" font-size="16px" fill="#1e1e1e" text-anchor="middle" style="white-space: pre;" direction="ltr" dominant-baseline="alphabetic">window 1</text><text x="37.45454406738281" y="34.65" font-family="Cascadia, Segoe UI Emoji" font-size="16px" fill="#1e1e1e" text-anchor="middle" style="white-space: pre;" direction="ltr" dominant-baseline="alphabetic">Node EA</text></g><g transform="translate(57.289682539682474 58.50396825396729) rotate(0 32.772727966308594 9.599999999999909)"><text x="0" y="15.45" font-family="Cascadia, Segoe UI Emoji" font-size="16px" fill="#b2f2bb" text-anchor="start" style="white-space: pre;" direction="ltr" dominant-baseline="alphabetic">Node PA</text></g><g stroke-linecap="round" transform="translate(290.9652777777779 141.06111111111113) rotate(0 107.61111111111111 97.83333333333348)"><path d="M1.36 -1.78 L215.24 1.35 L213.68 195.39 L1.3 197.33" stroke="none" stroke-width="0" fill="#ffec99"></path><path d="M0 0 C55.02 -1.26, 108.52 -2.82, 215.22 0 M0 0 C48.95 -0.61, 99.06 -1.7, 215.22 0 M215.22 0 C213.58 60.87, 212.32 118.84, 215.22 195.67 M215.22 0 C213.54 65.79, 214.09 130.18, 215.22 195.67 M215.22 195.67 C162.29 195.31, 110.93 194.99, 0 195.67 M215.22 195.67 C158.66 197.01, 101.13 196.72, 0 195.67 M0 195.67 C1.19 141.91, -1.68 90.6, 0 0 M0 195.67 C-0.36 123.35, -0.45 51.2, 0 0" stroke="#1e1e1e" stroke-width="2" fill="none"></path></g><g stroke-linecap="round" transform="translate(300.2430555555557 148.11666666666588) rotate(0 98.3333333333334 43.333333333333485)"><path d="M0 0 C76.91 -1.77, 149.96 -0.84, 196.67 0 M0 0 C68.24 -1.61, 137.77 -1.34, 196.67 0 M196.67 0 C194.7 27.52, 197.12 53.07, 196.67 86.67 M196.67 0 C196.42 30.31, 195.73 60.06, 196.67 86.67 M196.67 86.67 C156.32 89.48, 114.7 87.73, 0 86.67 M196.67 86.67 C123.79 86.3, 50.02 86.59, 0 86.67 M0 86.67 C-2.26 65.87, 0.95 45.09, 0 0 M0 86.67 C-0.01 58.58, 0.09 28.16, 0 0" stroke="#343a40" stroke-width="2" fill="none"></path></g><g transform="translate(361.1218448215063 172.2499999999991) rotate(0 37.45454406738281 19.199999999999818)"><text x="37.45454406738281" y="15.45" font-family="Cascadia, Segoe UI Emoji" font-size="16px" fill="#343a40" text-anchor="middle" style="white-space: pre;" direction="ltr" dominant-baseline="alphabetic">window 2</text><text x="37.45454406738281" y="34.65" font-family="Cascadia, Segoe UI Emoji" font-size="16px" fill="#343a40" text-anchor="middle" style="white-space: pre;" direction="ltr" dominant-baseline="alphabetic">Node B</text></g><g stroke-linecap="round" transform="translate(299.90972222222223 242.3388888888885) rotate(0 98.3333333333334 43.333333333333485)"><path d="M1.3 1.67 L195.21 1.85 L198.28 84.89 L1.45 85.63" stroke="none" stroke-width="0" fill="#fa5252"></path><path d="M0 0 C46.23 -1.5, 91.22 -0.8, 196.67 0 M0 0 C42.23 0.91, 84.99 0.28, 196.67 0 M196.67 0 C197.98 26.63, 198.19 55.2, 196.67 86.67 M196.67 0 C195.24 24.25, 196.97 49.4, 196.67 86.67 M196.67 86.67 C126.98 87.55, 54.39 86.74, 0 86.67 M196.67 86.67 C143.84 87.1, 91.6 85.66, 0 86.67 M0 86.67 C0.03 59.78, -0.06 31.35, 0 0 M0 86.67 C-0.58 55.1, -1.36 22.05, 0 0" stroke="#1e1e1e" stroke-width="2" fill="none"></path></g><g transform="translate(360.7885114881728 266.4722222222217) rotate(0 37.45454406738281 19.199999999999818)"><text x="37.45454406738281" y="15.45" font-family="Cascadia, Segoe UI Emoji" font-size="16px" fill="#1e1e1e" text-anchor="middle" style="white-space: pre;" direction="ltr" dominant-baseline="alphabetic">window 3</text><text x="37.45454406738281" y="34.65" font-family="Cascadia, Segoe UI Emoji" font-size="16px" fill="#1e1e1e" text-anchor="middle" style="white-space: pre;" direction="ltr" dominant-baseline="alphabetic">Node C</text></g><g stroke-linecap="round"><g transform="translate(279.2430555555557 96.3388888888885) rotate(0 0 -18.888888888888687)"><path d="M0 0 C0 -7.64, 0 -15.28, 0 -37.78 M0 0 C0 -10.41, 0 -20.82, 0 -37.78" stroke="#a5d8ff" stroke-width="2" fill="none"></path></g><g transform="translate(279.2430555555557 96.3388888888885) rotate(0 0 -18.888888888888687)"><path d="M6.46 -20.03 C5.15 -23.62, 3.85 -27.21, 0 -37.78 M6.46 -20.03 C4.68 -24.92, 2.9 -29.81, 0 -37.78" stroke="#a5d8ff" stroke-width="2" fill="none"></path></g><g transform="translate(279.2430555555557 96.3388888888885) rotate(0 0 -18.888888888888687)"><path d="M-6.46 -20.03 C-5.15 -23.62, -3.85 -27.21, 0 -37.78 M-6.46 -20.03 C-4.68 -24.92, -2.9 -29.81, 0 -37.78" stroke="#a5d8ff" stroke-width="2" fill="none"></path></g></g><mask></mask><g stroke-linecap="round"><g transform="translate(197.22858943882107 132.00555555555457) rotate(0 -33.27142210674356 -28.391943797507338)"><path d="M0 0 C-15.79 -13.47, -31.58 -26.95, -66.54 -56.78 M0 0 C-14.14 -12.06, -28.27 -24.13, -66.54 -56.78" stroke="#b2f2bb" stroke-width="1" fill="none"></path></g><g transform="translate(197.22858943882107 132.00555555555457) rotate(0 -33.27142210674356 -28.391943797507338)"><path d="M-43.12 -48.04 C-48.68 -50.11, -54.24 -52.19, -66.54 -56.78 M-43.12 -48.04 C-48.1 -49.9, -53.07 -51.75, -66.54 -56.78" stroke="#b2f2bb" stroke-width="1" fill="none"></path></g><g transform="translate(197.22858943882107 132.00555555555457) rotate(0 -33.27142210674356 -28.391943797507338)"><path d="M-54.22 -35.03 C-57.15 -40.19, -60.07 -45.35, -66.54 -56.78 M-54.22 -35.03 C-56.84 -39.65, -59.46 -44.27, -66.54 -56.78" stroke="#b2f2bb" stroke-width="1" fill="none"></path></g></g><mask></mask><g transform="translate(455.5208333333336 43.40555555555511) rotate(0 28.090909957885742 9.599999999999909)"><text x="0" y="15.45" font-family="Cascadia, Segoe UI Emoji" font-size="16px" fill="#ffec99" text-anchor="start" style="white-space: pre;" direction="ltr" dominant-baseline="alphabetic">Node A</text></g><g stroke-linecap="round"><g transform="translate(418.6239472503111 139.67222222222154) rotate(0 19.919377662769847 -31.8817518562214)"><path d="M0 0 C12.49 -20, 24.99 -39.99, 39.84 -63.76 M0 0 C14 -22.41, 28.01 -44.83, 39.84 -63.76" stroke="#ffec99" stroke-width="1" fill="none"></path></g><g transform="translate(418.6239472503111 139.67222222222154) rotate(0 19.919377662769847 -31.8817518562214)"><path d="M34.64 -39.31 C36.27 -46.98, 37.9 -54.65, 39.84 -63.76 M34.64 -39.31 C36.47 -47.91, 38.3 -56.5, 39.84 -63.76" stroke="#ffec99" stroke-width="1" fill="none"></path></g><g transform="translate(418.6239472503111 139.67222222222154) rotate(0 19.919377662769847 -31.8817518562214)"><path d="M20.14 -48.37 C26.32 -53.2, 32.5 -58.03, 39.84 -63.76 M20.14 -48.37 C27.06 -53.78, 33.99 -59.19, 39.84 -63.76" stroke="#ffec99" stroke-width="1" fill="none"></path></g></g><mask></mask><g transform="translate(190.14062499999977 393.75555555555457) rotate(0 46.69091033935547 12)"><text x="0" y="19.3125" font-family="Cascadia, Segoe UI Emoji" font-size="20px" fill="#a5d8ff" text-anchor="start" style="white-space: pre;" direction="ltr" dominant-baseline="alphabetic">BSP-tree</text></g><g stroke-linecap="round" transform="translate(175.14062499999977 494.75555555555457) rotate(0 66 34)"><path d="M17 0 C46.51 4.2, 72.02 3.79, 115 0 M17 0 C40.43 -1.73, 62.49 1.58, 115 0 M115 0 C127.11 0.04, 128.53 2.15, 132 17 M115 0 C122.6 -3.22, 136.34 10.12, 132 17 M132 17 C134 21.11, 131.54 33.44, 132 51 M132 17 C130.3 25.43, 130.78 35.97, 132 51 M132 51 C128.34 62.86, 122.35 69.32, 115 68 M132 51 C133.83 62.57, 126.02 70.71, 115 68 M115 68 C85.04 65.71, 58.26 71.9, 17 68 M115 68 C87.37 68.67, 60.19 65.57, 17 68 M17 68 C4.13 69.55, 2.97 63.61, 0 51 M17 68 C3.48 65.22, 2.25 64.61, 0 51 M0 51 C-4.33 41.32, -3.14 29.87, 0 17 M0 51 C0.29 43.43, 2.51 33.69, 0 17 M0 17 C1.15 7.86, 5.01 0.83, 17 0 M0 17 C-1.7 8.88, 9.55 0.98, 17 0" stroke="#b2f2bb" stroke-width="2" fill="none"></path></g><g transform="translate(194.32244491577126 509.55555555555475) rotate(0 46.818180084228516 19.199999999999818)"><text x="46.818180084228516" y="15.45" font-family="Cascadia, Segoe UI Emoji" font-size="16px" fill="#b2f2bb" text-anchor="middle" style="white-space: pre;" direction="ltr" dominant-baseline="alphabetic">ROOT_NODE </text><text x="46.818180084228516" y="34.65" font-family="Cascadia, Segoe UI Emoji" font-size="16px" fill="#b2f2bb" text-anchor="middle" style="white-space: pre;" direction="ltr" dominant-baseline="alphabetic">Node PA </text></g><g stroke-linecap="round"><g transform="translate(232.81348669 482.75555555555457) rotate(0 -0.940893774012352 -26.5)"><path d="M1.7 -2.15 C0.82 -10.98, -3.08 -44.08, -3.31 -52.95 M-0.82 2.85 C-0.95 -5.5, 2.23 -39.89, 2.31 -49.29" stroke="#a5d8ff" stroke-width="2" fill="none"></path></g><g transform="translate(232.81348669 482.75555555555457) rotate(0 -0.940893774012352 -26.5)"><path d="M8.06 -26.4 C6.93 -32.64, 2.5 -41.31, 3.93 -48.9 M8.79 -26.08 C8.56 -31.67, 4.52 -40.55, 2.83 -48.67" stroke="#a5d8ff" stroke-width="2" fill="none"></path></g><g transform="translate(232.81348669 482.75555555555457) rotate(0 -0.940893774012352 -26.5)"><path d="M-9.02 -27.31 C-3.81 -33.32, -1.91 -41.65, 3.93 -48.9 M-8.29 -26.99 C-3.39 -32.16, -2.29 -40.76, 2.83 -48.67" stroke="#a5d8ff" stroke-width="2" fill="none"></path></g></g><mask></mask><g stroke-linecap="round" transform="translate(56.64062499999977 621.2555555555546) rotate(0 75.72222222222229 34)"><path d="M17 0 C59.41 2.17, 100.05 2.37, 134.44 0 M17 0 C60.85 -0.89, 105.62 -0.71, 134.44 0 M134.44 0 C147.66 1.94, 149.64 4.24, 151.44 17 M134.44 0 C146.97 1.43, 149.7 5.68, 151.44 17 M151.44 17 C151.81 27.39, 150.84 39.91, 151.44 51 M151.44 17 C150.14 29.51, 151.53 41.4, 151.44 51 M151.44 51 C151.31 63.51, 145.25 68.26, 134.44 68 M151.44 51 C152.46 60.53, 143.96 66.22, 134.44 68 M134.44 68 C89.27 67.47, 47.85 68.09, 17 68 M134.44 68 C108.26 68.78, 80.11 67.85, 17 68 M17 68 C6.65 68.99, -0.05 63.43, 0 51 M17 68 C6.04 65.73, 0.25 60.74, 0 51 M0 51 C2 41.21, 0.59 33.99, 0 17 M0 51 C-0.26 43.49, -0.47 36.26, 0 17 M0 17 C1.69 6.09, 5.28 -1.7, 17 0 M0 17 C-2.24 4.68, 3.93 -0.71, 17 0" stroke="#a5d8ff" stroke-width="2" fill="none"></path></g><g transform="translate(66.81739128960487 626.4555555555544) rotate(0 65.54545593261719 28.800000000000182)"><text x="65.54545593261719" y="15.45" font-family="Cascadia, Segoe UI Emoji" font-size="16px" fill="#a5d8ff" text-anchor="middle" style="white-space: pre;" direction="ltr" dominant-baseline="alphabetic">EXTERNAL_NODE </text><text x="65.54545593261719" y="34.65" font-family="Cascadia, Segoe UI Emoji" font-size="16px" fill="#a5d8ff" text-anchor="middle" style="white-space: pre;" direction="ltr" dominant-baseline="alphabetic">Node EA</text><text x="65.54545593261719" y="53.849999999999994" font-family="Cascadia, Segoe UI Emoji" font-size="16px" fill="#a5d8ff" text-anchor="middle" style="white-space: pre;" direction="ltr" dominant-baseline="alphabetic">window 1</text></g><g stroke-linecap="round"><g transform="translate(166.24533945730855 563.6772306318662) rotate(0 -11.339508894636083 21.539162461843716)"><path d="M1.61 0.39 C-8.92 14.76, -19.28 31.17, -24.08 44.96 M0.52 0.62 C-10.14 16.94, -17.85 33.65, -22.76 43.33" stroke="#a5d8ff" stroke-width="1" fill="none"></path></g><g transform="translate(166.24533945730855 563.6772306318662) rotate(0 -11.339508894636083 21.539162461843716)"><path d="M-18.41 19.53 C-21.24 26.58, -24.05 35.84, -24.16 45.21 M-19.51 19.76 C-22.08 28.72, -21.87 37.94, -22.84 43.58" stroke="#a5d8ff" stroke-width="1" fill="none"></path></g><g transform="translate(166.24533945730855 563.6772306318662) rotate(0 -11.339508894636083 21.539162461843716)"><path d="M-3.5 26.94 C-11.91 31.32, -20.36 37.78, -24.16 45.21 M-4.6 27.18 C-13.03 33.09, -18.73 39.36, -22.84 43.58" stroke="#a5d8ff" stroke-width="1" fill="none"></path></g></g><mask></mask><g stroke-linecap="round"><g transform="translate(316.82030253890366 567.9808634644569) rotate(0 10.866245430672734 20.88734604554884)"><path d="M0.02 -1.74 C7.03 14.57, 15.83 34.31, 23.67 39.97 M-0.76 0.01 C5.73 9.04, 10.08 19.23, 20.91 41.54" stroke="#a5d8ff" stroke-width="1" fill="none"></path></g><g transform="translate(316.82030253890366 567.9808634644569) rotate(0 10.866245430672734 20.88734604554884)"><path d="M4.08 23.36 C8.98 29.83, 15.89 39.73, 22.85 39.74 M3.3 25.1 C8.54 28.37, 11.78 32.76, 20.09 41.3" stroke="#a5d8ff" stroke-width="1" fill="none"></path></g><g transform="translate(316.82030253890366 567.9808634644569) rotate(0 10.866245430672734 20.88734604554884)"><path d="M18.59 16.38 C17.91 25.59, 19.18 38.2, 22.85 39.74 M17.82 18.12 C19.77 23.07, 19.69 29.06, 20.09 41.3" stroke="#a5d8ff" stroke-width="1" fill="none"></path></g></g><mask></mask><g stroke-linecap="round" transform="translate(290.1822916666663 622.4592569986971) rotate(0 75.72222222222229 34)"><path d="M17 0 C50.99 -1.21, 89.21 5.81, 134.44 0 M17 0 C64.64 2.92, 108.7 1.68, 134.44 0 M134.44 0 C147.94 -1.53, 151.13 6.66, 151.44 17 M134.44 0 C142 -1.08, 148.77 8.34, 151.44 17 M151.44 17 C152.85 25.68, 151.74 30.91, 151.44 51 M151.44 17 C152.15 27.63, 149.68 39.86, 151.44 51 M151.44 51 C154.48 61.68, 143.39 65.93, 134.44 68 M151.44 51 C151.84 66.21, 147.6 64.75, 134.44 68 M134.44 68 C105 67.85, 70.58 71.71, 17 68 M134.44 68 C93.73 67.32, 52.58 67.91, 17 68 M17 68 C4.77 65.32, -3.77 65.88, 0 51 M17 68 C4.85 68.82, 4.3 58.97, 0 51 M0 51 C0.45 38.35, 2.42 32.03, 0 17 M0 51 C-1.81 39.22, -1.38 28.53, 0 17 M0 17 C1.74 2.97, 5.12 1.51, 17 0 M0 17 C-4.12 7, 5.99 2.43, 17 0" stroke="#ffec99" stroke-width="2" fill="none"></path></g><g transform="translate(300.3590579562714 637.2592569986973) rotate(0 65.54545593261719 19.199999999999818)"><text x="65.54545593261719" y="15.45" font-family="Cascadia, Segoe UI Emoji" font-size="16px" fill="#ffec99" text-anchor="middle" style="white-space: pre;" direction="ltr" dominant-baseline="alphabetic">INTERNAL_NODE </text><text x="65.54545593261719" y="34.65" font-family="Cascadia, Segoe UI Emoji" font-size="16px" fill="#ffec99" text-anchor="middle" style="white-space: pre;" direction="ltr" dominant-baseline="alphabetic">Node A</text></g><g stroke-linecap="round"><g transform="translate(288.8374471399627 701.938669209826) rotate(0 -15.787510093963647 22.644299187445085)"><path d="M1.94 -1.8 C-8.65 11.24, -12.9 18.61, -31.56 46.37 M-0.82 -0.24 C-8.89 12.52, -17.49 23.93, -32.57 45.62" stroke="#a5d8ff" stroke-width="1" fill="none"></path></g><g transform="translate(288.8374471399627 701.938669209826) rotate(0 -15.787510093963647 22.644299187445085)"><path d="M-24.13 19.68 C-29.08 27.86, -27.84 30.59, -32.56 46.7 M-26.88 21.25 C-28.37 28.4, -30.4 34.27, -33.57 45.95" stroke="#a5d8ff" stroke-width="1" fill="none"></path></g><g transform="translate(288.8374471399627 701.938669209826) rotate(0 -15.787510093963647 22.644299187445085)"><path d="M-10.13 29.51 C-18.08 35.67, -19.9 36.25, -32.56 46.7 M-12.89 31.08 C-18.03 35.69, -23.73 38.99, -33.57 45.95" stroke="#a5d8ff" stroke-width="1" fill="none"></path></g></g><mask></mask><g stroke-linecap="round"><g transform="translate(436.56048971463133 704.2393990819501) rotate(0 18.684301952035412 23.716156473605224)"><path d="M-1.42 1.04 C16.44 17.53, 29.94 38.82, 36.61 47.27 M-0.58 0.58 C10.84 15.63, 22.9 31.24, 37.77 47.48" stroke="#a5d8ff" stroke-width="1" fill="none"></path></g><g transform="translate(436.56048971463133 704.2393990819501) rotate(0 18.684301952035412 23.716156473605224)"><path d="M14.42 36.5 C25.85 38.89, 33.26 46.22, 37 47.33 M15.26 36.05 C21.95 39.55, 28.99 43.66, 38.16 47.53" stroke="#a5d8ff" stroke-width="1" fill="none"></path></g><g transform="translate(436.56048971463133 704.2393990819501) rotate(0 18.684301952035412 23.716156473605224)"><path d="M27.27 25.22 C33.74 31.94, 36.09 43.72, 37 47.33 M28.11 24.77 C30.54 31.91, 33.4 39.68, 38.16 47.53" stroke="#a5d8ff" stroke-width="1" fill="none"></path></g></g><mask></mask><g stroke-linecap="round" transform="translate(403.41493055555566 766.2444444444436) rotate(0 75.72222222222229 34)"><path d="M17 0 C44.14 -4.24, 66.34 0.94, 134.44 0 M17 0 C46.11 -1.06, 77.34 0.58, 134.44 0 M134.44 0 C142.12 0.52, 147.46 6.99, 151.44 17 M134.44 0 C147.61 0.24, 151.13 8.37, 151.44 17 M151.44 17 C148.39 23.15, 148.44 38.65, 151.44 51 M151.44 17 C151.21 28.33, 151.83 34.88, 151.44 51 M151.44 51 C149.91 63.88, 148.75 69.28, 134.44 68 M151.44 51 C149.26 59.55, 148.03 70.27, 134.44 68 M134.44 68 C95.54 68.83, 61.79 67.49, 17 68 M134.44 68 C106.72 70.44, 81.57 68.62, 17 68 M17 68 C6.81 70.2, -0.66 63.16, 0 51 M17 68 C3.97 71.21, 3.88 63.32, 0 51 M0 51 C-1.14 38.44, -0.66 33.67, 0 17 M0 51 C-1.7 43.67, 0.23 36.24, 0 17 M0 17 C0.21 5.83, 4.66 -1.08, 17 0 M0 17 C1.32 5.32, 2.3 3.85, 17 0" stroke="#ff8787" stroke-width="2" fill="none"></path></g><g transform="translate(413.59169684516075 771.4444444444434) rotate(0 65.54545593261719 28.800000000000182)"><text x="65.54545593261719" y="15.45" font-family="Cascadia, Segoe UI Emoji" font-size="16px" fill="#ff8787" text-anchor="middle" style="white-space: pre;" direction="ltr" dominant-baseline="alphabetic">EXTERNAL_NODE </text><text x="65.54545593261719" y="34.65" font-family="Cascadia, Segoe UI Emoji" font-size="16px" fill="#ff8787" text-anchor="middle" style="white-space: pre;" direction="ltr" dominant-baseline="alphabetic">Node C</text><text x="65.54545593261719" y="53.849999999999994" font-family="Cascadia, Segoe UI Emoji" font-size="16px" fill="#ff8787" text-anchor="middle" style="white-space: pre;" direction="ltr" dominant-baseline="alphabetic">Window 3</text></g><g stroke-linecap="round" transform="translate(182.41493055555566 764.2444444444436) rotate(0 75.72222222222229 34)"><path d="M17 0 C41.82 -1.59, 70.69 -4.55, 134.44 0 M17 0 C47.64 -1.1, 79.95 -0.71, 134.44 0 M134.44 0 C147.37 0.2, 151.17 8.02, 151.44 17 M134.44 0 C144.57 0.59, 153.48 2.06, 151.44 17 M151.44 17 C150.27 22.13, 148.85 32.36, 151.44 51 M151.44 17 C150.94 30.84, 153.2 43.77, 151.44 51 M151.44 51 C149.55 59.91, 147.74 69.98, 134.44 68 M151.44 51 C151.33 64.87, 146.53 63.45, 134.44 68 M134.44 68 C95.24 63.71, 64.94 66.77, 17 68 M134.44 68 C97.68 67.38, 59.44 66.7, 17 68 M17 68 C4.19 70.79, 3.38 63.19, 0 51 M17 68 C4.77 64.08, -4.48 60.36, 0 51 M0 51 C-2.49 42.83, 1.72 32.16, 0 17 M0 51 C0.06 39.9, -0.55 28.09, 0 17 M0 17 C1.14 5.36, 2.74 3.35, 17 0 M0 17 C-0.95 5.88, 7.91 4.42, 17 0" stroke="#a5d8ff" stroke-width="2" fill="none"></path></g><g transform="translate(192.59169684516075 769.4444444444434) rotate(0 65.54545593261719 28.800000000000182)"><text x="65.54545593261719" y="15.45" font-family="Cascadia, Segoe UI Emoji" font-size="16px" fill="#a5d8ff" text-anchor="middle" style="white-space: pre;" direction="ltr" dominant-baseline="alphabetic">EXTERNAL_NODE </text><text x="65.54545593261719" y="34.65" font-family="Cascadia, Segoe UI Emoji" font-size="16px" fill="#a5d8ff" text-anchor="middle" style="white-space: pre;" direction="ltr" dominant-baseline="alphabetic">Node B</text><text x="65.54545593261719" y="53.849999999999994" font-family="Cascadia, Segoe UI Emoji" font-size="16px" fill="#a5d8ff" text-anchor="middle" style="white-space: pre;" direction="ltr" dominant-baseline="alphabetic">window 2</text></g><g stroke-linecap="round"><g transform="translate(304.4307597128468 606.8895787523534) rotate(0 -7.5 -18.5)"><path d="M-0.47 -1.16 C-3.31 -12.76, -8.59 -23.73, -14.34 -36.2 M-0.26 0.13 C-4.11 -11.99, -9.92 -23.26, -14.24 -37.16" stroke="#a5d8ff" stroke-width="1" fill="none"></path></g><g transform="translate(304.4307597128468 606.8895787523534) rotate(0 -7.5 -18.5)"><path d="M-2.03 -22.91 C-4.14 -28.18, -8.75 -32.85, -13.58 -36.37 M-1.82 -21.62 C-4.98 -27.16, -10.08 -31.85, -13.48 -37.33" stroke="#a5d8ff" stroke-width="1" fill="none"></path></g><g transform="translate(304.4307597128468 606.8895787523534) rotate(0 -7.5 -18.5)"><path d="M-14.91 -18.36 C-13.27 -24.86, -14.11 -30.85, -13.58 -36.37 M-14.7 -17.07 C-13.92 -24.08, -15.09 -30.15, -13.48 -37.33" stroke="#a5d8ff" stroke-width="1" fill="none"></path></g></g><mask></mask><g stroke-linecap="round"><g transform="translate(170.51436119738764 608.5784975296292) rotate(0 9 -17)"><path d="M1.16 -1.83 C4.26 -9.3, 8.58 -13.91, 18.1 -34.14 M0.44 -0.78 C5.76 -13, 13.77 -24.59, 17.4 -34.52" stroke="#a5d8ff" stroke-width="1" fill="none"></path></g><g transform="translate(170.51436119738764 608.5784975296292) rotate(0 9 -17)"><path d="M17.01 -17.1 C16.52 -21.43, 17.23 -22.92, 17.5 -34.65 M16.32 -16.09 C15.73 -22.97, 17.76 -29.26, 16.83 -35.01" stroke="#a5d8ff" stroke-width="1" fill="none"></path></g><g transform="translate(170.51436119738764 608.5784975296292) rotate(0 9 -17)"><path d="M5.04 -22.55 C7.14 -25.62, 10.46 -25.93, 17.5 -34.65 M4.35 -21.55 C8.04 -26.48, 14.36 -30.82, 16.83 -35.01" stroke="#a5d8ff" stroke-width="1" fill="none"></path></g></g><mask></mask><g stroke-linecap="round"><g transform="translate(288.51436119738764 746.5784975296292) rotate(0 9 -17)"><path d="M0.26 -1.99 C4.81 -7.26, 8.61 -16.41, 19.18 -34.53 M-0.79 -0.77 C6.24 -10.66, 10.51 -21.65, 18.09 -33.16" stroke="#a5d8ff" stroke-width="1" fill="none"></path></g><g transform="translate(288.51436119738764 746.5784975296292) rotate(0 9 -17)"><path d="M14.73 -16.18 C15.87 -18.03, 16.21 -23.5, 19.22 -33.66 M13.71 -15.01 C16.25 -20.3, 16.08 -26.55, 18.17 -32.35" stroke="#a5d8ff" stroke-width="1" fill="none"></path></g><g transform="translate(288.51436119738764 746.5784975296292) rotate(0 9 -17)"><path d="M3.43 -22.92 C7.34 -23.04, 10.41 -26.88, 19.22 -33.66 M2.41 -21.75 C8.51 -24.85, 11.88 -28.99, 18.17 -32.35" stroke="#a5d8ff" stroke-width="1" fill="none"></path></g></g><mask></mask><g stroke-linecap="round"><g transform="translate(429.00326620021633 744.9994031415727) rotate(0 -7.5 -18.5)"><path d="M0.66 0.8 C-3.07 -8, -5.13 -16.11, -14.74 -36.11 M0.76 -0.16 C-3.63 -8.83, -6.27 -15.67, -14.6 -37.71" stroke="#a5d8ff" stroke-width="1" fill="none"></path></g><g transform="translate(429.00326620021633 744.9994031415727) rotate(0 -7.5 -18.5)"><path d="M-0.89 -21.81 C-4.19 -26.02, -5.84 -29.56, -14.35 -36.82 M-0.79 -22.77 C-4.92 -26.57, -7.13 -28.56, -14.21 -38.41" stroke="#a5d8ff" stroke-width="1" fill="none"></path></g><g transform="translate(429.00326620021633 744.9994031415727) rotate(0 -7.5 -18.5)"><path d="M-13.65 -16.95 C-14.29 -22.05, -13.28 -26.6, -14.35 -36.82 M-13.55 -17.91 C-14.81 -22.69, -14.2 -25.75, -14.21 -38.41" stroke="#a5d8ff" stroke-width="1" fill="none"></path></g></g><mask></mask><g transform="translate(20.886363983154297 393.3999999999987) rotate(0 60.8636360168457 9.599999999999909)"><text x="60.8636360168457" y="15.45" font-family="Cascadia, Segoe UI Emoji" font-size="16px" fill="#a5d8ff" text-anchor="middle" style="white-space: pre;" direction="ltr" dominant-baseline="alphabetic">Initial state</text></g><g stroke-linecap="round" transform="translate(669.2499999999999 10) rotate(0 277.5 415)"><path d="M1.4 -0.07 C127.02 0.34, 250.61 2.01, 555.14 -0.36 M0.42 -0.45 C150.48 3.65, 302.38 4.5, 554.85 0.4 M555.93 -0.45 C559.29 305.07, 558.92 610.39, 555.71 830.47 M554.99 -0.36 C560.48 280.2, 561.32 561.67, 555.66 830.52 M555.27 831.44 C381.43 830.14, 207.01 828.95, 0.32 829.11 M555.05 829.68 C435.98 832.3, 318.41 833.21, -0.36 829.45 M1.14 828.55 C-6.63 526.76, -4.99 226.61, -1.23 0.84 M0.57 829.64 C5.94 640.51, 5.59 450.59, 0.18 0.79" stroke="#ffffff" stroke-width="1" fill="none"></path></g><g stroke-linecap="round"><g transform="translate(699.2499999999999 373) rotate(0 242.5 -1.5)"><path d="M1.34 -0.72 C133.42 0.4, 268.95 -1.87, 484.53 -3.16 M-0.64 -0.72 C98.53 1.91, 196.48 1.54, 485.57 -2.37" stroke="#ffffff" stroke-width="1" fill="none"></path></g></g><mask></mask><g transform="translate(903.611111111111 26.638888888888687) rotate(0 35.01818084716797 12)"><text x="0" y="19.3125" font-family="Cascadia, Segoe UI Emoji" font-size="20px" fill="#a5d8ff" text-anchor="start" style="white-space: pre;" direction="ltr" dominant-baseline="alphabetic">Screen</text></g><g stroke-linecap="round" transform="translate(712.111111111111 120.36111111111131) rotate(0 233.8888888888888 114)"><path d="M0 0 C120.69 -1.52, 240.97 -1.4, 467.78 0 M0 0 C94.49 0.82, 189.79 1.3, 467.78 0 M467.78 0 C470.02 63.45, 469.75 127.88, 467.78 228 M467.78 0 C468.78 59.84, 468.49 119.25, 467.78 228 M467.78 228 C284.47 227.34, 101.4 228.28, 0 228 M467.78 228 C311.22 229.68, 154.44 229.44, 0 228 M0 228 C-0.89 139.05, 0.32 49.28, 0 0 M0 228 C1.21 179.07, 0.36 130.18, 0 0" stroke="#a5d8ff" stroke-width="1" fill="none"></path></g><g stroke-linecap="round" transform="translate(717.611111111111 127.36111111111131) rotate(0 228.44444444444434 107)"><path d="M0 0 L456.89 0 L456.89 214 L0 214" stroke="none" stroke-width="0" fill="#b2f2bb"></path><path d="M0 0 C165.4 0, 330.8 0, 456.89 0 M0 0 C111.23 0, 222.45 0, 456.89 0 M456.89 0 C456.89 78.56, 456.89 157.12, 456.89 214 M456.89 0 C456.89 50.9, 456.89 101.79, 456.89 214 M456.89 214 C320.33 214, 183.77 214, 0 214 M456.89 214 C290.39 214, 123.89 214, 0 214 M0 214 C0 134.63, 0 55.27, 0 0 M0 214 C0 135.77, 0 57.54, 0 0" stroke="#1e1e1e" stroke-width="1" fill="none"></path></g><g stroke-linecap="round" transform="translate(726.111111111111 135.8611111111113) rotate(0 107.61111111111109 97.83333333333348)"><path d="M0 0 C58.03 1.09, 118.47 -1.15, 215.22 0 M0 0 C46.29 0.02, 93.49 0.22, 215.22 0 M215.22 0 C215.57 50.83, 215.11 101.98, 215.22 195.67 M215.22 0 C216.71 68.19, 215.79 134.26, 215.22 195.67 M215.22 195.67 C166.38 197.75, 117.44 196.53, 0 195.67 M215.22 195.67 C136.5 195.99, 56.83 195.53, 0 195.67 M0 195.67 C-2.14 136.46, 0.91 79.77, 0 0 M0 195.67 C1.76 145.24, 1.38 93.38, 0 0" stroke="#1e1e1e" stroke-width="2" fill="none"></path></g><g transform="translate(796.2676781548392 214.49444444444453) rotate(0 37.45454406738281 19.199999999999818)"><text x="37.45454406738281" y="15.45" font-family="Cascadia, Segoe UI Emoji" font-size="16px" fill="#1e1e1e" text-anchor="middle" style="white-space: pre;" direction="ltr" dominant-baseline="alphabetic">window 1</text><text x="37.45454406738281" y="34.65" font-family="Cascadia, Segoe UI Emoji" font-size="16px" fill="#1e1e1e" text-anchor="middle" style="white-space: pre;" direction="ltr" dominant-baseline="alphabetic">Node EA</text></g><g transform="translate(716.5396825396823 54.003968253968196) rotate(0 32.772727966308594 9.599999999999909)"><text x="0" y="15.45" font-family="Cascadia, Segoe UI Emoji" font-size="16px" fill="#b2f2bb" text-anchor="start" style="white-space: pre;" direction="ltr" dominant-baseline="alphabetic">Node PA</text></g><g stroke-linecap="round" transform="translate(950.2152777777777 136.56111111111204) rotate(0 107.61111111111109 97.83333333333348)"><path d="M-1.5 1.54 L216.08 -1.54 L216.27 194.23 L-1.86 197.32" stroke="none" stroke-width="0" fill="#ffec99"></path><path d="M0 0 C48.69 -0.81, 97.48 0.69, 215.22 0 M0 0 C80.26 -1.43, 161.21 -1.63, 215.22 0 M215.22 0 C216.85 72.99, 217.77 142.32, 215.22 195.67 M215.22 0 C214.19 50.35, 214.67 100.64, 215.22 195.67 M215.22 195.67 C148.2 196.82, 80.61 196.48, 0 195.67 M215.22 195.67 C161.16 195.29, 107.56 196.62, 0 195.67 M0 195.67 C-0.73 135.55, 1.54 74.83, 0 0 M0 195.67 C-2.02 151.12, -2.16 104.89, 0 0" stroke="#1e1e1e" stroke-width="2" fill="none"></path></g><g transform="translate(1020.371844821506 215.19444444444525) rotate(0 37.45454406738281 19.199999999999818)"><text x="37.45454406738281" y="15.45" font-family="Cascadia, Segoe UI Emoji" font-size="16px" fill="#1e1e1e" text-anchor="middle" style="white-space: pre;" direction="ltr" dominant-baseline="alphabetic">window 2</text><text x="37.45454406738281" y="34.65" font-family="Cascadia, Segoe UI Emoji" font-size="16px" fill="#1e1e1e" text-anchor="middle" style="white-space: pre;" direction="ltr" dominant-baseline="alphabetic">Node A</text></g><g stroke-linecap="round"><g transform="translate(938.4930555555555 91.83888888888941) rotate(0 0 -18.88888888888914)"><path d="M0 0 C0 -10.28, 0 -20.56, 0 -37.78 M0 0 C0 -12.78, 0 -25.55, 0 -37.78" stroke="#a5d8ff" stroke-width="2" fill="none"></path></g><g transform="translate(938.4930555555555 91.83888888888941) rotate(0 0 -18.88888888888914)"><path d="M6.46 -20.03 C4.7 -24.86, 2.94 -29.69, 0 -37.78 M6.46 -20.03 C4.28 -26.03, 2.09 -32.03, 0 -37.78" stroke="#a5d8ff" stroke-width="2" fill="none"></path></g><g transform="translate(938.4930555555555 91.83888888888941) rotate(0 0 -18.88888888888914)"><path d="M-6.46 -20.03 C-4.7 -24.86, -2.94 -29.69, 0 -37.78 M-6.46 -20.03 C-4.28 -26.03, -2.09 -32.03, 0 -37.78" stroke="#a5d8ff" stroke-width="2" fill="none"></path></g></g><mask></mask><g stroke-linecap="round"><g transform="translate(856.4785894388209 127.50555555555547) rotate(0 -33.27142210674356 -28.391943797507793)"><path d="M0 0 C-21.55 -18.39, -43.1 -36.77, -66.54 -56.78 M0 0 C-25.56 -21.81, -51.11 -43.62, -66.54 -56.78" stroke="#b2f2bb" stroke-width="1" fill="none"></path></g><g transform="translate(856.4785894388209 127.50555555555547) rotate(0 -33.27142210674356 -28.391943797507793)"><path d="M-43.12 -48.04 C-50.71 -50.87, -58.29 -53.7, -66.54 -56.78 M-43.12 -48.04 C-52.12 -51.4, -61.11 -54.76, -66.54 -56.78" stroke="#b2f2bb" stroke-width="1" fill="none"></path></g><g transform="translate(856.4785894388209 127.50555555555547) rotate(0 -33.27142210674356 -28.391943797507793)"><path d="M-54.22 -35.03 C-58.21 -42.07, -62.2 -49.12, -66.54 -56.78 M-54.22 -35.03 C-58.95 -43.39, -63.69 -51.74, -66.54 -56.78" stroke="#b2f2bb" stroke-width="1" fill="none"></path></g></g><mask></mask><g transform="translate(849.3906249999997 389.2555555555555) rotate(0 46.69091033935547 12)"><text x="0" y="19.3125" font-family="Cascadia, Segoe UI Emoji" font-size="20px" fill="#a5d8ff" text-anchor="start" style="white-space: pre;" direction="ltr" dominant-baseline="alphabetic">BSP-tree</text></g><g stroke-linecap="round" transform="translate(834.3906249999997 490.2555555555555) rotate(0 66 34)"><path d="M17 0 C43.83 2.74, 76.98 4.67, 115 0 M17 0 C52.26 -1.03, 90.22 -1.34, 115 0 M115 0 C129.17 -2.04, 131.86 6.48, 132 17 M115 0 C123.77 -4, 129.26 8.68, 132 17 M132 17 C128.69 27.12, 133.22 36.01, 132 51 M132 17 C130.89 26.29, 130.62 32.21, 132 51 M132 51 C129.01 65.4, 128.05 64.92, 115 68 M132 51 C134.41 59.03, 122.05 71.81, 115 68 M115 68 C78.4 64.42, 39.63 68.29, 17 68 M115 68 C77.78 68.52, 36.95 66.07, 17 68 M17 68 C2.43 65.19, 3.57 62.31, 0 51 M17 68 C9.5 64.73, -2.08 64.12, 0 51 M0 51 C-2.55 39.84, -2 28.8, 0 17 M0 51 C0.94 37.49, -2.06 23.81, 0 17 M0 17 C-1.7 6, 9.26 1.68, 17 0 M0 17 C1.52 8.37, 6.19 -0.57, 17 0" stroke="#b2f2bb" stroke-width="2" fill="none"></path></g><g transform="translate(853.5724449157711 505.05555555555566) rotate(0 46.818180084228516 19.199999999999818)"><text x="46.818180084228516" y="15.45" font-family="Cascadia, Segoe UI Emoji" font-size="16px" fill="#b2f2bb" text-anchor="middle" style="white-space: pre;" direction="ltr" dominant-baseline="alphabetic">ROOT_NODE </text><text x="46.818180084228516" y="34.65" font-family="Cascadia, Segoe UI Emoji" font-size="16px" fill="#b2f2bb" text-anchor="middle" style="white-space: pre;" direction="ltr" dominant-baseline="alphabetic">Node PA </text></g><g stroke-linecap="round"><g transform="translate(892.0634866899999 478.2555555555555) rotate(0 -0.940893774012352 -26.5)"><path d="M2.3 1.8 C1.89 -6.87, -0.72 -42, -1.52 -51.06 M0.11 0.31 C-0.73 -9.23, -2.77 -46.76, -3.57 -55.01" stroke="#a5d8ff" stroke-width="2" fill="none"></path></g><g transform="translate(892.0634866899999 478.2555555555555) rotate(0 -0.940893774012352 -26.5)"><path d="M7.93 -31.94 C4.54 -40.18, 0.07 -45.55, -3.55 -53.59 M6.08 -33.06 C3.51 -37.19, 1.63 -43.93, -4.51 -55.77" stroke="#a5d8ff" stroke-width="2" fill="none"></path></g><g transform="translate(892.0634866899999 478.2555555555555) rotate(0 -0.940893774012352 -26.5)"><path d="M-9.13 -30.71 C-6.83 -39.51, -5.59 -45.29, -3.55 -53.59 M-10.98 -31.84 C-9.3 -36.31, -6.94 -43.36, -4.51 -55.77" stroke="#a5d8ff" stroke-width="2" fill="none"></path></g></g><mask></mask><g stroke-linecap="round" transform="translate(715.8906249999997 616.7555555555555) rotate(0 75.72222222222229 34)"><path d="M17 0 C63.29 -0.6, 107.14 1.65, 134.44 0 M17 0 C52.33 0.8, 87.18 -0.27, 134.44 0 M134.44 0 C144.59 1.31, 151.57 4.86, 151.44 17 M134.44 0 C143.62 -1.75, 151.27 6.53, 151.44 17 M151.44 17 C153.08 24.1, 152.64 32.48, 151.44 51 M151.44 17 C151.62 25.55, 151.71 34.92, 151.44 51 M151.44 51 C149.58 63.99, 147.2 67.1, 134.44 68 M151.44 51 C150.72 62.21, 144.08 66.51, 134.44 68 M134.44 68 C96.44 70.24, 59.26 68.42, 17 68 M134.44 68 C110.83 67.17, 86.27 66.46, 17 68 M17 68 C4.76 68.78, 1.67 63.57, 0 51 M17 68 C3.9 66.78, 1.08 61.42, 0 51 M0 51 C-1.22 38.63, -0.5 22.14, 0 17 M0 51 C1.04 42.15, 0.47 33.05, 0 17 M0 17 C0.23 5.42, 7.51 -1.92, 17 0 M0 17 C0.73 4.14, 6.16 1.26, 17 0" stroke="#a5d8ff" stroke-width="2" fill="none"></path></g><g transform="translate(726.0673912896048 621.9555555555553) rotate(0 65.54545593261719 28.800000000000182)"><text x="65.54545593261719" y="15.45" font-family="Cascadia, Segoe UI Emoji" font-size="16px" fill="#a5d8ff" text-anchor="middle" style="white-space: pre;" direction="ltr" dominant-baseline="alphabetic">EXTERNAL_NODE </text><text x="65.54545593261719" y="34.65" font-family="Cascadia, Segoe UI Emoji" font-size="16px" fill="#a5d8ff" text-anchor="middle" style="white-space: pre;" direction="ltr" dominant-baseline="alphabetic">Node EA</text><text x="65.54545593261719" y="53.849999999999994" font-family="Cascadia, Segoe UI Emoji" font-size="16px" fill="#a5d8ff" text-anchor="middle" style="white-space: pre;" direction="ltr" dominant-baseline="alphabetic">window 1</text></g><g stroke-linecap="round"><g transform="translate(825.4953394573084 559.1772306318671) rotate(0 -11.339508894636083 21.539162461843716)"><path d="M0.02 1.42 C-7.24 12.09, -12.11 23, -24.42 41.89 M-0.94 -0.76 C-8.34 16.03, -17.01 30.72, -22.04 44.01" stroke="#a5d8ff" stroke-width="1" fill="none"></path></g><g transform="translate(825.4953394573084 559.1772306318671) rotate(0 -11.339508894636083 21.539162461843716)"><path d="M-20.53 21.14 C-21.94 26.4, -20.93 32.1, -23.78 42.82 M-21.49 18.96 C-21.15 28.97, -22.08 36.79, -21.4 44.95" stroke="#a5d8ff" stroke-width="1" fill="none"></path></g><g transform="translate(825.4953394573084 559.1772306318671) rotate(0 -11.339508894636083 21.539162461843716)"><path d="M-5.26 27.78 C-10.92 31.34, -14.15 35.2, -23.78 42.82 M-6.22 25.6 C-11.47 33.12, -17.98 38.51, -21.4 44.95" stroke="#a5d8ff" stroke-width="1" fill="none"></path></g></g><mask></mask><g stroke-linecap="round"><g transform="translate(976.0703025389035 563.4808634644578) rotate(0 10.866245430672734 20.88734604554884)"><path d="M-1.02 -0.07 C8.88 15.02, 15.21 31.23, 23.04 41.9 M-0.08 0.37 C4.79 10.32, 11.53 22.79, 20.96 42.49" stroke="#a5d8ff" stroke-width="1" fill="none"></path></g><g transform="translate(976.0703025389035 563.4808634644578) rotate(0 10.866245430672734 20.88734604554884)"><path d="M2.98 26.08 C11.02 31.29, 15.49 37.58, 22.27 42.62 M3.93 26.53 C7.8 29.84, 13.29 35.7, 20.19 43.2" stroke="#a5d8ff" stroke-width="1" fill="none"></path></g><g transform="translate(976.0703025389035 563.4808634644578) rotate(0 10.866245430672734 20.88734604554884)"><path d="M17.45 19.01 C19.85 27.07, 18.68 36.12, 22.27 42.62 M18.39 19.45 C18.44 24.49, 20.18 32.19, 20.19 43.2" stroke="#a5d8ff" stroke-width="1" fill="none"></path></g></g><mask></mask><g stroke-linecap="round" transform="translate(949.4322916666662 617.959256998698) rotate(0 75.72222222222229 34)"><path d="M17 0 C61.37 -2.14, 100.64 -2.3, 134.44 0 M17 0 C58.05 -0.57, 102.71 1.7, 134.44 0 M134.44 0 C143.95 -2.75, 154 9.41, 151.44 17 M134.44 0 C142.22 3.28, 147.27 4.48, 151.44 17 M151.44 17 C148.89 26.75, 149.1 28.58, 151.44 51 M151.44 17 C151.3 29.91, 150.45 41.74, 151.44 51 M151.44 51 C152.35 66.26, 147.24 67.8, 134.44 68 M151.44 51 C155.6 63.76, 145.77 63.8, 134.44 68 M134.44 68 C108.68 73.43, 80.12 68.29, 17 68 M134.44 68 C93.11 68.39, 55.8 68.66, 17 68 M17 68 C9.55 71.67, 1.12 60.51, 0 51 M17 68 C8.26 67.56, -4.3 61.08, 0 51 M0 51 C1.62 43.57, 2.29 33.95, 0 17 M0 51 C0 39.89, -0.2 32.54, 0 17 M0 17 C-2.53 5.77, 8.97 2.81, 17 0 M0 17 C1.85 6.34, 6.35 2.64, 17 0" stroke="#ffec99" stroke-width="2" fill="none"></path></g><g transform="translate(959.6090579562713 623.1592569986979) rotate(0 65.54545593261724 28.800000000000182)"><text x="65.54545593261719" y="15.45" font-family="Cascadia, Segoe UI Emoji" font-size="16px" fill="#ffec99" text-anchor="middle" style="white-space: pre;" direction="ltr" dominant-baseline="alphabetic">EXTERNAL_NODE </text><text x="65.54545593261719" y="34.65" font-family="Cascadia, Segoe UI Emoji" font-size="16px" fill="#ffec99" text-anchor="middle" style="white-space: pre;" direction="ltr" dominant-baseline="alphabetic">Node A</text><text x="65.54545593261719" y="53.849999999999994" font-family="Cascadia, Segoe UI Emoji" font-size="16px" fill="#ffec99" text-anchor="middle" style="white-space: pre;" direction="ltr" dominant-baseline="alphabetic">window 2</text></g><g stroke-linecap="round" transform="translate(1062.6649305555557 761.7444444444445) rotate(0 75.72222222222229 34)"><path d="M17 0 C49.95 1.9, 90.48 0.38, 134.44 0 M17 0 C42.62 -0.77, 69.52 -2.72, 134.44 0 M134.44 0 C142.78 3.07, 153.16 2.59, 151.44 17 M134.44 0 C148.18 -3.3, 147.16 9.48, 151.44 17 M151.44 17 C150.93 26.67, 148.56 43.16, 151.44 51 M151.44 17 C153.5 31.16, 151.69 42.25, 151.44 51 M151.44 51 C148.21 59.52, 149.35 67.98, 134.44 68 M151.44 51 C155.28 59.06, 143.7 69.79, 134.44 68 M134.44 68 C87.28 68.07, 42.78 70.07, 17 68 M134.44 68 C89.56 66.74, 40.56 66.38, 17 68 M17 68 C3.96 68.33, 3.59 64.01, 0 51 M17 68 C7.18 70.7, 0.53 61.77, 0 51 M0 51 C-2 38.51, 2.85 21.79, 0 17 M0 51 C0.24 41.01, -0.26 31.58, 0 17 M0 17 C3.28 5.24, 3.04 -1.1, 17 0 M0 17 C-3.29 7.69, 7.16 -3.7, 17 0" stroke="#ff8787" stroke-width="2" fill="none"></path></g><g transform="translate(1072.8416968451606 766.9444444444443) rotate(0 65.54545593261719 28.800000000000182)"><text x="65.54545593261719" y="15.45" font-family="Cascadia, Segoe UI Emoji" font-size="16px" fill="#ff8787" text-anchor="middle" style="white-space: pre;" direction="ltr" dominant-baseline="alphabetic">EXTERNAL_NODE </text><text x="65.54545593261719" y="34.65" font-family="Cascadia, Segoe UI Emoji" font-size="16px" fill="#ff8787" text-anchor="middle" style="white-space: pre;" direction="ltr" dominant-baseline="alphabetic">Node C</text><text x="65.54545593261719" y="53.849999999999994" font-family="Cascadia, Segoe UI Emoji" font-size="16px" fill="#ff8787" text-anchor="middle" style="white-space: pre;" direction="ltr" dominant-baseline="alphabetic">Window 3</text></g><g stroke-linecap="round" transform="translate(841.6649305555555 759.7444444444445) rotate(0 75.72222222222229 34)"><path d="M17 0 C48.6 3.63, 89.43 -2.02, 134.44 0 M17 0 C59.12 2.14, 105.1 -0.93, 134.44 0 M134.44 0 C147.87 -2.87, 147.72 8.98, 151.44 17 M134.44 0 C149.06 -2.06, 150 5.43, 151.44 17 M151.44 17 C154.93 26.14, 150.8 35.98, 151.44 51 M151.44 17 C149.83 26.85, 153.23 39.5, 151.44 51 M151.44 51 C154.78 59.49, 143.97 69.55, 134.44 68 M151.44 51 C155.28 65.18, 142.23 65.55, 134.44 68 M134.44 68 C97.35 71.4, 51.1 72.53, 17 68 M134.44 68 C99.48 67.52, 68.01 68.2, 17 68 M17 68 C6.99 70.35, 0.46 61.84, 0 51 M17 68 C9.91 63.59, 1.45 59.29, 0 51 M0 51 C-0.27 43.38, 2.44 30.76, 0 17 M0 51 C1.54 40.09, -1.42 29.05, 0 17 M0 17 C-2.86 7.43, 6.96 -3.22, 17 0 M0 17 C3.32 10.04, 9.27 2.36, 17 0" stroke="#a5d8ff" stroke-width="2" fill="none"></path></g><g transform="translate(851.8416968451606 764.9444444444443) rotate(0 65.54545593261713 28.800000000000182)"><text x="65.54545593261719" y="15.45" font-family="Cascadia, Segoe UI Emoji" font-size="16px" fill="#a5d8ff" text-anchor="middle" style="white-space: pre;" direction="ltr" dominant-baseline="alphabetic">EXTERNAL_NODE </text><text x="65.54545593261719" y="34.65" font-family="Cascadia, Segoe UI Emoji" font-size="16px" fill="#a5d8ff" text-anchor="middle" style="white-space: pre;" direction="ltr" dominant-baseline="alphabetic">Node B</text><text x="65.54545593261719" y="53.849999999999994" font-family="Cascadia, Segoe UI Emoji" font-size="16px" fill="#a5d8ff" text-anchor="middle" style="white-space: pre;" direction="ltr" dominant-baseline="alphabetic">null</text></g><g stroke-linecap="round"><g transform="translate(963.6807597128467 602.3895787523543) rotate(0 -7.5 -18.5)"><path d="M1.43 -1.82 C-6.32 -15.08, -9.73 -26.18, -16.54 -35.95 M0.71 -0.45 C-3.39 -8.37, -7.24 -17.41, -14.77 -36.02" stroke="#a5d8ff" stroke-width="1" fill="none"></path></g><g transform="translate(963.6807597128467 602.3895787523543) rotate(0 -7.5 -18.5)"><path d="M0.08 -23.06 C-6.89 -28.22, -9.72 -31.24, -16.31 -34.97 M-0.64 -21.69 C-4.59 -24.56, -8.08 -28.52, -14.55 -35.04" stroke="#a5d8ff" stroke-width="1" fill="none"></path></g><g transform="translate(963.6807597128467 602.3895787523543) rotate(0 -7.5 -18.5)"><path d="M-12.56 -17.88 C-14.98 -24.83, -13.21 -29.74, -16.31 -34.97 M-13.27 -16.52 C-14.29 -20.67, -14.9 -25.82, -14.55 -35.04" stroke="#a5d8ff" stroke-width="1" fill="none"></path></g></g><mask></mask><g stroke-linecap="round"><g transform="translate(829.7643611973875 604.0784975296301) rotate(0 9 -17)"><path d="M-0.52 -1.5 C5.3 -6.55, 6.23 -13.93, 16.56 -35.86 M-0.31 -0.05 C5.91 -13.58, 13.77 -24.97, 18.37 -34.05" stroke="#a5d8ff" stroke-width="1" fill="none"></path></g><g transform="translate(829.7643611973875 604.0784975296301) rotate(0 9 -17)"><path d="M14.84 -16.49 C17.35 -18.43, 15.07 -22.48, 16.98 -35.84 M15.03 -15.11 C15.65 -22.94, 17.74 -28.64, 18.72 -34.1" stroke="#a5d8ff" stroke-width="1" fill="none"></path></g><g transform="translate(829.7643611973875 604.0784975296301) rotate(0 9 -17)"><path d="M3.33 -22.89 C8.46 -23.3, 8.73 -25.92, 16.98 -35.84 M3.53 -21.5 C8.6 -26.83, 15.09 -30.09, 18.72 -34.1" stroke="#a5d8ff" stroke-width="1" fill="none"></path></g></g><mask></mask><g transform="translate(689.4999999999999 388.89999999999964) rotate(0 51.5 9.599999999999909)"><text x="51.5" y="15.45" font-family="Cascadia, Segoe UI Emoji" font-size="16px" fill="#a5d8ff" text-anchor="middle" style="white-space: pre;" direction="ltr" dominant-baseline="alphabetic">Final state</text></g><g stroke-linecap="round"><g transform="translate(560.75 382.9999999999991) rotate(0 51.5 -0.5)"><path d="M3.33 -3.35 C41.95 -3.2, 73.75 -3.35, 101.5 2.71 M1.41 -1.17 C30.08 3.57, 60.68 3.32, 101.02 -0.98" stroke="#ffffff" stroke-width="1" fill="none"></path></g><g transform="translate(560.75 382.9999999999991) rotate(0 51.5 -0.5)"><path d="M79.96 7.77 C88.44 4.9, 93.55 1.1, 100.27 0.88 M79 8.86 C84.81 7.51, 91.61 4.46, 100.03 -0.97" stroke="#ffffff" stroke-width="1" fill="none"></path></g><g transform="translate(560.75 382.9999999999991) rotate(0 51.5 -0.5)"><path d="M78.57 -9.28 C87.66 -5.77, 93.3 -3.18, 100.27 0.88 M77.61 -8.18 C83.88 -4.49, 91.09 -2.51, 100.03 -0.97" stroke="#ffffff" stroke-width="1" fill="none"></path></g></g><mask></mask><g transform="translate(970.5168064435319 403.7499999999991) rotate(0 118.23319355646777 39.25)"><text x="0" y="12.633593750000003" font-family="Cascadia, Segoe UI Emoji" font-size="13.083333333333337px" fill="#ffffff" text-anchor="start" style="white-space: pre;" direction="ltr" dominant-baseline="alphabetic">- The parent ⇄ child links </text><text x="0" y="28.333593750000006" font-family="Cascadia, Segoe UI Emoji" font-size="13.083333333333337px" fill="#ffffff" text-anchor="start" style="white-space: pre;" direction="ltr" dominant-baseline="alphabetic">  are removed</text><text x="0" y="44.03359375000001" font-family="Cascadia, Segoe UI Emoji" font-size="13.083333333333337px" fill="#ffffff" text-anchor="start" style="white-space: pre;" direction="ltr" dominant-baseline="alphabetic">- We can safely call </text><text x="0" y="59.73359375000002" font-family="Cascadia, Segoe UI Emoji" font-size="13.083333333333337px" fill="#ffffff" text-anchor="start" style="white-space: pre;" direction="ltr" dominant-baseline="alphabetic">  free(node B) and </text><text x="0" y="75.43359375000003" font-family="Cascadia, Segoe UI Emoji" font-size="13.083333333333337px" fill="#ffffff" text-anchor="start" style="white-space: pre;" direction="ltr" dominant-baseline="alphabetic">  free(node C)</text></g></svg>