<svg version="1.1" xmlns="http://www.w3.org/2000/svg" viewBox="0 0 1455.6328914141413 489.6222222222225" width="1455.6328914141413" height="489.6222222222225">
  <!-- svg-source:excalidraw -->
  
  <defs>
    <style class="style-fonts">
      @font-face {
        font-family: "Virgil";
        src: url("https://excalidraw.com/Virgil.woff2");
      }
      @font-face {
        font-family: "Cascadia";
        src: url("https://excalidraw.com/Cascadia.woff2");
      }
      @font-face {
        font-family: "Assistant";
        src: url("https://excalidraw.com/Assistant-Regular.woff2");
      }
    </style>
    
  </defs>
  <rect x="0" y="0" width="1455.6328914141413" height="489.6222222222225" fill="#2a2631"></rect><g transform="translate(346.13983585858523 10) rotate(0 35.01818084716797 12)"><text x="0" y="19.3125" font-family="Cascadia, Segoe UI Emoji" font-size="20px" fill="#a5d8ff" text-anchor="start" style="white-space: pre;" direction="ltr" dominant-baseline="alphabetic">Screen</text></g><g transform="translate(990.1398358585852 31.22222222222217) rotate(0 46.69091033935547 12)"><text x="0" y="19.3125" font-family="Cascadia, Segoe UI Emoji" font-size="20px" fill="#a5d8ff" text-anchor="start" style="white-space: pre;" direction="ltr" dominant-baseline="alphabetic">BSP-tree</text></g><g stroke-linecap="round" transform="translate(975.1398358585852 132.2222222222224) rotate(0 66 34)"><path d="M17 0 C39.98 -3.65, 61.93 1.98, 115 0 M17 0 C45.41 -0.74, 69.37 -0.59, 115 0 M115 0 C127.49 -1.19, 128.34 2.54, 132 17 M115 0 C124.19 -0.92, 130.98 6.46, 132 17 M132 17 C134.82 28.43, 128.64 36.67, 132 51 M132 17 C132.39 25.51, 131.89 38.29, 132 51 M132 51 C128.06 62.83, 125.2 69.84, 115 68 M132 51 C133.5 64.05, 128.23 66.23, 115 68 M115 68 C82.59 67.15, 55.45 67.64, 17 68 M115 68 C83.85 67.52, 51.95 69.18, 17 68 M17 68 C3.85 70.68, 0.57 65.12, 0 51 M17 68 C7.97 71.21, 1.83 58.51, 0 51 M0 51 C-1.2 42.31, 0.21 34.53, 0 17 M0 51 C-0.53 41.65, 1.75 33.05, 0 17 M0 17 C2.73 6.24, 8.61 3.94, 17 0 M0 17 C-1.84 5.62, 1.25 -4.06, 17 0" stroke="#b2f2bb" stroke-width="2" fill="none"></path></g><g transform="translate(980.2761998417395 147.02222222222213) rotate(0 60.8636360168457 19.200000000000045)"><text x="60.8636360168457" y="15.45" font-family="Cascadia, Segoe UI Emoji" font-size="16px" fill="#b2f2bb" text-anchor="middle" style="white-space: pre;" direction="ltr" dominant-baseline="alphabetic">ROOT_NODE </text><text x="60.8636360168457" y="34.65" font-family="Cascadia, Segoe UI Emoji" font-size="16px" fill="#b2f2bb" text-anchor="middle" style="white-space: pre;" direction="ltr" dominant-baseline="alphabetic">(rectangle 1)</text></g><g stroke-linecap="round"><g transform="translate(1032.8126975485854 120.2222222222224) rotate(0 -0.940893774012352 -26.5)"><path d="M1.37 -0.67 C1.05 -9.75, -4.24 -45.15, -4.47 -54.25 M-1.34 -3.5 C-0.59 -12.23, 0.43 -42.98, 0.53 -51.3" stroke="#a5d8ff" stroke-width="2" fill="none"></path></g><g transform="translate(1032.8126975485854 120.2222222222224) rotate(0 -0.940893774012352 -26.5)"><path d="M8.02 -29.45 C5.93 -31.13, 3.55 -39.16, -0.94 -50.72 M8.03 -27.8 C6.34 -33.9, 4.52 -40.21, 0.55 -50.64" stroke="#a5d8ff" stroke-width="2" fill="none"></path></g><g transform="translate(1032.8126975485854 120.2222222222224) rotate(0 -0.940893774012352 -26.5)"><path d="M-9.08 -29.87 C-7.61 -31.55, -6.44 -39.49, -0.94 -50.72 M-9.06 -28.22 C-6.14 -34.07, -3.34 -40.27, 0.55 -50.64" stroke="#a5d8ff" stroke-width="2" fill="none"></path></g></g><mask></mask><g stroke-linecap="round" transform="translate(822.6398358585852 258.7222222222224) rotate(0 75.72222222222229 34)"><path d="M17 0 C57.07 2.44, 97.31 -0.66, 134.44 0 M17 0 C42.71 -0.43, 69.79 0.15, 134.44 0 M134.44 0 C145.33 0.34, 151.67 6.18, 151.44 17 M134.44 0 C145.83 1.52, 151.93 3.64, 151.44 17 M151.44 17 C152.79 26.65, 149.82 35.08, 151.44 51 M151.44 17 C150.83 29.41, 151.44 41.27, 151.44 51 M151.44 51 C152.27 61.56, 145.86 68.59, 134.44 68 M151.44 51 C151.01 60.84, 145.5 68.03, 134.44 68 M134.44 68 C100.03 69.77, 62.62 70.14, 17 68 M134.44 68 C97.28 69.48, 60.34 69.49, 17 68 M17 68 C6.46 66.34, -1.09 60.58, 0 51 M17 68 C6.03 66.96, -0.2 62.11, 0 51 M0 51 C0.69 40.01, -0.51 31.9, 0 17 M0 51 C0.5 42.77, -0.63 32.56, 0 17 M0 17 C-1.92 3.9, 3.68 -0.01, 17 0 M0 17 C-0.74 6.57, 6.74 -0.69, 17 0" stroke="#ffc9c9" stroke-width="2" fill="none"></path></g><g transform="translate(832.8166021481903 273.5222222222226) rotate(0 65.54545593261713 19.200000000000045)"><text x="65.54545593261719" y="15.45" font-family="Cascadia, Segoe UI Emoji" font-size="16px" fill="#ffc9c9" text-anchor="middle" style="white-space: pre;" direction="ltr" dominant-baseline="alphabetic">INTERNAL_NODE </text><text x="65.54545593261719" y="34.65" font-family="Cascadia, Segoe UI Emoji" font-size="16px" fill="#ffc9c9" text-anchor="middle" style="white-space: pre;" direction="ltr" dominant-baseline="alphabetic">(rectangle 2)</text></g><g stroke-linecap="round"><g transform="translate(966.244550315894 183.69986943524714) rotate(0 -23.164843064342563 30.26117639348763)"><path d="M-2.93 1.16 C-19.21 17.8, -38.19 41.86, -47.13 59.64 M0.05 1.32 C-14.13 17.67, -30 38.59, -47.34 61.88" stroke="#a5d8ff" stroke-width="1" fill="none"></path></g><g transform="translate(966.244550315894 183.69986943524714) rotate(0 -23.164843064342563 30.26117639348763)"><path d="M-41.55 38.53 C-43.54 44.86, -47.18 54.56, -47.74 61.44 M-40.06 38.62 C-42.14 44.68, -45.03 53.13, -47.84 62.56" stroke="#a5d8ff" stroke-width="1" fill="none"></path></g><g transform="translate(966.244550315894 183.69986943524714) rotate(0 -23.164843064342563 30.26117639348763)"><path d="M-27.87 48.8 C-34.81 51.23, -43.48 57.16, -47.74 61.44 M-26.38 48.88 C-32.82 51.72, -40.04 56.92, -47.84 62.56" stroke="#a5d8ff" stroke-width="1" fill="none"></path></g></g><mask></mask><g stroke-linecap="round"><g transform="translate(1116.8195133974891 205.44753013112472) rotate(0 31.7753363397635 18.614618772821586)"><path d="M-1.19 -3.66 C9.85 5.69, 25.71 14.59, 64.24 37.68 M0.42 -1.77 C19.98 11.25, 40.43 24.78, 64.28 35.61" stroke="#a5d8ff" stroke-width="1" fill="none"></path></g><g transform="translate(1116.8195133974891 205.44753013112472) rotate(0 31.7753363397635 18.614618772821586)"><path d="M38.86 30.85 C43.15 32.3, 49.6 33.41, 64.62 35.84 M39.66 31.79 C47.17 33.45, 55.13 35.1, 64.64 34.8" stroke="#a5d8ff" stroke-width="1" fill="none"></path></g><g transform="translate(1116.8195133974891 205.44753013112472) rotate(0 31.7753363397635 18.614618772821586)"><path d="M46.55 15.57 C49.1 20.3, 53.91 24.66, 64.62 35.84 M47.36 16.52 C52.36 23.2, 57.81 29.84, 64.64 34.8" stroke="#a5d8ff" stroke-width="1" fill="none"></path></g></g><mask></mask><g stroke-linecap="round" transform="translate(154.63983585858523 111.7222222222224) rotate(0 233.8888888888888 114)"><path d="M0 0 C153.15 1.52, 307.53 1.74, 467.78 0 M0 0 C148.39 -0.25, 296.85 -0.95, 467.78 0 M467.78 0 C468.9 60.47, 466.36 119.89, 467.78 228 M467.78 0 C465.62 80.51, 466.14 160.55, 467.78 228 M467.78 228 C308.43 227.92, 147.96 227.98, 0 228 M467.78 228 C327.03 228.81, 186.04 228.32, 0 228 M0 228 C0.8 142.8, 0.85 57.97, 0 0 M0 228 C-1.24 142.94, -0.64 58.99, 0 0" stroke="#a5d8ff" stroke-width="1" fill="none"></path></g><g stroke-linecap="round" transform="translate(160.13983585858523 118.7222222222224) rotate(0 228.44444444444434 107.00000000000023)"><path d="M0 0 L456.89 0 L456.89 214 L0 214" stroke="none" stroke-width="0" fill="#b2f2bb"></path><path d="M0 0 C95.27 0, 190.54 0, 456.89 0 M0 0 C148.89 0, 297.78 0, 456.89 0 M456.89 0 C456.89 53.4, 456.89 106.8, 456.89 214 M456.89 0 C456.89 66.87, 456.89 133.75, 456.89 214 M456.89 214 C317.95 214, 179.01 214, 0 214 M456.89 214 C306.44 214, 155.99 214, 0 214 M0 214 C0 159.51, 0 105.02, 0 0 M0 214 C0 167.57, 0 121.14, 0 0" stroke="#1e1e1e" stroke-width="1" fill="none"></path></g><g stroke-linecap="round" transform="translate(168.63983585858523 127.2222222222224) rotate(0 107.61111111111109 97.83333333333348)"><path d="M-0.24 0.54 L214.61 -0.66 L216.89 195.09 L1.37 195.95" stroke="none" stroke-width="0" fill="#ffc9c9"></path><path d="M0 0 C54.85 0.62, 109.54 0.46, 215.22 0 M0 0 C78.45 1.64, 157.11 2.26, 215.22 0 M215.22 0 C214.67 63.86, 213.89 131.1, 215.22 195.67 M215.22 0 C216.27 67.3, 215.9 135.65, 215.22 195.67 M215.22 195.67 C154.75 195.45, 94.75 196.41, 0 195.67 M215.22 195.67 C142.21 194.59, 67.49 195.02, 0 195.67 M0 195.67 C0.03 134.97, -3.02 71.59, 0 0 M0 195.67 C-0.4 154.05, -0.26 112.19, 0 0" stroke="#1e1e1e" stroke-width="2" fill="none"></path></g><g transform="translate(159.06840728715656 45.365079365079055) rotate(0 51.5 9.600000000000023)"><text x="0" y="15.45" font-family="Cascadia, Segoe UI Emoji" font-size="16px" fill="#b2f2bb" text-anchor="start" style="white-space: pre;" direction="ltr" dominant-baseline="alphabetic">rectangle 1</text></g><g transform="translate(156.63983585858523 345.2222222222224) rotate(0 243.4545440673828 67.20000000000005)"><text x="0" y="15.45" font-family="Cascadia, Segoe UI Emoji" font-size="16px" fill="#ffffff" text-anchor="start" style="white-space: pre;" direction="ltr" dominant-baseline="alphabetic">- The screen is divided into three main rectangles: </text><text x="0" y="34.65" font-family="Cascadia, Segoe UI Emoji" font-size="16px" fill="#ffffff" text-anchor="start" style="white-space: pre;" direction="ltr" dominant-baseline="alphabetic">  rectangle 1, rectangle 2, and rectangle 3.</text><text x="0" y="53.849999999999994" font-family="Cascadia, Segoe UI Emoji" font-size="16px" fill="#ffffff" text-anchor="start" style="white-space: pre;" direction="ltr" dominant-baseline="alphabetic">- Window 1 occupies rectangle 6 within rectangle 2.</text><text x="0" y="73.05" font-family="Cascadia, Segoe UI Emoji" font-size="16px" fill="#ffffff" text-anchor="start" style="white-space: pre;" direction="ltr" dominant-baseline="alphabetic">- Window 4 occupies rectangle 7 within rectangle 2.</text><text x="0" y="92.25" font-family="Cascadia, Segoe UI Emoji" font-size="16px" fill="#ffffff" text-anchor="start" style="white-space: pre;" direction="ltr" dominant-baseline="alphabetic">- Window 2 occupies rectangle 4 within rectangle 3.</text><text x="0" y="111.45" font-family="Cascadia, Segoe UI Emoji" font-size="16px" fill="#ffffff" text-anchor="start" style="white-space: pre;" direction="ltr" dominant-baseline="alphabetic">- Window 3 occupies rectangle 5 within rectangle 3.</text><text x="0" y="130.64999999999998" font-family="Cascadia, Segoe UI Emoji" font-size="16px" fill="#ffffff" text-anchor="start" style="white-space: pre;" direction="ltr" dominant-baseline="alphabetic">- All windows and rectangles occupy rectangle 1</text></g><g stroke-linecap="round" transform="translate(1180.1815025252517 259.92592366536405) rotate(0 75.72222222222229 34)"><path d="M17 0 C54.63 -1.14, 95.15 2.34, 134.44 0 M17 0 C40.77 -0.96, 67.91 -0.29, 134.44 0 M134.44 0 C147.08 1.49, 153.09 4.13, 151.44 17 M134.44 0 C145.97 1.35, 150.57 2.67, 151.44 17 M151.44 17 C152.63 29, 153.15 38.83, 151.44 51 M151.44 17 C151.05 26.32, 152.24 34.34, 151.44 51 M151.44 51 C153.45 65.12, 147.37 64.68, 134.44 68 M151.44 51 C148.93 58.29, 146.51 65.93, 134.44 68 M134.44 68 C98.45 67.64, 67.08 66.91, 17 68 M134.44 68 C104.46 67.6, 73.22 69.29, 17 68 M17 68 C4.06 67.96, -3.84 58.8, 0 51 M17 68 C1.11 67.97, -1.48 64.14, 0 51 M0 51 C-2.31 37.23, 1.88 27.9, 0 17 M0 51 C-2.03 41.19, 0.33 33.46, 0 17 M0 17 C-3.17 1.78, 6.53 -2.93, 17 0 M0 17 C-2.4 8.71, 3.91 -2.4, 17 0" stroke="#ffec99" stroke-width="2" fill="none"></path></g><g transform="translate(1190.358268814857 274.72592366536423) rotate(0 65.54545593261719 19.200000000000045)"><text x="65.54545593261719" y="15.45" font-family="Cascadia, Segoe UI Emoji" font-size="16px" fill="#ffec99" text-anchor="middle" style="white-space: pre;" direction="ltr" dominant-baseline="alphabetic">INTERNAL_NODE </text><text x="65.54545593261719" y="34.65" font-family="Cascadia, Segoe UI Emoji" font-size="16px" fill="#ffec99" text-anchor="middle" style="white-space: pre;" direction="ltr" dominant-baseline="alphabetic">(rectangle 3)</text></g><g stroke-linecap="round" transform="translate(392.744002525252 127.92222222222222) rotate(0 107.61111111111109 97.83333333333348)"><path d="M-1.92 -1.77 L213.24 -0.01 L214.58 196.45 L0.93 195.06" stroke="none" stroke-width="0" fill="#ffec99"></path><path d="M0 0 C52.29 -0.48, 108.31 -2.41, 215.22 0 M0 0 C67.54 -0.54, 134.87 -1.2, 215.22 0 M215.22 0 C214.5 59.26, 215.83 119.01, 215.22 195.67 M215.22 0 C216.86 63.78, 217.05 129.04, 215.22 195.67 M215.22 195.67 C161.64 196.81, 106.84 196.63, 0 195.67 M215.22 195.67 C168.66 193.62, 121.75 193.93, 0 195.67 M0 195.67 C1.41 135.32, 0.21 77.85, 0 0 M0 195.67 C-0.6 143.62, -1.74 89.6, 0 0" stroke="#1e1e1e" stroke-width="2" fill="none"></path></g><g stroke-linecap="round" transform="translate(402.0217803030298 134.97777777777787) rotate(0 98.33333333333337 43.333333333333485)"><path d="M0 0 C67.2 -2.2, 132.59 -0.8, 196.67 0 M0 0 C68.44 -1.12, 136.09 -0.44, 196.67 0 M196.67 0 C196.13 24.36, 196.69 49.82, 196.67 86.67 M196.67 0 C197.9 29.84, 196.7 60, 196.67 86.67 M196.67 86.67 C136.26 88.45, 71.4 86.56, 0 86.67 M196.67 86.67 C154.85 85.68, 113.26 85.34, 0 86.67 M0 86.67 C-0.89 63.37, -0.81 38.12, 0 0 M0 86.67 C-1.04 59.42, -1.6 31.31, 0 0" stroke="#343a40" stroke-width="2" fill="none"></path></g><g transform="translate(448.8551136363633 159.1111111111111) rotate(0 51.5 19.200000000000045)"><text x="51.5" y="15.45" font-family="Cascadia, Segoe UI Emoji" font-size="16px" fill="#343a40" text-anchor="middle" style="white-space: pre;" direction="ltr" dominant-baseline="alphabetic">window 2</text><text x="51.5" y="34.65" font-family="Cascadia, Segoe UI Emoji" font-size="16px" fill="#343a40" text-anchor="middle" style="white-space: pre;" direction="ltr" dominant-baseline="alphabetic">rectangle 4</text></g><g stroke-linecap="round" transform="translate(401.6884469696963 229.2000000000005) rotate(0 98.33333333333337 43.333333333333485)"><path d="M0 0 C40.52 1.21, 79.96 1.38, 196.67 0 M0 0 C51.24 -1.23, 102.73 -0.56, 196.67 0 M196.67 0 C197.77 27.14, 195.61 53.53, 196.67 86.67 M196.67 0 C196.42 28.22, 196.77 55.75, 196.67 86.67 M196.67 86.67 C128.08 85.91, 62.11 85.42, 0 86.67 M196.67 86.67 C139.45 86.06, 82.16 85.46, 0 86.67 M0 86.67 C0.54 54.93, 2.22 19.44, 0 0 M0 86.67 C-0.16 60.74, 0.51 35.23, 0 0" stroke="#1e1e1e" stroke-width="2" fill="none"></path></g><g transform="translate(448.5217803030298 253.3333333333337) rotate(0 51.5 19.200000000000045)"><text x="51.5" y="15.45" font-family="Cascadia, Segoe UI Emoji" font-size="16px" fill="#1e1e1e" text-anchor="middle" style="white-space: pre;" direction="ltr" dominant-baseline="alphabetic">window 3</text><text x="51.5" y="34.65" font-family="Cascadia, Segoe UI Emoji" font-size="16px" fill="#1e1e1e" text-anchor="middle" style="white-space: pre;" direction="ltr" dominant-baseline="alphabetic">rectangle 5</text></g><g stroke-linecap="round"><g transform="translate(381.0217803030298 83.2000000000005) rotate(0 0 -18.888888888888914)"><path d="M0 0 C0 -12.57, 0 -25.13, 0 -37.78 M0 0 C0 -8.87, 0 -17.75, 0 -37.78" stroke="#a5d8ff" stroke-width="2" fill="none"></path></g><g transform="translate(381.0217803030298 83.2000000000005) rotate(0 0 -18.888888888888914)"><path d="M6.46 -20.03 C4.31 -25.93, 2.16 -31.84, 0 -37.78 M6.46 -20.03 C4.94 -24.2, 3.43 -28.37, 0 -37.78" stroke="#a5d8ff" stroke-width="2" fill="none"></path></g><g transform="translate(381.0217803030298 83.2000000000005) rotate(0 0 -18.888888888888914)"><path d="M-6.46 -20.03 C-4.31 -25.93, -2.16 -31.84, 0 -37.78 M-6.46 -20.03 C-4.94 -24.2, -3.43 -28.37, 0 -37.78" stroke="#a5d8ff" stroke-width="2" fill="none"></path></g></g><mask></mask><g stroke-linecap="round"><g transform="translate(313.6795468333137 118.86666666666656) rotate(0 -21.88026639656141 -23.754003104677167)"><path d="M0 0 C-14.93 -16.21, -29.86 -32.42, -43.76 -47.51 M0 0 C-13.19 -14.32, -26.38 -28.64, -43.76 -47.51" stroke="#b2f2bb" stroke-width="1" fill="none"></path></g><g transform="translate(313.6795468333137 118.86666666666656) rotate(0 -21.88026639656141 -23.754003104677167)"><path d="M-21.56 -36.02 C-29.13 -39.94, -36.71 -43.86, -43.76 -47.51 M-21.56 -36.02 C-28.25 -39.48, -34.94 -42.95, -43.76 -47.51" stroke="#b2f2bb" stroke-width="1" fill="none"></path></g><g transform="translate(313.6795468333137 118.86666666666656) rotate(0 -21.88026639656141 -23.754003104677167)"><path d="M-34.13 -24.44 C-37.42 -32.31, -40.7 -40.18, -43.76 -47.51 M-34.13 -24.44 C-37.04 -31.39, -39.94 -38.34, -43.76 -47.51" stroke="#b2f2bb" stroke-width="1" fill="none"></path></g></g><mask></mask><g transform="translate(557.2995580808076 30.26666666666688) rotate(0 51.5 9.600000000000023)"><text x="0" y="15.45" font-family="Cascadia, Segoe UI Emoji" font-size="16px" fill="#ffec99" text-anchor="start" style="white-space: pre;" direction="ltr" dominant-baseline="alphabetic">rectangle 3</text></g><g stroke-linecap="round"><g transform="translate(527.2567699391607 126.53333333333353) rotate(0 23.15715320370191 -31.881751856221854)"><path d="M0 0 C13.02 -17.92, 26.03 -35.84, 46.31 -63.76 M0 0 C15.85 -21.82, 31.7 -43.65, 46.31 -63.76" stroke="#ffec99" stroke-width="1" fill="none"></path></g><g transform="translate(527.2567699391607 126.53333333333353) rotate(0 23.15715320370191 -31.881751856221854)"><path d="M39.43 -39.73 C41.36 -46.49, 43.3 -53.24, 46.31 -63.76 M39.43 -39.73 C41.78 -47.96, 44.14 -56.18, 46.31 -63.76" stroke="#ffec99" stroke-width="1" fill="none"></path></g><g transform="translate(527.2567699391607 126.53333333333353) rotate(0 23.15715320370191 -31.881751856221854)"><path d="M25.59 -49.78 C31.42 -53.71, 37.24 -57.64, 46.31 -63.76 M25.59 -49.78 C32.68 -54.57, 39.78 -59.35, 46.31 -63.76" stroke="#ffec99" stroke-width="1" fill="none"></path></g></g><mask></mask><g stroke-linecap="round" transform="translate(1121.855113636363 401.4222222222222) rotate(0 75.72222222222229 34)"><path d="M17 0 C52 2.2, 86.35 2.24, 134.44 0 M17 0 C43.64 0.93, 72.38 0.98, 134.44 0 M134.44 0 C147.78 2.79, 153.04 2.35, 151.44 17 M134.44 0 C143.26 -4.04, 152.17 3.6, 151.44 17 M151.44 17 C149.6 26.43, 152.45 35.59, 151.44 51 M151.44 17 C153.38 26.36, 153.48 37.12, 151.44 51 M151.44 51 C149.84 62.29, 141.94 64.47, 134.44 68 M151.44 51 C146.89 62.3, 144.3 69.81, 134.44 68 M134.44 68 C91.23 66.17, 54.73 68.62, 17 68 M134.44 68 C99.19 68.48, 67.87 70.49, 17 68 M17 68 C2.49 64.11, 0.87 59.4, 0 51 M17 68 C3.27 71.04, -1.75 59.93, 0 51 M0 51 C3.17 39.97, -2.05 35.3, 0 17 M0 51 C0.94 42.57, 0.15 31.83, 0 17 M0 17 C-0.8 8.91, 6.59 2.49, 17 0 M0 17 C2.67 5.84, 4.35 2.44, 17 0" stroke="#a5d8ff" stroke-width="2" fill="none"></path></g><g transform="translate(1132.0318799259683 406.62222222222204) rotate(0 65.54545593261719 28.799999999999955)"><text x="65.54545593261719" y="15.45" font-family="Cascadia, Segoe UI Emoji" font-size="16px" fill="#a5d8ff" text-anchor="middle" style="white-space: pre;" direction="ltr" dominant-baseline="alphabetic">EXTERNAL_NODE </text><text x="65.54545593261719" y="34.65" font-family="Cascadia, Segoe UI Emoji" font-size="16px" fill="#a5d8ff" text-anchor="middle" style="white-space: pre;" direction="ltr" dominant-baseline="alphabetic">(window 2 &amp; </text><text x="65.54545593261719" y="53.849999999999994" font-family="Cascadia, Segoe UI Emoji" font-size="16px" fill="#a5d8ff" text-anchor="middle" style="white-space: pre;" direction="ltr" dominant-baseline="alphabetic">rectangle 4)</text></g><g stroke-linecap="round" transform="translate(1294.1884469696968 400.53333333333353) rotate(0 75.72222222222229 34)"><path d="M17 0 C56.1 1.67, 101.14 -3.13, 134.44 0 M17 0 C61.11 -0.24, 104.02 -3.3, 134.44 0 M134.44 0 C143.59 -3.51, 152.08 3.87, 151.44 17 M134.44 0 C145.38 -0.44, 151.69 3.62, 151.44 17 M151.44 17 C150.3 30.12, 150.47 39.32, 151.44 51 M151.44 17 C151.14 27.67, 150.02 36.6, 151.44 51 M151.44 51 C147.48 62.31, 144.49 69.57, 134.44 68 M151.44 51 C153.58 60.95, 146.1 65.1, 134.44 68 M134.44 68 C104.53 70.83, 76.6 65.09, 17 68 M134.44 68 C97.99 68.35, 65.14 68.83, 17 68 M17 68 C3.58 70.65, -1.53 60.25, 0 51 M17 68 C5.02 66.86, -4.4 65.78, 0 51 M0 51 C0.32 44.83, 1.01 35.68, 0 17 M0 51 C-0.62 39.49, 0.24 25.99, 0 17 M0 17 C2.32 5.81, 4.52 2.12, 17 0 M0 17 C-2.6 8.01, 8.05 -1.06, 17 0" stroke="#a5d8ff" stroke-width="2" fill="none"></path></g><g transform="translate(1304.365213259302 405.73333333333335) rotate(0 65.54545593261719 28.799999999999955)"><text x="65.54545593261719" y="15.45" font-family="Cascadia, Segoe UI Emoji" font-size="16px" fill="#a5d8ff" text-anchor="middle" style="white-space: pre;" direction="ltr" dominant-baseline="alphabetic">EXTERNAL_NODE </text><text x="65.54545593261719" y="34.65" font-family="Cascadia, Segoe UI Emoji" font-size="16px" fill="#a5d8ff" text-anchor="middle" style="white-space: pre;" direction="ltr" dominant-baseline="alphabetic">(window 3 &amp; </text><text x="65.54545593261719" y="53.849999999999994" font-family="Cascadia, Segoe UI Emoji" font-size="16px" fill="#a5d8ff" text-anchor="middle" style="white-space: pre;" direction="ltr" dominant-baseline="alphabetic">rectangle 5)</text></g><g stroke-linecap="round"><g transform="translate(1193.4352177479363 341.22351769467446) rotate(0 -10.538196604362724 24.46248100562707)"><path d="M1.34 0.29 C-6.42 19.24, -14.31 37.37, -22.74 47.83 M-0.09 -0.1 C-4.34 9.84, -8.99 20.94, -21.38 48.59" stroke="#a5d8ff" stroke-width="1" fill="none"></path></g><g transform="translate(1193.4352177479363 341.22351769467446) rotate(0 -10.538196604362724 24.46248100562707)"><path d="M-18.31 23.94 C-18.86 33.99, -19.51 43.13, -23.04 47.5 M-19.74 23.56 C-19.93 28.49, -20.47 34.5, -21.69 48.26" stroke="#a5d8ff" stroke-width="1" fill="none"></path></g><g transform="translate(1193.4352177479363 341.22351769467446) rotate(0 -10.538196604362724 24.46248100562707)"><path d="M-2.68 30.89 C-9.11 38.27, -15.61 44.8, -23.04 47.5 M-4.11 30.5 C-7.63 33.89, -11.48 38.43, -21.69 48.26" stroke="#a5d8ff" stroke-width="1" fill="none"></path></g></g><mask></mask><g stroke-linecap="round"><g transform="translate(1318.7415187550348 341.706065748617) rotate(0 8.40544073079866 22.807065564514232)"><path d="M1.39 1 C5.98 12.39, 7.21 22.11, 15.05 45.93 M0.05 -0.45 C4.13 11.92, 8.23 22.95, 17.64 45.32" stroke="#a5d8ff" stroke-width="1" fill="none"></path></g><g transform="translate(1318.7415187550348 341.706065748617) rotate(0 8.40544073079866 22.807065564514232)"><path d="M2.64 28.38 C6.94 32.72, 8.06 35.4, 15.89 45.64 M1.3 26.93 C5.3 32.24, 9.29 36.21, 18.47 45.03" stroke="#a5d8ff" stroke-width="1" fill="none"></path></g><g transform="translate(1318.7415187550348 341.706065748617) rotate(0 8.40544073079866 22.807065564514232)"><path d="M18.02 22.04 C18.44 28.02, 15.64 32.31, 15.89 45.64 M16.68 20.59 C16.74 27.5, 16.82 33.09, 18.47 45.03" stroke="#a5d8ff" stroke-width="1" fill="none"></path></g></g><mask></mask><g stroke-linecap="round" transform="translate(176.80303030303014 136.84141414141345) rotate(0 98.33333333333337 43.33333333333326)"><path d="M0 0 C45.64 -0.66, 90.63 -1.87, 196.67 0 M0 0 C50.11 -2.43, 99.7 -1.91, 196.67 0 M196.67 0 C197.65 29.23, 197.35 62.18, 196.67 86.67 M196.67 0 C196.74 26.96, 196.74 56.08, 196.67 86.67 M196.67 86.67 C139.09 85.09, 84.44 86.64, 0 86.67 M196.67 86.67 C133.68 85.98, 69.96 84.65, 0 86.67 M0 86.67 C1.41 66.51, 0.28 44.76, 0 0 M0 86.67 C-0.51 61.86, 0.09 36.6, 0 0" stroke="#343a40" stroke-width="2" fill="none"></path></g><g transform="translate(223.6363636363635 160.97474747474666) rotate(0 51.5 19.200000000000045)"><text x="51.5" y="15.45" font-family="Cascadia, Segoe UI Emoji" font-size="16px" fill="#343a40" text-anchor="middle" style="white-space: pre;" direction="ltr" dominant-baseline="alphabetic">window 1</text><text x="51.5" y="34.65" font-family="Cascadia, Segoe UI Emoji" font-size="16px" fill="#343a40" text-anchor="middle" style="white-space: pre;" direction="ltr" dominant-baseline="alphabetic">rectangle 6</text></g><g stroke-linecap="round" transform="translate(177.621212121212 231.3868686868684) rotate(0 98.33333333333337 43.33333333333326)"><path d="M0 0 C44.99 -1.05, 86.78 0.66, 196.67 0 M0 0 C76.68 -0.9, 154.08 -2.09, 196.67 0 M196.67 0 C197.78 19.44, 197.3 34.48, 196.67 86.67 M196.67 0 C195.66 34.97, 197.34 69.13, 196.67 86.67 M196.67 86.67 C148.8 84.54, 101.22 84.92, 0 86.67 M196.67 86.67 C132.42 88.64, 67.33 88.09, 0 86.67 M0 86.67 C2.16 59.42, -0.12 28.69, 0 0 M0 86.67 C-0.56 56.6, -0.6 23.97, 0 0" stroke="#1e1e1e" stroke-width="2" fill="none"></path></g><g transform="translate(224.45454545454538 255.52020202020162) rotate(0 51.5 19.200000000000045)"><text x="51.5" y="15.45" font-family="Cascadia, Segoe UI Emoji" font-size="16px" fill="#1e1e1e" text-anchor="middle" style="white-space: pre;" direction="ltr" dominant-baseline="alphabetic">window 4</text><text x="51.5" y="34.65" font-family="Cascadia, Segoe UI Emoji" font-size="16px" fill="#1e1e1e" text-anchor="middle" style="white-space: pre;" direction="ltr" dominant-baseline="alphabetic">rectangle 7</text></g><g transform="translate(10 304.30202020202046) rotate(0 51.5 9.599999999999909)"><text x="0" y="15.45" font-family="Cascadia, Segoe UI Emoji" font-size="16px" fill="#ffc9c9" text-anchor="start" style="white-space: pre;" direction="ltr" dominant-baseline="alphabetic">rectangle 2</text></g><g stroke-linecap="round"><g transform="translate(169.68181818181813 273.9020202020199) rotate(0 -32.72727272727272 12.272727272727252)"><path d="M-1.27 -0.35 C-13.17 6.68, -33.49 13.16, -69.44 22.6 M1.69 -0.97 C-21.97 8.83, -43.09 16.9, -65.63 25.44" stroke="#ffc9c9" stroke-width="2" fill="none"></path></g><g transform="translate(169.68181818181813 273.9020202020199) rotate(0 -32.72727272727272 12.272727272727252)"><path d="M-47.35 8.91 C-49.98 13.84, -56.89 18.04, -67.62 24.47 M-45.87 8.6 C-52.97 14.72, -58.77 20.16, -65.72 25.88" stroke="#ffc9c9" stroke-width="2" fill="none"></path></g><g transform="translate(169.68181818181813 273.9020202020199) rotate(0 -32.72727272727272 12.272727272727252)"><path d="M-41.27 24.89 C-45.18 26, -53.52 26.44, -67.62 24.47 M-39.79 24.58 C-49.03 25.23, -56.93 25.16, -65.72 25.88" stroke="#ffc9c9" stroke-width="2" fill="none"></path></g></g><mask></mask><g stroke-linecap="round" transform="translate(757.792929292929 405.50424866646495) rotate(0 75.72222222222229 34)"><path d="M17 0 C45.9 -1.4, 66.91 2.55, 134.44 0 M17 0 C60.9 3.08, 104.37 2.58, 134.44 0 M134.44 0 C145.94 1.77, 155.41 6.27, 151.44 17 M134.44 0 C143.81 0.72, 151.15 1.98, 151.44 17 M151.44 17 C152.44 29.64, 148.97 31.31, 151.44 51 M151.44 17 C152.07 25.48, 152.68 31.82, 151.44 51 M151.44 51 C150.22 60.32, 144.01 68.5, 134.44 68 M151.44 51 C147.03 61.79, 146.12 70.42, 134.44 68 M134.44 68 C108.54 70.92, 86.15 69.92, 17 68 M134.44 68 C104.1 66.38, 72.65 69.78, 17 68 M17 68 C3.55 68.52, 2.45 64.94, 0 51 M17 68 C3.35 64.6, -2.07 64.74, 0 51 M0 51 C1.89 38.56, 1.89 26.38, 0 17 M0 51 C0.13 37.74, -0.8 24.55, 0 17 M0 17 C1.36 6.36, 6.17 -0.09, 17 0 M0 17 C-0.83 3.63, 1.33 -4.34, 17 0" stroke="#a5d8ff" stroke-width="2" fill="none"></path></g><g transform="translate(767.9696955825341 410.70424866646476) rotate(0 65.54545593261719 28.799999999999955)"><text x="65.54545593261719" y="15.45" font-family="Cascadia, Segoe UI Emoji" font-size="16px" fill="#a5d8ff" text-anchor="middle" style="white-space: pre;" direction="ltr" dominant-baseline="alphabetic">EXTERNAL_NODE </text><text x="65.54545593261719" y="34.65" font-family="Cascadia, Segoe UI Emoji" font-size="16px" fill="#a5d8ff" text-anchor="middle" style="white-space: pre;" direction="ltr" dominant-baseline="alphabetic">(window 1 &amp; </text><text x="65.54545593261719" y="53.849999999999994" font-family="Cascadia, Segoe UI Emoji" font-size="16px" fill="#a5d8ff" text-anchor="middle" style="white-space: pre;" direction="ltr" dominant-baseline="alphabetic">rectangle 6)</text></g><g stroke-linecap="round" transform="translate(930.1262626262625 404.61535977757626) rotate(0 75.72222222222234 34)"><path d="M17 0 C45.62 1.34, 64.45 -0.84, 134.44 0 M17 0 C57.5 0.43, 99.81 -0.15, 134.44 0 M134.44 0 C144.06 0.62, 151.19 2.46, 151.44 17 M134.44 0 C144.35 4.42, 148.51 6.06, 151.44 17 M151.44 17 C147.07 29.62, 148.04 44.78, 151.44 51 M151.44 17 C151.29 28.83, 151.01 42.93, 151.44 51 M151.44 51 C147.61 61.86, 146.07 70.11, 134.44 68 M151.44 51 C147.74 62.81, 145.87 67.84, 134.44 68 M134.44 68 C89.64 72.85, 47.71 72.1, 17 68 M134.44 68 C109.66 69.95, 88.22 71, 17 68 M17 68 C3.65 65.04, -1.8 64.42, 0 51 M17 68 C10.08 66.27, 0.7 64.21, 0 51 M0 51 C3.2 36.14, -1.11 27.83, 0 17 M0 51 C1.17 41.32, 0.74 30.9, 0 17 M0 17 C-0.72 3.89, 1.9 -3.77, 17 0 M0 17 C-2.76 8.39, 9.35 -3.31, 17 0" stroke="#a5d8ff" stroke-width="2" fill="none"></path></g><g transform="translate(940.3030289158676 409.8153597775761) rotate(0 65.54545593261719 28.799999999999955)"><text x="65.54545593261719" y="15.45" font-family="Cascadia, Segoe UI Emoji" font-size="16px" fill="#a5d8ff" text-anchor="middle" style="white-space: pre;" direction="ltr" dominant-baseline="alphabetic">EXTERNAL_NODE </text><text x="65.54545593261719" y="34.65" font-family="Cascadia, Segoe UI Emoji" font-size="16px" fill="#a5d8ff" text-anchor="middle" style="white-space: pre;" direction="ltr" dominant-baseline="alphabetic">(window 4 &amp; </text><text x="65.54545593261719" y="53.849999999999994" font-family="Cascadia, Segoe UI Emoji" font-size="16px" fill="#a5d8ff" text-anchor="middle" style="white-space: pre;" direction="ltr" dominant-baseline="alphabetic">rectangle 7)</text></g><g stroke-linecap="round"><g transform="translate(829.3730334045023 345.30554413891673) rotate(0 -10.538196604362724 24.46248100562707)"><path d="M0.88 -0.89 C-7.3 16.85, -14.04 35.54, -20.77 48.07 M-0.31 0.96 C-7.32 15.36, -12.46 29.93, -22.07 47.96" stroke="#a5d8ff" stroke-width="1" fill="none"></path></g><g transform="translate(829.3730334045023 345.30554413891673) rotate(0 -10.538196604362724 24.46248100562707)"><path d="M-18.43 22.23 C-20.11 31.72, -20.55 42.15, -21.77 47.11 M-19.62 24.08 C-20.84 31.02, -20.2 38, -23.07 47" stroke="#a5d8ff" stroke-width="1" fill="none"></path></g><g transform="translate(829.3730334045023 345.30554413891673) rotate(0 -10.538196604362724 24.46248100562707)"><path d="M-3.11 29.82 C-9.97 36.69, -15.68 44.51, -21.77 47.11 M-4.3 31.66 C-10.34 36.09, -14.54 40.67, -23.07 47" stroke="#a5d8ff" stroke-width="1" fill="none"></path></g></g><mask></mask><g stroke-linecap="round"><g transform="translate(954.6793344116005 345.7880921928597) rotate(0 8.405440730798716 22.807065564514232)"><path d="M0.39 0.08 C5.94 15.23, 10.21 25.56, 17.12 45.49 M-0.64 0.09 C4.43 9.09, 6.26 18.94, 16.67 44.9" stroke="#a5d8ff" stroke-width="1" fill="none"></path></g><g transform="translate(954.6793344116005 345.7880921928597) rotate(0 8.405440730798716 22.807065564514232)"><path d="M1.18 26.58 C6.35 33.86, 10.35 36.33, 16.99 44.77 M0.16 26.58 C5.1 29.61, 6.73 33.47, 16.54 44.18" stroke="#a5d8ff" stroke-width="1" fill="none"></path></g><g transform="translate(954.6793344116005 345.7880921928597) rotate(0 8.405440730798716 22.807065564514232)"><path d="M16.72 20.67 C17.43 29.59, 16.94 33.77, 16.99 44.77 M15.7 20.68 C17.21 25.15, 15.41 30.32, 16.54 44.18" stroke="#a5d8ff" stroke-width="1" fill="none"></path></g></g><mask></mask></svg>