<svg version="1.1" xmlns="http://www.w3.org/2000/svg" viewBox="0 0 1187.5090111626523 601.0111111111091" width="1187.5090111626523" height="601.0111111111091">
  <!-- svg-source:excalidraw -->
  
  <defs>
    <style class="style-fonts">
      @font-face {
        font-family: "Virgil";
        src: url("https://excalidraw.com/Virgil.woff2");
      }
      @font-face {
        font-family: "Cascadia";
        src: url("https://excalidraw.com/Cascadia.woff2");
      }
      @font-face {
        font-family: "Assistant";
        src: url("https://excalidraw.com/Assistant-Regular.woff2");
      }
    </style>
    
  </defs>
  <rect x="0" y="0" width="1187.5090111626523" height="601.0111111111091" fill="#2a2631"></rect><g transform="translate(204.5 14.733333333331757) rotate(0 35.01818084716797 12)"><text x="0" y="19.3125" font-family="Cascadia, Segoe UI Emoji" font-size="20px" fill="#a5d8ff" text-anchor="start" style="white-space: pre;" direction="ltr" dominant-baseline="alphabetic">Screen</text></g><g transform="translate(713.5 10.955555555554383) rotate(0 46.69091033935547 12)"><text x="0" y="19.3125" font-family="Cascadia, Segoe UI Emoji" font-size="20px" fill="#a5d8ff" text-anchor="start" style="white-space: pre;" direction="ltr" dominant-baseline="alphabetic">BSP-tree</text></g><g stroke-linecap="round" transform="translate(698.5 111.95555555555438) rotate(0 66 34)"><path d="M17 0 C42.44 -1.55, 67.84 2.04, 115 0 M17 0 C36.11 0.53, 57.95 -1.81, 115 0 M115 0 C128.21 -3.74, 134.38 5.44, 132 17 M115 0 C127.16 2.63, 130.81 2.63, 132 17 M132 17 C136.5 27.02, 135.95 32.08, 132 51 M132 17 C131.75 27.04, 130.85 38.67, 132 51 M132 51 C133.8 60.79, 126.02 65.71, 115 68 M132 51 C131.64 59.64, 127.04 68.34, 115 68 M115 68 C85.24 71.49, 56.3 66.67, 17 68 M115 68 C75.78 66.62, 38.48 67.82, 17 68 M17 68 C8.89 67.48, 0.9 63.31, 0 51 M17 68 C4.95 69.73, -3.36 60.77, 0 51 M0 51 C-0.21 39.94, 1.2 38.53, 0 17 M0 51 C0.98 41.87, -1.4 33.85, 0 17 M0 17 C-0.49 8.02, 1.67 -0.34, 17 0 M0 17 C-2.26 2.62, 8.53 4.28, 17 0" stroke="#b2f2bb" stroke-width="2" fill="none"></path></g><g transform="translate(717.6818199157715 126.75555555555457) rotate(0 46.818180084228516 19.199999999999818)"><text x="46.818180084228516" y="15.45" font-family="Cascadia, Segoe UI Emoji" font-size="16px" fill="#b2f2bb" text-anchor="middle" style="white-space: pre;" direction="ltr" dominant-baseline="alphabetic">ROOT_NODE </text><text x="46.818180084228516" y="34.65" font-family="Cascadia, Segoe UI Emoji" font-size="16px" fill="#b2f2bb" text-anchor="middle" style="white-space: pre;" direction="ltr" dominant-baseline="alphabetic">Node A </text></g><g stroke-linecap="round"><g transform="translate(756.1728616900002 99.95555555555438) rotate(0 -0.940893774012352 -26.5)"><path d="M1.25 -2.4 C1.56 -11.22, 1.57 -43.17, 0.61 -51.18 M-1.52 2.46 C-1.24 -7.3, -0.68 -45.68, -0.28 -55.2" stroke="#a5d8ff" stroke-width="2" fill="none"></path></g><g transform="translate(756.1728616900002 99.95555555555438) rotate(0 -0.940893774012352 -26.5)"><path d="M5.93 -29.71 C6.78 -39.37, 5.27 -44.56, -0.81 -54.26 M7.82 -30.92 C5.61 -37.05, 3.7 -40.43, -0.57 -54.22" stroke="#a5d8ff" stroke-width="2" fill="none"></path></g><g transform="translate(756.1728616900002 99.95555555555438) rotate(0 -0.940893774012352 -26.5)"><path d="M-11.17 -30.16 C-5.95 -39.78, -3.11 -44.86, -0.81 -54.26 M-9.27 -31.37 C-7.95 -37.4, -6.33 -40.69, -0.57 -54.22" stroke="#a5d8ff" stroke-width="2" fill="none"></path></g></g><mask></mask><g stroke-linecap="round" transform="translate(580 238.45555555555438) rotate(0 75.72222222222229 34)"><path d="M17 0 C58.77 -2.92, 99.75 -2.07, 134.44 0 M17 0 C49.72 1.04, 81.43 1.67, 134.44 0 M134.44 0 C145.26 -1.32, 150.39 7.38, 151.44 17 M134.44 0 C145.12 2.25, 152.37 7.6, 151.44 17 M151.44 17 C151.26 24.95, 151.62 32.76, 151.44 51 M151.44 17 C151.52 30.02, 151.52 43.6, 151.44 51 M151.44 51 C151.75 62.48, 146.08 68.95, 134.44 68 M151.44 51 C153.14 62.96, 146.95 69.74, 134.44 68 M134.44 68 C107.74 67.32, 78.5 67.78, 17 68 M134.44 68 C102.71 68.09, 70.36 68.22, 17 68 M17 68 C4.21 67.32, -1.82 61.14, 0 51 M17 68 C4.17 67.65, -2.27 62.79, 0 51 M0 51 C-0.9 40.87, 0.06 26.79, 0 17 M0 51 C-0.96 39.02, -0.45 26.55, 0 17 M0 17 C1.25 7.53, 7.09 -1.96, 17 0 M0 17 C1.72 6.15, 7.48 0.96, 17 0" stroke="#a4d6fd" stroke-width="2" fill="none"></path></g><g transform="translate(590.1767662896051 243.6555555555542) rotate(0 65.54545593261719 28.800000000000182)"><text x="65.54545593261719" y="15.45" font-family="Cascadia, Segoe UI Emoji" font-size="16px" fill="#a4d6fd" text-anchor="middle" style="white-space: pre;" direction="ltr" dominant-baseline="alphabetic">EXTERNAL_NODE </text><text x="65.54545593261719" y="34.65" font-family="Cascadia, Segoe UI Emoji" font-size="16px" fill="#a4d6fd" text-anchor="middle" style="white-space: pre;" direction="ltr" dominant-baseline="alphabetic">Node C</text><text x="65.54545593261719" y="53.849999999999994" font-family="Cascadia, Segoe UI Emoji" font-size="16px" fill="#a4d6fd" text-anchor="middle" style="white-space: pre;" direction="ltr" dominant-baseline="alphabetic">window 1</text></g><g stroke-linecap="round"><g transform="translate(689.6449619800511 180.8007812953856) rotate(0 -11.359632656007193 21.577387130084844)"><path d="M-0.53 0.94 C-6.17 9.98, -9.1 18.05, -21.58 42.64 M-0.29 0.98 C-5.14 11.14, -11.3 20.29, -21.95 43.08" stroke="#a5d8ff" stroke-width="1" fill="none"></path></g><g transform="translate(689.6449619800511 180.8007812953856) rotate(0 -11.359632656007193 21.577387130084844)"><path d="M-19.86 19.77 C-21.52 25.02, -20.31 29.19, -20.8 42.56 M-19.62 19.81 C-19.67 25.37, -21.12 30.1, -21.18 43.01" stroke="#a5d8ff" stroke-width="1" fill="none"></path></g><g transform="translate(689.6449619800511 180.8007812953856) rotate(0 -11.359632656007193 21.577387130084844)"><path d="M-4.89 27.13 C-9.71 30.77, -11.58 33.43, -20.8 42.56 M-4.65 27.17 C-8.17 31.13, -13.12 34.14, -21.18 43.01" stroke="#a5d8ff" stroke-width="1" fill="none"></path></g></g><mask></mask><g stroke-linecap="round"><g transform="translate(840.1796775389039 185.1808634644567) rotate(0 10.866245430672734 20.88734604554884)"><path d="M-1.87 1.19 C5.18 10.64, 11.84 20.15, 20.41 40.72 M0.4 0.84 C7.83 15.79, 17.42 31.94, 21.35 41.88" stroke="#a5d8ff" stroke-width="1" fill="none"></path></g><g transform="translate(840.1796775389039 185.1808634644567) rotate(0 10.866245430672734 20.88734604554884)"><path d="M2.84 26.41 C8.68 29.64, 14.08 32.91, 20.03 40.83 M5.11 26.06 C10.64 31.38, 18.27 37.83, 20.96 41.98" stroke="#a5d8ff" stroke-width="1" fill="none"></path></g><g transform="translate(840.1796775389039 185.1808634644567) rotate(0 10.866245430672734 20.88734604554884)"><path d="M17.44 19.61 C19.64 24.6, 21.4 29.56, 20.03 40.83 M19.71 19.26 C19.59 27.34, 21.58 36.42, 20.96 41.98" stroke="#a5d8ff" stroke-width="1" fill="none"></path></g></g><mask></mask><g stroke-linecap="round" transform="translate(10 91.45555555555438) rotate(0 233.88888888888883 114)"><path d="M0 0 C162.24 -1.1, 325.1 -1.5, 467.78 0 M0 0 C109.35 -1.38, 219.14 -1.44, 467.78 0 M467.78 0 C467.44 57.8, 467.75 115.48, 467.78 228 M467.78 0 C468.59 90.66, 468.59 181.79, 467.78 228 M467.78 228 C320.65 228.98, 172.91 228.78, 0 228 M467.78 228 C292.46 229.9, 116.21 229.41, 0 228 M0 228 C0.32 171.32, 0.96 113.6, 0 0 M0 228 C0.64 150.51, 0.86 73.92, 0 0" stroke="#a5d8ff" stroke-width="1" fill="none"></path></g><g stroke-linecap="round" transform="translate(15.5 98.45555555555438) rotate(0 228.44444444444437 107)"><path d="M0 0 L456.89 0 L456.89 214 L0 214" stroke="none" stroke-width="0" fill="#b2f2bb"></path><path d="M0 0 C164.27 0, 328.54 0, 456.89 0 M0 0 C176.24 0, 352.47 0, 456.89 0 M456.89 0 C456.89 80.72, 456.89 161.44, 456.89 214 M456.89 0 C456.89 55.95, 456.89 111.89, 456.89 214 M456.89 214 C313.02 214, 169.14 214, 0 214 M456.89 214 C280.84 214, 104.79 214, 0 214 M0 214 C0 132.53, 0 51.06, 0 0 M0 214 C0 157.06, 0 100.11, 0 0" stroke="#1e1e1e" stroke-width="1" fill="none"></path></g><g stroke-linecap="round" transform="translate(24 106.95555555555438) rotate(0 107.61111111111109 97.83333333333348)"><path d="M0 0 C67.28 -0.43, 138.36 -0.02, 215.22 0 M0 0 C85.25 -1.68, 171.93 -1.65, 215.22 0 M215.22 0 C217.42 52.05, 214.65 102.15, 215.22 195.67 M215.22 0 C215.23 47.59, 215.22 95.51, 215.22 195.67 M215.22 195.67 C136.14 195.42, 55.91 197.78, 0 195.67 M215.22 195.67 C146.03 193.77, 78.41 193.9, 0 195.67 M0 195.67 C0.27 131.1, -1.16 67.63, 0 0 M0 195.67 C0.29 148.82, 1.71 101.25, 0 0" stroke="#1e1e1e" stroke-width="2" fill="none"></path></g><g transform="translate(94.15656704372827 185.5888888888876) rotate(0 37.45454406738281 19.199999999999818)"><text x="37.45454406738281" y="15.45" font-family="Cascadia, Segoe UI Emoji" font-size="16px" fill="#1e1e1e" text-anchor="middle" style="white-space: pre;" direction="ltr" dominant-baseline="alphabetic">window 1</text><text x="37.45454406738281" y="34.65" font-family="Cascadia, Segoe UI Emoji" font-size="16px" fill="#1e1e1e" text-anchor="middle" style="white-space: pre;" direction="ltr" dominant-baseline="alphabetic">Node C</text></g><g transform="translate(14.428571428571331 25.098412698411266) rotate(0 28.090909957885742 9.599999999999909)"><text x="0" y="15.45" font-family="Cascadia, Segoe UI Emoji" font-size="16px" fill="#b2f2bb" text-anchor="start" style="white-space: pre;" direction="ltr" dominant-baseline="alphabetic">Node A</text></g><g stroke-linecap="round" transform="translate(813.5416666666665 239.65925699869695) rotate(0 75.72222222222229 34)"><path d="M17 0 C52.23 -2.69, 80.3 2.15, 134.44 0 M17 0 C49.69 1.75, 86.62 -1.01, 134.44 0 M134.44 0 C145.47 -2.29, 151.14 3.32, 151.44 17 M134.44 0 C146.49 0.34, 152.13 7.85, 151.44 17 M151.44 17 C154.65 26.93, 155.04 45.04, 151.44 51 M151.44 17 C149.96 27.3, 152.56 38.46, 151.44 51 M151.44 51 C152.35 63.31, 145.16 69.5, 134.44 68 M151.44 51 C148.09 60.77, 141.6 65.26, 134.44 68 M134.44 68 C107.65 67.43, 77.94 69.05, 17 68 M134.44 68 C104.34 68.93, 75.66 69.11, 17 68 M17 68 C1.67 67.66, -1.97 59.68, 0 51 M17 68 C8.53 72.28, 3.27 57.82, 0 51 M0 51 C1.53 36.01, 3.48 26.77, 0 17 M0 51 C0.56 42.03, -0.49 34.49, 0 17 M0 17 C1.23 3.82, 1.69 -2.86, 17 0 M0 17 C-3.47 7.28, 9.76 -0.63, 17 0" stroke="#ffec99" stroke-width="2" fill="none"></path></g><g transform="translate(823.7184329562716 254.45925699869713) rotate(0 65.54545593261719 19.199999999999818)"><text x="65.54545593261719" y="15.45" font-family="Cascadia, Segoe UI Emoji" font-size="16px" fill="#ffec99" text-anchor="middle" style="white-space: pre;" direction="ltr" dominant-baseline="alphabetic">INTERNAL_NODE </text><text x="65.54545593261719" y="34.65" font-family="Cascadia, Segoe UI Emoji" font-size="16px" fill="#ffec99" text-anchor="middle" style="white-space: pre;" direction="ltr" dominant-baseline="alphabetic">Node B</text></g><g stroke-linecap="round" transform="translate(248.10416666666674 107.65555555555511) rotate(0 107.61111111111109 97.83333333333348)"><path d="M-0.98 -1.32 L216.47 1.86 L216.64 193.7 L1.5 196.08" stroke="none" stroke-width="0" fill="#ffec99"></path><path d="M0 0 C55.05 -2.13, 110.54 -2.91, 215.22 0 M0 0 C85.97 0.23, 172 0.21, 215.22 0 M215.22 0 C216.32 63.19, 215.91 124.47, 215.22 195.67 M215.22 0 C214.52 73.65, 213.14 146.04, 215.22 195.67 M215.22 195.67 C161.13 197.58, 107.92 196.92, 0 195.67 M215.22 195.67 C141.76 194.51, 69.33 194.89, 0 195.67 M0 195.67 C-1.05 157.98, -1.41 118.48, 0 0 M0 195.67 C0.69 138.12, -0.19 79.31, 0 0" stroke="#1e1e1e" stroke-width="2" fill="none"></path></g><g stroke-linecap="round" transform="translate(257.38194444444457 114.71111111110986) rotate(0 98.33333333333337 43.333333333333485)"><path d="M1.25 1.86 L198.09 -1.96 L198.16 87.08 L1.58 87.5" stroke="none" stroke-width="0" fill="#fa5252"></path><path d="M0 0 C74.39 -0.91, 150.36 1.66, 196.67 0 M0 0 C51.34 0.54, 102.98 1.2, 196.67 0 M196.67 0 C197.63 28.31, 198.59 53.2, 196.67 86.67 M196.67 0 C196.51 32.52, 196.74 66.51, 196.67 86.67 M196.67 86.67 C122.29 86.8, 47.67 85.65, 0 86.67 M196.67 86.67 C143.68 85.34, 91.02 85.69, 0 86.67 M0 86.67 C-0.73 58.43, 0.23 26.25, 0 0 M0 86.67 C-0.89 56.27, -0.38 25.37, 0 0" stroke="#343a40" stroke-width="2" fill="none"></path></g><g transform="translate(318.26073371039513 138.84444444444307) rotate(0 37.45454406738281 19.199999999999818)"><text x="37.45454406738281" y="15.45" font-family="Cascadia, Segoe UI Emoji" font-size="16px" fill="#343a40" text-anchor="middle" style="white-space: pre;" direction="ltr" dominant-baseline="alphabetic">window 2</text><text x="37.45454406738281" y="34.65" font-family="Cascadia, Segoe UI Emoji" font-size="16px" fill="#343a40" text-anchor="middle" style="white-space: pre;" direction="ltr" dominant-baseline="alphabetic">Node K</text></g><g stroke-linecap="round" transform="translate(257.0486111111111 208.93333333333248) rotate(0 98.33333333333337 43.333333333333485)"><path d="M1.5 0.42 L198.25 0.84 L195.54 88.48 L0.63 85.27" stroke="none" stroke-width="0" fill="#d0bfff"></path><path d="M0 0 C41.8 -1.04, 83.99 -1.04, 196.67 0 M0 0 C47.62 0.33, 95.67 0.13, 196.67 0 M196.67 0 C199.03 31.75, 197.71 59.41, 196.67 86.67 M196.67 0 C197.04 18.25, 196.46 37, 196.67 86.67 M196.67 86.67 C140.03 83.41, 83.56 83.93, 0 86.67 M196.67 86.67 C141.11 86.73, 85.52 86.55, 0 86.67 M0 86.67 C1.02 53.68, 1.2 19.19, 0 0 M0 86.67 C1.05 62.32, 1.14 35.14, 0 0" stroke="#1e1e1e" stroke-width="2" fill="none"></path></g><g stroke-linecap="round"><g transform="translate(238.38194444444457 84.93333333333248) rotate(0 0 -18.888888888888687)"><path d="M0 0 C0 -11.04, 0 -22.08, 0 -37.78 M0 0 C0 -13.13, 0 -26.25, 0 -37.78" stroke="#a5d8ff" stroke-width="2" fill="none"></path></g><g transform="translate(238.38194444444457 84.93333333333248) rotate(0 0 -18.888888888888687)"><path d="M6.46 -20.03 C4.57 -25.21, 2.68 -30.4, 0 -37.78 M6.46 -20.03 C4.22 -26.2, 1.97 -32.36, 0 -37.78" stroke="#a5d8ff" stroke-width="2" fill="none"></path></g><g transform="translate(238.38194444444457 84.93333333333248) rotate(0 0 -18.888888888888687)"><path d="M-6.46 -20.03 C-4.57 -25.21, -2.68 -30.4, 0 -37.78 M-6.46 -20.03 C-4.22 -26.2, -1.97 -32.36, 0 -37.78" stroke="#a5d8ff" stroke-width="2" fill="none"></path></g></g><mask></mask><g stroke-linecap="round"><g transform="translate(154.36747832771033 98.59999999999854) rotate(0 -37.953240115166615 -29.506837224503215)"><path d="M0 0 C-22.19 -17.25, -44.37 -34.5, -75.91 -59.01 M0 0 C-24.85 -19.32, -49.7 -38.64, -75.91 -59.01" stroke="#b2f2bb" stroke-width="1" fill="none"></path></g><g transform="translate(154.36747832771033 98.59999999999854) rotate(0 -37.953240115166615 -29.506837224503215)"><path d="M-52.11 -51.34 C-59.07 -53.59, -66.02 -55.83, -75.91 -59.01 M-52.11 -51.34 C-59.9 -53.86, -67.69 -56.37, -75.91 -59.01" stroke="#b2f2bb" stroke-width="1" fill="none"></path></g><g transform="translate(154.36747832771033 98.59999999999854) rotate(0 -37.953240115166615 -29.506837224503215)"><path d="M-62.61 -37.84 C-66.49 -44.03, -70.38 -50.22, -75.91 -59.01 M-62.61 -37.84 C-66.96 -44.77, -71.32 -51.71, -75.91 -59.01" stroke="#b2f2bb" stroke-width="1" fill="none"></path></g></g><mask></mask><g transform="translate(412.6597222222224 10) rotate(0 28.090909957885742 9.599999999999909)"><text x="0" y="15.45" font-family="Cascadia, Segoe UI Emoji" font-size="16px" fill="#ffec99" text-anchor="start" style="white-space: pre;" direction="ltr" dominant-baseline="alphabetic">Node B</text></g><g stroke-linecap="round"><g transform="translate(376.7319678369564 106.26666666666642) rotate(0 19.574996421061428 -31.881751856221854)"><path d="M0 0 C12.33 -20.08, 24.66 -40.16, 39.15 -63.76 M0 0 C15.09 -24.57, 30.17 -49.14, 39.15 -63.76" stroke="#ffec99" stroke-width="1" fill="none"></path></g><g transform="translate(376.7319678369564 106.26666666666642) rotate(0 19.574996421061428 -31.881751856221854)"><path d="M34.14 -39.27 C35.72 -46.98, 37.3 -54.7, 39.15 -63.76 M34.14 -39.27 C36.07 -48.71, 38 -58.15, 39.15 -63.76" stroke="#ffec99" stroke-width="1" fill="none"></path></g><g transform="translate(376.7319678369564 106.26666666666642) rotate(0 19.574996421061428 -31.881751856221854)"><path d="M19.57 -48.22 C25.74 -53.11, 31.9 -58.01, 39.15 -63.76 M19.57 -48.22 C27.12 -54.21, 34.66 -60.2, 39.15 -63.76" stroke="#ffec99" stroke-width="1" fill="none"></path></g></g><mask></mask><g stroke-linecap="round"><g transform="translate(812.1968221399629 319.138669209824) rotate(0 -15.787510093963647 22.644299187445085)"><path d="M1.51 -1.39 C-9.97 18.4, -23.08 32.55, -33.33 44.29 M0.23 0.25 C-8.38 12.66, -17.55 24.27, -32.48 44.69" stroke="#a5d8ff" stroke-width="1" fill="none"></path></g><g transform="translate(812.1968221399629 319.138669209824) rotate(0 -15.787510093963647 22.644299187445085)"><path d="M-23.88 19.33 C-26.27 31.03, -30.24 37.21, -34.24 43.7 M-25.17 20.97 C-27.28 27.61, -29.79 33.42, -33.39 44.1" stroke="#a5d8ff" stroke-width="1" fill="none"></path></g><g transform="translate(812.1968221399629 319.138669209824) rotate(0 -15.787510093963647 22.644299187445085)"><path d="M-10.13 29.5 C-17.68 37.47, -26.79 39.86, -34.24 43.7 M-11.42 31.13 C-17.36 34.99, -23.6 38.04, -33.39 44.1" stroke="#a5d8ff" stroke-width="1" fill="none"></path></g></g><mask></mask><g stroke-linecap="round"><g transform="translate(1073.9198647146313 462.43939908194807) rotate(0 18.684301952035412 23.716156473605224)"><path d="M1.71 1.32 C13.87 15.46, 24.84 32.57, 36.81 49.05 M-0.15 0.38 C10.1 13.18, 20.64 26.53, 36.72 47.28" stroke="#a5d8ff" stroke-width="1" fill="none"></path></g><g transform="translate(1073.9198647146313 462.43939908194807) rotate(0 18.684301952035412 23.716156473605224)"><path d="M17.25 35.3 C23.47 37.35, 28.76 42.47, 36.16 48.89 M15.39 34.36 C20.92 37.41, 26.81 40.97, 36.07 47.13" stroke="#a5d8ff" stroke-width="1" fill="none"></path></g><g transform="translate(1073.9198647146313 462.43939908194807) rotate(0 18.684301952035412 23.716156473605224)"><path d="M30.75 24.8 C32.31 30.44, 32.85 39.25, 36.16 48.89 M28.89 23.86 C30.57 29.95, 32.59 36.52, 36.07 47.13" stroke="#a5d8ff" stroke-width="1" fill="none"></path></g></g><mask></mask><g stroke-linecap="round" transform="translate(927.7743055555558 383.44444444444343) rotate(0 75.72222222222229 34)"><path d="M17 0 C44.87 -4.45, 67.67 -3.53, 134.44 0 M17 0 C49.41 0.8, 80.62 1.06, 134.44 0 M134.44 0 C142.86 -1.36, 147.81 3.28, 151.44 17 M134.44 0 C142.78 -0.7, 146.9 6.58, 151.44 17 M151.44 17 C149.19 31.8, 151.1 38.71, 151.44 51 M151.44 17 C149.36 28.72, 150.38 39.46, 151.44 51 M151.44 51 C153.94 66.05, 148.62 64.08, 134.44 68 M151.44 51 C154.89 63.29, 149.41 69.92, 134.44 68 M134.44 68 C103.02 66.82, 75.79 69.22, 17 68 M134.44 68 C106.5 66.09, 75.34 65.58, 17 68 M17 68 C2.65 69.4, 3.56 61.78, 0 51 M17 68 C8.27 66.03, -3.97 61.8, 0 51 M0 51 C1.04 37.08, 3.37 29.86, 0 17 M0 51 C-0.56 40.12, 1.83 29.01, 0 17 M0 17 C1.32 5.16, 8.21 1.97, 17 0 M0 17 C-2.15 4.26, 2.95 -3.9, 17 0" stroke="#d0bfff" stroke-width="2" fill="none"></path></g><g transform="translate(937.9510718451609 398.2444444444436) rotate(0 65.54545593261719 19.199999999999818)"><text x="65.54545593261719" y="15.45" font-family="Cascadia, Segoe UI Emoji" font-size="16px" fill="#d0bfff" text-anchor="middle" style="white-space: pre;" direction="ltr" dominant-baseline="alphabetic">INTERNAL_NODE </text><text x="65.54545593261719" y="34.65" font-family="Cascadia, Segoe UI Emoji" font-size="16px" fill="#d0bfff" text-anchor="middle" style="white-space: pre;" direction="ltr" dominant-baseline="alphabetic">Node E</text></g><g stroke-linecap="round" transform="translate(707.7743055555558 381.44444444444343) rotate(0 75.72222222222229 34)"><path d="M17 0 C42.59 4.4, 69.87 2.07, 134.44 0 M17 0 C53.66 -1.56, 91.41 -2.08, 134.44 0 M134.44 0 C143.17 -0.61, 147.49 6.46, 151.44 17 M134.44 0 C147.79 -1.53, 155.32 3.33, 151.44 17 M151.44 17 C153.42 29.35, 153.78 38.69, 151.44 51 M151.44 17 C152.36 28.78, 152.53 34.87, 151.44 51 M151.44 51 C154.44 63.17, 148.94 69.67, 134.44 68 M151.44 51 C148.86 66.49, 147.22 64.8, 134.44 68 M134.44 68 C102.56 66.64, 73.54 69.51, 17 68 M134.44 68 C103.11 67.02, 76.57 66.05, 17 68 M17 68 C7.93 66.29, -3.45 61.87, 0 51 M17 68 C6.44 72.12, -2.76 64.23, 0 51 M0 51 C-0.73 40, 1.46 33.66, 0 17 M0 51 C0.24 41.78, 0.85 34.06, 0 17 M0 17 C-1.87 4.44, 3.3 -3.39, 17 0 M0 17 C2.37 3.73, 3.04 -1.21, 17 0" stroke="#ff8787" stroke-width="2" fill="none"></path></g><g transform="translate(717.9510718451609 386.64444444444325) rotate(0 65.54545593261719 28.800000000000182)"><text x="65.54545593261719" y="15.45" font-family="Cascadia, Segoe UI Emoji" font-size="16px" fill="#ff8787" text-anchor="middle" style="white-space: pre;" direction="ltr" dominant-baseline="alphabetic">EXTERNAL_NODE </text><text x="65.54545593261719" y="34.65" font-family="Cascadia, Segoe UI Emoji" font-size="16px" fill="#ff8787" text-anchor="middle" style="white-space: pre;" direction="ltr" dominant-baseline="alphabetic">Node K</text><text x="65.54545593261719" y="53.849999999999994" font-family="Cascadia, Segoe UI Emoji" font-size="16px" fill="#ff8787" text-anchor="middle" style="white-space: pre;" direction="ltr" dominant-baseline="alphabetic">window 2</text></g><g stroke-linecap="round"><g transform="translate(827.790134712847 224.0895787523532) rotate(0 -7.5 -18.5)"><path d="M0.49 -0.31 C-4.91 -15.51, -12.05 -29.96, -16.19 -38.3 M0.44 -0.33 C-3.06 -11.01, -7.4 -21.07, -15.42 -36.5" stroke="#a5d8ff" stroke-width="1" fill="none"></path></g><g transform="translate(827.790134712847 224.0895787523532) rotate(0 -7.5 -18.5)"><path d="M-0.43 -23.08 C-5.67 -29.42, -12.62 -35.01, -16.6 -37.8 M-0.48 -23.11 C-4.07 -27.16, -8.26 -30.59, -15.83 -36.01" stroke="#a5d8ff" stroke-width="1" fill="none"></path></g><g transform="translate(827.790134712847 224.0895787523532) rotate(0 -7.5 -18.5)"><path d="M-12.65 -16.98 C-13.23 -25.67, -15.52 -33.58, -16.6 -37.8 M-12.7 -17 C-12.75 -22.82, -13.46 -27.99, -15.83 -36.01" stroke="#a5d8ff" stroke-width="1" fill="none"></path></g></g><mask></mask><g stroke-linecap="round"><g transform="translate(693.8737361973879 225.77849752962902) rotate(0 9 -17)"><path d="M0.75 -1.46 C5.04 -12.76, 10.34 -23.21, 17.69 -35.98 M0.84 -0.51 C6.39 -10.85, 10.95 -21.2, 17.88 -33.41" stroke="#a5d8ff" stroke-width="1" fill="none"></path></g><g transform="translate(693.8737361973879 225.77849752962902) rotate(0 9 -17)"><path d="M15.81 -15.78 C15.29 -22.26, 15.69 -27.9, 17.58 -35.31 M15.9 -14.87 C16.64 -20.49, 16.39 -26.07, 17.76 -32.84" stroke="#a5d8ff" stroke-width="1" fill="none"></path></g><g transform="translate(693.8737361973879 225.77849752962902) rotate(0 9 -17)"><path d="M4.23 -22.03 C7.46 -26.48, 11.6 -30.1, 17.58 -35.31 M4.32 -21.11 C8.8 -24.7, 12.25 -28.28, 17.76 -32.84" stroke="#a5d8ff" stroke-width="1" fill="none"></path></g></g><mask></mask><g stroke-linecap="round"><g transform="translate(811.8737361973879 363.778497529629) rotate(0 9 -17)"><path d="M-0.68 -1.82 C3.8 -10.84, 9.81 -21.19, 18.4 -33.12 M0.78 -0.03 C4.1 -8.48, 9.2 -17.46, 17 -34.08" stroke="#a5d8ff" stroke-width="1" fill="none"></path></g><g transform="translate(811.8737361973879 363.778497529629) rotate(0 9 -17)"><path d="M14.41 -16.69 C14.4 -21.63, 15.8 -27.72, 17.38 -33.24 M15.81 -14.97 C15.02 -19.56, 15.82 -24.58, 16.04 -34.16" stroke="#a5d8ff" stroke-width="1" fill="none"></path></g><g transform="translate(811.8737361973879 363.778497529629) rotate(0 9 -17)"><path d="M2.57 -22.42 C5.94 -25.64, 10.72 -30.1, 17.38 -33.24 M3.97 -20.69 C6.38 -23.7, 10.34 -27.19, 16.04 -34.16" stroke="#a5d8ff" stroke-width="1" fill="none"></path></g></g><mask></mask><g stroke-linecap="round"><g transform="translate(952.3626412002164 362.1994031415725) rotate(0 -7.5 -18.5)"><path d="M-1.19 -1.3 C-3.59 -10.51, -6.29 -16.06, -15.66 -35.31 M-0.42 0.5 C-4.15 -8.64, -8.76 -18.53, -15.49 -37.66" stroke="#a5d8ff" stroke-width="1" fill="none"></path></g><g transform="translate(952.3626412002164 362.1994031415725) rotate(0 -7.5 -18.5)"><path d="M-3.78 -23.73 C-5.77 -27.98, -8 -28.59, -16.15 -35.98 M-3.01 -21.93 C-6.05 -25.64, -10.14 -30.11, -15.98 -38.32" stroke="#a5d8ff" stroke-width="1" fill="none"></path></g><g transform="translate(952.3626412002164 362.1994031415725) rotate(0 -7.5 -18.5)"><path d="M-16.59 -19 C-15.66 -24.21, -14.98 -25.89, -16.15 -35.98 M-15.82 -17.2 C-15.7 -22.09, -16.6 -27.73, -15.98 -38.32" stroke="#a5d8ff" stroke-width="1" fill="none"></path></g></g><mask></mask><g stroke-linecap="round" transform="translate(264.7867889404299 217.01111111110913) rotate(0 44.5 34.5)"><path d="M0 0 C24.56 -0.81, 49.43 -0.45, 89 0 M0 0 C24.15 1.69, 47.67 1.47, 89 0 M89 0 C86.87 21.06, 87.43 40.17, 89 69 M89 0 C89.72 13.5, 88.97 26.94, 89 69 M89 69 C53.88 68.96, 16.09 69.37, 0 69 M89 69 C71.32 70.16, 53.23 68.85, 0 69 M0 69 C-0.54 54.02, -0.14 39.26, 0 0 M0 69 C0.2 53.24, -0.18 36.63, 0 0" stroke="#1e1e1e" stroke-width="2" fill="none"></path></g><g transform="translate(271.8322448730471 232.3111111111093) rotate(0 37.45454406738281 19.199999999999818)"><text x="37.45454406738281" y="15.45" font-family="Cascadia, Segoe UI Emoji" font-size="16px" fill="#1e1e1e" text-anchor="middle" style="white-space: pre;" direction="ltr" dominant-baseline="alphabetic">Node X</text><text x="37.45454406738281" y="34.65" font-family="Cascadia, Segoe UI Emoji" font-size="16px" fill="#1e1e1e" text-anchor="middle" style="white-space: pre;" direction="ltr" dominant-baseline="alphabetic">window 3</text></g><g stroke-linecap="round" transform="translate(359.2867889404299 216.51111111110913) rotate(0 44.5 34.5)"><path d="M0 0 C36.02 -1.07, 69.35 -0.66, 89 0 M0 0 C17.93 0.49, 35.44 -0.83, 89 0 M89 0 C89.35 13.8, 89.74 27.83, 89 69 M89 0 C90.39 17.48, 90.01 34.13, 89 69 M89 69 C55.59 68.88, 20.79 67.39, 0 69 M89 69 C62.61 70.08, 36.54 70.26, 0 69 M0 69 C1.21 46.47, -0.59 24.54, 0 0 M0 69 C-1.35 51.78, -0.61 34.06, 0 0" stroke="#1e1e1e" stroke-width="2" fill="none"></path></g><g transform="translate(366.3322448730471 231.8111111111093) rotate(0 37.45454406738281 19.199999999999818)"><text x="37.45454406738281" y="15.45" font-family="Cascadia, Segoe UI Emoji" font-size="16px" fill="#1e1e1e" text-anchor="middle" style="white-space: pre;" direction="ltr" dominant-baseline="alphabetic">Node Z</text><text x="37.45454406738281" y="34.65" font-family="Cascadia, Segoe UI Emoji" font-size="16px" fill="#1e1e1e" text-anchor="middle" style="white-space: pre;" direction="ltr" dominant-baseline="alphabetic">window 4</text></g><g stroke-linecap="round"><g transform="translate(450.7867889404299 214.01111111110913) rotate(0 26.5 -70)"><path d="M0 0 C11.56 -30.54, 23.13 -61.09, 53 -140 M0 0 C19.64 -51.89, 39.29 -103.78, 53 -140" stroke="#d0bfff" stroke-width="1" fill="none"></path></g><g transform="translate(450.7867889404299 214.01111111110913) rotate(0 26.5 -70)"><path d="M52.68 -115 C52.75 -120.46, 52.82 -125.91, 53 -140 M52.68 -115 C52.8 -124.27, 52.92 -133.53, 53 -140" stroke="#d0bfff" stroke-width="1" fill="none"></path></g><g transform="translate(450.7867889404299 214.01111111110913) rotate(0 26.5 -70)"><path d="M36.69 -121.06 C40.25 -125.19, 43.8 -129.32, 53 -140 M36.69 -121.06 C42.73 -128.08, 48.78 -135.1, 53 -140" stroke="#d0bfff" stroke-width="1" fill="none"></path></g></g><mask></mask><g transform="translate(475.6958789825442 45.01111111110913) rotate(0 28.090909957885742 9.599999999999909)"><text x="28.090909957885742" y="15.45" font-family="Cascadia, Segoe UI Emoji" font-size="16px" fill="#d0bfff" text-anchor="middle" style="white-space: pre;" direction="ltr" dominant-baseline="alphabetic">Node E</text></g><g stroke-linecap="round" transform="translate(833.0645667182076 522.0111111111091) rotate(0 75.72222222222229 34)"><path d="M17 0 C49.78 -1.25, 84.54 3.27, 134.44 0 M17 0 C43.27 -1.88, 66.92 -0.53, 134.44 0 M134.44 0 C141.88 -1.6, 151.12 5.82, 151.44 17 M134.44 0 C141.83 -0.26, 155.08 3.89, 151.44 17 M151.44 17 C154.5 30.49, 149.56 41.18, 151.44 51 M151.44 17 C150.89 27.33, 153.05 43.2, 151.44 51 M151.44 51 C147.52 61.79, 145.71 68.09, 134.44 68 M151.44 51 C151.91 59.73, 149.04 70.83, 134.44 68 M134.44 68 C111.7 65.27, 87.82 69.76, 17 68 M134.44 68 C105 69.22, 76.91 66.17, 17 68 M17 68 C9.53 69, -0.28 63.71, 0 51 M17 68 C7.54 69.96, -1.13 66.67, 0 51 M0 51 C3.41 42.62, 1.91 28.22, 0 17 M0 51 C-1.61 36.08, 0.19 26.38, 0 17 M0 17 C-1.75 8.72, 3.02 3.78, 17 0 M0 17 C0.56 8.91, 1.38 -3.97, 17 0" stroke="#a5d8ff" stroke-width="2" fill="none"></path></g><g transform="translate(843.2413330078127 527.211111111109) rotate(0 65.54545593261719 28.800000000000182)"><text x="65.54545593261719" y="15.45" font-family="Cascadia, Segoe UI Emoji" font-size="16px" fill="#a5d8ff" text-anchor="middle" style="white-space: pre;" direction="ltr" dominant-baseline="alphabetic">EXTERNAL_NODE </text><text x="65.54545593261719" y="34.65" font-family="Cascadia, Segoe UI Emoji" font-size="16px" fill="#a5d8ff" text-anchor="middle" style="white-space: pre;" direction="ltr" dominant-baseline="alphabetic">Node X</text><text x="65.54545593261719" y="53.849999999999994" font-family="Cascadia, Segoe UI Emoji" font-size="16px" fill="#a5d8ff" text-anchor="middle" style="white-space: pre;" direction="ltr" dominant-baseline="alphabetic">window 3</text></g><g stroke-linecap="round" transform="translate(1026.0645667182075 523.0111111111091) rotate(0 75.72222222222229 34)"><path d="M17 0 C49.85 -3.58, 89.05 1.32, 134.44 0 M17 0 C47.43 -0.71, 80.15 1.37, 134.44 0 M134.44 0 C147.63 2.11, 153.53 8.94, 151.44 17 M134.44 0 C149.8 0.51, 153.27 9.18, 151.44 17 M151.44 17 C148.62 30.18, 153.82 42.47, 151.44 51 M151.44 17 C150.47 22.64, 149.87 31.46, 151.44 51 M151.44 51 C152.91 61.18, 147.88 70.61, 134.44 68 M151.44 51 C149.72 60.24, 142.36 67.24, 134.44 68 M134.44 68 C93.16 69.67, 52.8 66.25, 17 68 M134.44 68 C88.12 67.62, 43.56 67.09, 17 68 M17 68 C7.01 70.2, -0.95 61.94, 0 51 M17 68 C2.09 72.49, 3.4 62.71, 0 51 M0 51 C-1.36 38.54, -0.05 34.97, 0 17 M0 51 C0.19 45.73, 0.72 38.87, 0 17 M0 17 C-2.6 3.22, 4.28 3.56, 17 0 M0 17 C-2.6 2.46, 5.08 2.66, 17 0" stroke="#a5d8ff" stroke-width="2" fill="none"></path></g><g transform="translate(1036.2413330078127 528.211111111109) rotate(0 65.54545593261713 28.800000000000182)"><text x="65.54545593261719" y="15.45" font-family="Cascadia, Segoe UI Emoji" font-size="16px" fill="#a5d8ff" text-anchor="middle" style="white-space: pre;" direction="ltr" dominant-baseline="alphabetic">EXTERNAL_NODE </text><text x="65.54545593261719" y="34.65" font-family="Cascadia, Segoe UI Emoji" font-size="16px" fill="#a5d8ff" text-anchor="middle" style="white-space: pre;" direction="ltr" dominant-baseline="alphabetic">Node Z</text><text x="65.54545593261719" y="53.849999999999994" font-family="Cascadia, Segoe UI Emoji" font-size="16px" fill="#a5d8ff" text-anchor="middle" style="white-space: pre;" direction="ltr" dominant-baseline="alphabetic">window 4</text></g><g stroke-linecap="round"><g transform="translate(935.4722612728367 505.2528797092) rotate(0 9 -17)"><path d="M-0.19 1.7 C4.52 -8.05, 7.56 -15, 18.89 -35.13 M-0.37 0.8 C4.55 -10.75, 11.41 -18.95, 17.39 -34.07" stroke="#a5d8ff" stroke-width="1" fill="none"></path></g><g transform="translate(935.4722612728367 505.2528797092) rotate(0 9 -17)"><path d="M15.62 -13.26 C16.7 -19.75, 16.3 -23.56, 18.25 -35.16 M15.43 -14.13 C15.61 -21.42, 17.65 -25.37, 16.81 -34.13" stroke="#a5d8ff" stroke-width="1" fill="none"></path></g><g transform="translate(935.4722612728367 505.2528797092) rotate(0 9 -17)"><path d="M3.67 -18.77 C7.26 -24.1, 9.39 -26.74, 18.25 -35.16 M3.49 -19.64 C7.14 -25.24, 12.65 -27.6, 16.81 -34.13" stroke="#a5d8ff" stroke-width="1" fill="none"></path></g></g><mask></mask><g stroke-linecap="round"><g transform="translate(935.6994505810655 463.3579136649896) rotate(0 -15.787510093963647 22.644299187445085)"><path d="M-0.12 -0.44 C-11.6 15.97, -21.39 31.49, -30.96 45.89 M-0.86 0.09 C-9.86 14.51, -20.16 27.52, -32.53 44.77" stroke="#a5d8ff" stroke-width="1" fill="none"></path></g><g transform="translate(935.6994505810655 463.3579136649896) rotate(0 -15.787510093963647 22.644299187445085)"><path d="M-25.72 20.31 C-28.48 28.9, -29.35 36.73, -31.92 45.37 M-26.47 20.84 C-27.92 28.83, -30.81 35.44, -33.49 44.25" stroke="#a5d8ff" stroke-width="1" fill="none"></path></g><g transform="translate(935.6994505810655 463.3579136649896) rotate(0 -15.787510093963647 22.644299187445085)"><path d="M-11.9 30.39 C-19.75 35.4, -25.62 39.58, -31.92 45.37 M-12.65 30.91 C-18.2 35.89, -25.25 39.47, -33.49 44.25" stroke="#a5d8ff" stroke-width="1" fill="none"></path></g></g><mask></mask><g stroke-linecap="round"><g transform="translate(1065.8263863702305 508.59328778247254) rotate(0 -7.5 -18.5)"><path d="M1.21 -1.76 C-1.52 -9.47, -7.39 -16.5, -14.48 -38.83 M0.44 -0.2 C-4.92 -9.46, -8.26 -20.77, -14.15 -37.28" stroke="#a5d8ff" stroke-width="1" fill="none"></path></g><g transform="translate(1065.8263863702305 508.59328778247254) rotate(0 -7.5 -18.5)"><path d="M-0.3 -23.57 C-2.48 -26.31, -7.8 -28.36, -13.63 -39.1 M-1.08 -22.02 C-5.7 -25.29, -8.38 -30.6, -13.3 -37.55" stroke="#a5d8ff" stroke-width="1" fill="none"></path></g><g transform="translate(1065.8263863702305 508.59328778247254) rotate(0 -7.5 -18.5)"><path d="M-13.19 -19.07 C-12.39 -22.86, -14.73 -25.95, -13.63 -39.1 M-13.97 -17.51 C-15.02 -22.07, -14.11 -28.64, -13.3 -37.55" stroke="#a5d8ff" stroke-width="1" fill="none"></path></g></g><mask></mask><g stroke-linecap="round"><g transform="translate(956.4583114966332 318.29979182218267) rotate(0 18.684301952035412 23.716156473605224)"><path d="M1.82 1.71 C11.45 14.17, 20.17 26.83, 38.4 47.77 M-0.09 -0.47 C8.25 10.87, 14.49 19.01, 36.99 48.01" stroke="#a5d8ff" stroke-width="1" fill="none"></path></g><g transform="translate(956.4583114966332 318.29979182218267) rotate(0 18.684301952035412 23.716156473605224)"><path d="M17.66 36.38 C22.89 39.67, 27.27 43.2, 38.02 48.34 M15.75 34.2 C20.88 38.37, 23.74 39.41, 36.61 48.58" stroke="#a5d8ff" stroke-width="1" fill="none"></path></g><g transform="translate(956.4583114966332 318.29979182218267) rotate(0 18.684301952035412 23.716156473605224)"><path d="M31.18 25.91 C32.81 31.96, 33.57 38.3, 38.02 48.34 M29.27 23.72 C31.53 30.03, 31.57 33.26, 36.61 48.58" stroke="#a5d8ff" stroke-width="1" fill="none"></path></g></g><mask></mask></svg>