<svg version="1.1" xmlns="http://www.w3.org/2000/svg" viewBox="0 0 1061.7601138404611 337.0037014431423" width="1061.7601138404611" height="337.0037014431423">
  <!-- svg-source:excalidraw -->
  
  <defs>
    <style class="style-fonts">
      @font-face {
        font-family: "Virgil";
        src: url("https://excalidraw.com/Virgil.woff2");
      }
      @font-face {
        font-family: "Cascadia";
        src: url("https://excalidraw.com/Cascadia.woff2");
      }
      @font-face {
        font-family: "Assistant";
        src: url("https://excalidraw.com/Assistant-Regular.woff2");
      }
    </style>
    
  </defs>
  <rect x="0" y="0" width="1061.7601138404611" height="337.0037014431423" fill="#2a2631"></rect><g transform="translate(740.0694586619675 10) rotate(0 46.69091033935547 12)"><text x="0" y="19.3125" font-family="Cascadia, Segoe UI Emoji" font-size="20px" fill="#a5d8ff" text-anchor="start" style="white-space: pre;" direction="ltr" dominant-baseline="alphabetic">BSP-tree</text></g><g stroke-linecap="round" transform="translate(725.0694586619675 111) rotate(0 65.99999999999994 34)"><path d="M17 0 C51.35 2.65, 83.41 4.79, 115 0 M17 0 C50.8 0.23, 84.44 0.65, 115 0 M115 0 C125.13 1.51, 130.6 2.67, 132 17 M115 0 C129.5 -1.07, 132.3 2.39, 132 17 M132 17 C131.03 25.14, 131.39 33.53, 132 51 M132 17 C131.58 23.43, 131.09 32.54, 132 51 M132 51 C132.21 62.4, 123.14 71.03, 115 68 M132 51 C129.22 58.64, 130.06 69.04, 115 68 M115 68 C77 67.49, 41.8 69.62, 17 68 M115 68 C87.3 67.71, 55.72 66.48, 17 68 M17 68 C4 71.44, -3.4 65.74, 0 51 M17 68 C4.84 67.94, -2.4 64.18, 0 51 M0 51 C-3.56 37.87, 2.7 29.64, 0 17 M0 51 C1.59 41.77, -2.19 30.91, 0 17 M0 17 C0.66 5.17, 7.46 -2.95, 17 0 M0 17 C-1.91 8.08, 10.04 -1.09, 17 0" stroke="#a5d8ff" stroke-width="2" fill="none"></path></g><g transform="translate(744.251278577739 125.80000000000018) rotate(0 46.818180084228516 19.200000000000045)"><text x="46.818180084228516" y="15.45" font-family="Cascadia, Segoe UI Emoji" font-size="16px" fill="#a5d8ff" text-anchor="middle" style="white-space: pre;" direction="ltr" dominant-baseline="alphabetic">ROOT_NODE </text><text x="46.818180084228516" y="34.65" font-family="Cascadia, Segoe UI Emoji" font-size="16px" fill="#a5d8ff" text-anchor="middle" style="white-space: pre;" direction="ltr" dominant-baseline="alphabetic">Node A </text></g><g stroke-linecap="round"><g transform="translate(782.7423203519677 99) rotate(0 -0.940893774012352 -26.5)"><path d="M1.11 0.5 C0.73 -8.22, -1.38 -44.42, -1.85 -53.38 M0.24 -0.28 C-0.34 -8.74, -2.34 -43.41, -2.78 -52.04" stroke="#a5d8ff" stroke-width="2" fill="none"></path></g><g transform="translate(782.7423203519677 99) rotate(0 -0.940893774012352 -26.5)"><path d="M7.05 -29.05 C4.75 -36.71, -0.05 -44.29, -2.78 -52.04 M7.05 -29.05 C3.94 -35.12, 1.14 -42.69, -2.78 -52.04" stroke="#a5d8ff" stroke-width="2" fill="none"></path></g><g transform="translate(782.7423203519677 99) rotate(0 -0.940893774012352 -26.5)"><path d="M-10.03 -28.11 C-6.52 -36.25, -5.53 -44.14, -2.78 -52.04 M-10.03 -28.11 C-8.34 -34.45, -6.36 -42.28, -2.78 -52.04" stroke="#a5d8ff" stroke-width="2" fill="none"></path></g></g><mask></mask><g stroke-linecap="round" transform="translate(606.5694586619675 237.5) rotate(0 75.72222222222229 34)"><path d="M17 0 C61.87 0.5, 108.49 0.76, 134.44 0 M17 0 C51.7 -2.38, 89.18 -1.35, 134.44 0 M134.44 0 C146.04 -2.85, 150.19 5.18, 151.44 17 M134.44 0 C141.84 -1.02, 150.3 5.07, 151.44 17 M151.44 17 C147.55 25.67, 149.15 33.4, 151.44 51 M151.44 17 C149.88 30.35, 150.27 39.06, 151.44 51 M151.44 51 C154.69 63.24, 148.28 70.38, 134.44 68 M151.44 51 C147.05 59.48, 147.35 65.52, 134.44 68 M134.44 68 C88.21 71.26, 43.65 66.48, 17 68 M134.44 68 C104.26 71.72, 77.12 69.99, 17 68 M17 68 C3.58 69.6, 1.41 63.31, 0 51 M17 68 C5.88 64.1, -1.98 65.62, 0 51 M0 51 C-0.95 43.21, 1.63 24.21, 0 17 M0 51 C0.78 39.41, -0.94 31.82, 0 17 M0 17 C3.8 4.72, 8.1 0.99, 17 0 M0 17 C-3.04 9.77, 4.13 -1.29, 17 0" stroke="#a5d8ff" stroke-width="2" fill="none"></path></g><g transform="translate(616.7462249515726 242.69999999999982) rotate(0 65.54545593261719 28.799999999999955)"><text x="65.54545593261719" y="15.45" font-family="Cascadia, Segoe UI Emoji" font-size="16px" fill="#a5d8ff" text-anchor="middle" style="white-space: pre;" direction="ltr" dominant-baseline="alphabetic">EXTERNAL_NODE </text><text x="65.54545593261719" y="34.65" font-family="Cascadia, Segoe UI Emoji" font-size="16px" fill="#a5d8ff" text-anchor="middle" style="white-space: pre;" direction="ltr" dominant-baseline="alphabetic">Node B</text><text x="65.54545593261719" y="53.849999999999994" font-family="Cascadia, Segoe UI Emoji" font-size="16px" fill="#a5d8ff" text-anchor="middle" style="white-space: pre;" direction="ltr" dominant-baseline="alphabetic">Window 1</text></g><g stroke-linecap="round"><g transform="translate(716.2326578196989 180.7061508942893) rotate(0 -10.939664227459104 21.146924552855353)"><path d="M0.03 -0.6 C-6.2 12.63, -15.32 27.99, -22.34 42.42 M-0.86 -0.22 C-5.39 9.52, -10.58 18.47, -22.45 41.47" stroke="#a5d8ff" stroke-width="1" fill="none"></path></g><g transform="translate(716.2326578196989 180.7061508942893) rotate(0 -10.939664227459104 21.146924552855353)"><path d="M-19.28 17.26 C-19.59 24.58, -22.83 34.08, -22.92 41.6 M-20.16 17.64 C-20.35 23.13, -21.25 27.8, -23.03 40.64" stroke="#a5d8ff" stroke-width="1" fill="none"></path></g><g transform="translate(716.2326578196989 180.7061508942893) rotate(0 -10.939664227459104 21.146924552855353)"><path d="M-4.84 24.81 C-9.67 29.79, -17.45 36.91, -22.92 41.6 M-5.73 25.19 C-9.19 28.93, -13.4 31.88, -23.03 40.64" stroke="#a5d8ff" stroke-width="1" fill="none"></path></g></g><mask></mask><g stroke-linecap="round"><g transform="translate(866.7491362008715 184.22530790890232) rotate(0 10.866245430672734 20.88734604554884)"><path d="M0.75 -0.7 C5.48 14.84, 13.48 26.99, 20.31 41.15 M-0.25 -0.13 C5.46 11.21, 11.58 23.27, 21.72 41.35" stroke="#a5d8ff" stroke-width="1" fill="none"></path></g><g transform="translate(866.7491362008715 184.22530790890232) rotate(0 10.866245430672734 20.88734604554884)"><path d="M4.75 25.14 C8.19 32.25, 14.9 35.97, 20.29 40.72 M3.75 25.71 C8.53 29.49, 13.49 33.98, 21.71 40.92" stroke="#a5d8ff" stroke-width="1" fill="none"></path></g><g transform="translate(866.7491362008715 184.22530790890232) rotate(0 10.866245430672734 20.88734604554884)"><path d="M18.86 17.38 C17.77 26.93, 19.96 33.14, 20.29 40.72 M17.86 17.95 C18.51 23.93, 19.41 30.65, 21.71 40.92" stroke="#a5d8ff" stroke-width="1" fill="none"></path></g></g><mask></mask><g stroke-linecap="round" transform="translate(840.111125328634 238.7037014431421) rotate(0 75.72222222222234 34)"><path d="M17 0 C45.69 3.58, 79.44 1.08, 134.44 0 M17 0 C42.16 -0.16, 70.24 0.03, 134.44 0 M134.44 0 C144.04 -3.42, 149.15 2.35, 151.44 17 M134.44 0 C145.72 -1.97, 150.24 7.88, 151.44 17 M151.44 17 C154.48 24.96, 148.24 41, 151.44 51 M151.44 17 C149.96 26.73, 152.55 37.86, 151.44 51 M151.44 51 C154.93 62.24, 146.28 67.24, 134.44 68 M151.44 51 C154.85 62.52, 143.69 65.36, 134.44 68 M134.44 68 C107.5 65.29, 73.7 63.92, 17 68 M134.44 68 C94.6 66.87, 53.71 70, 17 68 M17 68 C7.11 67.79, 1.35 61.35, 0 51 M17 68 C9.85 69.83, -4.52 62.22, 0 51 M0 51 C-2.87 38.58, 2.18 33.28, 0 17 M0 51 C-1.74 43.39, -1.08 31.65, 0 17 M0 17 C-0.39 6.98, 2.33 -2.51, 17 0 M0 17 C-2.67 1.15, 7.98 1.91, 17 0" stroke="#ff8787" stroke-width="2" fill="none"></path></g><g transform="translate(850.2878916182393 243.90370144314193) rotate(0 65.54545593261719 28.799999999999955)"><text x="65.54545593261719" y="15.45" font-family="Cascadia, Segoe UI Emoji" font-size="16px" fill="#ff8787" text-anchor="middle" style="white-space: pre;" direction="ltr" dominant-baseline="alphabetic">EXTERNAL_NODE </text><text x="65.54545593261719" y="34.65" font-family="Cascadia, Segoe UI Emoji" font-size="16px" fill="#ff8787" text-anchor="middle" style="white-space: pre;" direction="ltr" dominant-baseline="alphabetic">Node C</text><text x="65.54545593261719" y="53.849999999999994" font-family="Cascadia, Segoe UI Emoji" font-size="16px" fill="#ff8787" text-anchor="middle" style="white-space: pre;" direction="ltr" dominant-baseline="alphabetic">Window 2</text></g><g transform="translate(246.55556977307856 14.50370144314229) rotate(0 35.01818084716797 12)"><text x="0" y="19.3125" font-family="Cascadia, Segoe UI Emoji" font-size="20px" fill="#a5d8ff" text-anchor="start" style="white-space: pre;" direction="ltr" dominant-baseline="alphabetic">Screen</text></g><g stroke-linecap="round" transform="translate(43.055569773078616 99.00370144314229) rotate(0 233.88888888888883 114)"><path d="M0 0 C143.26 -0.11, 286.53 0.44, 467.78 0 M0 0 C133.96 1.44, 268.44 1.62, 467.78 0 M467.78 0 C468.74 61.09, 470.01 123.88, 467.78 228 M467.78 0 C469.89 50.59, 468.54 99.64, 467.78 228 M467.78 228 C311.48 229.97, 155.05 230.52, 0 228 M467.78 228 C325.33 227.17, 182.87 227.17, 0 228 M0 228 C0.71 164.29, 0.44 99.46, 0 0 M0 228 C1.15 178.9, 1.13 129.68, 0 0" stroke="#a5d8ff" stroke-width="1" fill="none"></path></g><g stroke-linecap="round" transform="translate(48.555569773078616 106.00370144314229) rotate(0 228.44444444444437 107.00000000000023)"><path d="M-1.96 -0.05 L457.22 -0.25 L457.78 212.52 L-0.83 215.05" stroke="none" stroke-width="0" fill="#b2f2bb"></path><path d="M0 0 C122.52 1.61, 245.33 1.43, 456.89 0 M0 0 C97.94 1.58, 195.77 2.01, 456.89 0 M456.89 0 C458.25 64.28, 455.51 132.1, 456.89 214 M456.89 0 C457.22 68.5, 458.36 137.6, 456.89 214 M456.89 214 C279.78 214.97, 103.08 213.84, 0 214 M456.89 214 C345.69 216.25, 235.2 215.85, 0 214 M0 214 C-0.32 161.04, -2.24 107.16, 0 0 M0 214 C-0.38 134.28, 0.12 55.34, 0 0" stroke="#1e1e1e" stroke-width="2" fill="none"></path></g><g stroke-linecap="round" transform="translate(57.05556977307856 114.50370144314229) rotate(0 107.61111111111109 97.83333333333348)"><path d="M0 0 C45.93 -0.29, 90.82 -0.54, 215.22 0 M0 0 C46.52 1.23, 93.54 0.82, 215.22 0 M215.22 0 C215.1 44.7, 217.16 87.41, 215.22 195.67 M215.22 0 C213.7 69.79, 214.23 140.64, 215.22 195.67 M215.22 195.67 C148.03 196.27, 79.68 196.33, 0 195.67 M215.22 195.67 C132 197.26, 48.64 197.62, 0 195.67 M0 195.67 C-2.17 129.19, 0.95 65.17, 0 0 M0 195.67 C0.25 138.39, -1.64 80.3, 0 0" stroke="#1e1e1e" stroke-width="2" fill="none"></path></g><g transform="translate(136.5757709263039 193.1370347764755) rotate(0 28.090909957885742 19.200000000000045)"><text x="28.090909957885742" y="15.45" font-family="Cascadia, Segoe UI Emoji" font-size="16px" fill="#1e1e1e" text-anchor="middle" style="white-space: pre;" direction="ltr" dominant-baseline="alphabetic">Node B</text><text x="28.090909957885742" y="34.65" font-family="Cascadia, Segoe UI Emoji" font-size="16px" fill="#1e1e1e" text-anchor="middle" style="white-space: pre;" direction="ltr" dominant-baseline="alphabetic"></text></g><g stroke-linecap="round" transform="translate(281.15973643974553 115.20370144314302) rotate(0 107.61111111111109 97.83333333333348)"><path d="M1.22 0.5 L213.9 1.78 L214.56 195.1 L-0.2 196.32" stroke="none" stroke-width="0" fill="#fa5252"></path><path d="M0 0 C65.11 0.58, 128.58 -0.91, 215.22 0 M0 0 C81.57 1.71, 162.26 2.03, 215.22 0 M215.22 0 C212.93 41.77, 213.97 80.29, 215.22 195.67 M215.22 0 C216.22 54.42, 216.26 110.85, 215.22 195.67 M215.22 195.67 C168.9 194.42, 123.33 195.95, 0 195.67 M215.22 195.67 C145.04 194.7, 75.93 194.02, 0 195.67 M0 195.67 C1.28 128.39, 0.43 65.36, 0 0 M0 195.67 C-1.29 139.91, 0.08 82.86, 0 0" stroke="#1e1e1e" stroke-width="2" fill="none"></path></g><g transform="translate(360.6799375929709 203.4370347764766) rotate(0 28.090909957885742 9.599999999999909)"><text x="28.090909957885742" y="15.45" font-family="Cascadia, Segoe UI Emoji" font-size="16px" fill="#1e1e1e" text-anchor="middle" style="white-space: pre;" direction="ltr" dominant-baseline="alphabetic">Node C</text></g><g stroke-linecap="round"><g transform="translate(274.7222364397451 82.7977920356202) rotate(0 0 -18.38037862957208)"><path d="M0 0 C0 -11.22, 0 -22.45, 0 -36.76 M0 0 C0 -11.86, 0 -23.72, 0 -36.76" stroke="#a5d8ff" stroke-width="2" fill="none"></path></g><g transform="translate(274.7222364397451 82.7977920356202) rotate(0 0 -18.38037862957208)"><path d="M6.29 -19.49 C4.37 -24.76, 2.45 -30.04, 0 -36.76 M6.29 -19.49 C4.26 -25.06, 2.23 -30.63, 0 -36.76" stroke="#a5d8ff" stroke-width="2" fill="none"></path></g><g transform="translate(274.7222364397451 82.7977920356202) rotate(0 0 -18.38037862957208)"><path d="M-6.29 -19.49 C-4.37 -24.76, -2.45 -30.04, 0 -36.76 M-6.29 -19.49 C-4.26 -25.06, -2.23 -30.63, 0 -36.76" stroke="#a5d8ff" stroke-width="2" fill="none"></path></g></g><mask></mask><g stroke-linecap="round"><g transform="translate(1014.3055697730784 188.85185072157128) rotate(0 -11.5 22)"><path d="M0.26 -1.76 C-6.9 12.18, -12.64 24.03, -24.24 45.29 M-0.81 0.87 C-5.47 11.99, -12.96 22.25, -22.39 44.9" stroke="#a5d8ff" stroke-width="2" fill="none"></path></g><g transform="translate(1014.3055697730784 188.85185072157128) rotate(0 -11.5 22)"><path d="M-20.17 18.39 C-22.07 27.24, -22.46 34.2, -23.63 46.19 M-21.24 21.02 C-20.22 27.02, -22.19 32.22, -21.78 45.79" stroke="#a5d8ff" stroke-width="2" fill="none"></path></g><g transform="translate(1014.3055697730784 188.85185072157128) rotate(0 -11.5 22)"><path d="M-4.72 25.44 C-10.57 32.65, -14.89 37.82, -23.63 46.19 M-5.79 28.07 C-8.78 32.26, -14.8 35.62, -21.78 45.79" stroke="#a5d8ff" stroke-width="2" fill="none"></path></g></g><mask></mask><g transform="translate(976.8510257056956 137.25185072157137) rotate(0 37.45454406738281 19.200000000000045)"><text x="37.45454406738281" y="15.45" font-family="Cascadia, Segoe UI Emoji" font-size="16px" fill="#a5d8ff" text-anchor="middle" style="white-space: pre;" direction="ltr" dominant-baseline="alphabetic">Node to </text><text x="37.45454406738281" y="34.65" font-family="Cascadia, Segoe UI Emoji" font-size="16px" fill="#a5d8ff" text-anchor="middle" style="white-space: pre;" direction="ltr" dominant-baseline="alphabetic">delete</text></g><g transform="translate(10 36.10105707077719) rotate(0 28.090909957885742 9.599999999999909)"><text x="0" y="15.45" font-family="Cascadia, Segoe UI Emoji" font-size="16px" fill="#b2f2bb" text-anchor="start" style="white-space: pre;" direction="ltr" dominant-baseline="alphabetic">Node A</text></g><g stroke-linecap="round"><g transform="translate(164.61113954615712 109.60264437236447) rotate(0 -45.28935643867567 -30.332956341506815)"><path d="M0 0 C-35.72 -23.93, -71.44 -47.85, -90.58 -60.67 M0 0 C-26.89 -18.01, -53.79 -36.03, -90.58 -60.67" stroke="#b2f2bb" stroke-width="1" fill="none"></path></g><g transform="translate(164.61113954615712 109.60264437236447) rotate(0 -45.28935643867567 -30.332956341506815)"><path d="M-66.3 -54.7 C-75.88 -57.05, -85.45 -59.41, -90.58 -60.67 M-66.3 -54.7 C-73.51 -56.47, -80.72 -58.24, -90.58 -60.67" stroke="#b2f2bb" stroke-width="1" fill="none"></path></g><g transform="translate(164.61113954615712 109.60264437236447) rotate(0 -45.28935643867567 -30.332956341506815)"><path d="M-75.82 -40.49 C-81.64 -48.45, -87.46 -56.4, -90.58 -60.67 M-75.82 -40.49 C-80.2 -46.48, -84.58 -52.47, -90.58 -60.67" stroke="#b2f2bb" stroke-width="1" fill="none"></path></g></g><mask></mask></svg>