<svg version="1.1" xmlns="http://www.w3.org/2000/svg" viewBox="0 0 1360.7329559326172 1020.3749999999991" width="1360.7329559326172" height="1020.3749999999991">
  <!-- svg-source:excalidraw -->
  
  <defs>
    <style class="style-fonts">
      @font-face {
        font-family: "Virgil";
        src: url("https://excalidraw.com/Virgil.woff2");
      }
      @font-face {
        font-family: "Cascadia";
        src: url("https://excalidraw.com/Cascadia.woff2");
      }
      @font-face {
        font-family: "Assistant";
        src: url("https://excalidraw.com/Assistant-Regular.woff2");
      }
    </style>
    
  </defs>
  <rect x="0" y="0" width="1360.7329559326172" height="1020.3749999999991" fill="#2a2631"></rect><g stroke-linecap="round" transform="translate(12.420455932617188 10) rotate(0 317 499.99999999999955)"><path d="M0.84 0.4 C151.09 -0.64, 304.72 -1.2, 633.13 -1.17 M-0.05 -0.67 C159.43 -2.44, 319.45 -2.9, 634.02 -0.58 M632.46 1.27 C636.12 236.62, 637.27 474.17, 632.97 998.74 M634.36 0.28 C638.59 213.95, 638.48 428.65, 633.44 999.58 M633.23 999.35 C425.44 1000.76, 219.62 1001.94, 1.4 998.99 M633.64 999.53 C429.93 996.86, 226.98 997.17, -0.02 1000.66 M1.31 1000.04 C-1.28 677.16, -0.59 355.33, -1.13 -0.11 M-0.31 1000.19 C-0.95 633.58, -1.29 267.65, 0.11 0.79" stroke="#ffffff" stroke-width="1" fill="none"></path></g><g stroke-linecap="round"><g transform="translate(81.42045593261719 372.9999999999991) rotate(0 242.5 -1.5)"><path d="M-0.59 0.86 C160.85 -1.76, 317.78 -4.26, 484.18 -1.55 M-0.37 0.76 C175.57 2.62, 351.4 0.64, 484.47 -2.78" stroke="#ffffff" stroke-width="1" fill="none"></path></g></g><mask></mask><g transform="translate(10 389.1499999999969) rotate(0 65.54545593261719 9.600000000000364)"><text x="65.54545593261719" y="15.45" font-family="Cascadia, Segoe UI Emoji" font-size="16px" fill="#a5d8ff" text-anchor="middle" style="white-space: pre;" direction="ltr" dominant-baseline="alphabetic"> initial state</text></g><g transform="translate(268.08387851715077 45.380555555552746) rotate(0 35.01818084716797 12)"><text x="0" y="19.3125" font-family="Cascadia, Segoe UI Emoji" font-size="20px" fill="#a5d8ff" text-anchor="start" style="white-space: pre;" direction="ltr" dominant-baseline="alphabetic">Screen</text></g><g stroke-linecap="round" transform="translate(73.58387851715077 122.10277777777537) rotate(0 233.88888888888883 114)"><path d="M0 0 C171.41 0.22, 341.44 1.59, 467.78 0 M0 0 C173.1 -2.06, 346.55 -2.01, 467.78 0 M467.78 0 C466.58 80.79, 468.29 159.84, 467.78 228 M467.78 0 C468.34 48.72, 468.26 95.54, 467.78 228 M467.78 228 C306.08 226.3, 145.99 226.37, 0 228 M467.78 228 C366.32 227.53, 264.5 227.38, 0 228 M0 228 C0.23 168.57, -0.34 112.74, 0 0 M0 228 C0.89 141.27, 0.68 55.93, 0 0" stroke="#a5d8ff" stroke-width="1" fill="none"></path></g><g stroke-linecap="round" transform="translate(79.08387851715077 129.10277777777537) rotate(0 228.44444444444437 107)"><path d="M0 0 L456.89 0 L456.89 214 L0 214" stroke="none" stroke-width="0" fill="#b2f2bb"></path><path d="M0 0 C119.85 0, 239.7 0, 456.89 0 M0 0 C173.14 0, 346.27 0, 456.89 0 M456.89 0 C456.89 69.09, 456.89 138.19, 456.89 214 M456.89 0 C456.89 46.84, 456.89 93.67, 456.89 214 M456.89 214 C344.79 214, 232.69 214, 0 214 M456.89 214 C323.87 214, 190.85 214, 0 214 M0 214 C0 167.99, 0 121.98, 0 0 M0 214 C0 157.65, 0 101.29, 0 0" stroke="#1e1e1e" stroke-width="1" fill="none"></path></g><g stroke-linecap="round" transform="translate(87.58387851715077 137.60277777777537) rotate(0 107.61111111111109 97.83333333333303)"><path d="M0 0 C52.16 -1.74, 103.22 -2.98, 215.22 0 M0 0 C46.68 1.42, 92.71 0.78, 215.22 0 M215.22 0 C213.99 75.52, 214.15 151.66, 215.22 195.67 M215.22 0 C216.41 74.09, 215.42 145.54, 215.22 195.67 M215.22 195.67 C162.12 193.2, 111.77 194.93, 0 195.67 M215.22 195.67 C163.63 193.38, 112.06 193.43, 0 195.67 M0 195.67 C3.23 148.19, 0.94 102.67, 0 0 M0 195.67 C-0.87 149.56, -1.54 104.7, 0 0" stroke="#1e1e1e" stroke-width="2" fill="none"></path></g><g transform="translate(157.74044556087904 216.23611111110858) rotate(0 37.45454406738281 19.199999999999818)"><text x="37.45454406738281" y="15.45" font-family="Cascadia, Segoe UI Emoji" font-size="16px" fill="#1e1e1e" text-anchor="middle" style="white-space: pre;" direction="ltr" dominant-baseline="alphabetic">window 1</text><text x="37.45454406738281" y="34.65" font-family="Cascadia, Segoe UI Emoji" font-size="16px" fill="#1e1e1e" text-anchor="middle" style="white-space: pre;" direction="ltr" dominant-baseline="alphabetic">Node C</text></g><g transform="translate(78.0124499457221 55.745634920634075) rotate(0 28.090909957885742 9.599999999999909)"><text x="0" y="15.45" font-family="Cascadia, Segoe UI Emoji" font-size="16px" fill="#b2f2bb" text-anchor="start" style="white-space: pre;" direction="ltr" dominant-baseline="alphabetic">Node A</text></g><g stroke-linecap="round" transform="translate(311.6880451838175 138.3027777777761) rotate(0 107.61111111111109 97.83333333333303)"><path d="M0.02 -0.69 L216.45 -0.38 L214.89 197.32 L-0.09 197.09" stroke="none" stroke-width="0" fill="#ffec99"></path><path d="M0 0 C46.79 2.21, 96.22 1.77, 215.22 0 M0 0 C49.67 -1.31, 98.21 -1.24, 215.22 0 M215.22 0 C215.16 68.86, 218.54 134.86, 215.22 195.67 M215.22 0 C213.53 42.75, 213.2 87.08, 215.22 195.67 M215.22 195.67 C146.12 193.92, 79.32 193.19, 0 195.67 M215.22 195.67 C162.72 194.73, 108.41 193.73, 0 195.67 M0 195.67 C1.87 125.86, -0.23 55.29, 0 0 M0 195.67 C1.24 144.19, 1.21 91.65, 0 0" stroke="#1e1e1e" stroke-width="2" fill="none"></path></g><g stroke-linecap="round" transform="translate(320.96582296159534 145.35833333333085) rotate(0 98.33333333333337 43.33333333333303)"><path d="M1.23 -0.38 L196.34 1.66 L196.58 88.09 L-1.82 86.59" stroke="none" stroke-width="0" fill="#fa5252"></path><path d="M0 0 C44.68 -0.49, 87.87 0.76, 196.67 0 M0 0 C64.6 0.94, 129.51 2.49, 196.67 0 M196.67 0 C197.88 28.21, 194.47 57.4, 196.67 86.67 M196.67 0 C195.37 27.87, 196.35 55.3, 196.67 86.67 M196.67 86.67 C146.81 84.11, 98.22 84.61, 0 86.67 M196.67 86.67 C154.31 87.83, 112.94 87.51, 0 86.67 M0 86.67 C-1.8 56.18, -0.89 27.84, 0 0 M0 86.67 C-0.08 66.6, 0.36 45.33, 0 0" stroke="#343a40" stroke-width="2" fill="none"></path></g><g transform="translate(381.8446122275459 169.49166666666406) rotate(0 37.45454406738281 19.199999999999818)"><text x="37.45454406738281" y="15.45" font-family="Cascadia, Segoe UI Emoji" font-size="16px" fill="#343a40" text-anchor="middle" style="white-space: pre;" direction="ltr" dominant-baseline="alphabetic">window 2</text><text x="37.45454406738281" y="34.65" font-family="Cascadia, Segoe UI Emoji" font-size="16px" fill="#343a40" text-anchor="middle" style="white-space: pre;" direction="ltr" dominant-baseline="alphabetic">Node K</text></g><g stroke-linecap="round" transform="translate(320.63248962826185 239.58055555555347) rotate(0 98.33333333333337 43.33333333333303)"><path d="M-0.09 1.42 L194.85 -0.07 L197.15 84.83 L-1.41 84.7" stroke="none" stroke-width="0" fill="#d0bfff"></path><path d="M0 0 C64.06 -0.31, 125.22 -1.51, 196.67 0 M0 0 C43.42 -2.21, 86.53 -0.52, 196.67 0 M196.67 0 C196.45 20.23, 194.34 40.83, 196.67 86.67 M196.67 0 C196.26 24.28, 196.34 49.89, 196.67 86.67 M196.67 86.67 C152.67 87.34, 113.66 85.05, 0 86.67 M196.67 86.67 C145.17 85.59, 92.8 84.54, 0 86.67 M0 86.67 C-0.98 68.14, 1.78 50.37, 0 0 M0 86.67 C0.6 56.82, -0.18 28.19, 0 0" stroke="#1e1e1e" stroke-width="2" fill="none"></path></g><g stroke-linecap="round"><g transform="translate(301.96582296159534 115.58055555555347) rotate(0 0 -18.888888888888687)"><path d="M0 0 C0 -14.55, 0 -29.1, 0 -37.78 M0 0 C0 -14.12, 0 -28.25, 0 -37.78" stroke="#a5d8ff" stroke-width="2" fill="none"></path></g><g transform="translate(301.96582296159534 115.58055555555347) rotate(0 0 -18.888888888888687)"><path d="M6.46 -20.03 C3.97 -26.86, 1.48 -33.7, 0 -37.78 M6.46 -20.03 C4.05 -26.66, 1.63 -33.3, 0 -37.78" stroke="#a5d8ff" stroke-width="2" fill="none"></path></g><g transform="translate(301.96582296159534 115.58055555555347) rotate(0 0 -18.888888888888687)"><path d="M-6.46 -20.03 C-3.97 -26.86, -1.48 -33.7, 0 -37.78 M-6.46 -20.03 C-4.05 -26.66, -1.63 -33.3, 0 -37.78" stroke="#a5d8ff" stroke-width="2" fill="none"></path></g></g><mask></mask><g stroke-linecap="round"><g transform="translate(217.9513568448611 129.24722222222135) rotate(0 -37.953240115166615 -29.506837224503215)"><path d="M0 0 C-27.94 -21.72, -55.88 -43.44, -75.91 -59.01 M0 0 C-17.05 -13.26, -34.1 -26.52, -75.91 -59.01" stroke="#b2f2bb" stroke-width="1" fill="none"></path></g><g transform="translate(217.9513568448611 129.24722222222135) rotate(0 -37.953240115166615 -29.506837224503215)"><path d="M-52.11 -51.34 C-60.87 -54.17, -69.63 -56.99, -75.91 -59.01 M-52.11 -51.34 C-57.46 -53.07, -62.8 -54.79, -75.91 -59.01" stroke="#b2f2bb" stroke-width="1" fill="none"></path></g><g transform="translate(217.9513568448611 129.24722222222135) rotate(0 -37.953240115166615 -29.506837224503215)"><path d="M-62.61 -37.84 C-67.5 -45.64, -72.4 -53.43, -75.91 -59.01 M-62.61 -37.84 C-65.6 -42.6, -68.58 -47.36, -75.91 -59.01" stroke="#b2f2bb" stroke-width="1" fill="none"></path></g></g><mask></mask><g transform="translate(476.24360073937316 40.64722222222281) rotate(0 28.090909957885742 9.599999999999909)"><text x="0" y="15.45" font-family="Cascadia, Segoe UI Emoji" font-size="16px" fill="#ffec99" text-anchor="start" style="white-space: pre;" direction="ltr" dominant-baseline="alphabetic">Node B</text></g><g stroke-linecap="round"><g transform="translate(440.3158463541072 136.91388888888923) rotate(0 19.574996421061428 -31.881751856221854)"><path d="M0 0 C13.6 -22.15, 27.2 -44.31, 39.15 -63.76 M0 0 C8.72 -14.2, 17.44 -28.41, 39.15 -63.76" stroke="#ffec99" stroke-width="1" fill="none"></path></g><g transform="translate(440.3158463541072 136.91388888888923) rotate(0 19.574996421061428 -31.881751856221854)"><path d="M34.14 -39.27 C35.88 -47.78, 37.62 -56.29, 39.15 -63.76 M34.14 -39.27 C35.26 -44.73, 36.37 -50.18, 39.15 -63.76" stroke="#ffec99" stroke-width="1" fill="none"></path></g><g transform="translate(440.3158463541072 136.91388888888923) rotate(0 19.574996421061428 -31.881751856221854)"><path d="M19.57 -48.22 C26.37 -53.62, 33.18 -59.02, 39.15 -63.76 M19.57 -48.22 C23.93 -51.68, 28.29 -55.14, 39.15 -63.76" stroke="#ffec99" stroke-width="1" fill="none"></path></g></g><mask></mask><g stroke-linecap="round" transform="translate(328.3706674575807 247.65833333333012) rotate(0 44.5 34.5)"><path d="M0 0 C31.96 -1.49, 58.64 -1.59, 89 0 M0 0 C27.86 0.65, 57.56 0.12, 89 0 M89 0 C87.2 15.39, 87.3 32.98, 89 69 M89 0 C89.42 14.42, 90.18 28.88, 89 69 M89 69 C58.09 66.83, 29.65 67.07, 0 69 M89 69 C67.52 70.08, 46.92 69.32, 0 69 M0 69 C1.79 43.98, 1.55 17.33, 0 0 M0 69 C-0.87 47.58, -0.07 28.76, 0 0" stroke="#1e1e1e" stroke-width="2" fill="none"></path></g><g transform="translate(335.41612339019787 262.9583333333312) rotate(0 37.45454406738281 19.199999999999818)"><text x="37.45454406738281" y="15.45" font-family="Cascadia, Segoe UI Emoji" font-size="16px" fill="#1e1e1e" text-anchor="middle" style="white-space: pre;" direction="ltr" dominant-baseline="alphabetic">Node X</text><text x="37.45454406738281" y="34.65" font-family="Cascadia, Segoe UI Emoji" font-size="16px" fill="#1e1e1e" text-anchor="middle" style="white-space: pre;" direction="ltr" dominant-baseline="alphabetic">window 3</text></g><g stroke-linecap="round" transform="translate(422.8706674575807 247.15833333333012) rotate(0 44.5 34.5)"><path d="M0 0 C22.29 -0.5, 42.01 -1.17, 89 0 M0 0 C25.39 -0.4, 51.38 -0.02, 89 0 M89 0 C86.92 16.68, 90.2 29.23, 89 69 M89 0 C89.67 18.43, 89.09 35.56, 89 69 M89 69 C69.54 67.45, 54.1 67.39, 0 69 M89 69 C59.16 68.5, 27.93 69.52, 0 69 M0 69 C-0.56 49.09, -2.33 26.81, 0 0 M0 69 C0.38 54.3, -0.93 41.04, 0 0" stroke="#1e1e1e" stroke-width="2" fill="none"></path></g><g transform="translate(429.91612339019787 262.4583333333312) rotate(0 37.45454406738281 19.199999999999818)"><text x="37.45454406738281" y="15.45" font-family="Cascadia, Segoe UI Emoji" font-size="16px" fill="#1e1e1e" text-anchor="middle" style="white-space: pre;" direction="ltr" dominant-baseline="alphabetic">Node Z</text><text x="37.45454406738281" y="34.65" font-family="Cascadia, Segoe UI Emoji" font-size="16px" fill="#1e1e1e" text-anchor="middle" style="white-space: pre;" direction="ltr" dominant-baseline="alphabetic">window 4</text></g><g stroke-linecap="round"><g transform="translate(514.3706674575807 244.65833333333012) rotate(0 26.5 -70)"><path d="M0 0 C13.15 -34.74, 26.31 -69.49, 53 -140 M0 0 C10.88 -28.73, 21.76 -57.47, 53 -140" stroke="#d0bfff" stroke-width="1" fill="none"></path></g><g transform="translate(514.3706674575807 244.65833333333012) rotate(0 26.5 -70)"><path d="M52.68 -115 C52.76 -121.21, 52.84 -127.41, 53 -140 M52.68 -115 C52.75 -120.13, 52.81 -125.26, 53 -140" stroke="#d0bfff" stroke-width="1" fill="none"></path></g><g transform="translate(514.3706674575807 244.65833333333012) rotate(0 26.5 -70)"><path d="M36.69 -121.06 C40.73 -125.76, 44.78 -130.46, 53 -140 M36.69 -121.06 C40.03 -124.94, 43.38 -128.83, 53 -140" stroke="#d0bfff" stroke-width="1" fill="none"></path></g></g><mask></mask><g transform="translate(539.2797574996949 75.65833333333012) rotate(0 28.090909957885742 9.599999999999909)"><text x="28.090909957885742" y="15.45" font-family="Cascadia, Segoe UI Emoji" font-size="16px" fill="#d0bfff" text-anchor="middle" style="white-space: pre;" direction="ltr" dominant-baseline="alphabetic">Node E</text></g><g transform="translate(163.26822238498244 410.3472222222217) rotate(0 46.69091033935547 12)"><text x="0" y="19.3125" font-family="Cascadia, Segoe UI Emoji" font-size="20px" fill="#a5d8ff" text-anchor="start" style="white-space: pre;" direction="ltr" dominant-baseline="alphabetic">BSP-tree</text></g><g stroke-linecap="round" transform="translate(148.26822238498244 511.3472222222217) rotate(0 65.99999999999999 34)"><path d="M17 0 C44.06 3.95, 75.71 3.43, 115 0 M17 0 C49.73 0.49, 87.75 -0.58, 115 0 M115 0 C126.44 1.16, 132.06 4.33, 132 17 M115 0 C130.61 1.45, 136.08 6.76, 132 17 M132 17 C133.3 28.08, 131.69 38.8, 132 51 M132 17 C131.34 30.22, 133.43 43.05, 132 51 M132 51 C129.68 60.49, 126.5 64.66, 115 68 M132 51 C130.39 58.8, 125.54 68.3, 115 68 M115 68 C85.1 68.2, 63.09 63.28, 17 68 M115 68 C85.29 70.13, 57.04 69.32, 17 68 M17 68 C6.75 67.69, -2.01 64.86, 0 51 M17 68 C7.83 65.76, -0.22 57.78, 0 51 M0 51 C1.72 40.42, -3.24 27.54, 0 17 M0 51 C-0.17 43.86, -1.8 34.64, 0 17 M0 17 C0.67 4.92, 2.32 -1.33, 17 0 M0 17 C-3.38 8.39, 1.71 -0.37, 17 0" stroke="#b2f2bb" stroke-width="2" fill="none"></path></g><g transform="translate(167.45004230075392 526.147222222221) rotate(0 46.81818008422852 19.199999999999818)"><text x="46.818180084228516" y="15.45" font-family="Cascadia, Segoe UI Emoji" font-size="16px" fill="#b2f2bb" text-anchor="middle" style="white-space: pre;" direction="ltr" dominant-baseline="alphabetic">ROOT_NODE </text><text x="46.818180084228516" y="34.65" font-family="Cascadia, Segoe UI Emoji" font-size="16px" fill="#b2f2bb" text-anchor="middle" style="white-space: pre;" direction="ltr" dominant-baseline="alphabetic">Node A </text></g><g stroke-linecap="round"><g transform="translate(205.94108407498265 499.3472222222217) rotate(0 -0.940893774012352 -26.5)"><path d="M2.22 1.45 C1.16 -7.23, -2.65 -43.24, -3.74 -52.05 M-0.02 -0.23 C-0.41 -9.79, 1.46 -47.24, 1.66 -56.54" stroke="#a5d8ff" stroke-width="2" fill="none"></path></g><g transform="translate(205.94108407498265 499.3472222222217) rotate(0 -0.940893774012352 -26.5)"><path d="M10.39 -34.08 C7.01 -43.77, 4.47 -49.56, 1.74 -56.48 M10.28 -32.44 C7.7 -40.37, 4.81 -48.13, 2.12 -56.27" stroke="#a5d8ff" stroke-width="2" fill="none"></path></g><g transform="translate(205.94108407498265 499.3472222222217) rotate(0 -0.940893774012352 -26.5)"><path d="M-6.7 -34.7 C-3.38 -44.28, 0.78 -49.83, 1.74 -56.48 M-6.81 -33.06 C-3.76 -40.73, -1.03 -48.29, 2.12 -56.27" stroke="#a5d8ff" stroke-width="2" fill="none"></path></g></g><mask></mask><g stroke-linecap="round" transform="translate(29.768222384982494 637.8472222222217) rotate(0 75.7222222222223 34)"><path d="M17 0 C62.21 -0.97, 107.22 2.57, 134.44 0 M17 0 C52.73 -0.68, 89.37 -0.02, 134.44 0 M134.44 0 C147.55 0.48, 152.49 6.27, 151.44 17 M134.44 0 C146.84 0.63, 150.92 5.37, 151.44 17 M151.44 17 C150.99 24.08, 152.11 34.53, 151.44 51 M151.44 17 C151.29 27.09, 150.9 38.08, 151.44 51 M151.44 51 C151.1 62.46, 145.44 68.42, 134.44 68 M151.44 51 C149.27 61.1, 146.96 70.06, 134.44 68 M134.44 68 C108.01 66.66, 82.58 66.77, 17 68 M134.44 68 C93.11 68.54, 53.25 67.42, 17 68 M17 68 C5.57 66.02, 1.08 62.58, 0 51 M17 68 C5.95 69.04, 0.84 60.52, 0 51 M0 51 C0.67 40.17, 0.85 27.82, 0 17 M0 51 C-0.89 41.95, -0.79 34.16, 0 17 M0 17 C-1.72 5.51, 6.54 1.8, 17 0 M0 17 C0.61 4.98, 7.16 -1.2, 17 0" stroke="#a4d6fd" stroke-width="2" fill="none"></path></g><g transform="translate(39.944988674587606 643.0472222222224) rotate(0 65.54545593261719 28.800000000000182)"><text x="65.54545593261719" y="15.45" font-family="Cascadia, Segoe UI Emoji" font-size="16px" fill="#a4d6fd" text-anchor="middle" style="white-space: pre;" direction="ltr" dominant-baseline="alphabetic">EXTERNAL_NODE </text><text x="65.54545593261719" y="34.65" font-family="Cascadia, Segoe UI Emoji" font-size="16px" fill="#a4d6fd" text-anchor="middle" style="white-space: pre;" direction="ltr" dominant-baseline="alphabetic">Node C</text><text x="65.54545593261719" y="53.849999999999994" font-family="Cascadia, Segoe UI Emoji" font-size="16px" fill="#a4d6fd" text-anchor="middle" style="white-space: pre;" direction="ltr" dominant-baseline="alphabetic">window 1</text></g><g stroke-linecap="round"><g transform="translate(139.41318436503366 580.1924479620529) rotate(0 -11.359632656007193 21.57738713008439)"><path d="M0.08 0.06 C-4 9.41, -10.08 20.4, -22.09 44.93 M0.46 0.27 C-7.36 13.91, -15.03 28.79, -21.82 42.8" stroke="#a5d8ff" stroke-width="1" fill="none"></path></g><g transform="translate(139.41318436503366 580.1924479620529) rotate(0 -11.359632656007193 21.57738713008439)"><path d="M-19.05 18.62 C-18.98 23.77, -20.8 30.74, -21.18 44.57 M-18.67 18.84 C-20.1 26.29, -21.28 35.03, -20.91 42.44" stroke="#a5d8ff" stroke-width="1" fill="none"></path></g><g transform="translate(139.41318436503366 580.1924479620529) rotate(0 -11.359632656007193 21.57738713008439)"><path d="M-4.1 26.01 C-7.25 29.73, -12.25 35.13, -21.18 44.57 M-3.72 26.23 C-10.03 31.34, -16.05 37.69, -20.91 42.44" stroke="#a5d8ff" stroke-width="1" fill="none"></path></g></g><mask></mask><g stroke-linecap="round"><g transform="translate(289.9478999238863 584.572530131124) rotate(0 10.866245430672734 20.88734604554884)"><path d="M0.58 0.03 C7.81 18.12, 17.58 34.31, 22.21 42.82 M-0.23 -0.13 C6.82 14.49, 15.44 27.15, 21.09 41.98" stroke="#a5d8ff" stroke-width="1" fill="none"></path></g><g transform="translate(289.9478999238863 584.572530131124) rotate(0 10.866245430672734 20.88734604554884)"><path d="M5.28 25.11 C10.42 33.51, 18.11 40.01, 21.57 43.02 M4.47 24.95 C9.64 31.38, 16.5 35.83, 20.45 42.18" stroke="#a5d8ff" stroke-width="1" fill="none"></path></g><g transform="translate(289.9478999238863 584.572530131124) rotate(0 10.866245430672734 20.88734604554884)"><path d="M19.98 18.52 C19.4 29.5, 21.36 38.56, 21.57 43.02 M19.17 18.36 C19.52 27.01, 21.53 33.63, 20.45 42.18" stroke="#a5d8ff" stroke-width="1" fill="none"></path></g></g><mask></mask><g stroke-linecap="round" transform="translate(263.30988905164895 639.0509236653643) rotate(0 75.72222222222229 34)"><path d="M17 0 C51.22 3.68, 89.38 3.51, 134.44 0 M17 0 C55.96 -0.16, 92.61 -0.96, 134.44 0 M134.44 0 C143.61 3.07, 155.06 4.24, 151.44 17 M134.44 0 C142.84 0.93, 153.32 6.65, 151.44 17 M151.44 17 C147.79 23.82, 148.06 32.76, 151.44 51 M151.44 17 C149.44 26.34, 152.35 39.63, 151.44 51 M151.44 51 C148.58 61.91, 145.79 68.75, 134.44 68 M151.44 51 C148.34 66.38, 142.95 70.19, 134.44 68 M134.44 68 C98.56 68.7, 55.67 66.63, 17 68 M134.44 68 C111.09 69.19, 87.96 66.71, 17 68 M17 68 C6.28 65.11, 0.35 63.19, 0 51 M17 68 C5.41 69.38, -4.01 60.33, 0 51 M0 51 C-1.2 37.29, 2.49 26.01, 0 17 M0 51 C0.23 40.48, 1.01 30.1, 0 17 M0 17 C-3.93 3.17, 4.24 2.27, 17 0 M0 17 C0.64 2.41, 9.86 4.03, 17 0" stroke="#ffec99" stroke-width="2" fill="none"></path></g><g transform="translate(273.48665534125405 653.8509236653636) rotate(0 65.54545593261719 19.199999999999818)"><text x="65.54545593261719" y="15.45" font-family="Cascadia, Segoe UI Emoji" font-size="16px" fill="#ffec99" text-anchor="middle" style="white-space: pre;" direction="ltr" dominant-baseline="alphabetic">INTERNAL_NODE </text><text x="65.54545593261719" y="34.65" font-family="Cascadia, Segoe UI Emoji" font-size="16px" fill="#ffec99" text-anchor="middle" style="white-space: pre;" direction="ltr" dominant-baseline="alphabetic">Node B</text></g><g stroke-linecap="round"><g transform="translate(261.96504452494537 718.5303358764913) rotate(0 -15.787510093963647 22.64429918744554)"><path d="M0.48 1.05 C-11.66 19, -24.12 35.42, -31.83 44.2 M-0.64 0.2 C-11.08 17.17, -23.97 33.56, -31.53 44.45" stroke="#a5d8ff" stroke-width="1" fill="none"></path></g><g transform="translate(261.96504452494537 718.5303358764913) rotate(0 -15.787510093963647 22.64429918744554)"><path d="M-24.26 21.44 C-26.73 30.83, -29.46 38.91, -31.79 43.37 M-25.38 20.6 C-26.68 29.65, -30.22 38.04, -31.49 43.62" stroke="#a5d8ff" stroke-width="1" fill="none"></path></g><g transform="translate(261.96504452494537 718.5303358764913) rotate(0 -15.787510093963647 22.64429918744554)"><path d="M-10.39 31.44 C-18.34 37.02, -26.51 41.17, -31.79 43.37 M-11.5 30.59 C-18.12 35.83, -26.9 40.45, -31.49 43.62" stroke="#a5d8ff" stroke-width="1" fill="none"></path></g></g><mask></mask><g stroke-linecap="round"><g transform="translate(523.688087099614 861.8310657486154) rotate(0 18.684301952035412 23.716156473605224)"><path d="M0.6 0.92 C15.19 17.79, 28.9 35.59, 38.91 49.24 M0.41 0.21 C8.99 12, 19.49 24.16, 37.02 46.66" stroke="#a5d8ff" stroke-width="1" fill="none"></path></g><g transform="translate(523.688087099614 861.8310657486154) rotate(0 18.684301952035412 23.716156473605224)"><path d="M16.34 34.46 C24.59 38.07, 32.05 42.55, 38.55 48.47 M16.15 33.75 C20.7 36.5, 26.94 39.6, 36.67 45.89" stroke="#a5d8ff" stroke-width="1" fill="none"></path></g><g transform="translate(523.688087099614 861.8310657486154) rotate(0 18.684301952035412 23.716156473605224)"><path d="M29.76 23.85 C32.82 31.66, 35.07 40.25, 38.55 48.47 M29.56 23.14 C30.5 28.73, 33.2 34.62, 36.67 45.89" stroke="#a5d8ff" stroke-width="1" fill="none"></path></g></g><mask></mask><g stroke-linecap="round" transform="translate(377.5425279405383 782.8361111111108) rotate(0 75.72222222222229 34)"><path d="M17 0 C59.48 -1.99, 99.26 -3.25, 134.44 0 M17 0 C59.98 1.24, 106.33 1.27, 134.44 0 M134.44 0 C143.46 -1.84, 151.61 2.33, 151.44 17 M134.44 0 C144.16 -3.54, 150.65 5.96, 151.44 17 M151.44 17 C149.44 28.67, 155.17 33.38, 151.44 51 M151.44 17 C150.1 28.6, 150.22 37.63, 151.44 51 M151.44 51 C152.53 62.03, 143.77 70.53, 134.44 68 M151.44 51 C153.61 60.1, 145.56 63.45, 134.44 68 M134.44 68 C94.67 69.75, 48.13 68.9, 17 68 M134.44 68 C107.58 69.1, 79.21 67.63, 17 68 M17 68 C6.34 67.25, -3.34 61, 0 51 M17 68 C2.29 70.72, -3.96 61.97, 0 51 M0 51 C-1.8 41.92, -2.69 23.7, 0 17 M0 51 C0.52 41.5, 2.07 36.59, 0 17 M0 17 C-1.45 8.78, 8.56 2.42, 17 0 M0 17 C-1 1.77, 1.56 2.01, 17 0" stroke="#d0bfff" stroke-width="2" fill="none"></path></g><g transform="translate(387.7192942301434 797.63611111111) rotate(0 65.54545593261719 19.199999999999818)"><text x="65.54545593261719" y="15.45" font-family="Cascadia, Segoe UI Emoji" font-size="16px" fill="#d0bfff" text-anchor="middle" style="white-space: pre;" direction="ltr" dominant-baseline="alphabetic">INTERNAL_NODE </text><text x="65.54545593261719" y="34.65" font-family="Cascadia, Segoe UI Emoji" font-size="16px" fill="#d0bfff" text-anchor="middle" style="white-space: pre;" direction="ltr" dominant-baseline="alphabetic">Node E</text></g><g stroke-linecap="round" transform="translate(157.54252794053832 780.8361111111108) rotate(0 75.7222222222223 34)"><path d="M17 0 C52.65 4.89, 80.72 -1.28, 134.44 0 M17 0 C53.44 -1.42, 92.29 -2.17, 134.44 0 M134.44 0 C144.37 -3.08, 150.75 5.92, 151.44 17 M134.44 0 C145 0.97, 147.11 3.19, 151.44 17 M151.44 17 C151.63 28.96, 152.81 38.18, 151.44 51 M151.44 17 C151.57 30.04, 150.02 44.65, 151.44 51 M151.44 51 C153.33 60.39, 145.59 64.04, 134.44 68 M151.44 51 C153.93 62.9, 146.35 70.07, 134.44 68 M134.44 68 C92.05 68.71, 56.29 68.13, 17 68 M134.44 68 C96.02 66.6, 55.25 66.31, 17 68 M17 68 C2.73 70.36, -3.44 62.02, 0 51 M17 68 C7.68 72.13, 1.22 60.96, 0 51 M0 51 C-2.14 37.16, 2.62 26.72, 0 17 M0 51 C-1.35 44.77, 0.82 36.63, 0 17 M0 17 C-0.87 2.28, 2.09 1.75, 17 0 M0 17 C0.55 8.98, 9.63 2.49, 17 0" stroke="#ff8787" stroke-width="2" fill="none"></path></g><g transform="translate(167.71929423014342 786.0361111111115) rotate(0 65.54545593261719 28.800000000000182)"><text x="65.54545593261719" y="15.45" font-family="Cascadia, Segoe UI Emoji" font-size="16px" fill="#ff8787" text-anchor="middle" style="white-space: pre;" direction="ltr" dominant-baseline="alphabetic">EXTERNAL_NODE </text><text x="65.54545593261719" y="34.65" font-family="Cascadia, Segoe UI Emoji" font-size="16px" fill="#ff8787" text-anchor="middle" style="white-space: pre;" direction="ltr" dominant-baseline="alphabetic">Node K</text><text x="65.54545593261719" y="53.849999999999994" font-family="Cascadia, Segoe UI Emoji" font-size="16px" fill="#ff8787" text-anchor="middle" style="white-space: pre;" direction="ltr" dominant-baseline="alphabetic">window 2</text></g><g stroke-linecap="round"><g transform="translate(277.55835709782946 623.4812454190205) rotate(0 -7.5 -18.5)"><path d="M0.4 0.81 C-5.3 -15.7, -12.5 -28.9, -16.67 -37.7 M-0.17 0.21 C-4.23 -8.78, -6.12 -15.6, -15.72 -37.11" stroke="#a5d8ff" stroke-width="1" fill="none"></path></g><g transform="translate(277.55835709782946 623.4812454190205) rotate(0 -7.5 -18.5)"><path d="M-1.62 -21.77 C-6.89 -29.5, -13.58 -33.93, -17.38 -37.81 M-2.19 -22.37 C-6 -26.35, -7.6 -28.16, -16.43 -37.21" stroke="#a5d8ff" stroke-width="1" fill="none"></path></g><g transform="translate(277.55835709782946 623.4812454190205) rotate(0 -7.5 -18.5)"><path d="M-14.16 -16.36 C-14.52 -26.12, -16.31 -32.66, -17.38 -37.81 M-14.73 -16.97 C-15.73 -22.16, -14.53 -25.17, -16.43 -37.21" stroke="#a5d8ff" stroke-width="1" fill="none"></path></g></g><mask></mask><g stroke-linecap="round"><g transform="translate(143.6419585823703 625.1701641962964) rotate(0 9 -17)"><path d="M0.43 -1.16 C3.26 -8.02, 6.76 -16.83, 16.46 -34.35 M-0.94 -0.54 C6.09 -9.56, 10.37 -20.98, 18 -33.81" stroke="#a5d8ff" stroke-width="1" fill="none"></path></g><g transform="translate(143.6419585823703 625.1701641962964) rotate(0 9 -17)"><path d="M15.46 -15.92 C14.83 -19.23, 14.8 -24.47, 16.52 -34.14 M14.15 -15.32 C16.48 -19.77, 16.2 -26.56, 18.01 -33.63" stroke="#a5d8ff" stroke-width="1" fill="none"></path></g><g transform="translate(143.6419585823703 625.1701641962964) rotate(0 9 -17)"><path d="M3.94 -22.26 C6.03 -24.12, 8.73 -27.86, 16.52 -34.14 M2.62 -21.66 C8.48 -24.2, 11.73 -29.04, 18.01 -33.63" stroke="#a5d8ff" stroke-width="1" fill="none"></path></g></g><mask></mask><g stroke-linecap="round"><g transform="translate(261.6419585823703 763.1701641962964) rotate(0 9 -17)"><path d="M-0.92 0.08 C4.39 -12.18, 10.65 -23.41, 18.13 -34.34 M0.51 0.89 C5.38 -10.92, 11.88 -21.54, 17.33 -33.12" stroke="#a5d8ff" stroke-width="1" fill="none"></path></g><g transform="translate(261.6419585823703 763.1701641962964) rotate(0 9 -17)"><path d="M14.24 -13.93 C14.23 -21.18, 15.1 -27.35, 17.45 -33.45 M15.61 -13.15 C15.32 -20.24, 16.72 -26.09, 16.68 -32.27" stroke="#a5d8ff" stroke-width="1" fill="none"></path></g><g transform="translate(261.6419585823703 763.1701641962964) rotate(0 9 -17)"><path d="M2.47 -19.82 C6.48 -25, 11.37 -29.16, 17.45 -33.45 M3.85 -19.04 C7.27 -24.17, 12.45 -28.13, 16.68 -32.27" stroke="#a5d8ff" stroke-width="1" fill="none"></path></g></g><mask></mask><g stroke-linecap="round"><g transform="translate(402.130863585199 761.5910698082398) rotate(0 -7.5 -18.5)"><path d="M-1.67 -0.7 C-5 -9.29, -6.96 -18.24, -14.58 -38.89 M-0.72 -0.11 C-3.88 -8.79, -8.25 -17.21, -15.62 -36.52" stroke="#a5d8ff" stroke-width="1" fill="none"></path></g><g transform="translate(402.130863585199 761.5910698082398) rotate(0 -7.5 -18.5)"><path d="M-4 -22.32 C-7.01 -25.56, -8.56 -29.16, -15.2 -38.41 M-3.05 -21.72 C-5.68 -24.98, -9.62 -27.96, -16.23 -36.05" stroke="#a5d8ff" stroke-width="1" fill="none"></path></g><g transform="translate(402.130863585199 761.5910698082398) rotate(0 -7.5 -18.5)"><path d="M-16.69 -17.27 C-16.61 -21.74, -15.09 -26.56, -15.2 -38.41 M-15.74 -16.68 C-15.27 -21.29, -16.09 -25.51, -16.23 -36.05" stroke="#a5d8ff" stroke-width="1" fill="none"></path></g></g><mask></mask><g stroke-linecap="round" transform="translate(282.8327891031902 921.4027777777765) rotate(0 75.72222222222229 34)"><path d="M17 0 C49.63 0.13, 88.68 0.15, 134.44 0 M17 0 C55.72 3.05, 90.97 1.05, 134.44 0 M134.44 0 C145.79 0.75, 148.75 9.19, 151.44 17 M134.44 0 C142.95 2.19, 152.69 5.32, 151.44 17 M151.44 17 C149.93 25.3, 147.91 36.15, 151.44 51 M151.44 17 C152.26 26.04, 151.83 36.79, 151.44 51 M151.44 51 C151.8 63.19, 145.55 69.2, 134.44 68 M151.44 51 C147.44 60.33, 146.55 67.14, 134.44 68 M134.44 68 C111.39 62.83, 83.29 68.02, 17 68 M134.44 68 C89.97 66.26, 40.92 66.05, 17 68 M17 68 C4.24 70.27, 0.55 59.5, 0 51 M17 68 C9.86 72.03, -1.67 65.91, 0 51 M0 51 C-3.8 34.77, 1.34 26.17, 0 17 M0 51 C0.31 37.88, 0.51 24.85, 0 17 M0 17 C-0.64 3.85, 3.64 -1.35, 17 0 M0 17 C-1.7 2.6, 9.32 -2.59, 17 0" stroke="#a5d8ff" stroke-width="2" fill="none"></path></g><g transform="translate(293.0095553927953 926.6027777777772) rotate(0 65.54545593261719 28.800000000000182)"><text x="65.54545593261719" y="15.45" font-family="Cascadia, Segoe UI Emoji" font-size="16px" fill="#a5d8ff" text-anchor="middle" style="white-space: pre;" direction="ltr" dominant-baseline="alphabetic">EXTERNAL_NODE </text><text x="65.54545593261719" y="34.65" font-family="Cascadia, Segoe UI Emoji" font-size="16px" fill="#a5d8ff" text-anchor="middle" style="white-space: pre;" direction="ltr" dominant-baseline="alphabetic">Node X</text><text x="65.54545593261719" y="53.849999999999994" font-family="Cascadia, Segoe UI Emoji" font-size="16px" fill="#a5d8ff" text-anchor="middle" style="white-space: pre;" direction="ltr" dominant-baseline="alphabetic">window 3</text></g><g stroke-linecap="round" transform="translate(475.8327891031902 922.4027777777765) rotate(0 75.72222222222229 34)"><path d="M17 0 C51.05 -3.38, 81.26 2.44, 134.44 0 M17 0 C62.75 0.63, 107.14 2.01, 134.44 0 M134.44 0 C143.32 1.91, 152.53 5.36, 151.44 17 M134.44 0 C143.47 2.91, 153.61 3.43, 151.44 17 M151.44 17 C151.27 27.54, 152.57 38.53, 151.44 51 M151.44 17 C151.73 24.94, 151.43 32.63, 151.44 51 M151.44 51 C147.96 60.59, 146.45 67.25, 134.44 68 M151.44 51 C147.6 60.8, 142.4 70.72, 134.44 68 M134.44 68 C112.91 70.09, 83.01 71.63, 17 68 M134.44 68 C104.6 67.67, 76.46 65.12, 17 68 M17 68 C9.31 71.51, -1.45 65.44, 0 51 M17 68 C8.99 70.78, -1 58.44, 0 51 M0 51 C2.58 47.28, 1.87 38.47, 0 17 M0 51 C-0.69 40.71, -1.39 31.55, 0 17 M0 17 C-1.48 3, 8.84 -2.25, 17 0 M0 17 C1.93 2.71, 7.07 -4.6, 17 0" stroke="#a5d8ff" stroke-width="2" fill="none"></path></g><g transform="translate(486.0095553927953 927.6027777777772) rotate(0 65.54545593261719 28.800000000000182)"><text x="65.54545593261719" y="15.45" font-family="Cascadia, Segoe UI Emoji" font-size="16px" fill="#a5d8ff" text-anchor="middle" style="white-space: pre;" direction="ltr" dominant-baseline="alphabetic">EXTERNAL_NODE </text><text x="65.54545593261719" y="34.65" font-family="Cascadia, Segoe UI Emoji" font-size="16px" fill="#a5d8ff" text-anchor="middle" style="white-space: pre;" direction="ltr" dominant-baseline="alphabetic">Node Z</text><text x="65.54545593261719" y="53.849999999999994" font-family="Cascadia, Segoe UI Emoji" font-size="16px" fill="#a5d8ff" text-anchor="middle" style="white-space: pre;" direction="ltr" dominant-baseline="alphabetic">window 4</text></g><g stroke-linecap="round"><g transform="translate(385.24048365781914 904.6445463758673) rotate(0 9 -17)"><path d="M1.79 -1.43 C3.67 -7.08, 7.96 -15.43, 19.76 -35.23 M-0.5 0.63 C6.64 -12.29, 12.38 -24.62, 18.54 -33.88" stroke="#a5d8ff" stroke-width="1" fill="none"></path></g><g transform="translate(385.24048365781914 904.6445463758673) rotate(0 9 -17)"><path d="M16.56 -16.38 C15.5 -18.89, 16.83 -24.08, 20.23 -35.06 M14.36 -14.39 C16.53 -22.03, 17.32 -29.08, 19.06 -33.76" stroke="#a5d8ff" stroke-width="1" fill="none"></path></g><g transform="translate(385.24048365781914 904.6445463758673) rotate(0 9 -17)"><path d="M5.3 -23.17 C6.51 -24.35, 10.16 -28.14, 20.23 -35.06 M3.09 -21.18 C9.2 -26.45, 13.9 -31.14, 19.06 -33.76" stroke="#a5d8ff" stroke-width="1" fill="none"></path></g></g><mask></mask><g stroke-linecap="round"><g transform="translate(385.467672966048 862.749580331657) rotate(0 -15.787510093963647 22.64429918744554)"><path d="M-0.21 0.01 C-10.31 14.33, -20.01 30.35, -30.62 45.83 M0.47 -0.49 C-9.51 12.45, -18.15 26.8, -31.45 45.74" stroke="#a5d8ff" stroke-width="1" fill="none"></path></g><g transform="translate(385.467672966048 862.749580331657) rotate(0 -15.787510093963647 22.64429918744554)"><path d="M-25.45 21.53 C-26.83 28.63, -27.63 37.26, -30.5 46.28 M-24.77 21.04 C-27.22 27.65, -28.45 35.85, -31.33 46.19" stroke="#a5d8ff" stroke-width="1" fill="none"></path></g><g transform="translate(385.467672966048 862.749580331657) rotate(0 -15.787510093963647 22.64429918744554)"><path d="M-11.34 31.19 C-17.76 34.8, -23.51 40.03, -30.5 46.28 M-10.66 30.7 C-17.19 34.58, -22.54 39.95, -31.33 46.19" stroke="#a5d8ff" stroke-width="1" fill="none"></path></g></g><mask></mask><g stroke-linecap="round"><g transform="translate(515.5946087552131 907.9849544491399) rotate(0 -7.5 -18.5)"><path d="M0.38 -1.35 C-1.63 -9.68, -5.86 -16.35, -15.15 -38 M-0.05 -0.99 C-5.08 -13.39, -10.95 -26.5, -14.64 -37.79" stroke="#a5d8ff" stroke-width="1" fill="none"></path></g><g transform="translate(515.5946087552131 907.9849544491399) rotate(0 -7.5 -18.5)"><path d="M-1.46 -23.82 C-2.99 -27.2, -6.71 -28.92, -14.79 -38.79 M-1.88 -23.46 C-6.02 -27.97, -11.08 -33.21, -14.27 -38.58" stroke="#a5d8ff" stroke-width="1" fill="none"></path></g><g transform="translate(515.5946087552131 907.9849544491399) rotate(0 -7.5 -18.5)"><path d="M-14.3 -19.17 C-12.89 -23.61, -13.69 -26.4, -14.79 -38.79 M-14.73 -18.82 C-14.22 -24.96, -14.62 -31.88, -14.27 -38.58" stroke="#a5d8ff" stroke-width="1" fill="none"></path></g></g><mask></mask><g stroke-linecap="round"><g transform="translate(406.22653388161575 717.69145848885) rotate(0 18.684301952035412 23.716156473605224)"><path d="M1.76 -1.23 C12.27 15.04, 22.39 27.74, 38.63 48.37 M0.54 0.12 C9.5 12.74, 19.13 23.43, 37.52 46.71" stroke="#a5d8ff" stroke-width="1" fill="none"></path></g><g transform="translate(406.22653388161575 717.69145848885) rotate(0 18.684301952035412 23.716156473605224)"><path d="M17.91 32.51 C23.55 38.32, 28.86 40.67, 38.79 47.65 M16.69 33.87 C21.64 37.66, 27.25 39.68, 37.67 45.99" stroke="#a5d8ff" stroke-width="1" fill="none"></path></g><g transform="translate(406.22653388161575 717.69145848885) rotate(0 18.684301952035412 23.716156473605224)"><path d="M31.24 21.81 C32.89 30.74, 34.2 36.31, 38.79 47.65 M30.02 23.16 C31.62 29.52, 33.88 34.23, 37.67 45.99" stroke="#a5d8ff" stroke-width="1" fill="none"></path></g></g><mask></mask><g stroke-linecap="round" transform="translate(716.7329559326172 10.37499999999909) rotate(0 316.99999999999994 500)"><path d="M0.11 -0.35 C187.87 -5.52, 378.26 -4.17, 633.07 -0.33 M-0.25 0.8 C200.18 -0.34, 401.71 0.17, 634.65 0.6 M634.86 0.14 C636.06 372.16, 637.71 742.65, 633.89 999.42 M634.33 0.45 C628.3 314.04, 629.73 625.83, 633.8 1000.74 M635.36 999.24 C401.58 996.71, 171.35 996.44, 0.46 998.59 M634.21 1000.09 C405.95 999.35, 176.98 998.99, 0.08 999.58 M-0.47 998.73 C6.41 673.74, 5.11 345.11, 1.41 1.03 M0.28 1000.08 C0.21 663.17, 1.25 325.25, -0.1 0.2" stroke="#ffffff" stroke-width="1" fill="none"></path></g><g stroke-linecap="round"><g transform="translate(785.7329559326172 373.3749999999991) rotate(0 242.49999999999994 -1.5)"><path d="M-1.53 -0.96 C189.31 0.21, 378.39 -1.8, 485.28 -1.4 M-0.46 -0.11 C148.3 -4.58, 296.29 -5.29, 485.61 -2.62" stroke="#ffffff" stroke-width="1" fill="none"></path></g></g><mask></mask><g transform="translate(723.6761360168457 389.5249999999969) rotate(0 56.181819915771484 9.600000000000364)"><text x="56.181819915771484" y="15.45" font-family="Cascadia, Segoe UI Emoji" font-size="16px" fill="#a5d8ff" text-anchor="middle" style="white-space: pre;" direction="ltr" dominant-baseline="alphabetic"> Final state</text></g><g transform="translate(972.3963785171508 45.75555555555093) rotate(0 35.01818084716797 12)"><text x="0" y="19.3125" font-family="Cascadia, Segoe UI Emoji" font-size="20px" fill="#a5d8ff" text-anchor="start" style="white-space: pre;" direction="ltr" dominant-baseline="alphabetic">Screen</text></g><g stroke-linecap="round" transform="translate(777.8963785171508 122.47777777777719) rotate(0 233.8888888888888 114)"><path d="M0 0 C153.83 1.29, 307.4 0.15, 467.78 0 M0 0 C187.11 0.51, 374.06 0.61, 467.78 0 M467.78 0 C469.57 84.91, 466.99 169.96, 467.78 228 M467.78 0 C466.43 69.84, 466.21 138.91, 467.78 228 M467.78 228 C308.74 226.95, 147.15 225.9, 0 228 M467.78 228 C283.94 229.67, 100.69 229.17, 0 228 M0 228 C-1.2 140.4, -0.67 54.54, 0 0 M0 228 C-0.4 160.11, -1.28 92.3, 0 0" stroke="#a5d8ff" stroke-width="1" fill="none"></path></g><g stroke-linecap="round" transform="translate(783.3963785171508 129.4777777777772) rotate(0 228.44444444444434 107)"><path d="M0 0 L456.89 0 L456.89 214 L0 214" stroke="none" stroke-width="0" fill="#b2f2bb"></path><path d="M0 0 C127.62 0, 255.24 0, 456.89 0 M0 0 C131.2 0, 262.41 0, 456.89 0 M456.89 0 C456.89 69.31, 456.89 138.62, 456.89 214 M456.89 0 C456.89 62.77, 456.89 125.53, 456.89 214 M456.89 214 C360.15 214, 263.42 214, 0 214 M456.89 214 C292.12 214, 127.35 214, 0 214 M0 214 C0 136.87, 0 59.73, 0 0 M0 214 C0 147.27, 0 80.54, 0 0" stroke="#1e1e1e" stroke-width="1" fill="none"></path></g><g stroke-linecap="round" transform="translate(791.8963785171508 137.9777777777772) rotate(0 107.61111111111109 97.83333333333303)"><path d="M0 0 C86.51 -0.36, 169.31 1.61, 215.22 0 M0 0 C76.24 -1.02, 151.44 -0.95, 215.22 0 M215.22 0 C213.43 59.4, 213.18 120.21, 215.22 195.67 M215.22 0 C214.42 61.86, 213.12 123.56, 215.22 195.67 M215.22 195.67 C132.85 196.35, 48.31 193.64, 0 195.67 M215.22 195.67 C133.08 195.95, 50.11 195.44, 0 195.67 M0 195.67 C-1.26 154.71, -0.93 112.97, 0 0 M0 195.67 C1.88 147.07, 2.04 98.83, 0 0" stroke="#1e1e1e" stroke-width="2" fill="none"></path></g><g transform="translate(862.052945560879 216.6111111111104) rotate(0 37.45454406738281 19.199999999999818)"><text x="37.45454406738281" y="15.45" font-family="Cascadia, Segoe UI Emoji" font-size="16px" fill="#1e1e1e" text-anchor="middle" style="white-space: pre;" direction="ltr" dominant-baseline="alphabetic">window 1</text><text x="37.45454406738281" y="34.65" font-family="Cascadia, Segoe UI Emoji" font-size="16px" fill="#1e1e1e" text-anchor="middle" style="white-space: pre;" direction="ltr" dominant-baseline="alphabetic">Node C</text></g><g transform="translate(782.3249499457221 56.120634920632256) rotate(0 28.090909957885742 9.599999999999909)"><text x="0" y="15.45" font-family="Cascadia, Segoe UI Emoji" font-size="16px" fill="#b2f2bb" text-anchor="start" style="white-space: pre;" direction="ltr" dominant-baseline="alphabetic">Node A</text></g><g stroke-linecap="round" transform="translate(1016.0005451838175 138.67777777777428) rotate(0 107.61111111111109 97.83333333333303)"><path d="M-1.79 1.76 L216.51 0.75 L215.04 195.01 L0.69 195.86" stroke="none" stroke-width="0" fill="#ffec99"></path><path d="M0 0 C78.42 -0.26, 155 -1.1, 215.22 0 M0 0 C76.35 1.89, 151.79 1.78, 215.22 0 M215.22 0 C214.2 52.47, 216.6 101.51, 215.22 195.67 M215.22 0 C216.74 78.61, 217.65 155.99, 215.22 195.67 M215.22 195.67 C169.44 196.13, 126.07 195.83, 0 195.67 M215.22 195.67 C143.77 196.76, 73.84 196.9, 0 195.67 M0 195.67 C-0.93 134.7, 0.02 73.86, 0 0 M0 195.67 C0.49 150.9, 1.57 104.72, 0 0" stroke="#1e1e1e" stroke-width="2" fill="none"></path></g><g stroke-linecap="round" transform="translate(1025.2783229615952 145.73333333332903) rotate(0 98.33333333333337 43.33333333333303)"><path d="M1.29 0.75 L196.48 -0.66 L197.36 86.86 L-1.33 88.6" stroke="none" stroke-width="0" fill="#fa5252"></path><path d="M0 0 C75.76 -0.93, 150.79 -1.23, 196.67 0 M0 0 C39.3 -0.18, 79.3 0.02, 196.67 0 M196.67 0 C197.23 18.83, 198.05 42.99, 196.67 86.67 M196.67 0 C197.11 19.06, 195.56 37.75, 196.67 86.67 M196.67 86.67 C148.72 89.4, 97.87 86.43, 0 86.67 M196.67 86.67 C126.16 86.7, 55.25 86.04, 0 86.67 M0 86.67 C-0.18 69.07, -0.5 49.1, 0 0 M0 86.67 C0.98 63.02, -0.21 40.68, 0 0" stroke="#343a40" stroke-width="2" fill="none"></path></g><g transform="translate(1086.157112227546 169.86666666666224) rotate(0 37.454544067382756 19.199999999999818)"><text x="37.45454406738281" y="15.45" font-family="Cascadia, Segoe UI Emoji" font-size="16px" fill="#343a40" text-anchor="middle" style="white-space: pre;" direction="ltr" dominant-baseline="alphabetic">window 2</text><text x="37.45454406738281" y="34.65" font-family="Cascadia, Segoe UI Emoji" font-size="16px" fill="#343a40" text-anchor="middle" style="white-space: pre;" direction="ltr" dominant-baseline="alphabetic">Node K</text></g><g stroke-linecap="round" transform="translate(1024.9449896282617 239.9555555555553) rotate(0 98.33333333333337 43.33333333333303)"><path d="M0.69 0.2 L195.33 1.93 L197.93 87.8 L-0.26 87.16" stroke="none" stroke-width="0" fill="#d0bfff"></path><path d="M0 0 C61.75 0.34, 127.51 -1.25, 196.67 0 M0 0 C57.06 -0.9, 115.78 0.3, 196.67 0 M196.67 0 C195.77 17.85, 199.35 38.02, 196.67 86.67 M196.67 0 C195.42 31, 196.67 63.38, 196.67 86.67 M196.67 86.67 C126.98 83.46, 54.81 85.46, 0 86.67 M196.67 86.67 C134.43 84.6, 74.12 85.08, 0 86.67 M0 86.67 C0 56.77, 1.79 30.63, 0 0 M0 86.67 C1.42 62.88, 0.68 38.02, 0 0" stroke="#1e1e1e" stroke-width="2" fill="none"></path></g><g stroke-linecap="round"><g transform="translate(1006.2783229615953 115.95555555555529) rotate(0 0 -18.888888888888687)"><path d="M0 0 C0 -11.67, 0 -23.35, 0 -37.78 M0 0 C0 -11.83, 0 -23.67, 0 -37.78" stroke="#a5d8ff" stroke-width="2" fill="none"></path></g><g transform="translate(1006.2783229615953 115.95555555555529) rotate(0 0 -18.888888888888687)"><path d="M6.46 -20.03 C4.46 -25.51, 2.47 -31, 0 -37.78 M6.46 -20.03 C4.44 -25.59, 2.41 -31.15, 0 -37.78" stroke="#a5d8ff" stroke-width="2" fill="none"></path></g><g transform="translate(1006.2783229615953 115.95555555555529) rotate(0 0 -18.888888888888687)"><path d="M-6.46 -20.03 C-4.46 -25.51, -2.47 -31, 0 -37.78 M-6.46 -20.03 C-4.44 -25.59, -2.41 -31.15, 0 -37.78" stroke="#a5d8ff" stroke-width="2" fill="none"></path></g></g><mask></mask><g stroke-linecap="round"><g transform="translate(922.263856844861 129.62222222221953) rotate(0 -37.953240115166636 -29.506837224503215)"><path d="M0 0 C-24.73 -19.23, -49.47 -38.46, -75.91 -59.01 M0 0 C-17.9 -13.92, -35.81 -27.84, -75.91 -59.01" stroke="#b2f2bb" stroke-width="1" fill="none"></path></g><g transform="translate(922.263856844861 129.62222222221953) rotate(0 -37.953240115166636 -29.506837224503215)"><path d="M-52.11 -51.34 C-59.87 -53.84, -67.62 -56.34, -75.91 -59.01 M-52.11 -51.34 C-57.72 -53.15, -63.34 -54.96, -75.91 -59.01" stroke="#b2f2bb" stroke-width="1" fill="none"></path></g><g transform="translate(922.263856844861 129.62222222221953) rotate(0 -37.953240115166636 -29.506837224503215)"><path d="M-62.61 -37.84 C-66.94 -44.74, -71.27 -51.64, -75.91 -59.01 M-62.61 -37.84 C-65.74 -42.84, -68.88 -47.83, -75.91 -59.01" stroke="#b2f2bb" stroke-width="1" fill="none"></path></g></g><mask></mask><g transform="translate(1180.556100739373 41.02222222222099) rotate(0 28.090909957885742 9.599999999999909)"><text x="0" y="15.45" font-family="Cascadia, Segoe UI Emoji" font-size="16px" fill="#ffec99" text-anchor="start" style="white-space: pre;" direction="ltr" dominant-baseline="alphabetic">Node B</text></g><g stroke-linecap="round"><g transform="translate(1144.6283463541072 137.28888888889105) rotate(0 19.574996421061428 -31.881751856221854)"><path d="M0 0 C10.33 -16.83, 20.66 -33.65, 39.15 -63.76 M0 0 C15.54 -25.32, 31.09 -50.64, 39.15 -63.76" stroke="#ffec99" stroke-width="1" fill="none"></path></g><g transform="translate(1144.6283463541072 137.28888888889105) rotate(0 19.574996421061428 -31.881751856221854)"><path d="M34.14 -39.27 C35.47 -45.73, 36.79 -52.2, 39.15 -63.76 M34.14 -39.27 C36.13 -49, 38.12 -58.72, 39.15 -63.76" stroke="#ffec99" stroke-width="1" fill="none"></path></g><g transform="translate(1144.6283463541072 137.28888888889105) rotate(0 19.574996421061428 -31.881751856221854)"><path d="M19.57 -48.22 C24.74 -52.32, 29.9 -56.42, 39.15 -63.76 M19.57 -48.22 C27.35 -54.39, 35.12 -60.56, 39.15 -63.76" stroke="#ffec99" stroke-width="1" fill="none"></path></g></g><mask></mask><g stroke-linecap="round" transform="translate(1032.6831674575806 248.03333333333194) rotate(0 44.5 34.5)"><path d="M0 0 C22.27 -2.14, 44.24 1.43, 89 0 M0 0 C19.61 -0.21, 37 0.03, 89 0 M89 0 C90.57 18.64, 89.41 33.11, 89 69 M89 0 C88.75 24.95, 88.62 49.12, 89 69 M89 69 C69.34 69.62, 50.4 67.79, 0 69 M89 69 C65.23 69.32, 39.97 70.42, 0 69 M0 69 C-0.92 44.56, -0.06 17.4, 0 0 M0 69 C-0.57 41.89, 0.56 13.68, 0 0" stroke="#1e1e1e" stroke-width="2" fill="none"></path></g><g transform="translate(1039.7286233901978 263.3333333333312) rotate(0 37.45454406738281 19.199999999999818)"><text x="37.45454406738281" y="15.45" font-family="Cascadia, Segoe UI Emoji" font-size="16px" fill="#1e1e1e" text-anchor="middle" style="white-space: pre;" direction="ltr" dominant-baseline="alphabetic">Node X</text><text x="37.45454406738281" y="34.65" font-family="Cascadia, Segoe UI Emoji" font-size="16px" fill="#1e1e1e" text-anchor="middle" style="white-space: pre;" direction="ltr" dominant-baseline="alphabetic">window 3</text></g><g stroke-linecap="round" transform="translate(1127.1831674575806 247.53333333333194) rotate(0 44.5 34.5)"><path d="M0 0 C17.1 -1.3, 39.53 0.52, 89 0 M0 0 C31.62 -1.01, 64.97 0.12, 89 0 M89 0 C90.4 23.39, 89.11 50.26, 89 69 M89 0 C88.18 20.52, 89.19 42.51, 89 69 M89 69 C59.33 66.84, 32.04 69.01, 0 69 M89 69 C64.83 70.16, 39.29 69.45, 0 69 M0 69 C1.86 47.18, 1.07 22.57, 0 0 M0 69 C-0.92 46.09, -0.49 23.35, 0 0" stroke="#1e1e1e" stroke-width="2" fill="none"></path></g><g transform="translate(1134.2286233901978 262.8333333333312) rotate(0 37.45454406738281 19.199999999999818)"><text x="37.45454406738281" y="15.45" font-family="Cascadia, Segoe UI Emoji" font-size="16px" fill="#1e1e1e" text-anchor="middle" style="white-space: pre;" direction="ltr" dominant-baseline="alphabetic">Node Z</text><text x="37.45454406738281" y="34.65" font-family="Cascadia, Segoe UI Emoji" font-size="16px" fill="#1e1e1e" text-anchor="middle" style="white-space: pre;" direction="ltr" dominant-baseline="alphabetic">window 4</text></g><g stroke-linecap="round"><g transform="translate(1218.6831674575806 245.03333333333194) rotate(0 26.5 -70)"><path d="M0 0 C14.58 -38.52, 29.17 -77.04, 53 -140 M0 0 C14.56 -38.46, 29.12 -76.92, 53 -140" stroke="#d0bfff" stroke-width="1" fill="none"></path></g><g transform="translate(1218.6831674575806 245.03333333333194) rotate(0 26.5 -70)"><path d="M52.68 -115 C52.77 -121.88, 52.86 -128.76, 53 -140 M52.68 -115 C52.77 -121.87, 52.86 -128.74, 53 -140" stroke="#d0bfff" stroke-width="1" fill="none"></path></g><g transform="translate(1218.6831674575806 245.03333333333194) rotate(0 26.5 -70)"><path d="M36.69 -121.06 C41.17 -126.27, 45.66 -131.48, 53 -140 M36.69 -121.06 C41.17 -126.26, 45.65 -131.46, 53 -140" stroke="#d0bfff" stroke-width="1" fill="none"></path></g></g><mask></mask><g transform="translate(1243.5922574996948 76.03333333333194) rotate(0 28.090909957885742 9.599999999999909)"><text x="28.090909957885742" y="15.45" font-family="Cascadia, Segoe UI Emoji" font-size="16px" fill="#d0bfff" text-anchor="middle" style="white-space: pre;" direction="ltr" dominant-baseline="alphabetic">Node E</text></g><g transform="translate(867.5807223849824 410.7222222222217) rotate(0 46.69091033935547 12)"><text x="0" y="19.3125" font-family="Cascadia, Segoe UI Emoji" font-size="20px" fill="#a5d8ff" text-anchor="start" style="white-space: pre;" direction="ltr" dominant-baseline="alphabetic">BSP-tree</text></g><g stroke-linecap="round" transform="translate(852.5807223849824 511.7222222222217) rotate(0 66 34)"><path d="M17 0 C45.25 0.9, 67.68 -5.04, 115 0 M17 0 C52.79 0.32, 87.78 -1, 115 0 M115 0 C122.7 -3.98, 132.4 3.59, 132 17 M115 0 C127.56 -3.13, 129 4.3, 132 17 M132 17 C131.56 20.93, 135.93 34.59, 132 51 M132 17 C132.63 28.68, 130.6 41.89, 132 51 M132 51 C134.53 64.61, 125.81 68.98, 115 68 M132 51 C136.58 59.5, 125.25 65.59, 115 68 M115 68 C84.14 65.05, 53.88 65.91, 17 68 M115 68 C84.04 70.87, 55.41 68.31, 17 68 M17 68 C4.58 68.68, 3.05 60.26, 0 51 M17 68 C5.48 66.1, -0.98 57.97, 0 51 M0 51 C-1.76 43.73, -2.56 27.01, 0 17 M0 51 C0.35 35.98, 0.01 22.91, 0 17 M0 17 C3.8 9.34, 8.98 -0.99, 17 0 M0 17 C-1.91 3.49, 6.24 -1.5, 17 0" stroke="#b2f2bb" stroke-width="2" fill="none"></path></g><g transform="translate(871.7625423007539 526.522222222221) rotate(0 46.818180084228516 19.199999999999818)"><text x="46.818180084228516" y="15.45" font-family="Cascadia, Segoe UI Emoji" font-size="16px" fill="#b2f2bb" text-anchor="middle" style="white-space: pre;" direction="ltr" dominant-baseline="alphabetic">ROOT_NODE </text><text x="46.818180084228516" y="34.65" font-family="Cascadia, Segoe UI Emoji" font-size="16px" fill="#b2f2bb" text-anchor="middle" style="white-space: pre;" direction="ltr" dominant-baseline="alphabetic">Node A </text></g><g stroke-linecap="round"><g transform="translate(910.2535840749827 499.7222222222217) rotate(0 -0.940893774012352 -26.5)"><path d="M-2.46 1.68 C-3.41 -7.31, -4.17 -44.06, -3.95 -53.12 M1.39 0.12 C1.18 -8.47, 1.98 -41.31, 1.32 -49.56" stroke="#a5d8ff" stroke-width="2" fill="none"></path></g><g transform="translate(910.2535840749827 499.7222222222217) rotate(0 -0.940893774012352 -26.5)"><path d="M11.56 -27.73 C6.95 -34.2, 4.01 -42.88, 0.24 -51.37 M10.63 -26.93 C7.87 -31.26, 5.92 -35.04, 1.62 -49.77" stroke="#a5d8ff" stroke-width="2" fill="none"></path></g><g transform="translate(910.2535840749827 499.7222222222217) rotate(0 -0.940893774012352 -26.5)"><path d="M-5.54 -27.37 C-3.99 -33.83, -0.76 -42.63, 0.24 -51.37 M-6.47 -26.57 C-5.8 -30.89, -4.32 -34.74, 1.62 -49.77" stroke="#a5d8ff" stroke-width="2" fill="none"></path></g></g><mask></mask><g stroke-linecap="round" transform="translate(734.0807223849826 638.2222222222217) rotate(0 75.72222222222229 34)"><path d="M17 0 C41.81 1.39, 67.03 1.12, 134.44 0 M17 0 C45.96 0.65, 74.98 0.49, 134.44 0 M134.44 0 C144.47 -0.59, 149.86 6.87, 151.44 17 M134.44 0 C146.46 -0.49, 149.38 7.69, 151.44 17 M151.44 17 C150.91 30.08, 151.77 40.44, 151.44 51 M151.44 17 C151.53 30.72, 152.66 43.34, 151.44 51 M151.44 51 C150.97 61.29, 146.16 66.26, 134.44 68 M151.44 51 C151.52 62.58, 144.04 68.84, 134.44 68 M134.44 68 C106.86 67.7, 78.27 69.21, 17 68 M134.44 68 C105.66 67.68, 75.31 67.78, 17 68 M17 68 C5.24 66.1, 0.26 64.17, 0 51 M17 68 C7.43 67.35, 1.94 61.22, 0 51 M0 51 C-1.87 43.77, -1.92 35.54, 0 17 M0 51 C0.5 42.7, -0.74 34.43, 0 17 M0 17 C0.25 5.02, 7.5 0.88, 17 0 M0 17 C-1.16 7.76, 7.72 0.11, 17 0" stroke="#a4d6fd" stroke-width="2" fill="none"></path></g><g transform="translate(744.2574886745875 643.4222222222224) rotate(0 65.54545593261719 28.800000000000182)"><text x="65.54545593261719" y="15.45" font-family="Cascadia, Segoe UI Emoji" font-size="16px" fill="#a4d6fd" text-anchor="middle" style="white-space: pre;" direction="ltr" dominant-baseline="alphabetic">EXTERNAL_NODE </text><text x="65.54545593261719" y="34.65" font-family="Cascadia, Segoe UI Emoji" font-size="16px" fill="#a4d6fd" text-anchor="middle" style="white-space: pre;" direction="ltr" dominant-baseline="alphabetic">Node C</text><text x="65.54545593261719" y="53.849999999999994" font-family="Cascadia, Segoe UI Emoji" font-size="16px" fill="#a4d6fd" text-anchor="middle" style="white-space: pre;" direction="ltr" dominant-baseline="alphabetic">window 1</text></g><g stroke-linecap="round"><g transform="translate(843.7256843650337 580.5674479620529) rotate(0 -11.359632656007193 21.57738713008439)"><path d="M-1.09 -1.82 C-9.35 14.3, -15.81 28.71, -24.08 41.85 M0.3 -0.21 C-7.38 12.69, -11.98 23.85, -22.81 42.82" stroke="#a5d8ff" stroke-width="1" fill="none"></path></g><g transform="translate(843.7256843650337 580.5674479620529) rotate(0 -11.359632656007193 21.57738713008439)"><path d="M-20.23 16.9 C-22.3 26.79, -22.55 34.98, -24.18 41.52 M-18.85 18.5 C-21.23 26.14, -20.68 32.15, -22.91 42.5" stroke="#a5d8ff" stroke-width="1" fill="none"></path></g><g transform="translate(843.7256843650337 580.5674479620529) rotate(0 -11.359632656007193 21.57738713008439)"><path d="M-5.6 24.9 C-12.45 32.19, -17.47 37.78, -24.18 41.52 M-4.21 26.5 C-10.48 32.06, -13.89 35.91, -22.91 42.5" stroke="#a5d8ff" stroke-width="1" fill="none"></path></g></g><mask></mask><g stroke-linecap="round"><g transform="translate(994.2603999238863 584.947530131124) rotate(0 10.866245430672734 20.88734604554884)"><path d="M-1.99 0.2 C5.53 13.79, 12 25.01, 21.14 40.19 M-0.9 0.88 C8.59 15.47, 15.68 29.81, 22.08 41.87" stroke="#a5d8ff" stroke-width="1" fill="none"></path></g><g transform="translate(994.2603999238863 584.947530131124) rotate(0 10.866245430672734 20.88734604554884)"><path d="M2.68 26.22 C8.99 31.67, 14.11 34.79, 21.49 40.29 M3.78 26.9 C11.63 32.14, 17.16 37.15, 22.42 41.97" stroke="#a5d8ff" stroke-width="1" fill="none"></path></g><g transform="translate(994.2603999238863 584.947530131124) rotate(0 10.866245430672734 20.88734604554884)"><path d="M16.94 18.74 C18.75 26.4, 19.41 31.85, 21.49 40.29 M18.04 19.42 C20.78 27.33, 21.17 35.02, 22.42 41.97" stroke="#a5d8ff" stroke-width="1" fill="none"></path></g></g><mask></mask><g stroke-linecap="round" transform="translate(967.622389051649 639.4259236653661) rotate(0 75.72222222222234 34)"><path d="M17 0 C39.49 0.83, 63.41 -2.85, 134.44 0 M17 0 C49.35 -1.84, 78.72 0.35, 134.44 0 M134.44 0 C148.35 1.5, 151.07 4.35, 151.44 17 M134.44 0 C147.37 0.45, 148.38 10.1, 151.44 17 M151.44 17 C152.81 33.34, 149.37 40.77, 151.44 51 M151.44 17 C151.64 25.64, 150.07 34.57, 151.44 51 M151.44 51 C149.28 62.63, 147.56 70.6, 134.44 68 M151.44 51 C149.54 65.99, 147.36 65.77, 134.44 68 M134.44 68 C100.34 69.63, 68.73 68.94, 17 68 M134.44 68 C111.88 69.58, 87.94 69.18, 17 68 M17 68 C2.96 71.78, 1.9 59.23, 0 51 M17 68 C7.21 64.32, 0.78 59.43, 0 51 M0 51 C-1.61 35.91, -2.51 24.63, 0 17 M0 51 C-1.63 43.73, 1.16 32.91, 0 17 M0 17 C-3.43 8.55, 4.56 2.92, 17 0 M0 17 C-4.42 9.59, 9.73 -0.67, 17 0" stroke="#ffec99" stroke-width="2" fill="none"></path></g><g transform="translate(977.799155341254 654.2259236653654) rotate(0 65.54545593261719 19.199999999999818)"><text x="65.54545593261719" y="15.45" font-family="Cascadia, Segoe UI Emoji" font-size="16px" fill="#ffec99" text-anchor="middle" style="white-space: pre;" direction="ltr" dominant-baseline="alphabetic">INTERNAL_NODE </text><text x="65.54545593261719" y="34.65" font-family="Cascadia, Segoe UI Emoji" font-size="16px" fill="#ffec99" text-anchor="middle" style="white-space: pre;" direction="ltr" dominant-baseline="alphabetic">Node B</text></g><g stroke-linecap="round"><g transform="translate(1123.0005870996142 659.2060657486136) rotate(0 94.76107043334719 130.71615647360522)"><path d="M2.14 1.06 C43.32 18.3, 91.71 42.6, 190.86 79.84 M-1.19 1.72 C52.23 22.09, 101.47 42.92, 191.3 79.07 M186.04 80.31 C184.7 127.32, 182.37 178.29, 177.67 263.21 M190.21 79.2 C183.04 146.88, 180.67 211.69, 177.29 260.6" stroke="#a5d8ff" stroke-width="1" fill="none"></path></g><g transform="translate(1123.0005870996142 659.2060657486136) rotate(0 94.76107043334719 130.71615647360522)"><path d="M171.39 237.23 C171.36 240.53, 175.21 249.23, 178.04 260.42 M169.52 237.6 C172.8 243.6, 173.93 249.67, 178.29 259.99" stroke="#a5d8ff" stroke-width="1" fill="none"></path></g><g transform="translate(1123.0005870996142 659.2060657486136) rotate(0 94.76107043334719 130.71615647360522)"><path d="M188.46 238.27 C184.42 241.19, 184.27 249.65, 178.04 260.42 M186.59 238.64 C185.31 244.38, 181.88 250.18, 178.29 259.99" stroke="#a5d8ff" stroke-width="1" fill="none"></path></g></g><mask></mask><g stroke-linecap="round" transform="translate(1081.8550279405383 783.2111111111108) rotate(0 75.72222222222234 34)"><path d="M17 0 C42.09 -4.28, 72.41 1.87, 134.44 0 M17 0 C57.34 0.97, 94.97 2.7, 134.44 0 M134.44 0 C148.31 2.28, 150.92 6.65, 151.44 17 M134.44 0 C150.36 -2.83, 150.36 3.26, 151.44 17 M151.44 17 C151.29 24.84, 152.32 36.55, 151.44 51 M151.44 17 C150.92 29.04, 152.43 36.94, 151.44 51 M151.44 51 C150.35 63.01, 148.83 65.93, 134.44 68 M151.44 51 C151.26 60.43, 144.8 63.64, 134.44 68 M134.44 68 C96.56 73.17, 59.01 67.1, 17 68 M134.44 68 C88.78 64.58, 42.11 64.92, 17 68 M17 68 C9.47 71.67, 3.31 61.35, 0 51 M17 68 C3.76 65.83, 0.57 60.84, 0 51 M0 51 C3.34 41.25, -0.11 20.93, 0 17 M0 51 C-1.74 40.06, 1.95 25.41, 0 17 M0 17 C-0.35 7.81, 6.13 3.05, 17 0 M0 17 C1.24 3.32, 7.62 -0.96, 17 0" stroke="#d0bfff" stroke-width="2" fill="none"></path></g><g transform="translate(1092.0317942301435 798.01111111111) rotate(0 65.54545593261719 19.199999999999818)"><text x="65.54545593261719" y="15.45" font-family="Cascadia, Segoe UI Emoji" font-size="16px" fill="#d0bfff" text-anchor="middle" style="white-space: pre;" direction="ltr" dominant-baseline="alphabetic">INTERNAL_NODE </text><text x="65.54545593261719" y="34.65" font-family="Cascadia, Segoe UI Emoji" font-size="16px" fill="#d0bfff" text-anchor="middle" style="white-space: pre;" direction="ltr" dominant-baseline="alphabetic">Node E</text></g><g stroke-linecap="round" transform="translate(861.8550279405383 781.2111111111108) rotate(0 75.72222222222229 34)"><path d="M17 0 C43.22 -1.88, 65.11 -0.13, 134.44 0 M17 0 C54.66 -1.13, 89.53 -1.78, 134.44 0 M134.44 0 C149.76 -2.46, 150.5 3.57, 151.44 17 M134.44 0 C146.67 -4.01, 151.6 6.17, 151.44 17 M151.44 17 C151.99 26.42, 154.3 30.62, 151.44 51 M151.44 17 C151.13 30.24, 153.2 41.77, 151.44 51 M151.44 51 C151.29 60.68, 144.92 64.21, 134.44 68 M151.44 51 C152.04 66.55, 149.31 66.69, 134.44 68 M134.44 68 C93.1 68.31, 41.08 67.75, 17 68 M134.44 68 C110.52 68.35, 84.45 66.02, 17 68 M17 68 C4.01 66.11, 0.5 61.03, 0 51 M17 68 C9.89 70.02, -2.32 66.52, 0 51 M0 51 C2.85 36.65, 2.89 20.67, 0 17 M0 51 C-0.77 38.98, -0.37 26.33, 0 17 M0 17 C1.08 3.62, 7.37 -0.83, 17 0 M0 17 C-2.9 9.84, 1.48 -3.42, 17 0" stroke="#ff8787" stroke-width="2" fill="none"></path></g><g transform="translate(872.0317942301434 786.4111111111115) rotate(0 65.54545593261719 28.800000000000182)"><text x="65.54545593261719" y="15.45" font-family="Cascadia, Segoe UI Emoji" font-size="16px" fill="#ff8787" text-anchor="middle" style="white-space: pre;" direction="ltr" dominant-baseline="alphabetic">EXTERNAL_NODE </text><text x="65.54545593261719" y="34.65" font-family="Cascadia, Segoe UI Emoji" font-size="16px" fill="#ff8787" text-anchor="middle" style="white-space: pre;" direction="ltr" dominant-baseline="alphabetic">Node K</text><text x="65.54545593261719" y="53.849999999999994" font-family="Cascadia, Segoe UI Emoji" font-size="16px" fill="#ff8787" text-anchor="middle" style="white-space: pre;" direction="ltr" dominant-baseline="alphabetic">window 2</text></g><g stroke-linecap="round"><g transform="translate(981.8708570978295 623.8562454190205) rotate(0 -7.5 -18.5)"><path d="M0.2 -1.33 C-2.31 -9.44, -7.46 -21.72, -14.51 -35.01 M0.19 -0.87 C-3.46 -8.79, -7.82 -17.36, -15.54 -36.92" stroke="#a5d8ff" stroke-width="1" fill="none"></path></g><g transform="translate(981.8708570978295 623.8562454190205) rotate(0 -7.5 -18.5)"><path d="M-1.91 -23.49 C-4.04 -25.14, -8.73 -30.95, -15.05 -34.94 M-1.92 -23.03 C-5.24 -25.64, -9.23 -28.9, -16.08 -36.85" stroke="#a5d8ff" stroke-width="1" fill="none"></path></g><g transform="translate(981.8708570978295 623.8562454190205) rotate(0 -7.5 -18.5)"><path d="M-14.55 -18.31 C-12.99 -21.51, -14.01 -28.83, -15.05 -34.94 M-14.55 -17.85 C-14.85 -21.63, -15.83 -26.13, -16.08 -36.85" stroke="#a5d8ff" stroke-width="1" fill="none"></path></g></g><mask></mask><g stroke-linecap="round"><g transform="translate(847.9544585823703 625.5451641962964) rotate(0 9 -17)"><path d="M1.93 1.27 C7.13 -11.52, 12.5 -20.64, 16.77 -34.47 M0.03 0.11 C3.64 -7.9, 8.31 -16.61, 18.45 -33.35" stroke="#a5d8ff" stroke-width="1" fill="none"></path></g><g transform="translate(847.9544585823703 625.5451641962964) rotate(0 9 -17)"><path d="M16.74 -13.23 C17.15 -21, 17.72 -25.15, 17.26 -33.8 M14.92 -14.34 C15.01 -18.74, 16.09 -23.7, 18.87 -32.72" stroke="#a5d8ff" stroke-width="1" fill="none"></path></g><g transform="translate(847.9544585823703 625.5451641962964) rotate(0 9 -17)"><path d="M5.42 -19.94 C9.63 -25.39, 13.98 -27.3, 17.26 -33.8 M3.6 -21.05 C6.5 -23.69, 10.39 -26.99, 18.87 -32.72" stroke="#a5d8ff" stroke-width="1" fill="none"></path></g></g><mask></mask><g stroke-linecap="round" transform="translate(987.1452891031902 921.7777777777765) rotate(0 75.72222222222234 34)"><path d="M17 0 C48.24 -3.28, 82.31 -1.57, 134.44 0 M17 0 C40.5 0.48, 65.93 -0.1, 134.44 0 M134.44 0 C147.56 2.6, 149.79 8.84, 151.44 17 M134.44 0 C147.36 -2.23, 150.19 6.44, 151.44 17 M151.44 17 C149.44 28.94, 147.3 43.1, 151.44 51 M151.44 17 C153.65 29.35, 150.61 45.52, 151.44 51 M151.44 51 C153.35 59.23, 147.12 64.8, 134.44 68 M151.44 51 C152.22 59.43, 150.15 72.22, 134.44 68 M134.44 68 C87.6 67.52, 43.24 70.7, 17 68 M134.44 68 C95.84 70.23, 51.94 71.58, 17 68 M17 68 C4.56 70.92, -3.85 65.74, 0 51 M17 68 C9.73 67.33, -0.4 64.8, 0 51 M0 51 C-2.56 42.11, -1.35 27.3, 0 17 M0 51 C1.11 38.67, 1.91 25.34, 0 17 M0 17 C2.79 3.14, 5.25 2.73, 17 0 M0 17 C1.3 2.12, 9.87 0.92, 17 0" stroke="#a5d8ff" stroke-width="2" fill="none"></path></g><g transform="translate(997.3220553927953 926.9777777777772) rotate(0 65.54545593261719 28.800000000000182)"><text x="65.54545593261719" y="15.45" font-family="Cascadia, Segoe UI Emoji" font-size="16px" fill="#a5d8ff" text-anchor="middle" style="white-space: pre;" direction="ltr" dominant-baseline="alphabetic">EXTERNAL_NODE </text><text x="65.54545593261719" y="34.65" font-family="Cascadia, Segoe UI Emoji" font-size="16px" fill="#a5d8ff" text-anchor="middle" style="white-space: pre;" direction="ltr" dominant-baseline="alphabetic">Node X</text><text x="65.54545593261719" y="53.849999999999994" font-family="Cascadia, Segoe UI Emoji" font-size="16px" fill="#a5d8ff" text-anchor="middle" style="white-space: pre;" direction="ltr" dominant-baseline="alphabetic">window 3</text></g><g stroke-linecap="round" transform="translate(1180.1452891031904 922.7777777777765) rotate(0 75.72222222222229 34)"><path d="M17 0 C45.99 -0.32, 82.38 -3.47, 134.44 0 M17 0 C57.44 1.13, 95.27 1.41, 134.44 0 M134.44 0 C147.15 -1.94, 150.35 6.34, 151.44 17 M134.44 0 C149.28 -2.39, 151.26 3.76, 151.44 17 M151.44 17 C154.46 29.55, 149.66 39.32, 151.44 51 M151.44 17 C151.94 24, 151.65 32.51, 151.44 51 M151.44 51 C152.12 59.8, 149.58 71.67, 134.44 68 M151.44 51 C155.25 61.2, 143.87 65.83, 134.44 68 M134.44 68 C99.52 68.14, 64.71 73.73, 17 68 M134.44 68 C98.1 71.15, 60.94 71.4, 17 68 M17 68 C9.2 67.42, -0.35 64.48, 0 51 M17 68 C6.19 71.51, 1.24 59.98, 0 51 M0 51 C3.77 35.71, -2.83 28.69, 0 17 M0 51 C0.96 37.91, -0.65 28.71, 0 17 M0 17 C1.13 2.58, 9.32 0.8, 17 0 M0 17 C-3.08 1.98, 5.81 -3.4, 17 0" stroke="#a5d8ff" stroke-width="2" fill="none"></path></g><g transform="translate(1190.3220553927954 927.9777777777772) rotate(0 65.54545593261719 28.800000000000182)"><text x="65.54545593261719" y="15.45" font-family="Cascadia, Segoe UI Emoji" font-size="16px" fill="#a5d8ff" text-anchor="middle" style="white-space: pre;" direction="ltr" dominant-baseline="alphabetic">EXTERNAL_NODE </text><text x="65.54545593261719" y="34.65" font-family="Cascadia, Segoe UI Emoji" font-size="16px" fill="#a5d8ff" text-anchor="middle" style="white-space: pre;" direction="ltr" dominant-baseline="alphabetic">Node Z</text><text x="65.54545593261719" y="53.849999999999994" font-family="Cascadia, Segoe UI Emoji" font-size="16px" fill="#a5d8ff" text-anchor="middle" style="white-space: pre;" direction="ltr" dominant-baseline="alphabetic">window 4</text></g><g stroke-linecap="round"><g transform="translate(1085.5529836578191 909.0195463758673) rotate(0 -16.515127845755273 -98.5)"><path d="M1.47 -2.16 C-9.92 -26.83, -17.64 -58.38, -29.85 -91.27 M1.52 -1.04 C-7.88 -24.03, -16.54 -48.4, -32.77 -90.81 M-34.97 -95.35 C-27.51 -130.11, -33.25 -170, -33.2 -196.33 M-31.38 -93.14 C-35.13 -118.35, -33.33 -142.77, -28.16 -196.12" stroke="#a5d8ff" stroke-width="1" fill="none"></path></g><g transform="translate(1085.5529836578191 909.0195463758673) rotate(0 -16.515127845755273 -98.5)"><path d="M-21.01 -173.04 C-23.57 -178.45, -24.37 -187.5, -26.57 -195.43 M-20.99 -172.48 C-23.34 -178.44, -25.12 -185.05, -28.03 -195.2" stroke="#a5d8ff" stroke-width="1" fill="none"></path></g><g transform="translate(1085.5529836578191 909.0195463758673) rotate(0 -16.515127845755273 -98.5)"><path d="M-38.05 -174.57 C-35.43 -179.39, -31.06 -187.97, -26.57 -195.43 M-38.02 -174.01 C-36.09 -179.61, -33.59 -185.84, -28.03 -195.2" stroke="#a5d8ff" stroke-width="1" fill="none"></path></g></g><mask></mask><g stroke-linecap="round"><g transform="translate(978.780172966048 707.1245803316551) rotate(0 39.71248990603635 100.64429918744554)"><path d="M0.3 1.78 C13.78 5.67, 25.3 15.49, 46.81 29.16 M-0.08 -0.83 C15.48 8.2, 31.61 21.51, 50.28 29.68 M52.52 32.15 C55.78 97.73, 67.46 162.79, 76.9 205.09 M47.91 29.31 C63.84 96.76, 77.45 165.3, 78.41 203.11" stroke="#a5d8ff" stroke-width="1" fill="none"></path></g><g transform="translate(978.780172966048 707.1245803316551) rotate(0 39.71248990603635 100.64429918744554)"><path d="M67.8 181.44 C71.45 184.85, 74.16 191.43, 77.45 202.56 M67.61 180.13 C71.02 186.8, 74.77 195.82, 79.18 202.82" stroke="#a5d8ff" stroke-width="1" fill="none"></path></g><g transform="translate(978.780172966048 707.1245803316551) rotate(0 39.71248990603635 100.64429918744554)"><path d="M84.82 179.79 C84.65 183.48, 83.54 190.43, 77.45 202.56 M84.63 178.49 C82.66 185.59, 81.02 195.13, 79.18 202.82" stroke="#a5d8ff" stroke-width="1" fill="none"></path></g></g><mask></mask><g stroke-linecap="round"><g transform="translate(1219.9071087552134 908.3599544491399) rotate(0 -9.692190394452382 -107.5)"><path d="M2.6 -1.66 C22.29 -34.98, 36.52 -73.11, 79.29 -141.94 M-0.43 -1.9 C19.88 -33.49, 40.67 -71.87, 80.3 -145.95 M75.52 -143.65 C33.06 -158.89, -7.29 -172.03, -94.33 -211.69 M78.86 -145.64 C32.4 -165.05, -19.07 -183.39, -96.21 -214.9" stroke="#a5d8ff" stroke-width="1" fill="none"></path></g><g transform="translate(1219.9071087552134 908.3599544491399) rotate(0 -9.692190394452382 -107.5)"><path d="M-69.92 -214.96 C-75.78 -213.52, -84.48 -214.95, -95.87 -213.38 M-71.44 -215.08 C-77.29 -213.51, -82.86 -214.9, -95.37 -215.39" stroke="#a5d8ff" stroke-width="1" fill="none"></path></g><g transform="translate(1219.9071087552134 908.3599544491399) rotate(0 -9.692190394452382 -107.5)"><path d="M-76.27 -199.08 C-80.58 -201.57, -87.72 -206.9, -95.87 -213.38 M-77.78 -199.2 C-82.06 -201.54, -86.05 -206.88, -95.37 -215.39" stroke="#a5d8ff" stroke-width="1" fill="none"></path></g></g><mask></mask><g stroke-linecap="round"><g transform="translate(659.5227279663086 482.3749999999991) rotate(0 25.5 0.5)"><path d="M0 0 C13.36 0.26, 26.71 0.52, 51 1 M0 0 C10.41 0.2, 20.82 0.41, 51 1" stroke="#ffffff" stroke-width="1" fill="none"></path></g><g transform="translate(659.5227279663086 482.3749999999991) rotate(0 25.5 0.5)"><path d="M27.34 9.09 C33.54 6.97, 39.74 4.85, 51 1 M27.34 9.09 C32.17 7.44, 37 5.79, 51 1" stroke="#ffffff" stroke-width="1" fill="none"></path></g><g transform="translate(659.5227279663086 482.3749999999991) rotate(0 25.5 0.5)"><path d="M27.68 -8.01 C33.79 -5.65, 39.9 -3.29, 51 1 M27.68 -8.01 C32.44 -6.17, 37.2 -4.33, 51 1" stroke="#ffffff" stroke-width="1" fill="none"></path></g></g><mask></mask><g stroke-linecap="round" transform="translate(846.5227279663086 737.3749999999991) rotate(0 92.5 74)"><path d="M28.14 17.73 C36.06 10.4, 52.55 5.69, 64.75 2.51 C76.94 -0.67, 88.94 -2.82, 101.3 -1.35 C113.66 0.11, 128.08 5.93, 138.89 11.28 C149.7 16.64, 158.89 22.67, 166.16 30.76 C173.43 38.86, 179.71 50.43, 182.52 59.84 C185.33 69.26, 185.29 77.99, 183.02 87.26 C180.76 96.54, 176.13 106.93, 168.92 115.49 C161.7 124.05, 150.74 133.51, 139.73 138.61 C128.73 143.7, 115.36 145.12, 102.87 146.07 C90.38 147.01, 76.6 147.32, 64.8 144.27 C53 141.23, 41.17 134.47, 32.08 127.79 C22.98 121.11, 15.43 113.41, 10.22 104.21 C5 95.01, 1.03 82.68, 0.78 72.61 C0.54 62.54, 1.17 54.55, 8.75 43.78 C16.32 33.01, 36.2 14.87, 46.23 7.99 C56.26 1.1, 67.87 0.9, 68.91 2.49 M25.35 22.66 C32.27 14.85, 42.03 9.73, 53.06 5.77 C64.08 1.8, 78.58 -1.13, 91.51 -1.12 C104.44 -1.1, 118.86 1.81, 130.64 5.86 C142.41 9.9, 153.57 15.94, 162.15 23.15 C170.73 30.37, 178.42 39.89, 182.09 49.16 C185.77 58.42, 185.57 69.07, 184.18 78.76 C182.8 88.44, 179.74 98.49, 173.79 107.26 C167.85 116.04, 158.94 124.73, 148.52 131.4 C138.09 138.07, 123.69 144.98, 111.22 147.27 C98.75 149.56, 85.73 146.87, 73.7 145.16 C61.67 143.45, 49.51 142.12, 39.04 137.01 C28.57 131.9, 17.42 123.71, 10.86 114.51 C4.31 105.32, 1.08 92.76, -0.3 81.87 C-1.68 70.98, -1.15 59.04, 2.59 49.17 C6.32 39.31, 18.62 26.98, 22.12 22.67 C25.61 18.36, 22.51 22.41, 23.56 23.33" stroke="#ffffff" stroke-width="1" fill="none"></path></g><g stroke-linecap="round" transform="translate(1061.5227279663086 738.3749999999991) rotate(0 96.49999999999994 72.5)"><path d="M24.75 22.21 C31.86 15.03, 46.3 11.46, 58.16 7.88 C70.02 4.31, 83 0.69, 95.91 0.73 C108.81 0.77, 123.53 4.48, 135.58 8.12 C147.63 11.75, 159.22 15.76, 168.21 22.52 C177.19 29.28, 185.38 38.93, 189.48 48.67 C193.58 58.42, 194.39 71.22, 192.81 81 C191.22 90.79, 186.55 99.06, 179.97 107.38 C173.38 115.7, 163.72 125.19, 153.29 130.94 C142.85 136.68, 129.85 139.84, 117.34 141.85 C104.83 143.85, 91.03 145.09, 78.21 142.97 C65.39 140.84, 51.15 134.94, 40.44 129.11 C29.72 123.28, 20.84 116.38, 13.9 108 C6.96 99.61, 0.29 88.73, -1.23 78.81 C-2.74 68.9, -0.13 57.78, 4.8 48.49 C9.72 39.21, 23.89 28.07, 28.31 23.13 C32.74 18.19, 30.43 18.06, 31.37 18.88 M22.7 24.98 C29.91 17.26, 43.63 11.59, 55.61 7.35 C67.6 3.1, 81.46 0.04, 94.58 -0.48 C107.71 -1, 122.59 0.8, 134.36 4.22 C146.13 7.64, 156.35 13.29, 165.22 20.03 C174.09 26.77, 182.89 35.41, 187.58 44.65 C192.27 53.88, 194.61 64.99, 193.35 75.45 C192.1 85.92, 186.39 98.65, 180.05 107.41 C173.71 116.18, 165.32 121.71, 155.31 128.02 C145.31 134.34, 132.92 142.21, 120.02 145.3 C107.11 148.38, 90.92 148.78, 77.89 146.53 C64.87 144.29, 52.64 138.22, 41.88 131.82 C31.12 125.43, 20.26 116.76, 13.32 108.17 C6.38 99.57, 1.97 89.96, 0.24 80.24 C-1.49 70.52, -0.51 59.2, 2.94 49.85 C6.4 40.5, 17.87 27.72, 20.98 24.15 C24.09 20.59, 20.28 27.6, 21.61 28.46" stroke="#ffffff" stroke-width="1" fill="none"></path></g><g stroke-linecap="round"><g transform="translate(1006.5227279663086 758.3749999999991) rotate(0 76.49999999999994 -18.5)"><path d="M-0.37 -0.97 C56.33 -13.01, 109.73 -24.59, 150.4 -33.06 M1.98 -1.39 C53.96 -9.07, 104.6 -24.71, 151.61 -36.66" stroke="#ffffff" stroke-width="1" fill="none"></path></g></g><mask></mask><g stroke-linecap="round"><g transform="translate(1160.5227279663086 736.3749999999991) rotate(0 -1 -57.5)"><path d="M3.98 0.72 C-1.8 -32.57, -2.49 -61.22, 1.21 -116.93 M0.79 1.29 C-2.46 -28.06, -2.04 -58.71, -1.64 -115.11" stroke="#ffffff" stroke-width="1" fill="none"></path></g><g transform="translate(1160.5227279663086 736.3749999999991) rotate(0 -1 -57.5)"><path d="M8.76 -91.2 C3.02 -98.39, 0.61 -103.3, -0.04 -116.08 M7.16 -90.92 C4.33 -96.93, 2.65 -103.61, -1.46 -115.16" stroke="#ffffff" stroke-width="1" fill="none"></path></g><g transform="translate(1160.5227279663086 736.3749999999991) rotate(0 -1 -57.5)"><path d="M-8.34 -91.31 C-9.34 -98.58, -7 -103.46, -0.04 -116.08 M-9.94 -91.02 C-8.42 -97.06, -5.75 -103.72, -1.46 -115.16" stroke="#ffffff" stroke-width="1" fill="none"></path></g></g><mask></mask><g transform="translate(1016.65909576416 473.3749999999991) rotate(0 159.18182373046875 57.600000000000364)"><text x="0" y="15.45" font-family="Cascadia, Segoe UI Emoji" font-size="16px" fill="#ffffff" text-anchor="start" style="white-space: pre;" direction="ltr" dominant-baseline="alphabetic">1- Node E and K need to </text><text x="0" y="34.65" font-family="Cascadia, Segoe UI Emoji" font-size="16px" fill="#ffffff" text-anchor="start" style="white-space: pre;" direction="ltr" dominant-baseline="alphabetic">   be unlinked from their </text><text x="0" y="53.849999999999994" font-family="Cascadia, Segoe UI Emoji" font-size="16px" fill="#ffffff" text-anchor="start" style="white-space: pre;" direction="ltr" dominant-baseline="alphabetic">   parent and children</text><text x="0" y="73.05" font-family="Cascadia, Segoe UI Emoji" font-size="16px" fill="#ffffff" text-anchor="start" style="white-space: pre;" direction="ltr" dominant-baseline="alphabetic">2- Then Node X and Z get linked </text><text x="0" y="92.25" font-family="Cascadia, Segoe UI Emoji" font-size="16px" fill="#ffffff" text-anchor="start" style="white-space: pre;" direction="ltr" dominant-baseline="alphabetic">   to their grand parent Node B</text><text x="0" y="111.45" font-family="Cascadia, Segoe UI Emoji" font-size="16px" fill="#ffffff" text-anchor="start" style="white-space: pre;" direction="ltr" dominant-baseline="alphabetic">3- We can safely free Node K and E</text></g></svg>