<svg version="1.1" xmlns="http://www.w3.org/2000/svg" viewBox="0 0 1199.0454559326172 853.25" width="1199.0454559326172" height="853.25">
  <!-- svg-source:excalidraw -->
  
  <defs>
    <style class="style-fonts">
      @font-face {
        font-family: "Virgil";
        src: url("https://excalidraw.com/Virgil.woff2");
      }
      @font-face {
        font-family: "Cascadia";
        src: url("https://excalidraw.com/Cascadia.woff2");
      }
      @font-face {
        font-family: "Assistant";
        src: url("https://excalidraw.com/Assistant-Regular.woff2");
      }
    </style>
    
  </defs>
  <rect x="0" y="0" width="1199.0454559326172" height="853.25" fill="#2a2631"></rect><g stroke-linecap="round" transform="translate(15.420455932617188 13.25) rotate(0 277.5 415)"><path d="M-1.35 0.28 C182.79 -2.38, 365.53 -1.49, 555.25 -0.45 M-0.26 -0.68 C163.74 2.64, 327.77 2.07, 555.39 -0.37 M555.74 -1.11 C558.94 320.01, 559.86 638.48, 554.16 829.61 M554.76 -0.37 C555.32 324.93, 554.22 651.03, 555.76 829.34 M553.85 831.01 C365.23 833.45, 174.95 834.69, 0.94 830.15 M554.29 830.18 C376.63 834.4, 197.71 834.64, 0.2 829.93 M-0.88 829.62 C-2.97 547.38, -1.29 267.45, 0.96 -1.45 M0.48 829.93 C-6.84 531.8, -5.99 235.78, -0.45 -0.47" stroke="#ffffff" stroke-width="1" fill="none"></path></g><g stroke-linecap="round"><g transform="translate(45.42045593261719 376.25) rotate(0 242.5 -1.5)"><path d="M-0.29 0.48 C175.78 -0.39, 353.09 -3.38, 484.92 -4.27 M-0.31 0.35 C119.93 2.49, 240.89 1.61, 485.71 -2.53" stroke="#ffffff" stroke-width="1" fill="none"></path></g></g><mask></mask><g stroke-linecap="round"><g transform="translate(571.4204559326173 381.50161102500806) rotate(0 26.874999999999886 -0.2810784542352849)"><path d="M-2.85 3.57 C14.97 2.29, 21.32 1.35, 54 3.4 M0.03 -0.45 C15.26 1.53, 30.61 -0.64, 54.6 0.61" stroke="#ffffff" stroke-width="1" fill="none"></path></g><g transform="translate(571.4204559326173 381.50161102500806) rotate(0 26.874999999999886 -0.2810784542352849)"><path d="M29.51 10.45 C37.7 7.8, 40.13 5.53, 54.72 2.59 M30.95 8.45 C37.69 7.18, 44.44 3.85, 55.03 1.2" stroke="#ffffff" stroke-width="1" fill="none"></path></g><g transform="translate(571.4204559326173 381.50161102500806) rotate(0 26.874999999999886 -0.2810784542352849)"><path d="M29.87 -6.64 C37.92 -5.33, 40.27 -3.63, 54.72 2.59 M31.31 -8.65 C37.82 -4.97, 44.46 -3.37, 55.03 1.2" stroke="#ffffff" stroke-width="1" fill="none"></path></g></g><mask></mask><g transform="translate(247.15656704372827 28.138888888889596) rotate(0 35.01818084716797 12)"><text x="0" y="19.3125" font-family="Cascadia, Segoe UI Emoji" font-size="20px" fill="#a5d8ff" text-anchor="start" style="white-space: pre;" direction="ltr" dominant-baseline="alphabetic">Screen</text></g><g stroke-linecap="round" transform="translate(55.65656704372833 131.86111111111222) rotate(0 233.88888888888883 114)"><path d="M0 0 C153.94 2.24, 308.98 1.36, 467.78 0 M0 0 C160.75 -1.04, 322.03 -1.06, 467.78 0 M467.78 0 C466.93 61.57, 468.39 123.86, 467.78 228 M467.78 0 C467.3 58.48, 466.09 117.09, 467.78 228 M467.78 228 C316.5 225.5, 165.81 226.73, 0 228 M467.78 228 C332.65 229.07, 197.84 228.98, 0 228 M0 228 C0.36 155.27, 0.52 85.74, 0 0 M0 228 C1.82 172.49, 2 118.44, 0 0" stroke="#a5d8ff" stroke-width="1" fill="none"></path></g><g stroke-linecap="round" transform="translate(61.15656704372833 138.86111111111222) rotate(0 228.44444444444437 107)"><path d="M0 0 L456.89 0 L456.89 214 L0 214" stroke="none" stroke-width="0" fill="#b2f2bb"></path><path d="M0 0 C96.73 0, 193.46 0, 456.89 0 M0 0 C158.66 0, 317.32 0, 456.89 0 M456.89 0 C456.89 73.58, 456.89 147.16, 456.89 214 M456.89 0 C456.89 55.18, 456.89 110.35, 456.89 214 M456.89 214 C359.88 214, 262.87 214, 0 214 M456.89 214 C291.85 214, 126.8 214, 0 214 M0 214 C0 135.88, 0 57.76, 0 0 M0 214 C0 146.49, 0 78.98, 0 0" stroke="#1e1e1e" stroke-width="1" fill="none"></path></g><g stroke-linecap="round" transform="translate(69.65656704372833 147.36111111111222) rotate(0 107.61111111111109 97.83333333333348)"><path d="M0.77 -1.4 L215.88 0.12 L213.42 197.05 L0.24 195.74" stroke="none" stroke-width="0" fill="#fa5252"></path><path d="M0 0 C74 -0.47, 147.28 0.19, 215.22 0 M0 0 C62.44 0.52, 125.7 -0.54, 215.22 0 M215.22 0 C214.33 45.35, 214.33 94.95, 215.22 195.67 M215.22 0 C214.39 50.81, 213.28 102.52, 215.22 195.67 M215.22 195.67 C165.72 197.43, 117.68 196.99, 0 195.67 M215.22 195.67 C161.71 193.51, 108.51 193.58, 0 195.67 M0 195.67 C0.33 145.76, 1.82 99.78, 0 0 M0 195.67 C-0.93 148.48, -1.83 103, 0 0" stroke="#1e1e1e" stroke-width="2" fill="none"></path></g><g transform="translate(139.8131340874566 225.99444444444543) rotate(0 37.45454406738281 19.199999999999818)"><text x="37.45454406738281" y="15.45" font-family="Cascadia, Segoe UI Emoji" font-size="16px" fill="#1e1e1e" text-anchor="middle" style="white-space: pre;" direction="ltr" dominant-baseline="alphabetic">window 1</text><text x="37.45454406738281" y="34.65" font-family="Cascadia, Segoe UI Emoji" font-size="16px" fill="#1e1e1e" text-anchor="middle" style="white-space: pre;" direction="ltr" dominant-baseline="alphabetic">Node EA</text></g><g transform="translate(60.08513847229966 65.5039682539691) rotate(0 32.772727966308594 9.599999999999909)"><text x="0" y="15.45" font-family="Cascadia, Segoe UI Emoji" font-size="16px" fill="#b2f2bb" text-anchor="start" style="white-space: pre;" direction="ltr" dominant-baseline="alphabetic">Node PA</text></g><g stroke-linecap="round" transform="translate(293.760733710395 148.06111111111295) rotate(0 107.61111111111109 97.83333333333348)"><path d="M0.24 0.07 L214.27 1.26 L214.44 197.1 L-1.36 194.25" stroke="none" stroke-width="0" fill="#ffec99"></path><path d="M0 0 C53.56 -0.74, 108.13 0.47, 215.22 0 M0 0 C44.93 -0.32, 90.73 -0.32, 215.22 0 M215.22 0 C213.22 76.18, 213.64 149.66, 215.22 195.67 M215.22 0 C214.48 60.11, 214.14 121.06, 215.22 195.67 M215.22 195.67 C148.16 197.49, 81.92 198.36, 0 195.67 M215.22 195.67 C170.01 193.7, 122.78 194.35, 0 195.67 M0 195.67 C2.12 124.06, -0.25 48.68, 0 0 M0 195.67 C-0.42 132.71, -1.65 70.32, 0 0" stroke="#1e1e1e" stroke-width="2" fill="none"></path></g><g stroke-linecap="round" transform="translate(303.03851148817284 155.1166666666677) rotate(0 98.33333333333337 43.333333333333485)"><path d="M0 0 C62.73 1.37, 122.36 -0.74, 196.67 0 M0 0 C57.9 0.41, 117.91 0.45, 196.67 0 M196.67 0 C195.29 19.51, 196.28 41.11, 196.67 86.67 M196.67 0 C197.54 33.63, 197.29 65.53, 196.67 86.67 M196.67 86.67 C119.52 88.27, 44.42 85.94, 0 86.67 M196.67 86.67 C152.2 85.66, 109.7 84.88, 0 86.67 M0 86.67 C-1.87 52.36, 0.05 18.52, 0 0 M0 86.67 C-1.19 67.44, -0.16 46.87, 0 0" stroke="#343a40" stroke-width="2" fill="none"></path></g><g transform="translate(363.9173007541234 179.2500000000009) rotate(0 37.45454406738281 19.199999999999818)"><text x="37.45454406738281" y="15.45" font-family="Cascadia, Segoe UI Emoji" font-size="16px" fill="#343a40" text-anchor="middle" style="white-space: pre;" direction="ltr" dominant-baseline="alphabetic">window 2</text><text x="37.45454406738281" y="34.65" font-family="Cascadia, Segoe UI Emoji" font-size="16px" fill="#343a40" text-anchor="middle" style="white-space: pre;" direction="ltr" dominant-baseline="alphabetic">Node B</text></g><g stroke-linecap="round" transform="translate(302.70517815483936 249.33888888889032) rotate(0 98.33333333333337 43.333333333333485)"><path d="M0 0 C67.57 -0.42, 134.4 -0.04, 196.67 0 M0 0 C50.16 0.13, 101.65 0.34, 196.67 0 M196.67 0 C198.35 19.7, 196.51 37.42, 196.67 86.67 M196.67 0 C197.54 30.6, 196.87 61.67, 196.67 86.67 M196.67 86.67 C123.33 87.36, 51.9 84.46, 0 86.67 M196.67 86.67 C135.6 85.88, 73.57 84.7, 0 86.67 M0 86.67 C-1.6 60.65, -0.07 31.53, 0 0 M0 86.67 C-0.58 55.32, -0.5 23.42, 0 0" stroke="#1e1e1e" stroke-width="2" fill="none"></path></g><g transform="translate(363.5839674207899 273.47222222222354) rotate(0 37.45454406738281 19.199999999999818)"><text x="37.45454406738281" y="15.45" font-family="Cascadia, Segoe UI Emoji" font-size="16px" fill="#1e1e1e" text-anchor="middle" style="white-space: pre;" direction="ltr" dominant-baseline="alphabetic">window 3</text><text x="37.45454406738281" y="34.65" font-family="Cascadia, Segoe UI Emoji" font-size="16px" fill="#1e1e1e" text-anchor="middle" style="white-space: pre;" direction="ltr" dominant-baseline="alphabetic">Node C</text></g><g stroke-linecap="round"><g transform="translate(282.03851148817284 103.33888888889032) rotate(0 0 -18.888888888888687)"><path d="M0 0 C0 -8.25, 0 -16.5, 0 -37.78 M0 0 C0 -8.97, 0 -17.94, 0 -37.78" stroke="#a5d8ff" stroke-width="2" fill="none"></path></g><g transform="translate(282.03851148817284 103.33888888889032) rotate(0 0 -18.888888888888687)"><path d="M6.46 -20.03 C5.05 -23.9, 3.64 -27.78, 0 -37.78 M6.46 -20.03 C4.93 -24.24, 3.39 -28.46, 0 -37.78" stroke="#a5d8ff" stroke-width="2" fill="none"></path></g><g transform="translate(282.03851148817284 103.33888888889032) rotate(0 0 -18.888888888888687)"><path d="M-6.46 -20.03 C-5.05 -23.9, -3.64 -27.78, 0 -37.78 M-6.46 -20.03 C-4.93 -24.24, -3.39 -28.46, 0 -37.78" stroke="#a5d8ff" stroke-width="2" fill="none"></path></g></g><mask></mask><g stroke-linecap="round"><g transform="translate(200.0240453714382 139.00555555555638) rotate(0 -33.27142210674356 -28.391943797507338)"><path d="M0 0 C-15.79 -13.47, -31.58 -26.95, -66.54 -56.78 M0 0 C-17.19 -14.67, -34.39 -29.34, -66.54 -56.78" stroke="#b2f2bb" stroke-width="1" fill="none"></path></g><g transform="translate(200.0240453714382 139.00555555555638) rotate(0 -33.27142210674356 -28.391943797507338)"><path d="M-43.12 -48.04 C-48.68 -50.11, -54.24 -52.19, -66.54 -56.78 M-43.12 -48.04 C-49.17 -50.3, -55.23 -52.56, -66.54 -56.78" stroke="#b2f2bb" stroke-width="1" fill="none"></path></g><g transform="translate(200.0240453714382 139.00555555555638) rotate(0 -33.27142210674356 -28.391943797507338)"><path d="M-54.22 -35.03 C-57.15 -40.19, -60.07 -45.35, -66.54 -56.78 M-54.22 -35.03 C-57.41 -40.65, -60.59 -46.27, -66.54 -56.78" stroke="#b2f2bb" stroke-width="1" fill="none"></path></g></g><mask></mask><g transform="translate(458.3162892659507 50.40555555555784) rotate(0 28.090909957885742 9.599999999999909)"><text x="0" y="15.45" font-family="Cascadia, Segoe UI Emoji" font-size="16px" fill="#ffec99" text-anchor="start" style="white-space: pre;" direction="ltr" dominant-baseline="alphabetic">Node A</text></g><g stroke-linecap="round"><g transform="translate(421.41940318292836 146.67222222222426) rotate(0 19.919377662769875 -31.881751856221854)"><path d="M0 0 C9.77 -15.64, 19.55 -31.29, 39.84 -63.76 M0 0 C15.18 -24.29, 30.36 -48.59, 39.84 -63.76" stroke="#ffec99" stroke-width="1" fill="none"></path></g><g transform="translate(421.41940318292836 146.67222222222426) rotate(0 19.919377662769875 -31.881751856221854)"><path d="M34.64 -39.31 C35.92 -45.31, 37.19 -51.31, 39.84 -63.76 M34.64 -39.31 C36.62 -48.63, 38.6 -57.94, 39.84 -63.76" stroke="#ffec99" stroke-width="1" fill="none"></path></g><g transform="translate(421.41940318292836 146.67222222222426) rotate(0 19.919377662769875 -31.881751856221854)"><path d="M20.14 -48.37 C24.97 -52.15, 29.81 -55.92, 39.84 -63.76 M20.14 -48.37 C27.64 -54.24, 35.15 -60.1, 39.84 -63.76" stroke="#ffec99" stroke-width="1" fill="none"></path></g></g><mask></mask><g transform="translate(184.43608093261696 389.7555555555564) rotate(0 46.69091033935547 12)"><text x="0" y="19.3125" font-family="Cascadia, Segoe UI Emoji" font-size="20px" fill="#a5d8ff" text-anchor="start" style="white-space: pre;" direction="ltr" dominant-baseline="alphabetic">BSP-tree</text></g><g stroke-linecap="round" transform="translate(169.43608093261696 490.7555555555564) rotate(0 65.99999999999999 34)"><path d="M17 0 C49.6 2.67, 92.1 -0.67, 115 0 M17 0 C51.42 1.94, 91.2 1.78, 115 0 M115 0 C126.38 -3.7, 128.85 9.58, 132 17 M115 0 C124.5 -4, 131.99 2.16, 132 17 M132 17 C127.8 26.2, 132.63 37.17, 132 51 M132 17 C133.3 24.78, 132.26 35.26, 132 51 M132 51 C128.63 65.53, 129.04 68.89, 115 68 M132 51 C131.67 62.54, 125.21 71.42, 115 68 M115 68 C79.42 64.88, 52.96 68.04, 17 68 M115 68 C86.81 70.68, 55.3 67.8, 17 68 M17 68 C4.21 68.25, -1.24 65.34, 0 51 M17 68 C9.82 65.11, -0.62 66.7, 0 51 M0 51 C1.66 37.2, 3.65 25.46, 0 17 M0 51 C-1.11 38.82, -0.9 27.3, 0 17 M0 17 C0.12 5.49, 6.01 -0.71, 17 0 M0 17 C-2.2 1.66, 2.85 1.06, 17 0" stroke="#b2f2bb" stroke-width="2" fill="none"></path></g><g transform="translate(188.61790084838844 505.55555555555657) rotate(0 46.81818008422852 19.199999999999818)"><text x="46.818180084228516" y="15.45" font-family="Cascadia, Segoe UI Emoji" font-size="16px" fill="#b2f2bb" text-anchor="middle" style="white-space: pre;" direction="ltr" dominant-baseline="alphabetic">ROOT_NODE </text><text x="46.818180084228516" y="34.65" font-family="Cascadia, Segoe UI Emoji" font-size="16px" fill="#b2f2bb" text-anchor="middle" style="white-space: pre;" direction="ltr" dominant-baseline="alphabetic">Node PA </text></g><g stroke-linecap="round"><g transform="translate(227.10894262261718 478.7555555555564) rotate(0 -0.940893774012352 -26.5)"><path d="M-0.92 1.94 C-1.65 -7.29, -2.43 -44.33, -3 -53.04 M3.78 0.52 C2.44 -7, -5.41 -40.28, -5.84 -49.43" stroke="#a5d8ff" stroke-width="2" fill="none"></path></g><g transform="translate(227.10894262261718 478.7555555555564) rotate(0 -0.940893774012352 -26.5)"><path d="M7.49 -28.27 C1.7 -36.98, -0.55 -41.09, -4.09 -49.41 M5.71 -28.35 C3.8 -32.68, 0.74 -37.29, -5.29 -50.34" stroke="#a5d8ff" stroke-width="2" fill="none"></path></g><g transform="translate(227.10894262261718 478.7555555555564) rotate(0 -0.940893774012352 -26.5)"><path d="M-9.42 -25.73 C-9.3 -35.27, -5.61 -40.28, -4.09 -49.41 M-11.2 -25.8 C-9.58 -30.83, -9.13 -35.96, -5.29 -50.34" stroke="#a5d8ff" stroke-width="2" fill="none"></path></g></g><mask></mask><g stroke-linecap="round" transform="translate(50.93608093261702 617.2555555555564) rotate(0 75.7222222222223 34)"><path d="M17 0 C48.36 -1.29, 81.69 2.31, 134.44 0 M17 0 C61.75 2.06, 107.67 0.22, 134.44 0 M134.44 0 C145.77 -1.53, 150.28 4.04, 151.44 17 M134.44 0 C147.05 -2.1, 152.01 6.35, 151.44 17 M151.44 17 C150.25 32.25, 150.71 44.58, 151.44 51 M151.44 17 C151.84 30.15, 151.09 42.9, 151.44 51 M151.44 51 C150.96 63.82, 146.5 68.64, 134.44 68 M151.44 51 C150.93 60.81, 144.24 70.21, 134.44 68 M134.44 68 C99.39 69.43, 62.29 66.97, 17 68 M134.44 68 C109.18 68.83, 85.44 67.45, 17 68 M17 68 C5.4 69.9, 1.36 63.1, 0 51 M17 68 C6.67 69.1, -0.74 64.58, 0 51 M0 51 C-0.16 40.04, -0.18 30.5, 0 17 M0 51 C0.08 39.4, -0.49 27.29, 0 17 M0 17 C-1.23 6.13, 4.48 1.42, 17 0 M0 17 C1.03 6.55, 5.63 -1.46, 17 0" stroke="#ff8787" stroke-width="2" fill="none"></path></g><g transform="translate(61.11284722222213 622.4555555555562) rotate(0 65.54545593261719 28.800000000000182)"><text x="65.54545593261719" y="15.45" font-family="Cascadia, Segoe UI Emoji" font-size="16px" fill="#ff8787" text-anchor="middle" style="white-space: pre;" direction="ltr" dominant-baseline="alphabetic">EXTERNAL_NODE </text><text x="65.54545593261719" y="34.65" font-family="Cascadia, Segoe UI Emoji" font-size="16px" fill="#ff8787" text-anchor="middle" style="white-space: pre;" direction="ltr" dominant-baseline="alphabetic">Node EA</text><text x="65.54545593261719" y="53.849999999999994" font-family="Cascadia, Segoe UI Emoji" font-size="16px" fill="#ff8787" text-anchor="middle" style="white-space: pre;" direction="ltr" dominant-baseline="alphabetic">window 1</text></g><g stroke-linecap="round"><g transform="translate(160.58104291266818 559.6007812953876) rotate(0 -11.359632656007193 21.577387130084844)"><path d="M1.75 0.02 C-6.25 7.78, -7.27 17.71, -24.46 43.15 M0.56 -0.91 C-5.09 9.76, -9.48 18.57, -23.58 42.65" stroke="#a5d8ff" stroke-width="1" fill="none"></path></g><g transform="translate(160.58104291266818 559.6007812953876) rotate(0 -11.359632656007193 21.577387130084844)"><path d="M-17.63 18.65 C-21.89 22.19, -18.98 28.06, -25.32 42.64 M-18.83 17.72 C-20.21 24.26, -20.47 28.79, -24.44 42.15" stroke="#a5d8ff" stroke-width="1" fill="none"></path></g><g transform="translate(160.58104291266818 559.6007812953876) rotate(0 -11.359632656007193 21.577387130084844)"><path d="M-3.17 26.97 C-10.58 28.87, -10.73 32.98, -25.32 42.64 M-4.37 26.04 C-8.94 30.61, -12.43 33.27, -24.44 42.15" stroke="#a5d8ff" stroke-width="1" fill="none"></path></g></g><mask></mask><g stroke-linecap="round"><g transform="translate(311.11575847152085 563.9808634644587) rotate(0 10.866245430672734 20.88734604554884)"><path d="M-1.85 -1.58 C10.84 15.57, 15.66 32.73, 20.21 40.61 M0.25 0.3 C5.92 8.78, 8.88 17.96, 22.67 41.5" stroke="#a5d8ff" stroke-width="1" fill="none"></path></g><g transform="translate(311.11575847152085 563.9808634644587) rotate(0 10.866245430672734 20.88734604554884)"><path d="M3.02 24.52 C13.93 31.34, 17.22 38.16, 21.15 40.33 M5.11 26.39 C9.78 29.08, 11.88 32.49, 23.61 41.22" stroke="#a5d8ff" stroke-width="1" fill="none"></path></g><g transform="translate(311.11575847152085 563.9808634644587) rotate(0 10.866245430672734 20.88734604554884)"><path d="M17.08 16.68 C22.56 26.57, 20.33 36.46, 21.15 40.33 M19.18 18.55 C20.81 22.82, 19.84 27.95, 23.61 41.22" stroke="#a5d8ff" stroke-width="1" fill="none"></path></g></g><mask></mask><g stroke-linecap="round" transform="translate(284.4777475992835 618.459256998699) rotate(0 75.72222222222229 34)"><path d="M17 0 C56.27 0.26, 84.25 1.84, 134.44 0 M17 0 C44.38 0.09, 70.03 2.5, 134.44 0 M134.44 0 C149.51 -2.2, 148 3.65, 151.44 17 M134.44 0 C150.1 -1.27, 153.39 9.36, 151.44 17 M151.44 17 C152.88 24.05, 152.17 30.7, 151.44 51 M151.44 17 C151.24 28.4, 150.35 44.37, 151.44 51 M151.44 51 C151.92 62.19, 147.68 71.17, 134.44 68 M151.44 51 C153.45 64.93, 142.12 63.97, 134.44 68 M134.44 68 C106.48 70.88, 70 66.73, 17 68 M134.44 68 C88.94 69.86, 41.05 70.86, 17 68 M17 68 C5.15 70.36, -0.51 62.42, 0 51 M17 68 C2.91 68.05, -2.27 63.98, 0 51 M0 51 C-0.68 38.78, -3.46 27.94, 0 17 M0 51 C1.3 40.78, 0.37 27.76, 0 17 M0 17 C2.28 1.93, 2.91 1, 17 0 M0 17 C1.49 5.9, 6.67 0.01, 17 0" stroke="#ffec99" stroke-width="2" fill="none"></path></g><g transform="translate(294.6545138888886 633.2592569986991) rotate(0 65.54545593261719 19.199999999999818)"><text x="65.54545593261719" y="15.45" font-family="Cascadia, Segoe UI Emoji" font-size="16px" fill="#ffec99" text-anchor="middle" style="white-space: pre;" direction="ltr" dominant-baseline="alphabetic">INTERNAL_NODE </text><text x="65.54545593261719" y="34.65" font-family="Cascadia, Segoe UI Emoji" font-size="16px" fill="#ffec99" text-anchor="middle" style="white-space: pre;" direction="ltr" dominant-baseline="alphabetic">Node A</text></g><g stroke-linecap="round"><g transform="translate(283.1329030725799 697.938669209826) rotate(0 -15.787510093963647 22.644299187445085)"><path d="M-1.53 -1.17 C-10.24 12.89, -18.65 24.06, -30.98 47.15 M0.94 -0.28 C-7.7 11.74, -16.7 22.83, -30.9 45.51" stroke="#a5d8ff" stroke-width="1" fill="none"></path></g><g transform="translate(283.1329030725799 697.938669209826) rotate(0 -15.787510093963647 22.644299187445085)"><path d="M-26.74 20 C-28.53 28.61, -30.21 34.33, -30.3 47.38 M-24.28 20.89 C-26.4 27.9, -29.05 33.86, -30.22 45.73" stroke="#a5d8ff" stroke-width="1" fill="none"></path></g><g transform="translate(283.1329030725799 697.938669209826) rotate(0 -15.787510093963647 22.644299187445085)"><path d="M-12.42 29.35 C-17.86 35.53, -23.26 38.81, -30.3 47.38 M-9.96 30.24 C-15.5 34.89, -21.67 38.56, -30.22 45.73" stroke="#a5d8ff" stroke-width="1" fill="none"></path></g></g><mask></mask><g stroke-linecap="round"><g transform="translate(430.8559456472485 700.2393990819501) rotate(0 18.684301952035412 23.716156473605224)"><path d="M-1.63 1.11 C9.01 14.93, 22.63 30.52, 36.27 45.71 M0.42 0.8 C8.93 12.74, 19.77 24, 37.3 47.48" stroke="#a5d8ff" stroke-width="1" fill="none"></path></g><g transform="translate(430.8559456472485 700.2393990819501) rotate(0 18.684301952035412 23.716156473605224)"><path d="M14.52 35.25 C20.56 38.75, 29.32 44.12, 36.2 45.76 M16.57 34.95 C20.71 38.33, 27.51 41.08, 37.23 47.52" stroke="#a5d8ff" stroke-width="1" fill="none"></path></g><g transform="translate(430.8559456472485 700.2393990819501) rotate(0 18.684301952035412 23.716156473605224)"><path d="M28.04 24.78 C29.95 31.34, 34.65 39.85, 36.2 45.76 M30.09 24.47 C30.95 30.43, 34.38 35.8, 37.23 47.52" stroke="#a5d8ff" stroke-width="1" fill="none"></path></g></g><mask></mask><g stroke-linecap="round" transform="translate(398.71038648817284 762.2444444444454) rotate(0 75.72222222222229 34)"><path d="M17 0 C41.74 -0.32, 74.97 2.42, 134.44 0 M17 0 C47.65 0.63, 75.39 2.79, 134.44 0 M134.44 0 C142.41 3.2, 154.15 6.56, 151.44 17 M134.44 0 C145.45 0.21, 150.32 9.09, 151.44 17 M151.44 17 C149.02 25.75, 155.5 40.33, 151.44 51 M151.44 17 C152.64 28.21, 150.18 35.41, 151.44 51 M151.44 51 C149.99 62.59, 144.54 71, 134.44 68 M151.44 51 C155.6 59.44, 145.16 72.36, 134.44 68 M134.44 68 C93.15 67.73, 51.92 68.5, 17 68 M134.44 68 C91.08 68.07, 49.13 68.77, 17 68 M17 68 C5.79 67.83, 0.35 61.63, 0 51 M17 68 C3.47 63.99, -2.82 63.4, 0 51 M0 51 C1.05 42.75, -3.02 36.91, 0 17 M0 51 C1.12 44.07, 0.91 36.95, 0 17 M0 17 C2.2 2.01, 2.87 -1.03, 17 0 M0 17 C-3.02 9.88, 5.28 0.36, 17 0" stroke="#a5d8ff" stroke-width="2" fill="none"></path></g><g transform="translate(408.88715277777794 767.4444444444453) rotate(0 65.54545593261719 28.800000000000182)"><text x="65.54545593261719" y="15.45" font-family="Cascadia, Segoe UI Emoji" font-size="16px" fill="#a5d8ff" text-anchor="middle" style="white-space: pre;" direction="ltr" dominant-baseline="alphabetic">EXTERNAL_NODE </text><text x="65.54545593261719" y="34.65" font-family="Cascadia, Segoe UI Emoji" font-size="16px" fill="#a5d8ff" text-anchor="middle" style="white-space: pre;" direction="ltr" dominant-baseline="alphabetic">Node C</text><text x="65.54545593261719" y="53.849999999999994" font-family="Cascadia, Segoe UI Emoji" font-size="16px" fill="#a5d8ff" text-anchor="middle" style="white-space: pre;" direction="ltr" dominant-baseline="alphabetic">Window 3</text></g><g stroke-linecap="round" transform="translate(176.71038648817284 760.2444444444454) rotate(0 75.72222222222229 34)"><path d="M17 0 C52.91 -5.63, 91.21 1.57, 134.44 0 M17 0 C47.32 -0.29, 82.35 -1.44, 134.44 0 M134.44 0 C145.49 0.18, 150.47 8.64, 151.44 17 M134.44 0 C147.44 1.47, 150.41 2.62, 151.44 17 M151.44 17 C151.96 26.83, 155.26 34.59, 151.44 51 M151.44 17 C150.18 29.25, 150.28 42.74, 151.44 51 M151.44 51 C155.06 59.82, 145.24 71.79, 134.44 68 M151.44 51 C154.57 64.1, 147.78 70.21, 134.44 68 M134.44 68 C105.36 67.18, 71.64 65.3, 17 68 M134.44 68 C99.14 68.76, 63.9 68.49, 17 68 M17 68 C3.75 64.51, -2.45 63.26, 0 51 M17 68 C2.94 71.26, 2.05 64.1, 0 51 M0 51 C-3.3 38.1, 1.43 32.02, 0 17 M0 51 C0.95 38.8, -1.55 29.75, 0 17 M0 17 C-2.62 9.33, 5.33 0.31, 17 0 M0 17 C-4.25 6.87, 1.93 0.44, 17 0" stroke="#a5d8ff" stroke-width="2" fill="none"></path></g><g transform="translate(186.88715277777794 765.4444444444453) rotate(0 65.54545593261719 28.800000000000182)"><text x="65.54545593261719" y="15.45" font-family="Cascadia, Segoe UI Emoji" font-size="16px" fill="#a5d8ff" text-anchor="middle" style="white-space: pre;" direction="ltr" dominant-baseline="alphabetic">EXTERNAL_NODE </text><text x="65.54545593261719" y="34.65" font-family="Cascadia, Segoe UI Emoji" font-size="16px" fill="#a5d8ff" text-anchor="middle" style="white-space: pre;" direction="ltr" dominant-baseline="alphabetic">Node B</text><text x="65.54545593261719" y="53.849999999999994" font-family="Cascadia, Segoe UI Emoji" font-size="16px" fill="#a5d8ff" text-anchor="middle" style="white-space: pre;" direction="ltr" dominant-baseline="alphabetic">window 2</text></g><g stroke-linecap="round"><g transform="translate(299.726215645464 609.8895787523552) rotate(0 -8 -22)"><path d="M-0.55 0.84 C-1.6 -10.95, -5.03 -17.33, -15.56 -44.14 M0.36 0.32 C-4.99 -13.94, -10.31 -25.72, -15.88 -44.04" stroke="#a5d8ff" stroke-width="1" fill="none"></path></g><g transform="translate(299.726215645464 609.8895787523552) rotate(0 -8 -22)"><path d="M-1.92 -24.83 C-2.77 -31.15, -5.89 -32.04, -15.44 -44.18 M-1 -25.35 C-5.96 -31.82, -10.83 -35.79, -15.76 -44.07" stroke="#a5d8ff" stroke-width="1" fill="none"></path></g><g transform="translate(299.726215645464 609.8895787523552) rotate(0 -8 -22)"><path d="M-17.12 -19.79 C-14.7 -27.33, -14.56 -29.3, -15.44 -44.18 M-16.2 -20.32 C-16.52 -28.43, -16.76 -33.93, -15.76 -44.07" stroke="#a5d8ff" stroke-width="1" fill="none"></path></g></g><mask></mask><g stroke-linecap="round"><g transform="translate(164.80981713000483 604.578497529631) rotate(0 9 -17)"><path d="M1.61 -1.68 C8.79 -12.12, 14.72 -27.01, 18.09 -34.49 M-0.22 -0.66 C5.95 -11.83, 13.47 -25.55, 18.48 -33.21" stroke="#a5d8ff" stroke-width="1" fill="none"></path></g><g transform="translate(164.80981713000483 604.578497529631) rotate(0 9 -17)"><path d="M16.19 -15.98 C17.75 -20.5, 18.15 -29.37, 18.56 -33.68 M14.44 -14.99 C15.37 -20.5, 17.56 -28.52, 18.93 -32.45" stroke="#a5d8ff" stroke-width="1" fill="none"></path></g><g transform="translate(164.80981713000483 604.578497529631) rotate(0 9 -17)"><path d="M4.97 -22.85 C10.93 -24.71, 15.75 -30.87, 18.56 -33.68 M3.21 -21.86 C8.37 -24.84, 14.77 -30.28, 18.93 -32.45" stroke="#a5d8ff" stroke-width="1" fill="none"></path></g></g><mask></mask><g stroke-linecap="round"><g transform="translate(282.80981713000483 742.578497529631) rotate(0 9 -17)"><path d="M1.6 1.35 C6.33 -11.63, 12.14 -23.61, 19.49 -33.28 M-0.67 0.96 C6.17 -11.2, 12.5 -21.66, 18.44 -33.44" stroke="#a5d8ff" stroke-width="1" fill="none"></path></g><g transform="translate(282.80981713000483 742.578497529631) rotate(0 9 -17)"><path d="M17.35 -13.08 C16.99 -21.02, 17.54 -27.87, 19.87 -32.74 M15.17 -13.46 C16.84 -20.72, 18.05 -26.25, 18.85 -32.89" stroke="#a5d8ff" stroke-width="1" fill="none"></path></g><g transform="translate(282.80981713000483 742.578497529631) rotate(0 9 -17)"><path d="M5.72 -19.22 C9.38 -24.96, 13.92 -29.71, 19.87 -32.74 M3.53 -19.6 C9.05 -24.75, 14.13 -28.24, 18.85 -32.89" stroke="#a5d8ff" stroke-width="1" fill="none"></path></g></g><mask></mask><g stroke-linecap="round"><g transform="translate(423.2987221328335 740.9994031415745) rotate(0 -7.5 -18.5)"><path d="M0.44 -0.14 C-3.44 -8.37, -5.28 -15.15, -14.36 -37.45 M0.12 -0.04 C-2.78 -7.72, -6.33 -16.6, -15.79 -37.88" stroke="#a5d8ff" stroke-width="1" fill="none"></path></g><g transform="translate(423.2987221328335 740.9994031415745) rotate(0 -7.5 -18.5)"><path d="M-1.57 -23.58 C-5.01 -26.95, -6.59 -28.86, -15.16 -38.32 M-1.89 -23.47 C-4.66 -25.89, -7.93 -29.49, -16.59 -38.75" stroke="#a5d8ff" stroke-width="1" fill="none"></path></g><g transform="translate(423.2987221328335 740.9994031415745) rotate(0 -7.5 -18.5)"><path d="M-14.07 -18.1 C-14.86 -22.73, -13.74 -25.82, -15.16 -38.32 M-14.4 -17.99 C-14.21 -21.81, -14.55 -26.7, -16.59 -38.75" stroke="#a5d8ff" stroke-width="1" fill="none"></path></g></g><mask></mask><g transform="translate(10 392.39999999999964) rotate(0 65.54545593261719 9.599999999999909)"><text x="65.54545593261719" y="15.45" font-family="Cascadia, Segoe UI Emoji" font-size="16px" fill="#a5d8ff" text-anchor="middle" style="white-space: pre;" direction="ltr" dominant-baseline="alphabetic"> initial state</text></g><g stroke-linecap="round" transform="translate(23.545455932617188 586.0000000000009) rotate(0 106.5 65.5)"><path d="M193.95 29.75 C202.85 36.13, 208.27 46.94, 211.26 55.44 C214.25 63.94, 214.99 72.51, 211.88 80.76 C208.78 89.01, 201.84 98.04, 192.63 104.93 C183.42 111.83, 169.92 117.77, 156.62 122.14 C143.33 126.51, 127.42 130.37, 112.84 131.15 C98.25 131.93, 82.75 129.8, 69.11 126.81 C55.46 123.81, 41.43 119.25, 30.97 113.19 C20.51 107.13, 11.42 98.77, 6.36 90.45 C1.3 82.14, 0.04 72.5, 0.59 63.31 C1.14 54.12, 3.74 43.03, 9.65 35.32 C15.55 27.6, 25.12 22.22, 36.02 17.01 C46.92 11.79, 61.09 6.63, 75.07 4.04 C89.06 1.45, 105.66 0.43, 119.92 1.48 C134.19 2.54, 147.53 5.03, 160.67 10.37 C173.81 15.72, 192.23 28.68, 198.76 33.55 C205.29 38.41, 201.57 38.82, 199.85 39.57 M190.37 21.49 C200.01 27.52, 203.3 40.72, 206.63 49.31 C209.96 57.89, 212 64.23, 210.36 73.01 C208.72 81.8, 203.89 94.73, 196.78 102.02 C189.67 109.31, 179.93 112.17, 167.71 116.74 C155.5 121.32, 137.86 127.59, 123.5 129.48 C109.13 131.37, 94.87 129.93, 81.52 128.07 C68.16 126.2, 54.8 123.48, 43.36 118.3 C31.92 113.13, 20.21 105.1, 12.9 97.01 C5.6 88.93, 0.57 79.05, -0.46 69.78 C-1.5 60.52, 1.63 49.51, 6.7 41.44 C11.77 33.37, 20.31 26.97, 29.94 21.35 C39.56 15.73, 51.07 11.45, 64.46 7.72 C77.85 4, 95.9 -1.13, 110.26 -1 C124.63 -0.87, 137.7 4.61, 150.63 8.5 C163.56 12.39, 181.73 20.16, 187.83 22.35 C193.93 24.55, 188.31 20.74, 187.23 21.66" stroke="#ffffff" stroke-width="1" fill="none"></path></g><g stroke-linecap="round" transform="translate(256.0454559326172 589.5000000000009) rotate(0 106.5 65.5)"><path d="M33.81 16.89 C43.23 9.93, 60.11 3.89, 74.12 1.42 C88.13 -1.05, 103.66 1.07, 117.87 2.09 C132.08 3.11, 146.76 3.57, 159.36 7.54 C171.95 11.51, 185.19 18.83, 193.44 25.92 C201.68 33.01, 205.87 41.57, 208.84 50.1 C211.81 58.63, 214.07 68.48, 211.23 77.1 C208.4 85.72, 200.12 94.55, 191.82 101.83 C183.52 109.11, 173.73 116.13, 161.44 120.79 C149.14 125.45, 132.32 128.69, 118.06 129.79 C103.8 130.9, 89.54 129.68, 75.91 127.41 C62.27 125.15, 47.54 121.86, 36.24 116.22 C24.95 110.59, 14.28 102.26, 8.13 93.62 C1.98 84.98, -0.91 73.5, -0.67 64.39 C-0.43 55.28, 2.03 47.61, 9.57 38.96 C17.11 30.31, 36.91 17.31, 44.55 12.49 C52.19 7.67, 54.37 9.28, 55.43 10.03 M25.13 22.14 C33.3 15.25, 48.92 7.25, 62.36 3.97 C75.8 0.68, 90.92 2.33, 105.75 2.43 C120.58 2.54, 138.12 1.37, 151.34 4.6 C164.57 7.83, 175.88 14.58, 185.1 21.81 C194.32 29.04, 201.89 39.09, 206.67 47.99 C211.45 56.88, 215.67 66.44, 213.79 75.16 C211.91 83.89, 202.83 93.31, 195.38 100.33 C187.94 107.35, 180.79 112.42, 169.11 117.3 C157.43 122.19, 139.9 127.47, 125.3 129.62 C110.7 131.78, 95.11 131.85, 81.51 130.23 C67.92 128.6, 55.24 125.2, 43.71 119.87 C32.19 114.53, 20.04 106.59, 12.35 98.22 C4.66 89.84, -1.66 78.39, -2.44 69.61 C-3.21 60.82, 2.41 53.8, 7.71 45.52 C13.01 37.24, 25.57 23.47, 29.36 19.91 C33.15 16.36, 29.33 23.05, 30.42 24.2" stroke="#ffffff" stroke-width="1" fill="none"></path></g><g stroke-linecap="round"><g transform="translate(372.5454559326172 590.0000000000009) rotate(0 19.5 -26.5)"><path d="M-0.78 -0.12 C15.53 -16.51, 23.64 -36.48, 36.3 -53.53 M0.26 -1.07 C11.37 -13.71, 23.5 -30.63, 38.46 -53.35" stroke="#ffffff" stroke-width="1" fill="none"></path></g><g transform="translate(372.5454559326172 590.0000000000009) rotate(0 19.5 -26.5)"><path d="M32.03 -29.15 C35.43 -36.37, 34.93 -45.6, 37.11 -53.61 M32.55 -29.62 C34.11 -35.44, 36.08 -43.21, 38.18 -53.52" stroke="#ffffff" stroke-width="1" fill="none"></path></g><g transform="translate(372.5454559326172 590.0000000000009) rotate(0 19.5 -26.5)"><path d="M17.85 -38.7 C25.97 -42.79, 30.26 -48.79, 37.11 -53.61 M18.37 -39.18 C24.26 -42.01, 30.54 -46.89, 38.18 -53.52" stroke="#ffffff" stroke-width="1" fill="none"></path></g></g><mask></mask><g transform="translate(325.90909576416016 474.8000000000011) rotate(0 93.63636016845703 28.800000000000182)"><text x="93.63636016845703" y="15.45" font-family="Cascadia, Segoe UI Emoji" font-size="16px" fill="#ffffff" text-anchor="middle" style="white-space: pre;" direction="ltr" dominant-baseline="alphabetic">should be </text><text x="93.63636016845703" y="34.65" font-family="Cascadia, Segoe UI Emoji" font-size="16px" fill="#ffffff" text-anchor="middle" style="white-space: pre;" direction="ltr" dominant-baseline="alphabetic">unlinked from their </text><text x="93.63636016845703" y="53.849999999999994" font-family="Cascadia, Segoe UI Emoji" font-size="16px" fill="#ffffff" text-anchor="middle" style="white-space: pre;" direction="ltr" dominant-baseline="alphabetic">parents and children</text></g><g stroke-linecap="round"><g transform="translate(214.5454559326172 611.0000000000009) rotate(0 85.5 -20)"><path d="M-1.51 0.48 C55.74 -10.86, 120.44 -23.76, 170.36 -42.84 M1.46 -1.01 C62.07 -15.54, 120.68 -29.05, 172.97 -41.47" stroke="#ffffff" stroke-width="1" fill="none"></path></g></g><mask></mask><g stroke-linecap="round" transform="translate(634.0454559326172 10) rotate(0 277.49999999999994 415)"><path d="M1.35 1.14 C133.55 -1.56, 265.38 1.39, 555.97 -0.62 M0.72 0.12 C116.91 -1.66, 233.78 -1.88, 554.87 -0.09 M553.95 -0.08 C554.94 236.04, 555.91 471.14, 555.61 831.1 M554.66 0.34 C557.58 262.3, 556.47 525.27, 555.25 830.27 M553.78 831.32 C371.2 834.24, 185.17 835.14, 1.45 831.45 M554.34 829.5 C373.68 833.47, 191.94 834.45, -0.05 830.08 M0.17 830.31 C-3.67 607.42, -3.62 385.08, 0.6 0.74 M0 830.14 C2.11 551.17, 1.86 271.71, -0.03 0.53" stroke="#ffffff" stroke-width="1" fill="none"></path></g><g stroke-linecap="round"><g transform="translate(664.0454559326172 373) rotate(0 242.49999999999994 -1.5)"><path d="M0.9 -1.54 C146.58 -2.27, 294.28 -5.41, 483.49 -1.98 M-0.39 0.66 C169.5 -1.28, 340.53 -2.85, 484.86 -3.01" stroke="#ffffff" stroke-width="1" fill="none"></path></g></g><mask></mask><g transform="translate(793.8110809326167 384.0055555555555) rotate(0 46.69091033935547 12)"><text x="0" y="19.3125" font-family="Cascadia, Segoe UI Emoji" font-size="20px" fill="#a5d8ff" text-anchor="start" style="white-space: pre;" direction="ltr" dominant-baseline="alphabetic">BSP-tree</text></g><g stroke-linecap="round" transform="translate(778.8110809326167 485.0055555555555) rotate(0 66 34)"><path d="M17 0 C39.93 -3.37, 54.47 0.57, 115 0 M17 0 C50.5 1.24, 83.9 0.68, 115 0 M115 0 C125.66 -0.46, 131.36 5.62, 132 17 M115 0 C130.17 -3.03, 131.77 5.7, 132 17 M132 17 C133.95 30.49, 133.06 39.73, 132 51 M132 17 C132.95 28.71, 130.17 42.07, 132 51 M132 51 C133.23 63.68, 127.66 71.12, 115 68 M132 51 C135.79 58.84, 130.14 71.13, 115 68 M115 68 C85.63 73.44, 50.08 70.23, 17 68 M115 68 C77.75 66.32, 39.42 68.75, 17 68 M17 68 C5.41 68.39, -1.32 63.65, 0 51 M17 68 C9.67 68.48, 0.89 58.04, 0 51 M0 51 C2.11 44.55, 2.08 33.45, 0 17 M0 51 C1.42 42.71, 0.78 32.83, 0 17 M0 17 C-0.16 8.3, 2.59 -2.31, 17 0 M0 17 C1.73 8.47, 7.48 -3.13, 17 0" stroke="#b2f2bb" stroke-width="2" fill="none"></path></g><g transform="translate(797.9929008483882 499.80555555555566) rotate(0 46.818180084228516 19.199999999999818)"><text x="46.818180084228516" y="15.45" font-family="Cascadia, Segoe UI Emoji" font-size="16px" fill="#b2f2bb" text-anchor="middle" style="white-space: pre;" direction="ltr" dominant-baseline="alphabetic">ROOT_NODE </text><text x="46.818180084228516" y="34.65" font-family="Cascadia, Segoe UI Emoji" font-size="16px" fill="#b2f2bb" text-anchor="middle" style="white-space: pre;" direction="ltr" dominant-baseline="alphabetic">Node PA </text></g><g stroke-linecap="round"><g transform="translate(836.4839426226174 473.0055555555555) rotate(0 -0.940893774012352 -26.5)"><path d="M1.68 1.43 C1.97 -6.91, 1.45 -43.85, 0.64 -52.56 M-0.85 -0.26 C-0.61 -7.86, 0.57 -39.54, -0.23 -48.7" stroke="#a5d8ff" stroke-width="2" fill="none"></path></g><g transform="translate(836.4839426226174 473.0055555555555) rotate(0 -0.940893774012352 -26.5)"><path d="M9.82 -23.59 C6.95 -32.35, 5.82 -39.46, 0.75 -49.03 M9.63 -26.04 C6.18 -32.1, 3.78 -38.22, -0.51 -48.31" stroke="#a5d8ff" stroke-width="2" fill="none"></path></g><g transform="translate(836.4839426226174 473.0055555555555) rotate(0 -0.940893774012352 -26.5)"><path d="M-7.28 -23.24 C-5.67 -32.19, -2.33 -39.4, 0.75 -49.03 M-7.47 -25.7 C-5.99 -31.85, -3.45 -38.07, -0.51 -48.31" stroke="#a5d8ff" stroke-width="2" fill="none"></path></g></g><mask></mask><g stroke-linecap="round" transform="translate(831.311080932617 758.5055555555555) rotate(0 75.72222222222229 34)"><path d="M17 0 C59.6 -1.98, 103.11 -3, 134.44 0 M17 0 C57.83 0.12, 99.82 -0.52, 134.44 0 M134.44 0 C145.68 0.01, 151.76 6.89, 151.44 17 M134.44 0 C145.15 0.88, 153.03 6.04, 151.44 17 M151.44 17 C152.44 29.5, 151.59 37.99, 151.44 51 M151.44 17 C151.88 30.78, 152.37 42.25, 151.44 51 M151.44 51 C153.1 63.69, 146.51 67.94, 134.44 68 M151.44 51 C153.57 64.42, 147.86 68.62, 134.44 68 M134.44 68 C96.72 67.24, 61.07 66.38, 17 68 M134.44 68 C87.24 68.44, 41.57 68.22, 17 68 M17 68 C6.05 66.13, -1.11 60.53, 0 51 M17 68 C3.45 68.86, 1.07 63.18, 0 51 M0 51 C0.39 43.01, 1.61 32.96, 0 17 M0 51 C-0.75 37.56, 0.39 25.9, 0 17 M0 17 C0.79 4.31, 6.83 0.48, 17 0 M0 17 C-2.28 7.24, 5.6 1.42, 17 0" stroke="#ff8787" stroke-width="2" fill="none"></path></g><g transform="translate(841.4878472222222 763.7055555555553) rotate(0 65.54545593261719 28.800000000000182)"><text x="65.54545593261719" y="15.45" font-family="Cascadia, Segoe UI Emoji" font-size="16px" fill="#ff8787" text-anchor="middle" style="white-space: pre;" direction="ltr" dominant-baseline="alphabetic">EXTERNAL_NODE </text><text x="65.54545593261719" y="34.65" font-family="Cascadia, Segoe UI Emoji" font-size="16px" fill="#ff8787" text-anchor="middle" style="white-space: pre;" direction="ltr" dominant-baseline="alphabetic">Node EA</text><text x="65.54545593261719" y="53.849999999999994" font-family="Cascadia, Segoe UI Emoji" font-size="16px" fill="#ff8787" text-anchor="middle" style="white-space: pre;" direction="ltr" dominant-baseline="alphabetic">window 1</text></g><g stroke-linecap="round" transform="translate(665.8527475992832 755.709256998698) rotate(0 75.72222222222229 34)"><path d="M17 0 C48.78 1.61, 76.16 1.65, 134.44 0 M17 0 C52 1.56, 87.52 2.78, 134.44 0 M134.44 0 C144.68 1.53, 154.2 6.31, 151.44 17 M134.44 0 C147.22 2.04, 149.49 7.61, 151.44 17 M151.44 17 C154.74 30.53, 152.79 42.92, 151.44 51 M151.44 17 C153.66 31.21, 152.74 42.64, 151.44 51 M151.44 51 C155.15 65.96, 149.4 69.07, 134.44 68 M151.44 51 C151.93 66.12, 141.99 65.11, 134.44 68 M134.44 68 C101.94 66.98, 61.89 65.92, 17 68 M134.44 68 C95.74 66.38, 55.15 66.45, 17 68 M17 68 C1.82 69.49, 1.86 63.8, 0 51 M17 68 C4.6 67.55, 0.01 63.14, 0 51 M0 51 C2.59 38.23, 2.09 22.7, 0 17 M0 51 C0.53 41.41, 0.91 35.01, 0 17 M0 17 C-3.97 8.4, 5.55 2.47, 17 0 M0 17 C2.17 4.3, 4.26 -3.19, 17 0" stroke="#ffec99" stroke-width="2" fill="none"></path></g><g transform="translate(676.0295138888882 770.5092569986982) rotate(0 65.54545593261719 19.199999999999818)"><text x="65.54545593261719" y="15.45" font-family="Cascadia, Segoe UI Emoji" font-size="16px" fill="#ffec99" text-anchor="middle" style="white-space: pre;" direction="ltr" dominant-baseline="alphabetic">INTERNAL_NODE </text><text x="65.54545593261719" y="34.65" font-family="Cascadia, Segoe UI Emoji" font-size="16px" fill="#ffec99" text-anchor="middle" style="white-space: pre;" direction="ltr" dominant-baseline="alphabetic">Node A</text></g><g stroke-linecap="round" transform="translate(879.0853864881728 605.4944444444445) rotate(0 75.72222222222229 34)"><path d="M17 0 C62.04 0.75, 109.49 -0.97, 134.44 0 M17 0 C57.36 0.51, 95.62 0.47, 134.44 0 M134.44 0 C148.25 -0.01, 148.36 8.97, 151.44 17 M134.44 0 C147.19 1.55, 152.97 9.25, 151.44 17 M151.44 17 C153.65 31.47, 150.8 46.7, 151.44 51 M151.44 17 C152.27 31.93, 150.41 42.31, 151.44 51 M151.44 51 C151.87 61.44, 144.48 71.96, 134.44 68 M151.44 51 C151.15 62.78, 144.26 69.51, 134.44 68 M134.44 68 C85.27 66.23, 39.96 64.6, 17 68 M134.44 68 C94.36 68.67, 55.21 69.21, 17 68 M17 68 C8.51 71.16, 1.56 65.46, 0 51 M17 68 C5.48 71.02, -3.53 59.67, 0 51 M0 51 C-3.14 41.85, 0.54 24.07, 0 17 M0 51 C0.97 37.88, -0.59 24.57, 0 17 M0 17 C-2.19 3.88, 4.37 -2.61, 17 0 M0 17 C4.03 2.9, 3.85 1.23, 17 0" stroke="#a5d8ff" stroke-width="2" fill="none"></path></g><g transform="translate(889.2621527777778 610.6944444444443) rotate(0 65.54545593261719 28.800000000000182)"><text x="65.54545593261719" y="15.45" font-family="Cascadia, Segoe UI Emoji" font-size="16px" fill="#a5d8ff" text-anchor="middle" style="white-space: pre;" direction="ltr" dominant-baseline="alphabetic">EXTERNAL_NODE </text><text x="65.54545593261719" y="34.65" font-family="Cascadia, Segoe UI Emoji" font-size="16px" fill="#a5d8ff" text-anchor="middle" style="white-space: pre;" direction="ltr" dominant-baseline="alphabetic">Node C</text><text x="65.54545593261719" y="53.849999999999994" font-family="Cascadia, Segoe UI Emoji" font-size="16px" fill="#a5d8ff" text-anchor="middle" style="white-space: pre;" direction="ltr" dominant-baseline="alphabetic">Window 3</text></g><g stroke-linecap="round" transform="translate(671.0853864881728 606.4944444444445) rotate(0 75.72222222222229 34)"><path d="M17 0 C55.62 3.4, 91.81 1.9, 134.44 0 M17 0 C58.69 -1, 96.36 0.66, 134.44 0 M134.44 0 C147.01 1.35, 152.77 8.79, 151.44 17 M134.44 0 C149.57 -3.5, 155.25 8.8, 151.44 17 M151.44 17 C155.05 32.07, 152.5 40.31, 151.44 51 M151.44 17 C151.1 29.55, 150.24 44.98, 151.44 51 M151.44 51 C151.19 62.72, 144.46 69.31, 134.44 68 M151.44 51 C155.44 62.82, 146.66 63.71, 134.44 68 M134.44 68 C107.23 67.6, 78.5 64.81, 17 68 M134.44 68 C101.78 69.99, 67.05 69.98, 17 68 M17 68 C5.51 70.63, -3.07 60.02, 0 51 M17 68 C7.4 70.81, 1.81 59.2, 0 51 M0 51 C2.57 38.7, 2.31 28.53, 0 17 M0 51 C-0.89 40.92, -0.44 31.32, 0 17 M0 17 C3.5 3.26, 4.09 1.07, 17 0 M0 17 C4.32 2.83, 5.36 -4.23, 17 0" stroke="#a5d8ff" stroke-width="2" fill="none"></path></g><g transform="translate(681.2621527777778 611.6944444444443) rotate(0 65.54545593261719 28.800000000000182)"><text x="65.54545593261719" y="15.45" font-family="Cascadia, Segoe UI Emoji" font-size="16px" fill="#a5d8ff" text-anchor="middle" style="white-space: pre;" direction="ltr" dominant-baseline="alphabetic">EXTERNAL_NODE </text><text x="65.54545593261719" y="34.65" font-family="Cascadia, Segoe UI Emoji" font-size="16px" fill="#a5d8ff" text-anchor="middle" style="white-space: pre;" direction="ltr" dominant-baseline="alphabetic">Node B</text><text x="65.54545593261719" y="53.849999999999994" font-family="Cascadia, Segoe UI Emoji" font-size="16px" fill="#a5d8ff" text-anchor="middle" style="white-space: pre;" direction="ltr" dominant-baseline="alphabetic">window 2</text></g><g transform="translate(657.4204559326172 386.65000000000146) rotate(0 51.5 9.599999999999909)"><text x="51.5" y="15.45" font-family="Cascadia, Segoe UI Emoji" font-size="16px" fill="#a5d8ff" text-anchor="middle" style="white-space: pre;" direction="ltr" dominant-baseline="alphabetic">final state</text></g><g transform="translate(863.5315670437285 22.388888888888687) rotate(0 35.01818084716797 12)"><text x="0" y="19.3125" font-family="Cascadia, Segoe UI Emoji" font-size="20px" fill="#a5d8ff" text-anchor="start" style="white-space: pre;" direction="ltr" dominant-baseline="alphabetic">Screen</text></g><g stroke-linecap="round" transform="translate(672.0315670437285 126.11111111111131) rotate(0 233.88888888888886 114)"><path d="M0 0 C104.58 -0.35, 209.25 0.09, 467.78 0 M0 0 C104.95 -1.46, 209.99 -1.03, 467.78 0 M467.78 0 C469.7 87.66, 467.23 178.31, 467.78 228 M467.78 0 C467.09 63.36, 466.87 126.84, 467.78 228 M467.78 228 C285.93 227.9, 104.97 227.54, 0 228 M467.78 228 C309.86 228.73, 152.16 228.86, 0 228 M0 228 C-0.2 143.33, -0.41 57.49, 0 0 M0 228 C-0.4 172.2, -0.23 117.77, 0 0" stroke="#a5d8ff" stroke-width="1" fill="none"></path></g><g stroke-linecap="round" transform="translate(677.5315670437285 133.1111111111113) rotate(0 228.4444444444444 107)"><path d="M0 0 L456.89 0 L456.89 214 L0 214" stroke="none" stroke-width="0" fill="#b2f2bb"></path><path d="M0 0 C151.14 0, 302.28 0, 456.89 0 M0 0 C168.16 0, 336.33 0, 456.89 0 M456.89 0 C456.89 66.44, 456.89 132.88, 456.89 214 M456.89 0 C456.89 85.41, 456.89 170.82, 456.89 214 M456.89 214 C311.02 214, 165.16 214, 0 214 M456.89 214 C303.06 214, 149.22 214, 0 214 M0 214 C0 141.45, 0 68.9, 0 0 M0 214 C0 136.74, 0 59.48, 0 0" stroke="#1e1e1e" stroke-width="1" fill="none"></path></g><g stroke-linecap="round" transform="translate(686.0315670437285 141.6111111111113) rotate(0 107.61111111111109 97.83333333333348)"><path d="M0 0 C70.37 -0.1, 144.59 -0.91, 215.22 0 M0 0 C64.68 -1.47, 127.86 -0.99, 215.22 0 M215.22 0 C213.54 41.93, 215.97 85.03, 215.22 195.67 M215.22 0 C215.45 60.71, 214.77 120.28, 215.22 195.67 M215.22 195.67 C163.27 194.67, 110.66 193.45, 0 195.67 M215.22 195.67 C153.38 196.69, 90.63 196.68, 0 195.67 M0 195.67 C-2.44 138.49, -0.07 80.6, 0 0 M0 195.67 C-2.13 150.96, -1.17 105.51, 0 0" stroke="#1e1e1e" stroke-width="2" fill="none"></path></g><g transform="translate(751.5063141716853 220.24444444444453) rotate(0 42.1363639831543 19.199999999999818)"><text x="42.1363639831543" y="15.45" font-family="Cascadia, Segoe UI Emoji" font-size="16px" fill="#1e1e1e" text-anchor="middle" style="white-space: pre;" direction="ltr" dominant-baseline="alphabetic">window 2 </text><text x="42.1363639831543" y="34.65" font-family="Cascadia, Segoe UI Emoji" font-size="16px" fill="#1e1e1e" text-anchor="middle" style="white-space: pre;" direction="ltr" dominant-baseline="alphabetic">node B</text></g><g transform="translate(676.4601384722998 59.753968253968196) rotate(0 32.772727966308594 9.599999999999909)"><text x="0" y="15.45" font-family="Cascadia, Segoe UI Emoji" font-size="16px" fill="#b2f2bb" text-anchor="start" style="white-space: pre;" direction="ltr" dominant-baseline="alphabetic">Node PA</text></g><g stroke-linecap="round" transform="translate(910.1357337103952 142.31111111111204) rotate(0 107.61111111111114 97.83333333333348)"><path d="M0 0 C74.05 -0.16, 145.4 -1.56, 215.22 0 M0 0 C82.37 0.99, 164.27 2.05, 215.22 0 M215.22 0 C216.07 59.19, 215.62 115.28, 215.22 195.67 M215.22 0 C213.17 40.81, 214.6 81.23, 215.22 195.67 M215.22 195.67 C155.97 196.91, 97.49 196.35, 0 195.67 M215.22 195.67 C133.16 196.4, 52.77 197.44, 0 195.67 M0 195.67 C1.81 127.28, 2.7 62.81, 0 0 M0 195.67 C-1.23 124.17, -1.47 53.62, 0 0" stroke="#1e1e1e" stroke-width="2" fill="none"></path></g><g transform="translate(980.2923007541235 220.94444444444525) rotate(0 37.45454406738281 19.199999999999818)"><text x="37.45454406738281" y="15.45" font-family="Cascadia, Segoe UI Emoji" font-size="16px" fill="#1e1e1e" text-anchor="middle" style="white-space: pre;" direction="ltr" dominant-baseline="alphabetic">window 3</text><text x="37.45454406738281" y="34.65" font-family="Cascadia, Segoe UI Emoji" font-size="16px" fill="#1e1e1e" text-anchor="middle" style="white-space: pre;" direction="ltr" dominant-baseline="alphabetic">node C</text></g><g stroke-linecap="round"><g transform="translate(898.4135114881731 97.58888888888941) rotate(0 0 -18.88888888888914)"><path d="M0 0 C0 -14.76, 0 -29.51, 0 -37.78 M0 0 C0 -10.49, 0 -20.97, 0 -37.78" stroke="#a5d8ff" stroke-width="2" fill="none"></path></g><g transform="translate(898.4135114881731 97.58888888888941) rotate(0 0 -18.88888888888914)"><path d="M6.46 -20.03 C3.94 -26.96, 1.41 -33.9, 0 -37.78 M6.46 -20.03 C4.67 -24.95, 2.87 -29.88, 0 -37.78" stroke="#a5d8ff" stroke-width="2" fill="none"></path></g><g transform="translate(898.4135114881731 97.58888888888941) rotate(0 0 -18.88888888888914)"><path d="M-6.46 -20.03 C-3.94 -26.96, -1.41 -33.9, 0 -37.78 M-6.46 -20.03 C-4.67 -24.95, -2.87 -29.88, 0 -37.78" stroke="#a5d8ff" stroke-width="2" fill="none"></path></g></g><mask></mask><g stroke-linecap="round"><g transform="translate(816.3990453714384 133.25555555555547) rotate(0 -33.27142210674356 -28.391943797507793)"><path d="M0 0 C-20.66 -17.63, -41.32 -35.26, -66.54 -56.78 M0 0 C-26.56 -22.66, -53.12 -45.33, -66.54 -56.78" stroke="#b2f2bb" stroke-width="1" fill="none"></path></g><g transform="translate(816.3990453714384 133.25555555555547) rotate(0 -33.27142210674356 -28.391943797507793)"><path d="M-43.12 -48.04 C-50.39 -50.75, -57.66 -53.47, -66.54 -56.78 M-43.12 -48.04 C-52.47 -51.53, -61.82 -55.02, -66.54 -56.78" stroke="#b2f2bb" stroke-width="1" fill="none"></path></g><g transform="translate(816.3990453714384 133.25555555555547) rotate(0 -33.27142210674356 -28.391943797507793)"><path d="M-54.22 -35.03 C-58.05 -41.78, -61.87 -48.54, -66.54 -56.78 M-54.22 -35.03 C-59.14 -43.71, -64.06 -52.39, -66.54 -56.78" stroke="#b2f2bb" stroke-width="1" fill="none"></path></g></g><mask></mask><g stroke-linecap="round"><g transform="translate(774.178294480178 555.3925507370595) rotate(0 -15.787510093963647 22.644299187445085)"><path d="M0.95 -1.65 C-11.13 16.41, -23.11 33.85, -31.74 43.34 M-0.6 0.36 C-12.14 16.39, -23.98 34.12, -31.75 45.59" stroke="#a5d8ff" stroke-width="1" fill="none"></path></g><g transform="translate(774.178294480178 555.3925507370595) rotate(0 -15.787510093963647 22.644299187445085)"><path d="M-24.73 19.69 C-27.53 29.89, -30.05 39.53, -31.92 43.64 M-26.28 21.69 C-28.03 29.82, -30.03 39.43, -31.92 45.89" stroke="#a5d8ff" stroke-width="1" fill="none"></path></g><g transform="translate(774.178294480178 555.3925507370595) rotate(0 -15.787510093963647 22.644299187445085)"><path d="M-10.56 29.27 C-18.69 35.95, -26.46 42.04, -31.92 43.64 M-12.11 31.27 C-19.35 35.59, -26.82 41.5, -31.92 45.89" stroke="#a5d8ff" stroke-width="1" fill="none"></path></g></g><mask></mask><g stroke-linecap="round"><g transform="translate(773.8552085376032 600.0323790568664) rotate(0 9 -17)"><path d="M0.2 -0.45 C5.61 -10.68, 11.35 -23.86, 19.72 -33.47 M-0.08 -0.83 C4.44 -8.13, 7.96 -14.75, 18 -34.19" stroke="#a5d8ff" stroke-width="1" fill="none"></path></g><g transform="translate(773.8552085376032 600.0323790568664) rotate(0 9 -17)"><path d="M15.7 -15.55 C16.16 -21.09, 16.87 -29.35, 19.65 -33.68 M15.43 -15.91 C16.43 -19.87, 16.55 -23.24, 17.99 -34.37" stroke="#a5d8ff" stroke-width="1" fill="none"></path></g><g transform="translate(773.8552085376032 600.0323790568664) rotate(0 9 -17)"><path d="M4.02 -21.61 C8.3 -25.09, 12.8 -31.38, 19.65 -33.68 M3.75 -21.97 C7.29 -24.64, 9.98 -26.67, 17.99 -34.37" stroke="#a5d8ff" stroke-width="1" fill="none"></path></g></g><mask></mask><g stroke-linecap="round"><g transform="translate(876.3319703413795 560.0000000000009) rotate(0 11.969627324299495 18)"><path d="M0.58 -0.16 C6.46 12.14, 16.56 22.91, 23.32 37.07 M0.73 -0.59 C7.11 9.38, 13.57 18.55, 23.96 36.98" stroke="#a4d6fd" stroke-width="1" fill="none"></path></g><g transform="translate(876.3319703413795 560.0000000000009) rotate(0 11.969627324299495 18)"><path d="M7.91 23.01 C11.54 28.5, 19.37 32.39, 23.34 38.05 M8.06 22.58 C12.47 26.74, 17.03 30.14, 23.99 37.96" stroke="#a4d6fd" stroke-width="1" fill="none"></path></g><g transform="translate(876.3319703413795 560.0000000000009) rotate(0 11.969627324299495 18)"><path d="M20.68 15.55 C20.35 23.46, 24.22 29.66, 23.34 38.05 M20.83 15.12 C21.94 21.16, 23.18 26.49, 23.99 37.96" stroke="#a4d6fd" stroke-width="1" fill="none"></path></g></g><mask></mask><g stroke-linecap="round"><g transform="translate(928.7406958435754 593.0000000000009) rotate(0 -8.561914966251152 -15.51808331410939)"><path d="M1.16 -0.88 C-6.44 -10.61, -11.53 -19.05, -17.65 -32.37 M-0.67 0.76 C-3.56 -6.77, -7.06 -15.45, -17.29 -31.36" stroke="#a4d6fd" stroke-width="1" fill="none"></path></g><g transform="translate(928.7406958435754 593.0000000000009) rotate(0 -8.561914966251152 -15.51808331410939)"><path d="M-2.48 -21.01 C-8.7 -25.03, -12.81 -27.89, -17.76 -32.55 M-4.09 -19.56 C-6.36 -22.42, -9.14 -26.32, -17.44 -31.66" stroke="#a4d6fd" stroke-width="1" fill="none"></path></g><g transform="translate(928.7406958435754 593.0000000000009) rotate(0 -8.561914966251152 -15.51808331410939)"><path d="M-12.86 -14.75 C-16.2 -20.59, -17.39 -25.22, -17.76 -32.55 M-14.48 -13.3 C-14.33 -17.57, -14.7 -22.92, -17.44 -31.66" stroke="#a4d6fd" stroke-width="1" fill="none"></path></g></g><mask></mask><g transform="translate(920.3122623761494 393.7500000000009) rotate(0 118.23319355646782 39.25)"><text x="0" y="12.633593750000003" font-family="Cascadia, Segoe UI Emoji" font-size="13.083333333333337px" fill="#ffffff" text-anchor="start" style="white-space: pre;" direction="ltr" dominant-baseline="alphabetic">- The parent  child links </text><text x="0" y="28.333593750000006" font-family="Cascadia, Segoe UI Emoji" font-size="13.083333333333337px" fill="#ffffff" text-anchor="start" style="white-space: pre;" direction="ltr" dominant-baseline="alphabetic">  are removed</text><text x="0" y="44.03359375000001" font-family="Cascadia, Segoe UI Emoji" font-size="13.083333333333337px" fill="#ffffff" text-anchor="start" style="white-space: pre;" direction="ltr" dominant-baseline="alphabetic">- We can safely call </text><text x="0" y="59.73359375000002" font-family="Cascadia, Segoe UI Emoji" font-size="13.083333333333337px" fill="#ffffff" text-anchor="start" style="white-space: pre;" direction="ltr" dominant-baseline="alphabetic">  free(node A) and </text><text x="0" y="75.43359375000003" font-family="Cascadia, Segoe UI Emoji" font-size="13.083333333333337px" fill="#ffffff" text-anchor="start" style="white-space: pre;" direction="ltr" dominant-baseline="alphabetic">  free(node EA)</text></g></svg>