<svg version="1.1" xmlns="http://www.w3.org/2000/svg" viewBox="0 0 1089.2187500000005 483.7111111111117" width="1089.2187500000005" height="483.7111111111117">
  <!-- svg-source:excalidraw -->
  
  <defs>
    <style class="style-fonts">
      @font-face {
        font-family: "Virgil";
        src: url("https://excalidraw.com/Virgil.woff2");
      }
      @font-face {
        font-family: "Cascadia";
        src: url("https://excalidraw.com/Cascadia.woff2");
      }
      @font-face {
        font-family: "Assistant";
        src: url("https://excalidraw.com/Assistant-Regular.woff2");
      }
    </style>
    
  </defs>
  <rect x="0" y="0" width="1089.2187500000005" height="483.7111111111117" fill="#2a2631"></rect><g transform="translate(201.5 10) rotate(0 35.01818084716797 12)"><text x="0" y="19.3125" font-family="Cascadia, Segoe UI Emoji" font-size="20px" fill="#a5d8ff" text-anchor="start" style="white-space: pre;" direction="ltr" dominant-baseline="alphabetic">Screen</text></g><g transform="translate(713.5 33.222222222222626) rotate(0 46.69091033935547 12)"><text x="0" y="19.3125" font-family="Cascadia, Segoe UI Emoji" font-size="20px" fill="#a5d8ff" text-anchor="start" style="white-space: pre;" direction="ltr" dominant-baseline="alphabetic">BSP-tree</text></g><g stroke-linecap="round" transform="translate(698.5 134.22222222222263) rotate(0 66 34)"><path d="M17 0 C45.25 -0.46, 73.11 -0.91, 115 0 M17 0 C40.34 -1.12, 61.47 2.38, 115 0 M115 0 C123.27 1.29, 130.95 1.69, 132 17 M115 0 C127.19 -1.56, 131.65 6.78, 132 17 M132 17 C133.68 22.55, 132.51 35.88, 132 51 M132 17 C131.4 25.96, 130.41 32.55, 132 51 M132 51 C129.94 66.08, 128.75 68.18, 115 68 M132 51 C130.32 59.77, 127.57 70.48, 115 68 M115 68 C82.64 69.89, 43.37 65.52, 17 68 M115 68 C82.37 68.78, 46.48 69.13, 17 68 M17 68 C7.29 66.46, -3.02 64.46, 0 51 M17 68 C7.01 72.59, -3.27 60.78, 0 51 M0 51 C0.18 39.63, -1.14 25.44, 0 17 M0 51 C0.16 38.53, -2.35 27.56, 0 17 M0 17 C-2.18 3.3, 6.43 3.49, 17 0 M0 17 C-1.59 8.82, 7.36 -2.24, 17 0" stroke="#b2f2bb" stroke-width="2" fill="none"></path></g><g transform="translate(717.6818199157715 149.0222222222228) rotate(0 46.818180084228516 19.199999999999818)"><text x="46.818180084228516" y="15.45" font-family="Cascadia, Segoe UI Emoji" font-size="16px" fill="#b2f2bb" text-anchor="middle" style="white-space: pre;" direction="ltr" dominant-baseline="alphabetic">ROOT_NODE </text><text x="46.818180084228516" y="34.65" font-family="Cascadia, Segoe UI Emoji" font-size="16px" fill="#b2f2bb" text-anchor="middle" style="white-space: pre;" direction="ltr" dominant-baseline="alphabetic">Node PA </text></g><g stroke-linecap="round"><g transform="translate(756.1728616900002 122.22222222222263) rotate(0 -0.940893774012352 -26.5)"><path d="M-1.8 -2.05 C-1.79 -10.89, -1.68 -44.99, -1.44 -53.89 M2.41 3.02 C2.22 -5.36, -2.81 -41.3, -3.43 -50.74" stroke="#a5d8ff" stroke-width="2" fill="none"></path></g><g transform="translate(756.1728616900002 122.22222222222263) rotate(0 -0.940893774012352 -26.5)"><path d="M6.08 -27.96 C4.26 -32.79, 0.45 -39.45, -1.67 -52.27 M7.73 -28.62 C3.88 -35.61, -0.25 -42.37, -3.59 -50.48" stroke="#a5d8ff" stroke-width="2" fill="none"></path></g><g transform="translate(756.1728616900002 122.22222222222263) rotate(0 -0.940893774012352 -26.5)"><path d="M-10.93 -26.16 C-8.54 -31.33, -8.16 -38.42, -1.67 -52.27 M-9.28 -26.82 C-7.47 -34.24, -5.95 -41.59, -3.59 -50.48" stroke="#a5d8ff" stroke-width="2" fill="none"></path></g></g><mask></mask><g stroke-linecap="round" transform="translate(580 260.7222222222226) rotate(0 75.72222222222229 34)"><path d="M17 0 C44.04 0.91, 70.6 -0.2, 134.44 0 M17 0 C62.31 -1.37, 108.33 -0.72, 134.44 0 M134.44 0 C145.62 0.48, 150.33 7.56, 151.44 17 M134.44 0 C145.42 0.59, 149.86 5.59, 151.44 17 M151.44 17 C150.15 28.96, 152.63 40.1, 151.44 51 M151.44 17 C151.87 28.16, 150.9 38.68, 151.44 51 M151.44 51 C151.98 63.41, 146.76 68.67, 134.44 68 M151.44 51 C149.26 63.39, 147.94 66.14, 134.44 68 M134.44 68 C101.15 69.22, 68.24 67.6, 17 68 M134.44 68 C92.55 68.08, 52.46 68.54, 17 68 M17 68 C4.25 67.32, 0.88 60.55, 0 51 M17 68 C5.36 67.75, 0.19 61.33, 0 51 M0 51 C-0.33 43.27, -0.12 32.41, 0 17 M0 51 C0.38 38.71, -0.16 25.37, 0 17 M0 17 C0.74 4.69, 6.59 -1.38, 17 0 M0 17 C0.35 6.43, 3.81 -1.88, 17 0" stroke="#ff8787" stroke-width="2" fill="none"></path></g><g transform="translate(590.1767662896051 265.92222222222244) rotate(0 65.54545593261719 28.800000000000182)"><text x="65.54545593261719" y="15.45" font-family="Cascadia, Segoe UI Emoji" font-size="16px" fill="#ff8787" text-anchor="middle" style="white-space: pre;" direction="ltr" dominant-baseline="alphabetic">EXTERNAL_NODE </text><text x="65.54545593261719" y="34.65" font-family="Cascadia, Segoe UI Emoji" font-size="16px" fill="#ff8787" text-anchor="middle" style="white-space: pre;" direction="ltr" dominant-baseline="alphabetic">Node EA</text><text x="65.54545593261719" y="53.849999999999994" font-family="Cascadia, Segoe UI Emoji" font-size="16px" fill="#ff8787" text-anchor="middle" style="white-space: pre;" direction="ltr" dominant-baseline="alphabetic">window 1</text></g><g stroke-linecap="round"><g transform="translate(689.6449619800511 203.06744796205385) rotate(0 -11.359632656007193 21.577387130084844)"><path d="M1.76 -1.53 C-7.79 14.79, -18.49 30.99, -23.4 43 M-0.15 0.26 C-8.29 14.17, -14.4 27.4, -23.36 42.64" stroke="#a5d8ff" stroke-width="1" fill="none"></path></g><g transform="translate(689.6449619800511 203.06744796205385) rotate(0 -11.359632656007193 21.577387130084844)"><path d="M-17.67 17.04 C-20.39 26.59, -24.42 36.03, -24.04 42.49 M-19.59 18.84 C-21.53 26.38, -21.55 33.43, -24 42.13" stroke="#a5d8ff" stroke-width="1" fill="none"></path></g><g transform="translate(689.6449619800511 203.06744796205385) rotate(0 -11.359632656007193 21.577387130084844)"><path d="M-3.12 25.2 C-10.93 31.85, -20.12 38.39, -24.04 42.49 M-5.04 26.99 C-11.65 32.03, -16.38 36.43, -24 42.13" stroke="#a5d8ff" stroke-width="1" fill="none"></path></g></g><mask></mask><g stroke-linecap="round"><g transform="translate(840.1796775389039 207.44753013112495) rotate(0 10.866245430672734 20.88734604554884)"><path d="M0.65 -0.52 C4.88 13.04, 12.7 25.03, 22.22 40.66 M-0.69 -0.03 C9.08 15.64, 16.45 32.41, 21.65 42.5" stroke="#a5d8ff" stroke-width="1" fill="none"></path></g><g transform="translate(840.1796775389039 207.44753013112495) rotate(0 10.866245430672734 20.88734604554884)"><path d="M5.28 25.7 C7.88 31.6, 14.29 35.95, 22.13 41.39 M3.94 26.2 C11.89 31.82, 17.4 38.52, 21.56 43.23" stroke="#a5d8ff" stroke-width="1" fill="none"></path></g><g transform="translate(840.1796775389039 207.44753013112495) rotate(0 10.866245430672734 20.88734604554884)"><path d="M19.72 18.57 C18.06 26.49, 20.14 32.98, 22.13 41.39 M18.38 19.07 C20.62 27.54, 20.43 37.06, 21.56 43.23" stroke="#a5d8ff" stroke-width="1" fill="none"></path></g></g><mask></mask><g stroke-linecap="round" transform="translate(10 113.72222222222263) rotate(0 233.88888888888886 114)"><path d="M0 0 C103.56 0.72, 208.62 0.49, 467.78 0 M0 0 C151.58 -1.89, 302.98 -2.03, 467.78 0 M467.78 0 C465.37 81.19, 467.48 161.67, 467.78 228 M467.78 0 C467.29 74.59, 466.47 148.62, 467.78 228 M467.78 228 C315.2 228.18, 162.42 229.89, 0 228 M467.78 228 C365.14 229.08, 263.2 229.2, 0 228 M0 228 C-1.64 158.05, -0.07 91.17, 0 0 M0 228 C1.76 136.09, 1.27 45.61, 0 0" stroke="#a5d8ff" stroke-width="1" fill="none"></path></g><g stroke-linecap="round" transform="translate(15.5 120.72222222222263) rotate(0 228.44444444444437 107)"><path d="M0 0 L456.89 0 L456.89 214 L0 214" stroke="none" stroke-width="0" fill="#b2f2bb"></path><path d="M0 0 C125.11 0, 250.22 0, 456.89 0 M0 0 C180.36 0, 360.71 0, 456.89 0 M456.89 0 C456.89 50.48, 456.89 100.96, 456.89 214 M456.89 0 C456.89 84.25, 456.89 168.49, 456.89 214 M456.89 214 C297.47 214, 138.05 214, 0 214 M456.89 214 C297.1 214, 137.31 214, 0 214 M0 214 C0 141.14, 0 68.28, 0 0 M0 214 C0 157.03, 0 100.05, 0 0" stroke="#1e1e1e" stroke-width="1" fill="none"></path></g><g stroke-linecap="round" transform="translate(24 129.22222222222263) rotate(0 107.61111111111109 97.83333333333348)"><path d="M1.41 -0.09 L215.86 0.12 L213.35 197.41 L-1.09 194.48" stroke="none" stroke-width="0" fill="#fa5252"></path><path d="M0 0 C68.98 -0.83, 138.77 -0.13, 215.22 0 M0 0 C70.63 -0.63, 139.7 -0.38, 215.22 0 M215.22 0 C217.18 56.03, 218.52 115.32, 215.22 195.67 M215.22 0 C214.78 60.13, 215 119.51, 215.22 195.67 M215.22 195.67 C169.69 197.16, 127.85 196.8, 0 195.67 M215.22 195.67 C149.27 196.72, 83.64 195.95, 0 195.67 M0 195.67 C0.96 150.33, -1.71 108.72, 0 0 M0 195.67 C0.34 153.95, -0.28 113.81, 0 0" stroke="#1e1e1e" stroke-width="2" fill="none"></path></g><g transform="translate(94.15656704372827 207.85555555555584) rotate(0 37.45454406738281 19.199999999999818)"><text x="37.45454406738281" y="15.45" font-family="Cascadia, Segoe UI Emoji" font-size="16px" fill="#1e1e1e" text-anchor="middle" style="white-space: pre;" direction="ltr" dominant-baseline="alphabetic">window 1</text><text x="37.45454406738281" y="34.65" font-family="Cascadia, Segoe UI Emoji" font-size="16px" fill="#1e1e1e" text-anchor="middle" style="white-space: pre;" direction="ltr" dominant-baseline="alphabetic">Node EA</text></g><g transform="translate(14.428571428571331 47.36507936507951) rotate(0 32.772727966308594 9.599999999999909)"><text x="0" y="15.45" font-family="Cascadia, Segoe UI Emoji" font-size="16px" fill="#b2f2bb" text-anchor="start" style="white-space: pre;" direction="ltr" dominant-baseline="alphabetic">Node PA</text></g><g stroke-linecap="round" transform="translate(813.5416666666665 261.9259236653652) rotate(0 75.72222222222229 34)"><path d="M17 0 C50.29 3.89, 80.67 -0.95, 134.44 0 M17 0 C45.09 -1.17, 74.45 0.17, 134.44 0 M134.44 0 C148.19 0.18, 149.98 3.44, 151.44 17 M134.44 0 C147.01 2.48, 153.69 7.21, 151.44 17 M151.44 17 C148.52 23.36, 153.75 29.49, 151.44 51 M151.44 17 C152.03 28.43, 152.81 37.07, 151.44 51 M151.44 51 C148.42 64.46, 146.94 71.99, 134.44 68 M151.44 51 C148.18 60.78, 147.81 63.9, 134.44 68 M134.44 68 C99.03 66.03, 69.91 71.01, 17 68 M134.44 68 C97.87 69.88, 63.93 66.95, 17 68 M17 68 C6.43 71.49, -1.38 65.07, 0 51 M17 68 C7.36 65.76, 2.13 59.15, 0 51 M0 51 C-3.5 37.73, -0.86 29.25, 0 17 M0 51 C0.92 43.27, -0.72 32.59, 0 17 M0 17 C-1.97 4.02, 4.59 -1.98, 17 0 M0 17 C-2.98 6.45, 1.79 -1.48, 17 0" stroke="#ffec99" stroke-width="2" fill="none"></path></g><g transform="translate(823.7184329562716 276.72592366536537) rotate(0 65.54545593261719 19.199999999999818)"><text x="65.54545593261719" y="15.45" font-family="Cascadia, Segoe UI Emoji" font-size="16px" fill="#ffec99" text-anchor="middle" style="white-space: pre;" direction="ltr" dominant-baseline="alphabetic">INTERNAL_NODE </text><text x="65.54545593261719" y="34.65" font-family="Cascadia, Segoe UI Emoji" font-size="16px" fill="#ffec99" text-anchor="middle" style="white-space: pre;" direction="ltr" dominant-baseline="alphabetic">Node A</text></g><g stroke-linecap="round" transform="translate(248.10416666666674 129.92222222222335) rotate(0 107.61111111111109 97.83333333333348)"><path d="M-0.69 1.37 L215.96 -0.97 L216.15 194.28 L0.3 196.33" stroke="none" stroke-width="0" fill="#ffec99"></path><path d="M0 0 C75.88 1.06, 154.82 0.2, 215.22 0 M0 0 C70.9 -1.72, 140.42 -2.25, 215.22 0 M215.22 0 C216.95 62.05, 217.2 129.78, 215.22 195.67 M215.22 0 C214.56 42.93, 215.74 86.06, 215.22 195.67 M215.22 195.67 C149.73 195.11, 86.52 196.94, 0 195.67 M215.22 195.67 C129.57 194.25, 43.02 194.94, 0 195.67 M0 195.67 C2.26 136.78, 0.77 75.71, 0 0 M0 195.67 C1.28 135.24, 2.02 76.88, 0 0" stroke="#1e1e1e" stroke-width="2" fill="none"></path></g><g stroke-linecap="round" transform="translate(257.38194444444457 136.9777777777781) rotate(0 98.33333333333337 43.333333333333485)"><path d="M0 0 C47.84 -0.99, 93.32 -0.86, 196.67 0 M0 0 C77.06 -0.65, 155.11 0.45, 196.67 0 M196.67 0 C197.88 32.12, 195.34 60.17, 196.67 86.67 M196.67 0 C197.17 30.64, 196.37 61.12, 196.67 86.67 M196.67 86.67 C130.77 85.76, 64.75 83.76, 0 86.67 M196.67 86.67 C144.18 84.81, 92.03 84.48, 0 86.67 M0 86.67 C-0.7 65.99, -0.49 42.17, 0 0 M0 86.67 C0.66 54, 0.13 20.27, 0 0" stroke="#343a40" stroke-width="2" fill="none"></path></g><g transform="translate(318.26073371039513 161.1111111111113) rotate(0 37.45454406738281 19.199999999999818)"><text x="37.45454406738281" y="15.45" font-family="Cascadia, Segoe UI Emoji" font-size="16px" fill="#343a40" text-anchor="middle" style="white-space: pre;" direction="ltr" dominant-baseline="alphabetic">window 2</text><text x="37.45454406738281" y="34.65" font-family="Cascadia, Segoe UI Emoji" font-size="16px" fill="#343a40" text-anchor="middle" style="white-space: pre;" direction="ltr" dominant-baseline="alphabetic">Node B</text></g><g stroke-linecap="round" transform="translate(257.0486111111111 231.20000000000073) rotate(0 98.33333333333337 43.333333333333485)"><path d="M0 0 C49.52 2.22, 95.38 0.28, 196.67 0 M0 0 C48.54 -0.72, 95.15 -0.6, 196.67 0 M196.67 0 C196.96 33.41, 196.1 69.91, 196.67 86.67 M196.67 0 C197.08 28.46, 195.92 58.23, 196.67 86.67 M196.67 86.67 C131.27 86.15, 65.44 85, 0 86.67 M196.67 86.67 C139.24 86.51, 83.59 85.76, 0 86.67 M0 86.67 C1.69 56.83, -1.24 29.56, 0 0 M0 86.67 C0.67 52.62, 0.76 18.86, 0 0" stroke="#1e1e1e" stroke-width="2" fill="none"></path></g><g transform="translate(317.92740037706164 255.33333333333394) rotate(0 37.45454406738281 19.199999999999818)"><text x="37.45454406738281" y="15.45" font-family="Cascadia, Segoe UI Emoji" font-size="16px" fill="#1e1e1e" text-anchor="middle" style="white-space: pre;" direction="ltr" dominant-baseline="alphabetic">window 3</text><text x="37.45454406738281" y="34.65" font-family="Cascadia, Segoe UI Emoji" font-size="16px" fill="#1e1e1e" text-anchor="middle" style="white-space: pre;" direction="ltr" dominant-baseline="alphabetic">Node C</text></g><g stroke-linecap="round"><g transform="translate(236.38194444444457 85.20000000000073) rotate(0 0 -18.888888888888687)"><path d="M0 0 C0 -13.61, 0 -27.23, 0 -37.78 M0 0 C0 -12.6, 0 -25.21, 0 -37.78" stroke="#a5d8ff" stroke-width="2" fill="none"></path></g><g transform="translate(236.38194444444457 85.20000000000073) rotate(0 0 -18.888888888888687)"><path d="M6.46 -20.03 C4.13 -26.42, 1.8 -32.82, 0 -37.78 M6.46 -20.03 C4.3 -25.95, 2.15 -31.87, 0 -37.78" stroke="#a5d8ff" stroke-width="2" fill="none"></path></g><g transform="translate(236.38194444444457 85.20000000000073) rotate(0 0 -18.888888888888687)"><path d="M-6.46 -20.03 C-4.13 -26.42, -1.8 -32.82, 0 -37.78 M-6.46 -20.03 C-4.3 -25.95, -2.15 -31.87, 0 -37.78" stroke="#a5d8ff" stroke-width="2" fill="none"></path></g></g><mask></mask><g stroke-linecap="round"><g transform="translate(154.36747832770993 120.86666666666679) rotate(0 -33.27142210674356 -28.391943797507338)"><path d="M0 0 C-17.53 -14.96, -35.07 -29.93, -66.54 -56.78 M0 0 C-23.02 -19.65, -46.04 -39.29, -66.54 -56.78" stroke="#b2f2bb" stroke-width="1" fill="none"></path></g><g transform="translate(154.36747832770993 120.86666666666679) rotate(0 -33.27142210674356 -28.391943797507338)"><path d="M-43.12 -48.04 C-49.29 -50.34, -55.47 -52.65, -66.54 -56.78 M-43.12 -48.04 C-51.22 -51.06, -59.33 -54.09, -66.54 -56.78" stroke="#b2f2bb" stroke-width="1" fill="none"></path></g><g transform="translate(154.36747832770993 120.86666666666679) rotate(0 -33.27142210674356 -28.391943797507338)"><path d="M-54.22 -35.03 C-57.47 -40.76, -60.72 -46.49, -66.54 -56.78 M-54.22 -35.03 C-58.49 -42.56, -62.75 -50.08, -66.54 -56.78" stroke="#b2f2bb" stroke-width="1" fill="none"></path></g></g><mask></mask><g transform="translate(412.6597222222224 32.26666666666824) rotate(0 28.090909957885742 9.599999999999909)"><text x="0" y="15.45" font-family="Cascadia, Segoe UI Emoji" font-size="16px" fill="#ffec99" text-anchor="start" style="white-space: pre;" direction="ltr" dominant-baseline="alphabetic">Node A</text></g><g stroke-linecap="round"><g transform="translate(375.7628361392 128.53333333333467) rotate(0 19.919377662769875 -31.881751856221854)"><path d="M0 0 C13.9 -22.25, 27.8 -44.5, 39.84 -63.76 M0 0 C13.93 -22.3, 27.87 -44.6, 39.84 -63.76" stroke="#ffec99" stroke-width="1" fill="none"></path></g><g transform="translate(375.7628361392 128.53333333333467) rotate(0 19.919377662769875 -31.881751856221854)"><path d="M34.64 -39.31 C36.46 -47.84, 38.27 -56.37, 39.84 -63.76 M34.64 -39.31 C36.46 -47.86, 38.28 -56.41, 39.84 -63.76" stroke="#ffec99" stroke-width="1" fill="none"></path></g><g transform="translate(375.7628361392 128.53333333333467) rotate(0 19.919377662769875 -31.881751856221854)"><path d="M20.14 -48.37 C27.01 -53.74, 33.89 -59.11, 39.84 -63.76 M20.14 -48.37 C27.03 -53.75, 33.92 -59.14, 39.84 -63.76" stroke="#ffec99" stroke-width="1" fill="none"></path></g></g><mask></mask><g stroke-linecap="round"><g transform="translate(812.1968221399629 341.40533587649225) rotate(0 -15.787510093963647 22.644299187445085)"><path d="M-1.62 -0.31 C-5.27 8.86, -12.61 20.51, -30.92 45.31 M-0.76 0.53 C-10.59 16.74, -22.65 31.27, -31.13 44.4" stroke="#a5d8ff" stroke-width="1" fill="none"></path></g><g transform="translate(812.1968221399629 341.40533587649225) rotate(0 -15.787510093963647 22.644299187445085)"><path d="M-26.41 19.91 C-24.99 24.51, -27.15 31.83, -30.48 44.42 M-25.55 20.75 C-26.63 29.66, -29.85 36.79, -30.69 43.51" stroke="#a5d8ff" stroke-width="1" fill="none"></path></g><g transform="translate(812.1968221399629 341.40533587649225) rotate(0 -15.787510093963647 22.644299187445085)"><path d="M-12.35 29.64 C-13.85 32.38, -18.9 37.71, -30.48 44.42 M-11.49 30.48 C-17.53 35.93, -25.68 39.65, -30.69 43.51" stroke="#a5d8ff" stroke-width="1" fill="none"></path></g></g><mask></mask><g stroke-linecap="round"><g transform="translate(959.9198647146314 343.7060657486163) rotate(0 18.684301952035412 23.716156473605224)"><path d="M0.99 -0.72 C14.46 20.38, 29.71 37.44, 38.37 48.24 M0.29 1 C8.7 11.86, 19.62 23.71, 37.24 47.32" stroke="#a5d8ff" stroke-width="1" fill="none"></path></g><g transform="translate(959.9198647146314 343.7060657486163) rotate(0 18.684301952035412 23.716156473605224)"><path d="M17.12 33.22 C24.46 40.89, 33.3 44.54, 38.24 48.13 M16.41 34.94 C20.83 36.99, 27.5 39.93, 37.1 47.22" stroke="#a5d8ff" stroke-width="1" fill="none"></path></g><g transform="translate(959.9198647146314 343.7060657486163) rotate(0 18.684301952035412 23.716156473605224)"><path d="M30.66 22.78 C32.58 34.54, 36.09 42.3, 38.24 48.13 M29.96 24.5 C30.75 29.35, 33.88 35.02, 37.1 47.22" stroke="#a5d8ff" stroke-width="1" fill="none"></path></g></g><mask></mask><g stroke-linecap="round" transform="translate(927.7743055555558 405.7111111111117) rotate(0 75.72222222222229 34)"><path d="M17 0 C50.69 4.13, 85.17 0.89, 134.44 0 M17 0 C56.63 1.97, 99.86 2.9, 134.44 0 M134.44 0 C142.94 -1.35, 153.21 2.11, 151.44 17 M134.44 0 C145.17 -0.49, 151.82 3.66, 151.44 17 M151.44 17 C151.74 26.63, 152.15 29.99, 151.44 51 M151.44 17 C151.46 31.9, 150.38 44.68, 151.44 51 M151.44 51 C152.92 60.39, 147.63 65.24, 134.44 68 M151.44 51 C152.14 63.85, 142.06 64.24, 134.44 68 M134.44 68 C105.49 68.13, 81.21 69.76, 17 68 M134.44 68 C89.91 67.05, 46.82 66.89, 17 68 M17 68 C3.07 68.68, -3.37 61.05, 0 51 M17 68 C1.82 66.99, -4.16 66.52, 0 51 M0 51 C2.36 37.62, 3.06 33.34, 0 17 M0 51 C0.69 40.27, -0.84 30.83, 0 17 M0 17 C0.87 8.54, 2.55 -1.97, 17 0 M0 17 C-3.54 2.56, 4.06 1.02, 17 0" stroke="#a5d8ff" stroke-width="2" fill="none"></path></g><g transform="translate(937.9510718451609 410.9111111111115) rotate(0 65.54545593261713 28.800000000000182)"><text x="65.54545593261719" y="15.45" font-family="Cascadia, Segoe UI Emoji" font-size="16px" fill="#a5d8ff" text-anchor="middle" style="white-space: pre;" direction="ltr" dominant-baseline="alphabetic">EXTERNAL_NODE </text><text x="65.54545593261719" y="34.65" font-family="Cascadia, Segoe UI Emoji" font-size="16px" fill="#a5d8ff" text-anchor="middle" style="white-space: pre;" direction="ltr" dominant-baseline="alphabetic">Node C</text><text x="65.54545593261719" y="53.849999999999994" font-family="Cascadia, Segoe UI Emoji" font-size="16px" fill="#a5d8ff" text-anchor="middle" style="white-space: pre;" direction="ltr" dominant-baseline="alphabetic">Window 3</text></g><g stroke-linecap="round" transform="translate(705.7743055555558 403.7111111111117) rotate(0 75.72222222222229 34)"><path d="M17 0 C63.89 1.59, 105.22 -3.05, 134.44 0 M17 0 C57.05 -3.02, 100.82 -4.12, 134.44 0 M134.44 0 C145.25 -0.43, 151.77 3.92, 151.44 17 M134.44 0 C143.29 3.23, 154.68 5.46, 151.44 17 M151.44 17 C154.96 26.1, 149.11 40.32, 151.44 51 M151.44 17 C151.95 29.19, 152.14 41.95, 151.44 51 M151.44 51 C152.05 63.66, 142.54 64.73, 134.44 68 M151.44 51 C148.5 61.6, 145.4 66.58, 134.44 68 M134.44 68 C101.09 67.81, 61.86 67.17, 17 68 M134.44 68 C102.76 67.17, 71.99 66.19, 17 68 M17 68 C2.32 67.12, -3.62 65.98, 0 51 M17 68 C4.96 69.04, -0.19 65.23, 0 51 M0 51 C0.42 45.08, -3.4 38.66, 0 17 M0 51 C0.66 41.74, -1.34 28.62, 0 17 M0 17 C-3.08 2.96, 4.27 0.88, 17 0 M0 17 C-3.59 2.49, 3.23 3.67, 17 0" stroke="#a5d8ff" stroke-width="2" fill="none"></path></g><g transform="translate(715.9510718451609 408.9111111111115) rotate(0 65.54545593261719 28.800000000000182)"><text x="65.54545593261719" y="15.45" font-family="Cascadia, Segoe UI Emoji" font-size="16px" fill="#a5d8ff" text-anchor="middle" style="white-space: pre;" direction="ltr" dominant-baseline="alphabetic">EXTERNAL_NODE </text><text x="65.54545593261719" y="34.65" font-family="Cascadia, Segoe UI Emoji" font-size="16px" fill="#a5d8ff" text-anchor="middle" style="white-space: pre;" direction="ltr" dominant-baseline="alphabetic">Node B</text><text x="65.54545593261719" y="53.849999999999994" font-family="Cascadia, Segoe UI Emoji" font-size="16px" fill="#a5d8ff" text-anchor="middle" style="white-space: pre;" direction="ltr" dominant-baseline="alphabetic">window 2</text></g><g stroke-linecap="round"><g transform="translate(827.790134712847 246.35624541902143) rotate(0 -7.5 -18.5)"><path d="M1.06 0.58 C-2.97 -14.13, -10.75 -24.43, -16.78 -37.27 M-0.54 0.7 C-3.67 -10.81, -8.39 -21.41, -15.93 -36.13" stroke="#a5d8ff" stroke-width="1" fill="none"></path></g><g transform="translate(827.790134712847 246.35624541902143) rotate(0 -7.5 -18.5)"><path d="M-0.44 -21.75 C-4.37 -28.56, -11.95 -30.96, -17.71 -36.4 M-2.04 -21.63 C-4.99 -26.43, -9.55 -30.32, -16.87 -35.26" stroke="#a5d8ff" stroke-width="1" fill="none"></path></g><g transform="translate(827.790134712847 246.35624541902143) rotate(0 -7.5 -18.5)"><path d="M-12.69 -15.71 C-12.42 -24.48, -15.83 -28.93, -17.71 -36.4 M-14.29 -15.59 C-13.69 -22.08, -14.71 -27.72, -16.87 -35.26" stroke="#a5d8ff" stroke-width="1" fill="none"></path></g></g><mask></mask><g stroke-linecap="round"><g transform="translate(693.8737361973879 248.04516419629726) rotate(0 9 -17)"><path d="M2 -1.42 C3.18 -6.8, 6.12 -15.58, 17.79 -33.84 M0.7 -0.04 C5.11 -8.78, 8.48 -16.68, 17.46 -34.59" stroke="#a5d8ff" stroke-width="1" fill="none"></path></g><g transform="translate(693.8737361973879 248.04516419629726) rotate(0 9 -17)"><path d="M17.3 -16.84 C15.09 -18.92, 14.5 -24.32, 17.25 -34.44 M16.06 -15.51 C16.32 -20.33, 15.65 -24.45, 16.93 -35.16" stroke="#a5d8ff" stroke-width="1" fill="none"></path></g><g transform="translate(693.8737361973879 248.04516419629726) rotate(0 9 -17)"><path d="M5.49 -22.64 C5.97 -23.46, 8.02 -27.55, 17.25 -34.44 M4.25 -21.32 C7.51 -24.73, 9.86 -27.36, 16.93 -35.16" stroke="#a5d8ff" stroke-width="1" fill="none"></path></g></g><mask></mask><g stroke-linecap="round"><g transform="translate(811.8737361973879 386.04516419629726) rotate(0 9 -17)"><path d="M-0.68 0.88 C3.8 -11.33, 11.29 -22.09, 17.13 -35.08 M0.32 0.06 C5.49 -11.71, 12.55 -25.76, 18.19 -33.13" stroke="#a5d8ff" stroke-width="1" fill="none"></path></g><g transform="translate(811.8737361973879 386.04516419629726) rotate(0 9 -17)"><path d="M13.13 -13.56 C13.33 -20.79, 16.29 -26.54, 17.35 -34.17 M14.08 -14.35 C14.38 -20.5, 16.39 -28.84, 18.38 -32.29" stroke="#a5d8ff" stroke-width="1" fill="none"></path></g><g transform="translate(811.8737361973879 386.04516419629726) rotate(0 9 -17)"><path d="M2.13 -20.77 C6.02 -25.55, 12.6 -28.93, 17.35 -34.17 M3.08 -21.57 C7.51 -25.04, 13.59 -30.71, 18.38 -32.29" stroke="#a5d8ff" stroke-width="1" fill="none"></path></g></g><mask></mask><g stroke-linecap="round"><g transform="translate(952.3626412002164 384.4660698082407) rotate(0 -7.5 -18.5)"><path d="M-1.78 -0.27 C-3.52 -8.24, -7.62 -17.96, -13.59 -35.59 M-0.93 0.87 C-5.1 -11.52, -8.79 -20.99, -15.35 -36.32" stroke="#a5d8ff" stroke-width="1" fill="none"></path></g><g transform="translate(952.3626412002164 384.4660698082407) rotate(0 -7.5 -18.5)"><path d="M-3.58 -21.92 C-5.07 -24.79, -8.83 -29.39, -13.94 -34.91 M-2.73 -20.78 C-6.39 -26.57, -9.66 -29.44, -15.69 -35.63" stroke="#a5d8ff" stroke-width="1" fill="none"></path></g><g transform="translate(952.3626412002164 384.4660698082407) rotate(0 -7.5 -18.5)"><path d="M-16.17 -16.64 C-14.76 -20.77, -15.63 -26.58, -13.94 -34.91 M-15.33 -15.51 C-15.28 -22.86, -14.83 -27.29, -15.69 -35.63" stroke="#a5d8ff" stroke-width="1" fill="none"></path></g></g><mask></mask></svg>